<?xml version="1.0" encoding="utf-8"?>
<!-- Generator: Adobe Illustrator 15.0.0, SVG Export Plug-In . SVG Version: 6.00 Build 0)  -->
<!DOCTYPE svg PUBLIC "-//W3C//DTD SVG 1.1//EN" "http://www.w3.org/Graphics/SVG/1.1/DTD/svg11.dtd">
<svg version="1.1" id="Layer_1" xmlns="http://www.w3.org/2000/svg" xmlns:xlink="http://www.w3.org/1999/xlink" x="0px" y="0px"
	 width="1500px" height="500px" viewBox="0 0 1500 500" enable-background="new 0 0 1500 500" xml:space="preserve">
<g>
	<path d="M227.033,304.073c0,0.405,0,0.805,0,1.186c0,0.386,0.079,0.707,0.242,0.949c0.164,0.243,0.365,0.4,0.609,0.459
		c0.249,0.059,0.531,0.131,0.858,0.216h0.918c0.524,0,0.982-0.032,1.369-0.092c0.393-0.065,0.681-0.256,0.891-0.583
		c0.158-0.242,0.236-0.583,0.209-1.009c-0.021-0.426-0.026-0.845-0.026-1.251v-4.77v-26.029v-6.112c0-0.57,0-1.114,0-1.625
		c0-0.505-0.126-0.924-0.367-1.252c-0.164-0.203-0.426-0.333-0.792-0.393c-0.369-0.064-0.76-0.092-1.166-0.092
		c-0.079,0.039-0.185,0.06-0.301,0.06c-0.125,0-0.229,0.019-0.308,0.059c-0.367,0.085-0.655,0.249-0.852,0.491
		c-0.249,0.367-0.446,0.793-0.583,1.284c-0.144,0.491-0.334,0.937-0.583,1.343c-0.367,0.57-0.753,1.101-1.159,1.592
		c-0.406,0.485-0.897,0.918-1.468,1.284c-0.531,0.321-1.081,0.598-1.651,0.819c-0.57,0.229-1.16,0.438-1.775,0.642
		c-0.236,0.085-0.485,0.138-0.729,0.151c-0.248,0.026-0.47,0.059-0.673,0.098c-0.445,0.119-0.997,0.184-1.645,0.184
		c-0.661,0-1.146,0.099-1.474,0.302c-0.282,0.164-0.498,0.452-0.636,0.858c-0.15,0.406-0.178,0.852-0.098,1.343
		c0.046,0.203,0.064,0.381,0.064,0.518c0,0.145,0.041,0.274,0.12,0.399c0.249,0.452,0.694,0.682,1.35,0.701
		c0.648,0.02,1.322,0.033,2.011,0.033h4.651c0.485,0,0.943,0.013,1.368,0.032c0.434,0.02,0.788,0.132,1.076,0.335
		c0.242,0.203,0.374,0.438,0.393,0.701c0.026,0.268,0.07,0.582,0.157,0.949v21.757V304.073z"/>
	<path d="M261.002,304.073c0,0.405,0,0.805,0,1.186c0,0.386,0.079,0.707,0.249,0.949c0.164,0.243,0.367,0.4,0.609,0.459
		c0.242,0.059,0.53,0.131,0.852,0.216h0.917c0.53,0,0.989-0.032,1.375-0.092c0.387-0.065,0.681-0.256,0.885-0.583
		c0.164-0.242,0.235-0.583,0.216-1.009s-0.032-0.845-0.032-1.251v-4.77v-26.029v-6.112c0-0.57,0-1.114,0-1.625
		c0-0.505-0.119-0.924-0.368-1.252c-0.163-0.203-0.426-0.333-0.792-0.393c-0.369-0.064-0.753-0.092-1.159-0.092
		c-0.079,0.039-0.184,0.06-0.308,0.06c-0.118,0-0.223,0.019-0.303,0.059c-0.366,0.085-0.654,0.249-0.857,0.491
		c-0.242,0.367-0.438,0.793-0.576,1.284c-0.145,0.491-0.341,0.937-0.583,1.343c-0.367,0.57-0.76,1.101-1.159,1.592
		c-0.413,0.485-0.898,0.918-1.468,1.284c-0.532,0.321-1.081,0.598-1.65,0.819c-0.57,0.229-1.16,0.438-1.776,0.642
		c-0.242,0.085-0.485,0.138-0.727,0.151c-0.249,0.026-0.472,0.059-0.675,0.098c-0.445,0.119-1.002,0.184-1.651,0.184
		c-0.655,0-1.14,0.099-1.467,0.302c-0.281,0.164-0.498,0.452-0.642,0.858s-0.17,0.852-0.091,1.343
		c0.039,0.203,0.065,0.381,0.065,0.518c0,0.145,0.04,0.274,0.116,0.399c0.25,0.452,0.696,0.682,1.351,0.701
		c0.648,0.02,1.317,0.033,2.01,0.033h4.646c0.491,0,0.95,0.013,1.376,0.032c0.433,0.02,0.786,0.132,1.068,0.335
		c0.249,0.203,0.38,0.438,0.399,0.701c0.02,0.268,0.072,0.582,0.151,0.949v21.757V304.073z"/>
	<path d="M241.896,213.583c0.251,0.449,0.697,0.682,1.352,0.705c0.648,0.02,1.323,0.026,2.01,0.026h4.653
		c0.485,0,0.95,0.013,1.37,0.033c0.432,0.02,0.786,0.131,1.074,0.334c0.242,0.203,0.374,0.439,0.393,0.701
		c0.026,0.269,0.072,0.583,0.157,0.95v21.757v4.462c0,0.406,0,0.805,0,1.192s0.079,0.701,0.242,0.943
		c0.164,0.242,0.367,0.4,0.61,0.459c0.249,0.059,0.53,0.131,0.856,0.216h0.919c0.53,0,0.982-0.033,1.369-0.102
		c0.393-0.056,0.681-0.246,0.891-0.573c0.157-0.242,0.235-0.583,0.209-1.008c-0.02-0.426-0.028-0.845-0.028-1.251v-4.77v-26.028
		v-6.113c0-0.57,0-1.107,0-1.625c0-0.504-0.123-0.92-0.365-1.251c-0.164-0.2-0.426-0.33-0.793-0.393
		c-0.367-0.06-0.753-0.092-1.166-0.092c-0.079,0.042-0.184,0.059-0.301,0.059c-0.125,0-0.229,0.023-0.31,0.066
		c-0.365,0.075-0.653,0.242-0.85,0.488c-0.249,0.367-0.439,0.792-0.583,1.281c-0.144,0.491-0.334,0.94-0.583,1.346
		c-0.367,0.57-0.754,1.101-1.16,1.588c-0.406,0.488-0.897,0.917-1.467,1.284c-0.533,0.328-1.082,0.599-1.653,0.825
		c-0.562,0.223-1.158,0.439-1.773,0.639c-0.236,0.085-0.484,0.134-0.728,0.154c-0.242,0.016-0.472,0.052-0.675,0.095
		c-0.445,0.118-0.996,0.183-1.644,0.183c-0.655,0-1.146,0.098-1.474,0.298c-0.282,0.167-0.498,0.452-0.635,0.858
		c-0.151,0.406-0.177,0.858-0.099,1.346c0.044,0.203,0.065,0.377,0.065,0.518C241.78,213.328,241.82,213.459,241.896,213.583z"/>
	<path d="M236.526,183.811c0.289,0.039,0.563,0.069,0.825,0.092c0.262,0.02,0.524,0.068,0.767,0.147h0.367
		c0.125,0.045,0.262,0.045,0.425,0c0.164-0.036,0.347-0.017,0.55,0.065c0.125,0.04,0.328,0.062,0.61,0.062
		c0.282,0,0.511-0.022,0.675-0.062c0.157-0.042,0.34-0.052,0.517-0.029c0.184,0.02,0.352,0.009,0.524-0.036
		c0.485-0.079,0.948-0.141,1.402-0.181c0.446-0.039,0.891-0.141,1.343-0.304c0.413-0.118,0.832-0.243,1.282-0.367
		c0.447-0.125,0.838-0.281,1.162-0.488c0.249-0.161,0.498-0.314,0.766-0.459c0.262-0.141,0.498-0.298,0.701-0.458
		c0.773-0.534,1.494-1.222,2.175-2.081c0.668-0.852,1.212-1.729,1.611-2.626c0.164-0.364,0.321-0.741,0.465-1.13
		c0.138-0.384,0.288-0.783,0.452-1.189c0.085-0.324,0.164-0.662,0.249-1.009c0.079-0.347,0.164-0.681,0.241-1.012
		c0.159-0.524,0.264-1.068,0.309-1.615c0.04-0.55,0.118-1.107,0.243-1.681v-0.612c0.085-0.403,0.125-0.826,0.125-1.251
		c0-0.429,0.04-0.848,0.118-1.255v-0.668v-0.979c0.079-0.285,0.111-0.603,0.091-0.95s-0.026-0.681-0.026-1.005v-1.896
		c0-0.161,0-0.334,0-0.518c0-0.184-0.021-0.337-0.065-0.459c-0.079-0.246-0.085-0.521-0.026-0.829
		c0.059-0.301,0.052-0.577-0.033-0.822v-0.55c-0.039-0.203-0.053-0.419-0.026-0.642c0.013-0.226,0.007-0.436-0.033-0.642
		c-0.04-0.161-0.053-0.325-0.033-0.489c0.02-0.16-0.007-0.347-0.092-0.547c-0.079-0.449-0.133-0.897-0.151-1.346
		c-0.026-0.449-0.092-0.897-0.216-1.343c-0.079-0.328-0.158-0.661-0.209-1.015c-0.066-0.337-0.138-0.678-0.217-1.002
		c-0.203-0.57-0.386-1.121-0.55-1.648c-0.164-0.53-0.347-1.042-0.55-1.533c-1.022-2.319-2.57-4.121-4.645-5.405
		c-2.077-1.284-4.809-1.887-8.19-1.805c-0.288,0.043-0.55,0.059-0.792,0.059s-0.511,0.026-0.792,0.065
		c-0.577,0.121-1.134,0.216-1.684,0.305c-0.55,0.082-1.095,0.223-1.625,0.426c-1.867,0.819-3.328,1.815-4.363,2.991
		c-1.042,1.189-1.946,2.716-2.726,4.589c-0.282,0.609-0.484,1.254-0.609,1.923c-0.118,0.675-0.289,1.356-0.486,2.05
		c-0.084,0.203-0.117,0.42-0.09,0.643c0.02,0.223-0.013,0.432-0.092,0.642c-0.04,0.406-0.085,0.802-0.125,1.186
		c-0.039,0.393-0.079,0.786-0.125,1.195l-0.183,2.568v1.157c-0.08,0.331-0.099,0.727-0.059,1.195s0.059,0.881,0.059,1.251
		c0,0.321-0.02,0.662-0.059,1.009s-0.021,0.662,0.059,0.947c0.084,0.203,0.105,0.41,0.065,0.609c-0.039,0.206-0.039,0.39,0,0.547
		c0.04,0.209,0.04,0.423,0,0.646c-0.039,0.226-0.02,0.438,0.06,0.642c0,0.206,0,0.416,0,0.645c0,0.223,0.02,0.436,0.059,0.639
		c0.046,0.164,0.052,0.327,0.033,0.491c-0.021,0.157-0.007,0.321,0.033,0.484c0.079,0.449,0.144,0.897,0.184,1.343
		c0.038,0.449,0.098,0.901,0.182,1.35c0.165,0.652,0.303,1.274,0.426,1.861c0.126,0.589,0.31,1.173,0.55,1.743
		c0.486,1.264,1.063,2.427,1.711,3.482c0.655,1.061,1.468,1.956,2.451,2.689c0.196,0.164,0.413,0.298,0.635,0.399
		c0.229,0.102,0.439,0.229,0.643,0.396c0.57,0.328,1.166,0.593,1.769,0.792C235.183,183.404,235.832,183.604,236.526,183.811z
		 M231.888,171.71c-0.17-0.445-0.262-0.927-0.281-1.438c-0.02-0.508-0.085-1.006-0.217-1.494c-0.039-0.449-0.065-0.865-0.085-1.251
		c-0.02-0.393-0.052-0.789-0.098-1.196c-0.033-0.079-0.046-0.189-0.026-0.333c0.02-0.145,0.026-0.259,0.026-0.334v-1.104
		c-0.079-0.285-0.105-0.6-0.085-0.947c0.019-0.344,0.033-0.681,0.033-1.009v-1.831c0-0.209,0-0.39,0-0.55
		c0-0.164,0.02-0.305,0.052-0.429v-0.734c0-0.324,0.013-0.661,0.033-1.012c0.02-0.341,0.031-0.678,0.031-1.002
		c0.041-0.407,0.08-0.81,0.119-1.192c0.046-0.387,0.085-0.764,0.131-1.134c0.031-0.2,0.052-0.416,0.052-0.639
		c0-0.226,0.046-0.436,0.131-0.642c0.118-0.531,0.229-1.048,0.334-1.56c0.098-0.511,0.249-0.986,0.452-1.435
		c0.452-1.141,1.009-2.149,1.683-3.027c0.675-0.875,1.56-1.556,2.661-2.047c0.281-0.121,0.556-0.212,0.825-0.275
		c0.262-0.059,0.563-0.131,0.883-0.213c0.126-0.04,0.281-0.052,0.493-0.029c0.203,0.02,0.341-0.01,0.426-0.092
		c1.178,0,2.175,0.111,2.993,0.334c0.814,0.226,1.548,0.563,2.203,1.009c1.014,0.733,1.821,1.68,2.416,2.843
		c0.585,1.159,1.024,2.476,1.312,3.938c0.282,1.467,0.465,3.04,0.55,4.71c0.085,1.67,0.118,3.38,0.118,5.133
		c0,1.671-0.033,3.341-0.118,5.009c-0.085,1.67-0.329,3.161-0.733,4.465c-0.079,0.324-0.159,0.632-0.217,0.914
		c-0.059,0.285-0.15,0.573-0.275,0.855c-0.281,0.694-0.57,1.284-0.852,1.772c-0.289,0.484-0.636,1.019-1.043,1.589
		c-0.241,0.246-0.45,0.409-0.607,0.491c-0.079,0.075-0.164,0.161-0.242,0.242c-0.085,0.085-0.184,0.164-0.308,0.246
		c-0.655,0.448-1.389,0.792-2.203,1.038c-0.241,0.082-0.503,0.131-0.791,0.154c-0.288,0.02-0.577,0.068-0.858,0.15
		c-0.249,0.082-0.585,0.102-1.009,0.059c-0.426-0.036-0.721-0.075-0.885-0.121c-0.203-0.079-0.374-0.111-0.517-0.088
		c-0.144,0.02-0.302-0.01-0.465-0.092c-1.297-0.406-2.378-1.019-3.23-1.834c-0.779-0.816-1.363-1.69-1.744-2.627
		C232.569,174.01,232.208,172.932,231.888,171.71z"/>
	<path d="M270.751,152.399c0.491,0,0.95,0.01,1.376,0.03s0.786,0.134,1.068,0.334c0.249,0.206,0.38,0.442,0.4,0.7
		c0.02,0.269,0.065,0.587,0.15,0.95v21.757v4.461c0,0.41,0,0.803,0,1.187c0,0.393,0.079,0.707,0.249,0.953
		c0.164,0.243,0.367,0.397,0.607,0.456c0.244,0.063,0.526,0.134,0.854,0.219h0.917c0.531,0,0.99-0.032,1.376-0.102
		c0.387-0.055,0.682-0.249,0.885-0.573c0.162-0.246,0.235-0.58,0.216-1.009s-0.033-0.845-0.033-1.251v-4.769V149.71v-6.113
		c0-0.566,0-1.107,0-1.625c0-0.504-0.118-0.921-0.367-1.248c-0.164-0.203-0.426-0.334-0.793-0.396
		c-0.367-0.059-0.753-0.092-1.16-0.092c-0.08,0.043-0.183,0.059-0.308,0.059c-0.118,0-0.223,0.026-0.301,0.065
		c-0.367,0.075-0.655,0.243-0.858,0.488c-0.243,0.367-0.439,0.792-0.583,1.28c-0.138,0.492-0.334,0.941-0.577,1.347
		c-0.367,0.573-0.76,1.101-1.16,1.588c-0.413,0.488-0.899,0.917-1.468,1.285c-0.531,0.328-1.081,0.599-1.657,0.822
		c-0.563,0.229-1.153,0.442-1.769,0.642c-0.243,0.085-0.492,0.135-0.728,0.154c-0.249,0.016-0.472,0.049-0.682,0.091
		c-0.445,0.121-0.996,0.187-1.644,0.187c-0.656,0-1.14,0.102-1.468,0.298c-0.282,0.164-0.498,0.456-0.642,0.858
		c-0.144,0.406-0.17,0.858-0.092,1.346c0.04,0.203,0.066,0.376,0.066,0.521c0,0.141,0.039,0.272,0.118,0.396
		c0.249,0.449,0.694,0.681,1.35,0.704c0.648,0.02,1.317,0.029,2.011,0.029H270.751z"/>
	<path d="M173.947,213.583c0.249,0.449,0.694,0.682,1.35,0.705c0.648,0.02,1.323,0.026,2.011,0.026h4.645
		c0.491,0,0.95,0.013,1.376,0.033c0.431,0.02,0.786,0.131,1.068,0.334c0.249,0.203,0.38,0.439,0.399,0.701
		c0.02,0.269,0.072,0.583,0.151,0.95v21.757v4.462c0,0.406,0,0.805,0,1.192s0.079,0.701,0.249,0.943
		c0.164,0.242,0.367,0.4,0.609,0.459c0.243,0.059,0.531,0.131,0.852,0.216h0.917c0.531,0,0.989-0.033,1.376-0.102
		c0.387-0.056,0.679-0.246,0.884-0.573c0.164-0.242,0.236-0.583,0.215-1.008c-0.018-0.426-0.032-0.845-0.032-1.251v-4.77v-26.028
		v-6.113c0-0.57,0-1.107,0-1.625c0-0.504-0.118-0.92-0.367-1.251c-0.157-0.2-0.419-0.33-0.792-0.393
		c-0.367-0.06-0.753-0.092-1.16-0.092c-0.079,0.042-0.183,0.059-0.31,0.059c-0.117,0-0.221,0.023-0.3,0.066
		c-0.367,0.075-0.655,0.242-0.858,0.488c-0.244,0.367-0.438,0.792-0.577,1.281c-0.144,0.491-0.34,0.94-0.583,1.346
		c-0.367,0.57-0.755,1.101-1.16,1.588c-0.412,0.488-0.897,0.917-1.467,1.284c-0.53,0.328-1.081,0.599-1.651,0.825
		c-0.57,0.223-1.16,0.439-1.775,0.639c-0.243,0.085-0.485,0.134-0.727,0.154c-0.249,0.016-0.472,0.052-0.675,0.095
		c-0.446,0.118-0.996,0.183-1.651,0.183s-1.14,0.098-1.467,0.298c-0.282,0.167-0.498,0.452-0.635,0.858
		c-0.151,0.406-0.177,0.858-0.099,1.346c0.046,0.203,0.066,0.377,0.066,0.518C173.829,213.328,173.868,213.459,173.947,213.583z"/>
	<path d="M232.556,235.672c0.079-0.34,0.164-0.681,0.243-1.009c0.164-0.531,0.268-1.068,0.308-1.618
		c0.04-0.551,0.123-1.107,0.243-1.677v-0.616c0.085-0.406,0.125-0.819,0.125-1.251c0-0.425,0.038-0.845,0.125-1.25v-0.675v-0.976
		c0.078-0.282,0.104-0.603,0.084-0.95c-0.02-0.347-0.027-0.681-0.027-1.002v-1.899c0-0.157,0-0.334,0-0.518
		c0-0.183-0.018-0.333-0.057-0.458c-0.087-0.243-0.092-0.518-0.033-0.829c0.059-0.298,0.053-0.573-0.033-0.822v-0.55
		c-0.039-0.196-0.053-0.419-0.026-0.642c0.011-0.223,0.005-0.433-0.032-0.642c-0.04-0.157-0.053-0.321-0.033-0.485
		c0.026-0.164-0.006-0.351-0.091-0.551c-0.079-0.452-0.131-0.897-0.151-1.35c-0.02-0.445-0.092-0.891-0.216-1.336
		c-0.079-0.331-0.151-0.665-0.209-1.012c-0.066-0.344-0.138-0.681-0.217-1.009c-0.203-0.566-0.386-1.117-0.55-1.654
		c-0.166-0.521-0.348-1.032-0.55-1.523c-1.017-2.319-2.562-4.124-4.646-5.405c-2.076-1.284-4.808-1.887-8.182-1.805
		c-0.294,0.042-0.557,0.059-0.799,0.059c-0.244,0-0.511,0.023-0.792,0.066c-0.571,0.121-1.135,0.216-1.684,0.305
		c-0.55,0.078-1.088,0.223-1.618,0.425c-1.874,0.819-3.335,1.815-4.37,2.994c-1.035,1.183-1.946,2.712-2.719,4.586
		c-0.288,0.613-0.491,1.251-0.609,1.926c-0.125,0.668-0.289,1.353-0.492,2.047c-0.079,0.204-0.111,0.413-0.092,0.635
		c0.02,0.229-0.013,0.436-0.091,0.643c-0.04,0.413-0.081,0.806-0.125,1.189c-0.04,0.396-0.079,0.79-0.119,1.196l-0.183,2.568v1.16
		c-0.085,0.328-0.105,0.727-0.065,1.192s0.065,0.881,0.065,1.251c0,0.324-0.026,0.662-0.065,1.009s-0.02,0.662,0.065,0.95
		c0.079,0.203,0.099,0.406,0.059,0.609s-0.04,0.387,0,0.547c0.04,0.206,0.04,0.416,0,0.645c-0.04,0.223-0.02,0.439,0.059,0.636
		c0,0.209,0,0.419,0,0.648c0,0.223,0.02,0.439,0.065,0.642c0.04,0.164,0.053,0.321,0.025,0.485
		c-0.018,0.161-0.006,0.327,0.035,0.491c0.079,0.446,0.144,0.898,0.184,1.343c0.039,0.445,0.104,0.897,0.183,1.343
		c0.164,0.655,0.308,1.278,0.426,1.867c0.125,0.59,0.308,1.173,0.55,1.743c0.491,1.265,1.062,2.424,1.71,3.479
		c0.655,1.062,1.467,1.959,2.45,2.693c0.195,0.164,0.413,0.295,0.642,0.399c0.223,0.099,0.433,0.226,0.636,0.393
		c0.57,0.328,1.166,0.589,1.775,0.793c0.609,0.209,1.264,0.406,1.952,0.616c0.289,0.04,0.563,0.072,0.832,0.085
		c0.262,0.026,0.518,0.079,0.76,0.154h0.367c0.125,0.042,0.269,0.042,0.426,0c0.164-0.036,0.345-0.017,0.557,0.068
		c0.118,0.04,0.321,0.06,0.603,0.06c0.289,0,0.511-0.02,0.675-0.06c0.164-0.045,0.34-0.052,0.518-0.033
		c0.184,0.02,0.354,0.007,0.524-0.036c0.492-0.076,0.957-0.144,1.409-0.18c0.445-0.04,0.891-0.144,1.336-0.308
		c0.413-0.118,0.838-0.243,1.291-0.367c0.445-0.128,0.832-0.282,1.153-0.485c0.248-0.164,0.504-0.321,0.766-0.458
		c0.263-0.144,0.498-0.298,0.708-0.459c0.766-0.53,1.494-1.225,2.168-2.083c0.668-0.852,1.212-1.73,1.611-2.621
		c0.162-0.367,0.321-0.747,0.466-1.133c0.144-0.387,0.294-0.787,0.458-1.193C232.391,236.354,232.471,236.019,232.556,235.672z
		 M228.094,229.651c-0.085,1.671-0.327,3.158-0.735,4.461c-0.077,0.328-0.149,0.636-0.214,0.918
		c-0.061,0.288-0.15,0.576-0.269,0.858c-0.288,0.694-0.577,1.284-0.858,1.769c-0.288,0.492-0.636,1.022-1.035,1.592
		c-0.249,0.243-0.452,0.406-0.616,0.492c-0.08,0.075-0.164,0.157-0.242,0.242c-0.085,0.079-0.184,0.164-0.308,0.242
		c-0.65,0.445-1.382,0.792-2.195,1.042c-0.249,0.079-0.511,0.131-0.799,0.151c-0.281,0.02-0.57,0.072-0.858,0.151
		c-0.243,0.085-0.577,0.104-1.002,0.059c-0.433-0.033-0.728-0.079-0.891-0.118c-0.203-0.079-0.373-0.111-0.518-0.092
		c-0.144,0.02-0.295-0.006-0.458-0.092c-1.304-0.406-2.385-1.022-3.236-1.834c-0.78-0.813-1.356-1.691-1.743-2.627
		c-0.387-0.937-0.741-2.018-1.068-3.236c-0.172-0.452-0.255-0.924-0.275-1.441c-0.026-0.504-0.092-1.002-0.216-1.494
		c-0.046-0.445-0.072-0.865-0.091-1.251c-0.02-0.39-0.053-0.786-0.092-1.192c-0.04-0.079-0.052-0.197-0.026-0.341
		c0.013-0.137,0.026-0.252,0.026-0.334v-1.101c-0.079-0.282-0.112-0.596-0.092-0.943c0.02-0.347,0.031-0.682,0.031-1.009v-1.834
		c0-0.207,0-0.387,0-0.55s0.021-0.301,0.061-0.426v-0.734c0-0.327,0.006-0.661,0.026-1.012c0.026-0.344,0.033-0.678,0.033-1.006
		c0.046-0.406,0.079-0.809,0.125-1.192c0.038-0.386,0.085-0.76,0.125-1.133c0.04-0.203,0.059-0.413,0.059-0.636
		c0-0.229,0.039-0.438,0.125-0.645c0.118-0.527,0.229-1.045,0.334-1.556c0.098-0.511,0.255-0.986,0.458-1.438
		c0.452-1.136,1.002-2.148,1.684-3.023c0.669-0.875,1.553-1.56,2.66-2.047c0.282-0.122,0.55-0.213,0.819-0.275
		c0.262-0.059,0.563-0.131,0.884-0.213c0.125-0.039,0.289-0.052,0.492-0.029c0.203,0.02,0.347-0.01,0.432-0.092
		c1.18,0,2.175,0.112,2.994,0.334c0.813,0.226,1.545,0.563,2.195,1.009c1.015,0.737,1.821,1.684,2.417,2.843
		c0.589,1.157,1.029,2.477,1.311,3.938c0.281,1.464,0.465,3.037,0.55,4.707c0.085,1.671,0.118,3.381,0.118,5.136
		C228.212,226.316,228.18,227.987,228.094,229.651z"/>
	<path d="M300.508,235.672c0.079-0.34,0.164-0.681,0.242-1.009c0.164-0.531,0.267-1.068,0.308-1.618
		c0.039-0.551,0.125-1.107,0.241-1.677v-0.616c0.087-0.406,0.126-0.819,0.126-1.251c0-0.425,0.039-0.845,0.125-1.25v-0.675v-0.976
		c0.079-0.282,0.112-0.603,0.092-0.95c-0.026-0.347-0.026-0.681-0.026-1.002v-1.899c0-0.157,0-0.334,0-0.518
		c0-0.183-0.026-0.333-0.065-0.458c-0.085-0.243-0.091-0.518-0.033-0.829c0.064-0.298,0.052-0.573-0.033-0.822v-0.55
		c-0.033-0.196-0.052-0.419-0.026-0.642c0.02-0.223,0.006-0.433-0.033-0.642c-0.039-0.157-0.052-0.321-0.026-0.485
		c0.02-0.164-0.013-0.351-0.1-0.551c-0.077-0.452-0.129-0.897-0.149-1.35c-0.02-0.445-0.092-0.891-0.216-1.336
		c-0.079-0.331-0.15-0.665-0.21-1.012c-0.059-0.344-0.137-0.681-0.216-1.009c-0.203-0.566-0.387-1.117-0.55-1.654
		c-0.157-0.521-0.34-1.032-0.55-1.523c-1.016-2.319-2.562-4.124-4.646-5.405c-2.076-1.284-4.809-1.887-8.182-1.805
		c-0.289,0.042-0.55,0.059-0.801,0.059c-0.24,0-0.509,0.023-0.791,0.066c-0.57,0.121-1.133,0.216-1.684,0.305
		c-0.55,0.078-1.087,0.223-1.618,0.425c-1.874,0.819-3.328,1.815-4.37,2.994c-1.036,1.183-1.945,2.712-2.718,4.586
		c-0.282,0.613-0.492,1.251-0.61,1.926c-0.118,0.668-0.288,1.353-0.485,2.047c-0.085,0.204-0.118,0.413-0.098,0.635
		c0.02,0.229-0.006,0.436-0.085,0.643c-0.046,0.413-0.085,0.806-0.131,1.189c-0.033,0.396-0.079,0.79-0.12,1.196l-0.182,2.568v1.16
		c-0.085,0.328-0.1,0.727-0.065,1.192c0.046,0.465,0.065,0.881,0.065,1.251c0,0.324-0.02,0.662-0.065,1.009
		c-0.034,0.347-0.02,0.662,0.065,0.95c0.085,0.203,0.098,0.406,0.065,0.609c-0.046,0.203-0.046,0.387,0,0.547
		c0.033,0.206,0.033,0.416,0,0.645c-0.046,0.223-0.028,0.439,0.052,0.636c0,0.209,0,0.419,0,0.648c0,0.223,0.026,0.439,0.064,0.642
		c0.041,0.164,0.055,0.321,0.034,0.485c-0.02,0.161-0.013,0.327,0.033,0.491c0.079,0.446,0.138,0.898,0.184,1.343
		c0.032,0.445,0.098,0.897,0.183,1.343c0.157,0.655,0.301,1.278,0.42,1.867c0.13,0.59,0.314,1.173,0.55,1.743
		c0.491,1.265,1.061,2.424,1.709,3.479c0.653,1.062,1.474,1.959,2.451,2.693c0.203,0.164,0.412,0.295,0.642,0.399
		c0.221,0.099,0.433,0.226,0.634,0.393c0.578,0.328,1.168,0.589,1.777,0.793c0.616,0.209,1.264,0.406,1.959,0.616
		c0.288,0.04,0.557,0.072,0.825,0.085c0.262,0.026,0.518,0.079,0.758,0.154h0.369c0.125,0.042,0.269,0.042,0.433,0
		c0.164-0.036,0.347-0.017,0.55,0.068c0.118,0.04,0.319,0.06,0.607,0.06c0.283,0,0.506-0.02,0.669-0.06
		c0.163-0.045,0.341-0.052,0.518-0.033c0.183,0.02,0.36,0.007,0.524-0.036c0.491-0.076,0.956-0.144,1.408-0.18
		c0.445-0.04,0.891-0.144,1.341-0.308c0.408-0.118,0.834-0.243,1.286-0.367c0.445-0.128,0.832-0.282,1.159-0.485
		c0.242-0.164,0.497-0.321,0.767-0.458c0.262-0.144,0.498-0.298,0.701-0.459c0.773-0.53,1.494-1.225,2.169-2.083
		c0.675-0.852,1.212-1.73,1.618-2.621c0.164-0.367,0.321-0.747,0.458-1.133c0.144-0.387,0.295-0.787,0.459-1.193
		C300.351,236.354,300.429,236.019,300.508,235.672z M296.046,229.651c-0.085,1.671-0.321,3.158-0.734,4.461
		c-0.079,0.328-0.151,0.636-0.216,0.918c-0.052,0.288-0.151,0.576-0.269,0.858c-0.282,0.694-0.57,1.284-0.858,1.769
		c-0.288,0.492-0.637,1.022-1.035,1.592c-0.249,0.243-0.452,0.406-0.616,0.492c-0.078,0.075-0.164,0.157-0.244,0.242
		c-0.078,0.079-0.182,0.164-0.306,0.242c-0.649,0.445-1.383,0.792-2.195,1.042c-0.249,0.079-0.511,0.131-0.799,0.151
		c-0.282,0.02-0.57,0.072-0.852,0.151c-0.249,0.085-0.583,0.104-1.009,0.059c-0.434-0.033-0.72-0.079-0.884-0.118
		c-0.203-0.079-0.382-0.111-0.52-0.092c-0.149,0.02-0.299-0.006-0.463-0.092c-1.297-0.406-2.378-1.022-3.236-1.834
		c-0.775-0.813-1.356-1.691-1.736-2.627c-0.393-0.937-0.747-2.018-1.074-3.236c-0.164-0.452-0.256-0.924-0.275-1.441
		c-0.02-0.504-0.091-1.002-0.216-1.494c-0.04-0.445-0.066-0.865-0.092-1.251c-0.02-0.39-0.052-0.786-0.091-1.192
		c-0.04-0.079-0.046-0.197-0.026-0.341c0.013-0.137,0.026-0.252,0.026-0.334v-1.101c-0.079-0.282-0.112-0.596-0.094-0.943
		c0.028-0.347,0.035-0.682,0.035-1.009v-1.834c0-0.207,0-0.387,0-0.55s0.02-0.301,0.059-0.426v-0.734
		c0-0.327,0.013-0.661,0.033-1.012c0.018-0.344,0.032-0.678,0.032-1.006c0.04-0.406,0.079-0.809,0.119-1.192
		c0.039-0.386,0.085-0.76,0.125-1.133c0.039-0.203,0.059-0.413,0.059-0.636c0-0.229,0.04-0.438,0.125-0.645
		c0.123-0.527,0.229-1.045,0.334-1.556c0.105-0.511,0.256-0.986,0.458-1.438c0.452-1.136,1.008-2.148,1.684-3.023
		c0.668-0.875,1.558-1.56,2.66-2.047c0.282-0.122,0.557-0.213,0.819-0.275c0.262-0.059,0.564-0.131,0.891-0.213
		c0.116-0.039,0.282-0.052,0.485-0.029c0.202,0.02,0.347-0.01,0.433-0.092c1.179,0,2.175,0.112,2.994,0.334
		c0.812,0.226,1.546,0.563,2.195,1.009c1.015,0.737,1.827,1.684,2.417,2.843c0.59,1.157,1.028,2.477,1.311,3.938
		c0.282,1.464,0.465,3.037,0.55,4.707c0.083,1.671,0.125,3.381,0.125,5.136C296.171,226.316,296.13,227.987,296.046,229.651z"/>
	<path d="M300.056,293.171v-20.021v-6.112c0-0.57,0-1.114,0-1.625c0-0.505-0.125-0.924-0.367-1.252
		c-0.164-0.203-0.426-0.333-0.792-0.393c-0.367-0.064-0.754-0.092-1.167-0.092c-0.079,0.039-0.183,0.06-0.302,0.06
		c-0.125,0-0.229,0.019-0.308,0.059c-0.367,0.085-0.655,0.249-0.853,0.491c-0.248,0.367-0.438,0.793-0.582,1.284
		c-0.137,0.491-0.333,0.937-0.583,1.343c-0.369,0.57-0.753,1.101-1.16,1.592c-0.406,0.485-0.892,0.918-1.467,1.284
		c-0.531,0.321-1.081,0.598-1.651,0.819c-0.565,0.229-1.16,0.438-1.769,0.642c-0.242,0.085-0.491,0.138-0.733,0.151
		c-0.242,0.026-0.472,0.059-0.675,0.098c-0.446,0.119-0.996,0.184-1.645,0.184c-0.655,0-1.146,0.099-1.467,0.302
		c-0.29,0.164-0.498,0.452-0.642,0.858c-0.145,0.406-0.171,0.852-0.092,1.343c0.04,0.203,0.059,0.381,0.059,0.518
		c0,0.145,0.046,0.274,0.125,0.399c0.243,0.452,0.687,0.682,1.343,0.701c0.655,0.02,1.323,0.033,2.018,0.033h4.646
		c0.484,0,0.949,0.013,1.375,0.032c0.426,0.02,0.786,0.132,1.068,0.335c0.243,0.203,0.374,0.438,0.399,0.701
		c0.02,0.268,0.066,0.582,0.151,0.949v19.563C296.726,296.06,298.416,294.646,300.056,293.171z"/>
	<path d="M200.355,272.383c0.588,1.16,1.029,2.477,1.311,3.944s0.465,3.033,0.55,4.704c0.077,1.507,0.105,3.046,0.111,4.611h5.451
		v-1.375c0-0.164,0-0.334,0-0.519c0-0.183-0.02-0.34-0.059-0.457c-0.085-0.249-0.092-0.519-0.033-0.826
		c0.066-0.309,0.053-0.583-0.034-0.825v-0.551c-0.031-0.203-0.051-0.413-0.024-0.642c0.02-0.224,0.006-0.439-0.033-0.643
		c-0.04-0.163-0.053-0.321-0.026-0.484c0.02-0.164-0.013-0.348-0.098-0.551c-0.079-0.452-0.131-0.897-0.151-1.35
		c-0.02-0.445-0.092-0.891-0.216-1.337c-0.079-0.333-0.153-0.667-0.21-1.015c-0.065-0.341-0.137-0.682-0.218-1.009
		c-0.201-0.57-0.385-1.121-0.548-1.645c-0.164-0.531-0.347-1.042-0.55-1.533c-1.015-2.319-2.562-4.121-4.645-5.405
		c-2.079-1.283-4.809-1.887-8.183-1.802c-0.289,0.039-0.55,0.06-0.799,0.06c-0.243,0-0.511,0.019-0.792,0.059
		c-0.57,0.124-1.134,0.229-1.684,0.309c-0.55,0.078-1.087,0.222-1.618,0.425c-1.874,0.82-3.328,1.815-4.37,2.994
		c-1.035,1.186-1.946,2.713-2.718,4.587c-0.289,0.616-0.492,1.251-0.609,1.926c-0.125,0.668-0.288,1.355-0.491,2.05
		c-0.079,0.204-0.112,0.413-0.092,0.636c0.02,0.229-0.015,0.439-0.091,0.642c-0.04,0.406-0.079,0.807-0.125,1.193
		c-0.033,0.387-0.08,0.786-0.118,1.192l-0.184,2.567v1.16c-0.085,0.327-0.098,0.727-0.065,1.192c0.036,0.367,0.043,0.675,0.05,0.976
		h5.394v-1.435c0-0.203,0-0.386,0-0.55c0-0.163,0.018-0.309,0.059-0.426v-0.734c0-0.327,0.007-0.661,0.033-1.008
		c0.02-0.348,0.026-0.683,0.026-1.01c0.044-0.413,0.078-0.806,0.125-1.192c0.039-0.386,0.085-0.767,0.125-1.127
		c0.039-0.209,0.059-0.419,0.059-0.648c0-0.223,0.04-0.433,0.125-0.643c0.118-0.523,0.229-1.048,0.334-1.559
		c0.098-0.504,0.253-0.983,0.458-1.436c0.452-1.133,1.009-2.142,1.684-3.026c0.668-0.871,1.559-1.553,2.66-2.044
		c0.282-0.117,0.55-0.21,0.819-0.274c0.263-0.06,0.564-0.132,0.892-0.217c0.118-0.032,0.281-0.046,0.484-0.025
		c0.203,0.019,0.347-0.007,0.433-0.093c1.179,0,2.175,0.111,2.994,0.335c0.812,0.222,1.546,0.563,2.194,1.008
		C198.954,270.273,199.766,271.224,200.355,272.383z"/>
	<path d="M164.349,236.681c0.085-0.327,0.164-0.662,0.249-1.009c0.079-0.34,0.164-0.681,0.243-1.009
		c0.164-0.531,0.269-1.068,0.308-1.618c0.04-0.551,0.125-1.107,0.242-1.677v-0.616c0.085-0.406,0.125-0.819,0.125-1.251
		c0-0.425,0.04-0.845,0.125-1.25v-0.675v-0.976c0.079-0.282,0.105-0.603,0.084-0.95c-0.018-0.347-0.025-0.681-0.025-1.002v-1.899
		c0-0.157,0-0.334,0-0.518c0-0.183-0.02-0.333-0.059-0.458c-0.085-0.243-0.091-0.518-0.032-0.829
		c0.059-0.298,0.052-0.573-0.033-0.822v-0.55c-0.039-0.196-0.052-0.419-0.026-0.642c0.013-0.223,0.006-0.433-0.033-0.642
		c-0.039-0.157-0.052-0.321-0.032-0.485c0.026-0.164-0.007-0.351-0.092-0.551c-0.08-0.452-0.13-0.897-0.15-1.35
		c-0.02-0.445-0.092-0.891-0.218-1.336c-0.077-0.331-0.149-0.665-0.208-1.012c-0.067-0.344-0.138-0.681-0.216-1.009
		c-0.203-0.566-0.386-1.117-0.552-1.654c-0.162-0.521-0.346-1.032-0.549-1.523c-1.016-2.319-2.562-4.124-4.645-5.405
		c-2.077-1.284-4.809-1.887-8.189-1.805c-0.288,0.042-0.55,0.059-0.792,0.059c-0.242,0-0.511,0.023-0.793,0.066
		c-0.57,0.121-1.133,0.216-1.683,0.305c-0.429,0.062-0.849,0.193-1.263,0.331c-0.545,2.421-1.007,4.868-1.361,7.354
		c0.196-0.317,0.388-0.645,0.612-0.933c0.668-0.875,1.553-1.56,2.653-2.047c0.288-0.122,0.557-0.213,0.826-0.275
		c0.262-0.059,0.563-0.131,0.884-0.213c0.125-0.039,0.289-0.052,0.491-0.029c0.203,0.02,0.348-0.01,0.426-0.092
		c1.186,0,2.182,0.112,2.994,0.334c0.813,0.226,1.553,0.563,2.202,1.009c1.015,0.737,1.821,1.684,2.417,2.843
		c0.583,1.157,1.028,2.477,1.31,3.938c0.282,1.464,0.465,3.037,0.549,4.707c0.087,1.671,0.12,3.381,0.12,5.136
		c0,1.671-0.033,3.341-0.12,5.005c-0.083,1.671-0.326,3.158-0.732,4.461c-0.079,0.328-0.151,0.636-0.217,0.918
		c-0.059,0.288-0.151,0.576-0.275,0.858c-0.282,0.694-0.57,1.284-0.852,1.769c-0.289,0.492-0.636,1.022-1.042,1.592
		c-0.242,0.243-0.445,0.406-0.609,0.492c-0.079,0.075-0.164,0.157-0.242,0.242c-0.087,0.079-0.184,0.164-0.308,0.242
		c-0.649,0.445-1.389,0.792-2.202,1.042c-0.242,0.079-0.506,0.131-0.792,0.151c-0.282,0.02-0.57,0.072-0.858,0.151
		c-0.243,0.085-0.583,0.104-1.003,0.059c-0.432-0.033-0.727-0.079-0.891-0.118c-0.203-0.079-0.374-0.111-0.518-0.092
		c-0.144,0.02-0.294-0.006-0.458-0.092c-1.304-0.406-2.385-1.022-3.236-1.834c-0.343-0.357-0.629-0.73-0.895-1.114
		c0.375,2.339,0.829,4.648,1.375,6.925c0.439,0.141,0.873,0.282,1.348,0.426c0.289,0.04,0.564,0.072,0.833,0.085
		c0.26,0.026,0.517,0.079,0.76,0.154h0.367c0.125,0.042,0.269,0.042,0.426,0c0.164-0.036,0.347-0.017,0.55,0.068
		c0.125,0.04,0.328,0.06,0.609,0.06c0.282,0,0.511-0.02,0.675-0.06c0.164-0.045,0.341-0.052,0.518-0.033
		c0.184,0.02,0.354,0.007,0.524-0.036c0.485-0.076,0.957-0.144,1.402-0.18c0.452-0.04,0.897-0.144,1.343-0.308
		c0.413-0.118,0.838-0.243,1.284-0.367c0.452-0.128,0.839-0.282,1.158-0.485c0.251-0.164,0.5-0.321,0.769-0.458
		c0.262-0.144,0.497-0.298,0.701-0.459c0.771-0.53,1.5-1.225,2.175-2.083c0.668-0.852,1.211-1.73,1.611-2.621
		c0.164-0.367,0.321-0.747,0.465-1.133C164.035,237.487,164.19,237.087,164.349,236.681z"/>
	<path d="M168.575,183.811c0.288,0.039,0.557,0.069,0.826,0.092c0.262,0.02,0.516,0.068,0.76,0.147h0.367
		c0.125,0.045,0.269,0.045,0.433,0c0.164-0.036,0.347-0.017,0.55,0.065c0.118,0.04,0.328,0.062,0.609,0.062
		c0.282,0,0.504-0.022,0.668-0.062c0.164-0.042,0.341-0.052,0.518-0.029c0.184,0.02,0.36,0.009,0.529-0.036
		c0.487-0.079,0.952-0.141,1.404-0.181c0.445-0.039,0.891-0.141,1.343-0.304c0.406-0.118,0.833-0.243,1.285-0.367
		c0.444-0.125,0.832-0.281,1.159-0.488c0.249-0.161,0.498-0.314,0.767-0.459c0.262-0.141,0.498-0.298,0.701-0.458
		c0.773-0.534,1.494-1.222,2.168-2.081c0.673-0.852,1.212-1.729,1.619-2.626c0.164-0.364,0.319-0.741,0.457-1.13
		c0.144-0.384,0.296-0.783,0.46-1.189c0.085-0.324,0.164-0.662,0.249-1.009c0.079-0.347,0.157-0.681,0.235-1.012
		c0.164-0.524,0.269-1.068,0.313-1.615c0.034-0.55,0.12-1.107,0.237-1.681v-0.612c0.085-0.403,0.131-0.826,0.131-1.251
		c0-0.429,0.033-0.848,0.118-1.255v-0.668v-0.979c0.077-0.285,0.112-0.603,0.092-0.95c-0.026-0.347-0.026-0.681-0.026-1.005v-1.896
		c0-0.161,0-0.334,0-0.518c0-0.184-0.026-0.337-0.066-0.459c-0.085-0.246-0.091-0.521-0.032-0.829
		c0.065-0.301,0.052-0.577-0.035-0.822v-0.55c-0.031-0.203-0.05-0.419-0.024-0.642c0.02-0.226,0.006-0.436-0.026-0.642
		c-0.046-0.161-0.053-0.325-0.033-0.489c0.02-0.16-0.013-0.347-0.098-0.547c-0.079-0.449-0.13-0.897-0.15-1.346
		c-0.02-0.449-0.087-0.897-0.216-1.343c-0.079-0.328-0.152-0.661-0.21-1.015c-0.059-0.337-0.13-0.678-0.209-1.002
		c-0.21-0.57-0.393-1.121-0.551-1.648c-0.164-0.53-0.347-1.042-0.557-1.533c-0.117-0.265-0.264-0.498-0.393-0.75
		c-1.5,1.048-2.969,2.139-4.404,3.272c0.367,0.901,0.682,1.857,0.886,2.916c0.288,1.467,0.472,3.04,0.55,4.71
		c0.085,1.67,0.123,3.38,0.123,5.133c0,1.671-0.038,3.341-0.123,5.009c-0.079,1.67-0.321,3.161-0.734,4.465
		c-0.079,0.324-0.15,0.632-0.209,0.914c-0.059,0.285-0.158,0.573-0.275,0.855c-0.282,0.694-0.57,1.284-0.858,1.772
		c-0.288,0.484-0.628,1.019-1.035,1.589c-0.249,0.246-0.452,0.409-0.616,0.491c-0.079,0.075-0.158,0.161-0.236,0.242
		c-0.085,0.085-0.184,0.164-0.314,0.246c-0.648,0.448-1.382,0.792-2.194,1.038c-0.251,0.082-0.511,0.131-0.799,0.154
		c-0.282,0.02-0.572,0.068-0.854,0.15c-0.248,0.082-0.582,0.102-1.007,0.059c-0.426-0.036-0.721-0.075-0.884-0.121
		c-0.205-0.079-0.38-0.111-0.518-0.088c-0.151,0.02-0.301-0.01-0.465-0.092c-1.297-0.406-2.378-1.019-3.237-1.834
		c-0.773-0.816-1.355-1.69-1.736-2.627c-0.395-0.94-0.747-2.018-1.074-3.24c-0.164-0.445-0.256-0.927-0.275-1.438
		c-0.021-0.508-0.091-1.006-0.216-1.494c-0.04-0.449-0.066-0.865-0.087-1.251c-0.021-0.351-0.049-0.705-0.087-1.064
		c-1.612,2.093-3.144,4.251-4.578,6.479c0.056,0.249,0.122,0.514,0.172,0.753c0.125,0.589,0.308,1.173,0.55,1.743
		c0.485,1.264,1.055,2.427,1.708,3.482c0.657,1.061,1.469,1.956,2.446,2.689c0.203,0.164,0.419,0.298,0.642,0.399
		s0.433,0.229,0.642,0.396c0.57,0.328,1.158,0.593,1.769,0.792C167.231,183.404,167.88,183.604,168.575,183.811z"/>
	<path d="M210.864,153.553l-5.071,8.036v14.583v4.461c0,0.41,0,0.803,0,1.187c0,0.393,0.079,0.707,0.249,0.953
		c0.158,0.243,0.367,0.397,0.603,0.456c0.249,0.063,0.531,0.134,0.858,0.219h0.917c0.531,0,0.982-0.032,1.376-0.102
		c0.386-0.055,0.681-0.249,0.884-0.573c0.164-0.246,0.236-0.58,0.216-1.009c-0.027-0.429-0.032-0.845-0.032-1.251v-4.769V153.553z"
		/>
	<path d="M308.029,184.177c0.282,0,0.511-0.022,0.673-0.062c0.159-0.042,0.342-0.052,0.519-0.029
		c0.182,0.02,0.354,0.009,0.524-0.036c0.485-0.079,0.957-0.141,1.402-0.181c0.445-0.039,0.891-0.141,1.343-0.304
		c0.411-0.118,0.838-0.243,1.284-0.367s0.839-0.281,1.16-0.488c0.249-0.161,0.498-0.314,0.765-0.459
		c0.264-0.141,0.499-0.298,0.702-0.458c0.773-0.534,1.494-1.222,2.175-2.081c0.367-0.468,0.688-0.946,0.978-1.431
		c-1.093-1.972-2.236-3.911-3.463-5.795c-0.05,0.216-0.103,0.436-0.148,0.629c-0.059,0.285-0.151,0.573-0.275,0.855
		c-0.282,0.694-0.57,1.284-0.852,1.772c-0.289,0.484-0.636,1.019-1.042,1.589c-0.243,0.246-0.446,0.409-0.609,0.491
		c-0.079,0.075-0.164,0.161-0.242,0.242c-0.085,0.085-0.184,0.164-0.31,0.246c-0.654,0.448-1.389,0.792-2.2,1.038
		c-0.243,0.082-0.504,0.131-0.793,0.154c-0.288,0.02-0.577,0.068-0.858,0.15c-0.243,0.082-0.583,0.102-1.002,0.059
		c-0.433-0.036-0.729-0.075-0.891-0.121c-0.204-0.079-0.374-0.111-0.518-0.088c-0.144,0.02-0.303-0.01-0.458-0.092
		c-1.304-0.406-2.385-1.019-3.236-1.834c-0.78-0.816-1.363-1.69-1.743-2.627c-0.387-0.94-0.747-2.018-1.068-3.24
		c-0.17-0.445-0.255-0.927-0.281-1.438c-0.02-0.508-0.087-1.006-0.216-1.494c-0.039-0.449-0.065-0.865-0.085-1.251
		c-0.02-0.393-0.053-0.789-0.098-1.196c-0.033-0.079-0.046-0.189-0.026-0.333c0.02-0.145,0.026-0.259,0.026-0.334v-1.104
		c-0.079-0.285-0.106-0.6-0.085-0.947c0.02-0.344,0.033-0.681,0.033-1.009v-2.381c0-0.164,0.02-0.305,0.053-0.429v-0.734
		c0-0.324,0.013-0.661,0.031-1.012c0.021-0.341,0.034-0.678,0.034-1.002c0.04-0.407,0.079-0.81,0.118-1.192
		c0.046-0.387,0.085-0.764,0.129-1.134c0.035-0.2,0.061-0.416,0.061-0.639c0-0.226,0.039-0.436,0.125-0.642
		c0.001-0.007,0.003-0.014,0.003-0.02c-1.468-1.304-2.991-2.548-4.539-3.761c-0.097,0.315-0.236,0.613-0.293,0.937
		c-0.124,0.675-0.288,1.356-0.491,2.05c-0.085,0.203-0.111,0.42-0.092,0.643s-0.013,0.432-0.091,0.642
		c-0.04,0.406-0.085,0.802-0.126,1.186c-0.038,0.393-0.077,0.786-0.123,1.195l-0.184,2.568v1.157
		c-0.079,0.331-0.098,0.727-0.059,1.195c0.04,0.468,0.059,0.881,0.059,1.251c0,0.321-0.02,0.662-0.059,1.009
		c-0.039,0.347-0.02,0.662,0.059,0.947c0.085,0.203,0.105,0.41,0.065,0.609c-0.041,0.206-0.041,0.39,0,0.547
		c0.04,0.209,0.04,0.423,0,0.646c-0.041,0.226-0.02,0.438,0.059,0.642v0.645c0,0.223,0.02,0.436,0.059,0.639
		c0.046,0.164,0.052,0.327,0.032,0.491c-0.02,0.157-0.006,0.321,0.033,0.484c0.079,0.449,0.144,0.897,0.184,1.343
		c0.039,0.449,0.098,0.901,0.183,1.35c0.164,0.652,0.308,1.274,0.426,1.861c0.125,0.589,0.308,1.173,0.55,1.743
		c0.485,1.264,1.061,2.427,1.71,3.482c0.655,1.061,1.468,1.956,2.449,2.689c0.198,0.164,0.415,0.298,0.637,0.399
		c0.229,0.102,0.439,0.229,0.642,0.396c0.57,0.328,1.166,0.593,1.775,0.792c0.609,0.207,1.258,0.406,1.952,0.613
		c0.289,0.039,0.563,0.069,0.832,0.092c0.262,0.02,0.518,0.068,0.76,0.147h0.367c0.125,0.045,0.262,0.045,0.426,0
		c0.162-0.036,0.347-0.017,0.55,0.065C307.544,184.155,307.747,184.177,308.029,184.177z"/>
	<path d="M306.87,221.756c0.034-0.022,0.073-0.039,0.107-0.062l-0.107-0.19V221.756z"/>
	<path d="M315.273,209.335c0.67-0.875,1.555-1.56,2.653-2.047c0.289-0.122,0.557-0.213,0.828-0.275
		c0.262-0.059,0.563-0.131,0.884-0.213c0.125-0.039,0.282-0.052,0.492-0.029c0.203,0.02,0.347-0.01,0.426-0.092
		c1.179,0,2.175,0.112,2.994,0.334c0.811,0.226,1.546,0.563,2.201,1.009c1.016,0.737,1.819,1.684,2.417,2.843
		c0.167,0.331,0.297,0.705,0.439,1.062h1.911c-0.319-2.571-0.758-5.107-1.282-7.609c-0.167-0.115-0.316-0.249-0.491-0.357
		c-2.077-1.284-4.809-1.887-8.189-1.805c-0.288,0.042-0.55,0.059-0.793,0.059c-0.242,0-0.511,0.023-0.792,0.066
		c-0.57,0.121-1.133,0.216-1.684,0.305c-0.55,0.078-1.094,0.223-1.618,0.425c-1.874,0.819-3.335,1.815-4.37,2.994
		c-1.042,1.183-1.946,2.712-2.726,4.586c-0.196,0.426-0.301,0.881-0.417,1.337h5.639
		C314.206,210.97,314.685,210.092,315.273,209.335z"/>
	<polygon points="121.751,33.189 123.356,35.771 122.583,33.766 121.123,31.788 121.581,32.904 	"/>
	<polygon points="98.958,49.729 96.62,49.778 91.713,49.896 97.223,49.876 	"/>
	<polygon points="110.514,49.807 107.122,49.476 105.458,49.761 107.115,49.751 	"/>
	<polygon points="125.165,49.155 128.65,49.106 126.226,48.68 123.428,48.956 124.785,49.155 	"/>
	<path d="M217.875,47.632l9.139-0.036l0.136-0.003l0.065,0.131l-0.123,0.003l-4.694,0.006l-0.072,0.243h4.772l0.241-0.003
		l0.13,0.255l-0.449-0.006l-4.765-0.003l-0.087,0.298L208.226,82.96l0.075,0.036c-0.322,0.79-0.575,1.37-0.817,1.93
		c-0.374,0.865-0.726,1.68-1.299,3.154l0.064,0.03l-0.588,1.412c0.845,1.186,1.751,2.477,2.607,3.695
		c1.325,1.883,2.524,3.593,3.166,4.442l-0.067,0.055l2.681,3.695l-0.128,0.095c0.089,0.125,0.182,0.256,0.278,0.394
		c0.242,0.16,0.444,0.426,0.712,0.779l0.875,1.418c0.026,0.036,0.052,0.072,0.077,0.108l0.141-0.098l5.411,7.561l0.252-0.439
		l4.416-7.973l0.04-0.056l4.213-7.4l3.682-6.486l9.804-15.593l0.944-1.444l1.457-2.693l4.121-6.921l4.488-8.238l4.134-7.079
		l1.822-3.135l1.205-2.063l0.708-1.418l0.629-1.231l3.943-7.718l2.739-4.897l0.97-1.74l1.448-2.667l-0.872,0.95l-1.769,2.103
		l-0.433,0.586l-3.269,4.904l-0.858,1.491l-4.167,7.354l-3.99,6.846l-1.111,1.89l0.336-0.603l-6.845,0.122l-5.372-0.158l-4.153-0.18
		l-3.394-0.118l-5.724,0.039l-0.031-0.065l-0.052-0.063l5.65-0.032l-0.295-0.321l-5.569,0.102l-0.363-0.436l-0.867,0.105
		c-0.141,0.016-0.28,0.036-0.431,0.042l-1.942,0.085l0.133,0.265l-0.565,0.01l-9.737,0.108l-8.836-0.006l-1.134,0.016l1.441,0.042
		L217.875,47.632z M236.382,47.917l7.705,0.292l0.144,0.003l-9.071,0.164l-4.066-0.079l-0.166-0.347L236.382,47.917z"/>
	<polygon points="340.131,264.227 344.036,270.896 344.547,271.747 343.951,270.633 339.73,263.309 335.663,256.43 331.496,249.384 
		331.385,249.758 335.748,256.915 	"/>
	<polygon points="374.507,353.896 378.68,360.946 378.791,360.572 374.421,353.405 370.039,346.1 366.14,339.418 365.629,338.572 
		366.219,339.692 370.445,347.018 	"/>
	<path d="M380.062,363.73l-1.402-2.621l-4.219-7.102l-4.049-6.886l-4.16-7.05l-4.782-7.77l-0.026-0.065l-4.37-7.318l-0.016-0.026
		l-1.188-2.083l1.276,2.077l0.891,1.009l-0.498-0.931l-4.632-7.704l-1.753-2.738l-4.425-7.777l-4.33-7.6l-0.321-0.963l-4.004-6.99
		l-2.419-3.882l-6.869-12.058c-0.052,0.092-0.113,0.18-0.164,0.271l-1.468-2.499l-1.192-2.058l-0.897-1.317l-0.767-1.159
		l-4.763-7.232l-2.922-4.796l-1.029-1.684l-1.605-2.585l0.387,1.229l0.963,2.575l0.301,0.668l2.647,5.247l0.884,1.488l4.344,7.245
		l3.965,6.765c-18.467,30.878-52.171,51.603-90.772,51.603c-21.109,0-40.708-6.276-57.206-16.942l10.654-19.255l1.976-0.131
		l2.014,0.046l1.995,0.19l0.439,0.045l1.952-0.399l0.039-0.137v-0.053l-2.09-0.092l-2.129,0.014l-0.753-0.145h0.753l2.149-0.02
		l2.175-0.06l1.809,0.164l2.011,0.145l1.205,0.098l0.983-0.229l2.463-0.185l2.391-0.091l1.769-0.177l-1.631-0.099l-2.477,0.177
		l-1.008,0.072l-1.52,0.145l-2.339,0.124l-1.854-0.145l-0.969-0.098l-0.799-0.072l-2.221,0.065l-2.142,0.026l-2.195,0.046
		l-1.63,0.111l0.234-0.426l-12.084,0.223l-1.661-0.033l-0.927,0.079l-47.148,0.858l-31.191,0.573l-0.924-0.187l-0.465-0.007h-2.267
		l-2.125-0.06l-2.022-0.085l-1.837-0.17l-1.949-0.105l-2.267,0.06l-2.486,0.164l-2.447,0.085l-2.326,0.059h-0.282l-1.88,0.053
		l-2.219,0.065l-2.013-0.125l-1.985-0.262l-0.439-0.065l-1.965,0.327l-0.046,0.132v0.053l2.083,0.177l2.129,0.065l0.747,0.17
		l-0.753-0.026l-2.146-0.059l-2.177-0.032l-1.803-0.23l-2.001-0.222l-1.203-0.139l-0.989,0.19l-2.47,0.085l-2.391,0.007
		l-1.776,0.105l1.628,0.157l2.483-0.079l1.009-0.039l1.526-0.085l2.339-0.027l1.844,0.21l0.971,0.138l0.794,0.099l2.218,0.026
		l2.149,0.053l0.916,0.019l-1.914,0.033l-1.141-0.026l-2.195-0.025l0.065,0.209l1.443-0.026l31.822,52.863l31.392,52.134
		l-0.819,1.202l-0.695,0.989l-0.298,0.963l-1.084,2.222l-1.124,2.108l-0.739,1.619l0.899-1.363l1.097-2.228l0.446-0.903l0.646-1.39
		l1.071-2.076l0.688-0.997l0.416,0.689l10.954-19.803l0.975-1.608l0.539-1.13l0.503-0.907c5.254,3.197,9.065,5.215,9.065,5.215
		c25,13.267,53.491,20.827,83.767,20.827c51.932,0,98.673-22.104,131.411-57.388l1.033,1.818l3.499,6.531l0.773,1.461l4.121,6.002
		l0.262,0.071l0.059-0.032l-0.033-0.053l-3.773-6.748l-3.99-6.853l-1.226-2.489l1.394,2.391l4.037,6.898l4.147,6.991l3.184,5.942
		l3.151,5.752c0.052-0.047,0.111-0.093,0.164-0.138l-3.119-5.727L380.062,363.73z"/>
	<polygon points="218.293,117.52 222.186,110.844 222.67,109.969 222.001,111.047 217.698,118.325 213.708,125.247 209.62,132.339 
		210.006,132.264 214.094,124.939 	"/>
	<polygon points="287.591,23.975 286.887,25.242 285.387,27.797 287.084,25.351 	"/>
	<polygon points="278.122,41.919 279.484,40.252 280.479,38.001 279.74,38.958 279.576,39.243 	"/>
	<path d="M254.851,81.186l-4.104,7.465l-1.642,2.899c0.026,0.016,0.046,0.03,0.072,0.046l2.152-3.748l3.902-6.974l3.99-7.154
		l-0.38,0.089L254.851,81.186z"/>
	<polygon points="47.068,293.256 48.365,293.282 48.771,293.204 48.211,293.216 	"/>
	<polygon points="50.298,293.275 50.681,293.275 51.477,293.328 50.688,293.099 	"/>
	<polygon points="54.835,293.02 54.926,293.02 55.734,293.008 55.182,292.725 54.517,292.883 	"/>
	<polygon points="215.535,291.887 216.092,291.854 217.235,291.769 215.938,291.795 	"/>
	<polygon points="212.825,291.867 213.622,292.064 214.009,291.873 213.622,291.887 	"/>
	<polygon points="209.39,292.307 208.584,292.353 209.145,292.607 209.806,292.431 209.481,292.3 	"/>
	<polygon points="194.027,291.848 191.957,291.861 191.695,291.873 192.032,291.906 194.302,291.926 196.451,291.887 
		198.646,291.834 198.569,291.624 196.32,291.756 	"/>
	<polygon points="122.632,413.344 123.265,412.218 123.384,411.817 123.137,412.315 	"/>
	<polygon points="124.168,410.507 124.349,410.167 124.77,409.492 124.198,410.075 	"/>
	<polygon points="126.495,405.58 125.987,405.941 125.807,406.604 126.082,406.38 126.125,406.302 	"/>
	<polygon points="43.242,275.79 43.141,276.189 44.359,276.655 45.335,276.478 46.219,276.274 46.855,276.15 45.674,275.915 	"/>
	<polygon points="52.735,276.714 50.877,276.858 52.565,276.838 52.804,276.779 53.275,276.714 	"/>
	<polygon points="56.989,276.616 57.396,276.616 57.465,276.536 56.989,276.432 53.138,276.569 53.174,276.576 	"/>
	<path d="M71.529,222.451c0.026,0.003,0.042,0.003,0.056,0.003c0.534,0,0.968,0.151,1.631,0.508l0.971,0.305l-0.001,0.458
		c0.11-0.026,0.218-0.056,0.336-0.056l1.72,0.266l-0.069,0.209c0.062,0.023,0.124,0.046,0.191,0.066l-0.029,0.095
		c0.097,0.052,0.196,0.108,0.3,0.164c0.577,0.321,1.229,0.685,1.998,0.911l-0.062,0.242c0.572,0.207,0.978,0.364,1.229,0.73
		c0.041,0.01,0.082,0.023,0.117,0.03c0.426-0.023,0.734,0.082,1.736,0.553l0.061-0.111c0.578,0.278,1.05,0.475,1.507,0.662
		c0.28,0.118,0.555,0.229,0.843,0.357c0.072,0.007,0.149,0.02,0.238,0.039l1.118-0.949c-0.088-0.177-0.182-0.384-0.296-0.655
		l0.123-0.072c-0.077-0.177-0.138-0.266-0.206-0.367h-0.067l-0.167-0.37c-0.089-0.164-0.182-0.36-0.278-0.628l-0.059-0.171
		l-0.01-0.029l0.082-0.026c-0.311-0.596-0.406-0.718-0.73-1.127l-2.925-3.79l1.259,0.458c-0.39-0.511-0.735-1.37-1.247-2.641
		l-0.283-0.691l0.075-0.033c-0.616-1.14-1.089-2.332-1.547-3.495c-0.254-0.642-0.508-1.288-0.787-1.916l-0.185-0.417l0.1-0.347
		c-0.082-0.105-0.177-0.203-0.296-0.324c-0.313-0.321-0.74-0.756-1.08-1.549l0.108-0.069c-0.765-1.657-1.095-2.47-1.706-3.97
		l-0.553-1.36l-0.323-0.819c-0.03-0.285-0.252-0.842-0.522-1.441c-0.611,0.38-1.209,0.75-1.793,1.114
		c-1.301,0.803-2.541,1.569-3.725,2.342c0.202,0.953,0.405,1.762,0.609,2.578c0.393,1.569,0.799,3.19,1.207,5.834l-0.137,0.026
		L71.529,222.451z"/>
	<path d="M68.373,200.697c0.277-0.121,0.475-0.193,0.646-0.239c0.811-0.515,1.74-1.068,2.722-1.638
		c0.152-0.203,0.404-0.413,0.776-0.675c-0.184-0.403-0.329-0.816-0.493-1.225l-0.114,0.052l-0.429-0.832l0.188-0.105
		c-0.004-0.016-0.013-0.033-0.018-0.046l-0.267-0.003l-0.547-1.258c-0.498-1.114-0.81-1.864-0.796-2.539
		c-0.17-0.314-0.344-0.655-0.438-0.94l0.749-0.737l-1.194,0.383c-0.367-1.022-0.883-2.221-1.382-3.387
		c-0.739-1.716-1.435-3.341-1.674-4.402c-0.316-0.56-0.717-1.32-1.11-2.064c-0.008-0.013-0.015-0.029-0.023-0.042
		c0.636,3.869,1.222,7.767,1.809,11.665c0.403,2.676,0.806,5.356,1.225,8.022l-0.008,0.288
		C68.123,200.88,68.206,200.798,68.373,200.697z"/>
	<path d="M71.212,246.544l-0.037-0.659l-0.275-1.317l-0.65,0.557c-0.044,0.029-0.087,0.062-0.129,0.091L71.212,246.544z"/>
	<path d="M73.693,236.747c2.204-1.772,4.789-3.938,7.271-6.038L80,230.375l-0.01-0.246c-0.214-0.125-0.436-0.275-0.606-0.475
		c-0.845-0.37-1.6-0.619-2.392-0.877c-0.675-0.223-1.354-0.449-2.098-0.748l-0.115-0.046l0.02-0.102
		c-0.814-0.367-1.358-0.488-1.98-0.625l0.009-0.157c-0.341-0.138-0.462-0.167-0.608-0.197l0.98,6.309l-0.149-0.079L73.693,236.747z"
		/>
	<path d="M93.731,236.589c0.317-0.144,0.648-0.302,0.991-0.462c-0.506-0.2-1.017-0.406-1.53-0.639L93.731,236.589z"/>
	<path d="M72.989,272.068l-0.351-0.006c-0.288,0.098-1.056,0.366-2.735,1.009c-0.089,0.144-1.418,0.544-1.609,0.675
		c0.403-0.043,2.044-0.361,2.541-0.42l0.312-0.035l0.029-0.004l0.002,0.02c1.227-0.177,2.532-0.354,3.859-0.53
		c-0.016-0.216-0.01-0.36,0.003-0.511c0.007-0.086-0.021-0.341-0.087-0.754c-0.244,0.099-0.493,0.196-0.749,0.295
		C73.562,272.006,73.257,272.068,72.989,272.068z"/>
	<path d="M80.108,243.032c3.274-1.506,4.968-2.355,6.692-3.22c0.967-0.485,1.949-0.976,3.23-1.595
		c-0.129-0.312-0.219-0.577-0.255-0.826c-0.085-0.209-0.151-0.396-0.233-0.632c-0.087-0.137-0.232-0.419-0.352-0.753l0.274-0.134
		l-0.213,0.075c-0.276-0.773-0.925-1.809-1.398-2.565l-0.261-0.419c-0.085-0.026-0.169-0.046-0.252-0.069h-0.031
		c-0.375,0-0.703-0.137-1.122-0.337l0.062-0.17c-0.131-0.069-0.277-0.142-0.518-0.256l-1.375,1.14
		c-3.433,2.84-6.743,5.579-9.976,8.324c0.139,1.065,0.316,2.287,0.52,3.613c1.61-0.829,4.055-1.894,5.167-2.28L80.108,243.032z"/>
	<path d="M100.865,197.67c0.049,0.18,0.126,0.439,0.238,0.803c0.828,2.348,1.053,2.843,1.259,3.292
		c0.22,0.479,0.421,0.908,1.229,3.26c1.226,1.294,2.433,2.562,3.636,3.819c3.028-2.516,6.188-5.16,10.089-8.622
		c0.708-0.556,0.993-0.782,1.346-0.842l1.759-1.536l-5.238-8.399l-0.037,0.02l-0.882-1.49l0.044-0.026
		c-0.63-1.12-1.359-2.368-2.18-3.725l-0.313,0.144c-0.973-1.51-1.343-2.148-1.258-2.722c-0.419-0.678-0.839-1.363-1.265-2.051
		c-3.814,2.519-7.649,4.802-11.049,6.823l-0.675,0.403c0.742,2.31,1.573,4.796,2.578,7.465l-0.247,0.099
		C100.701,196.586,100.934,197.268,100.865,197.67z"/>
	<path d="M131.175,208.257c0.172,0.203,0.394,0.518,0.666,0.924c0.211-1.583,0.502-3.142,0.782-4.701l-1.709,3.243l0.056,0.128
		l-0.018,0.033C131.012,207.985,131.087,208.11,131.175,208.257z"/>
	<path d="M128.79,211.753l-2.816,5.339l-0.1-0.052c-0.102,0.18-0.217,0.383-0.336,0.593c-0.975,1.709-1.376,2.391-1.626,2.722
		c-0.012,0.023-0.021,0.046-0.031,0.066c-0.016,0.445-0.365,1.136-1.309,2.977c1.969-0.917,3.826-1.818,5.544-2.653l2.923-1.406
		c0.046-1.248,0.072-2.502,0.161-3.741l-1.127-1.778C129.546,212.984,129.125,212.309,128.79,211.753z"/>
	<path d="M111.505,227.692c0.111,0.357,0.201,0.645,0.255,0.894c1.69-0.806,3.356-1.608,4.884-2.355l0.489-0.957
		c-2.714-2.844-3.67-3.878-3.915-4.311l-2.508-2.667c-0.634-0.625-1.336-1.346-2.098-2.172l0.044-0.046l-0.144-0.184
		c-0.426-0.461-0.928-0.992-1.458-1.546c-0.041,0.033-0.083,0.066-0.127,0.102l1.312,3.862c0.247,0.364,0.484,1.006,0.894,2.11
		l-0.135,0.056l0.082-0.013c0.079,0.351,0.577,1.834,1.094,3.394c0.434,1.307,0.883,2.66,1.135,3.485L111.505,227.692z"/>
	<path d="M110.943,174.77l0.027,0.042c0.392-0.209,0.822-0.465,1.297-0.76l-2.596-0.76c0.283,0.452,0.616,0.992,1.012,1.641
		L110.943,174.77z"/>
	<path d="M93.673,176.535c0.106,0.265,0.195,0.485,0.27,0.665c0.421,0.255,0.625,0.747,0.785,1.136l0.285,0.688l-0.075,0.095
		c0.061,0.193,0.137,0.426,0.226,0.691l0.131-0.04l1.41,3.977c0.282-0.275,0.729-0.576,1.367-1.005l0.411,0.337l-0.161-0.429
		c0.3-0.137,1.302-0.75,1.872-1.094l0.747-0.688l4.039-1.897c0.907-0.616,1.405-0.969,1.679-1.169
		c0.141-0.282,0.44-0.541,0.964-0.901c-1.099-1.782-2.187-3.554-3.2-5.242c-1.415-0.438-4.061-1.231-6.704-2.024l-3.977-1.199
		l-0.021,0.065c-0.889-0.259-1.746-0.508-2.578-0.75c0.237,0.671,0.529,1.563,0.918,2.804c0.069,0.183,0.13,0.347,0.179,0.495
		l0.042,0.114c0.051,0.164,0.049,0.292,0.062,0.426c0.125,0.37,0.256,0.76,0.375,1.101l0.479,1.333l-0.326,0.118
		C93.184,175.035,93.474,175.88,93.673,176.535z"/>
	<path d="M77.712,199.02c-0.065,0.065-0.145,0.137-0.252,0.229l0.141,0.328l0.039-0.02l0.563,1.251l0.616,0.907l-0.189,0.108
		c0.118,0.174,0.234,0.38,0.335,0.629c0.593,1.572,0.69,1.952,0.826,2.476c0.052,0.207,0.111,0.436,0.214,0.783
		c0.367,0.41,0.623,1.035,0.912,1.746c0.128,0.314,0.342,0.835,0.438,0.973l0.382,0.255l-0.071,0.255
		c0.403,1.366,1.158,3.069,1.958,4.871c0.454,1.025,0.917,2.07,1.332,3.092l-0.054,0.026c0.02,0.062,0.039,0.118,0.059,0.167
		l1.033-0.58l-0.571,1.32c0.238,0.321,0.514,0.737,0.776,1.438l-0.084,0.04c0.46,1.35,1.471,3.42,2.354,5.038
		c4.103-3.462,7.295-6.086,9.445-7.636c1.505-1.326,2.984-2.587,4.444-3.815l-0.89-2.444l0.046-0.315
		c-0.046-0.072-0.429-1.241-0.659-1.942l-0.053-0.16l-3.033-2.991l0.212-0.22c-0.331-0.399-0.619-0.759-0.797-1.1
		c-1.338-1.373-2.831-2.932-4.599-4.861l0.103-0.102c-1.453-1.523-2.853-2.833-3.213-3.105l-0.337-0.386
		c-0.079-0.121-0.563-0.721-1.766-2.067c-1.379,0.917-2.508,1.588-3.557,2.214c-1.073,0.635-2.064,1.225-3.171,1.991l-0.406-0.566
		c0,0-0.003,0-0.005,0.003l0.241,0.616c-0.256,0.114-1.203,0.662-2.113,1.182L77.712,199.02z"/>
	<path d="M113.234,150.51c-0.678,0.177-1.731,0.37-3.351,0.668c-1.707,0.315-4.044,0.747-4.381,0.842l-0.013-0.046
		c-0.085,0.02-0.154,0.036-0.199,0.049l-0.047-0.16l-0.074,0.232l-1.368,0.014c-0.479,0.091-0.968,0.18-1.456,0.271
		c-1.688,0.314-3.515,0.655-4.842,0.914c0.641,0.911,1.639,2.522,3.394,5.369l-0.07,0.045c0.082,0.17,0.278,0.514,0.463,0.842
		c0.229,0.407,0.405,0.714,0.513,0.98c1.417,2.135,4.024,6.283,5.549,8.877c0.322,0.102,0.609,0.2,0.968,0.321l2.219,0.73
		c0.257,0.075,0.487,0.141,0.691,0.2h0.275c0.193,0,0.303,0.013,1.335,0.301c1.44,0.446,2.278,0.704,2.747,0.966
		c1.418-0.911,3.11-1.972,5.095-3.141l0.074,0.121l2.15-1.392l0.026,0.039c1.308-0.717,1.84-1.068,2.419-1.451
		c0.631-0.416,1.315-0.868,2.929-1.775l0.126,0.209l1.266-0.865l-9.77-14.243c-0.275,0.056-0.485,0.105-0.609,0.151l-0.308,0.079
		c-1.564,0.193-1.714,0.219-3.2,0.452L113.234,150.51z"/>
	<path d="M95.431,157.441c-0.767-1.183-1.461-2.257-1.802-2.859c-0.112-0.131-0.226-0.289-0.354-0.482l-6.738,1.098l-0.003-0.023
		l-0.098,0.016c0.178,0.527,0.378,1.134,0.611,1.854c0.171,0.442,0.322,0.822,0.452,1.136l0.221-0.082
		c0.685,1.848,0.911,2.771,0.929,3.299c0.428,1.225,0.735,2.054,0.975,2.66c1.883,0.57,3.755,1.141,5.009,1.553
		c1.045,0.265,3.605,1.025,6.258,1.814l1.271,0.374c-0.098-0.174-0.196-0.347-0.29-0.514c-0.252-0.262-0.537-0.691-0.996-1.379
		c-0.187-0.281-0.36-0.543-0.462-0.688l-1.67-2.077l0.381-0.007c-0.198-0.281-0.357-0.491-0.506-0.684
		c-0.092-0.121-0.185-0.252-0.277-0.377l-0.046,0.026c-0.465-0.721-0.669-1.068-0.907-1.478l-0.333-0.57l0.033-0.02
		C96.566,159.194,95.983,158.293,95.431,157.441z"/>
	<path d="M98.13,233.808c0.31,0.108,0.568,0.22,0.783,0.328c0.887-0.403,1.741-0.767,2.489-1.032l0.121,0.301l0.932-0.38
		c1.533-0.724,2.119-1.035,2.341-1.169c0.262-0.361,0.693-0.574,1.498-0.954c0.621-0.193,0.803-0.239,1.018-0.239h0.062l1.242-0.59
		l-0.145-0.432l0.229-0.076c-0.033-0.095-0.062-0.187-0.091-0.275l-0.331,0.111l-2.709-7.688l0.113-0.039
		c-0.376-1.065-0.771-2.143-1.176-3.25l-0.653-1.802l-2.262,1.789c-0.248,0.331-0.682,0.727-1.342,1.33
		c-0.201,0.184-0.403,0.367-0.576,0.527l0.093,0.121c-1.553,1.245-1.81,1.425-2.329,1.425c-0.087,0.072-0.194,0.147-0.285,0.226
		c-0.284,0.514-1,1.117-2.314,2.23c-0.015,0.01-0.028,0.022-0.041,0.036l0.125,0.164c-1.576,1.33-3.109,2.611-4.614,3.865
		c0.332,0.852,0.683,1.72,1.05,2.601l0.588,0.216c0.138,0.105,0.318,0.17,0.474,0.255l0.045-0.128l0.989,0.351l-0.075,0.223
		c0.318,0.114,0.637,0.229,0.994,0.34c0.954,0.301,2.034,0.645,3.143,1.268L98.13,233.808z"/>
	<path d="M124.29,226.831l3.518,3.717l0.287,0.561c0.968,1.015,1.436,1.428,1.865,1.805c0.433,0.383,0.845,0.753,1.599,1.556
		c-0.373-3.524-0.614-7.088-0.632-10.708L124.29,226.831z"/>
	<path d="M92.683,270.522c0.465-0.815,0.899-1.566,1.276-2.194c0.945-1.802,1.851-3.545,2.733-5.255
		c-1.864,0.74-4.016,1.55-6.121,2.339c-1.079,0.406-2.141,0.806-3.14,1.186l2.77,3.473l-0.059,0.049l0.532,0.642
		C91.307,270.689,91.993,270.607,92.683,270.522z"/>
	<path d="M125.243,266.709c0.383-0.354,0.998-0.464,1.432-0.543c1.174-0.131,1.708-0.17,1.926-0.17l1.094,0.025l3.608-0.681
		c1.052-0.109,1.781-0.155,2.277-0.155l0.595-0.068c1.023-0.177,2.033-0.354,3.197-0.505c-1.704-3.989-3.158-8.11-4.367-12.333
		l-1.288-0.036c-0.668-0.16-1.239-0.393-1.773-0.615c-0.578-0.242-1.034-0.429-1.472-0.436l0.001-0.308l-0.208,0.383l-0.788-0.39
		c-1.441,0.429-3.418,1.077-7.349,2.63c-0.273,0.367-0.742,0.583-1.102,0.747l-0.181,0.069l1.124,3.108l-0.2,0.072
		c0.524,1.461,1.022,2.892,1.589,4.422c0.573,1.553,1.163,3.148,1.757,4.803C125.16,266.723,125.203,266.716,125.243,266.709z"/>
	<path d="M168.889,59.081c0.236,1.785,0.453,3.164,0.671,4.546l0.376,2.444l-0.047,0.006l3.782,26.314l4.488,1.995l-0.046,0.104
		c1.322,0.613,2.598,1.206,3.795,1.772l0.67,0.134l3.12,1.383c4.38,1.976,8.904,4.016,10.943,5.044l5.208-12.88l-21.278-29.511
		c-2.086-2.945-5.423-7.704-7.444-10.633l-0.213-0.308l-4.55,0.082l-0.814-0.03l1.263,8.55
		C168.873,58.521,168.915,58.825,168.889,59.081z"/>
	<path d="M107.836,268.485c0.038,0.071,0.057,0.156,0.095,0.231c1.775-0.219,3.693-0.461,4.909-0.537
		c0.683-0.187,2.655-0.455,4.745-0.742c1.208-0.164,2.44-0.331,3.471-0.492l0.333-0.052l-1.695-4.885l0.083-0.029
		c-0.081-0.242-0.149-0.452-0.208-0.629c-0.361-0.347-0.631-1.144-1.229-2.899l0.461-0.242l-0.413,0.036
		c-0.041-0.21-0.205-0.727-0.529-1.756l-0.411-0.885l-11.299,4.246c-1.168,0.317-1.378,0.347-1.578,0.347h-0.067
		c0.137,0.223,0.237,0.452,0.319,0.643l-0.17,0.084c0.131,0.249,0.219,0.544,0.178,0.938c0.113,0.16,0.2,0.32,0.269,0.461h0.738
		l-0.113,1.366l0.054,0.285c0.015,0.02,0.029,0.039,0.042,0.062l1.104,0.38l-0.172,1.802h0.379l0.429,1.412
		C107.622,267.855,107.681,268.092,107.836,268.485z"/>
	<path d="M180.13,49.365l-3.325,0.059l4.607,6.499c0.755,1.006,1.613,2.182,2.372,3.22c0.963,1.32,1.756,2.417,1.99,2.673
		l17.553,24.473l2.884-7.128c1.075-2.411,3.398-8.144,5.449-13.205c2.724-6.715,3.874-9.549,4.545-10.745l-0.033-0.013l2.791-6.983
		h-1.011l-3.172-0.236h3.166h1.112l0.096-0.242l-1.202,0.003l-9.362,0.033l-10.43,0.236h-0.072l-9.735,0.085l-5.949,0.063
		c-0.013,0.082-0.048,0.161-0.066,0.246l-0.539-0.023l-1.885-0.075l-3.716,0.265l0.518,0.73L180.13,49.365z"/>
	<path d="M206.66,107.338l0.035-0.072l11.031,5.019l-13.562-19.127c-1.382,3.381-2.917,7.193-4.486,11.095
		c1.449,0.642,3.019,1.336,4.229,1.896C204.947,106.611,206,107.067,206.66,107.338z"/>
	<polygon points="172.729,49.224 172.463,48.838 171.615,48.896 171.385,49.113 171.385,49.188 171.462,49.201 	"/>
	<path d="M107.903,126.227c3.01,4.429,7.192,10.335,10.263,14.672l1.63,2.306l-0.125,0.089c0.265,0.409,0.485,0.756,0.648,1.058
		l0.069,0.102c0.022,0.046,0.034,0.098,0.054,0.141l0.986,1.425l15.946-2.745l-0.302-1.563v-0.003l0.042-0.013
		c-1.251-6.149-2.455-12.376-3.653-18.616l-4.234-1.563l0.038-0.108c-4.34-1.494-12.11-4.377-19.626-7.165l-11.715-4.448
		c-0.228,0.278-0.463,0.553-0.691,0.832l0.948,1.311c2.458,3.561,4.092,5.932,4.373,6.44l5.251,7.636l-0.026,0.016L107.903,126.227z
		"/>
	<path d="M79.591,257.085c0.242,0.185,0.516,0.502,0.964,1.019c0.303,0.352,0.646,0.744,0.919,1.032l3.623,4.537
		c5.251-1.896,9.743-3.686,14.084-5.421l0.115-0.224c-0.48-1.339-1.06-2.374-1.669-3.462c-0.696-1.241-1.415-2.525-1.947-4.242
		l0.054-0.029c-0.133-0.298-0.225-0.547-0.248-0.786c-0.242-0.374-0.496-0.894-0.842-1.615c-0.183-0.383-0.362-0.76-0.514-1.038
		l0.211-0.147c-0.529-0.524-1.176-1.871-1.861-3.296c-0.231-0.478-0.457-0.95-0.674-1.372l-0.082-0.164
		c-0.938,0.541-2.105,1.173-4.771,2.385l-11.386,5.136l0.522,3.194C77.31,254.127,78.458,255.579,79.591,257.085z"/>
	<path d="M125.807,246.184c0.121,0.046,0.25,0.102,0.392,0.17l0.223-0.439c0.429,0.216,1.046,0.508,1.634,0.783
		c0.313,0.148,0.618,0.292,0.885,0.42c1.119-0.429,2.164-0.833,3.023-1.173l0.092,0.213l1.276-0.551
		c-0.497-2.293-0.92-4.615-1.266-6.964l-0.024-0.026l-1.312,0.796l-3.733-3.849c-0.354-0.498-1.709-2.054-2.907-3.426
		c-1.064-1.222-2.242-2.575-3.211-3.728l-1.365,0.632c-1.25,2.277-2.465,4.461-3.638,6.571l-0.968,1.739
		c0.349,0.872,0.726,1.848,1.21,3.26l1.661,1.648c0.071,0.052,0.48,0.292,0.976,0.527l0.138-0.118l0.757,0.39
		c0.806,0.419,1.549,0.672,2.247,0.911c0.057,0.02,0.114,0.039,0.172,0.059l-0.031-0.111l0.269,0.196
		c0.3,0.105,0.591,0.21,0.876,0.328l0.629,0.259l0.102,0.02l-0.001,0.023l2.578,1.061L125.815,246L125.807,246.184z"/>
	<path d="M140.485,179.411c0.015-0.032,0.029-0.065,0.044-0.098l-2.416-3.466l0.065-0.046c-0.258-0.386-0.62-0.914-1.074-1.572
		c-0.326-0.262-0.768-0.911-1.865-2.529l0.046-0.033c-0.146-0.219-0.334-0.498-0.534-0.79l-3.356-4.697l-3.04,1.995l0.416-0.802
		c-1.171,0.747-2.315,1.461-3.525,2.201l0.173,0.203l-0.377,0.334c-1.395,0.891-2.904,1.769-4.215,2.528
		c-0.323,0.187-0.573,0.337-0.867,0.508l1.5,0.419c1.489,0.465,2.514,0.806,3.09,1.025l0.893,0.246
		c2.088,0.589,4.135,1.166,7.094,2.123l-0.009,0.029l3.423,0.986c1.813,0.566,3.176,0.999,4.228,1.336L140.485,179.411z"/>
	<path d="M117.755,245.82c0.267,0.897,0.57,1.903,0.897,2.964c0.247,0.252,0.393,0.603,0.529,0.934
		c0.116,0.399,0.226,0.77,0.334,1.12c0.793-0.393,2.442-1.052,5.184-2.103l-5.221-1.976l0.034-0.259
		C118.956,246.252,118.364,246.036,117.755,245.82z"/>
	<path d="M150.563,129.499l0.011-0.036c-0.942-0.354-1.646-0.623-2.172-0.846c-0.063-0.02-0.132-0.042-0.209-0.069l-0.308-0.105
		l0.015-0.049c-0.074-0.033-0.143-0.069-0.207-0.102c-0.333-0.127-0.765-0.295-1.315-0.504c-0.701-0.187-4.128-1.448-9.337-3.381
		l3.538,18.315l11.516-1.982l-0.006-0.039l19.551-3.345L150.563,129.499z"/>
	<path d="M64.418,203.468c-0.726-5.454-1.738-11.957-2.815-18.832c-1.63,7.416-2.799,15.006-3.479,22.736
		c1.669-1.054,3.485-2.174,5.14-3.193L64.418,203.468z"/>
	<path d="M109.292,238.892l0.131,0.059l1.446-2.591c-0.275-0.508-0.563-1.353-1.048-2.794l-0.016-0.046
		c-1.939,0.901-3.862,1.805-5.784,2.709l0.69,0.256l-0.359,0.317c0.347,0.128,0.719,0.272,1.101,0.42
		c0.422,0.164,0.855,0.331,1.258,0.472l1.334,0.468l-0.062,0.128C108.419,238.482,108.855,238.686,109.292,238.892z"/>
	<path d="M81.836,142.389c0.513,1.615,0.995,3.135,1.497,4.504l0.773,1.942L84.035,149c0.137,0.386,0.269,0.753,0.392,1.094
		l0.141-0.046c0.287,0.838,0.506,1.412,0.742,2.027l0.054,0.147l6.098-1.052l-0.268-0.438l0.262-0.164
		c-0.756-1.169-1.397-2.107-2.036-3.043c-1.171-1.716-2.383-3.495-4.312-6.702l-1.884-3.384c-0.337-0.37-0.921-1.211-2.175-3.197
		c-0.411,0.717-0.801,1.452-1.203,2.175l0.347,0.983C80.802,139.123,81.334,140.803,81.836,142.389z"/>
	<path d="M122.652,201.421c-0.815,0.694-1.529,1.304-2.08,1.779l-0.053-0.059c-1.91,1.631-3.053,2.503-4.167,3.351
		c-0.734,0.56-1.448,1.107-2.362,1.851l0.143,0.18c-2.072,1.684-3.526,2.948-3.974,3.384l0.372,0.39
		c0.458,0.518,0.794,0.897,0.937,1.271l7.603,7.868c1.851-3.672,3.823-7.547,6.63-12.611l0.11,0.056
		c0.254-0.482,0.509-0.973,0.757-1.455c-0.418-0.629-0.721-1.035-1.019-1.438c-0.655-0.885-1.274-1.72-2.87-4.432l0.041-0.023
		L122.652,201.421z"/>
	<path d="M124.044,50.099l7.391-0.167l3.74,6.011l3.354,6.001l1.743,3.187l1.428,2.611l1.546,2.526
		c-2.598,1.592-5.14,3.262-7.649,4.976l4.154,1.837c3.456,1.681,10.081,4.648,17.752,8.085c4.118,1.844,8.475,3.793,12.664,5.693
		c-0.863-6.326-1.736-12.609-2.586-18.266l0.049-0.006c-0.064-0.547-0.177-1.438-0.313-2.451l-0.077,0.01l-3.007-20.726
		l-1.006-0.036l-8.538-0.243l-5.135-0.18l-4.226,0.348l-10.497,0.242l-3.247,0.039l-0.873-1.215l-4.914-7.767l-4.678-7.587
		l-3.578-5.549l2.994,5.293l4.932,7.819l2.019,3.177l3.08,4.776l0.657,1.055l-6.58,0.079l-7.547,0.249L124.044,50.099z
		 M143.44,70.146l-1.473-2.412l-3.248-5.906l-3.662-6.515l-0.595-1.071l9.406,15.635C143.725,69.966,143.584,70.058,143.44,70.146z
		 M134.611,49.86l4.305-0.108l6.493-0.193l9.964-0.157l7.862,0.236l0.537,0.022l-31.723,0.57l0.016,0.026l-0.241-0.334
		L134.611,49.86z"/>
	<path d="M170.697,94.727l-5.901-2.696c-0.308-0.138-6.186-2.876-11.499-5.277l-0.037,0.082l-20.873-9.346
		c-1.337,0.957-2.662,1.926-3.97,2.922l0.835,4.579c0.172,0.374,0.715,3.128,1.898,9.267c0.69,3.567,1.4,7.259,1.674,8.33
		l3.531,18.272c1.923,0.763,4.587,1.788,9.267,3.498c0.04,0.013,0.077,0.026,0.112,0.036h0.077c0.244,0,0.398,0.042,1.259,0.337
		l19.987,7.459c0.97,0.403,1.582,0.655,1.928,0.937l4.581,1.687l-0.029,0.17l3.074,1.133l-0.211-1.556l-1.903-12.756
		c-1.022-6.578-2.191-15.212-3.432-24.355L170.697,94.727z"/>
	<path d="M90.763,191.256l-0.083-0.102c-0.007,0.003-0.015,0.007-0.021,0.013c2.322,2.509,4.732,5.107,7.18,7.728
		c-0.627-1.74-1.24-3.407-1.854-5.081c-0.596-1.622-1.192-3.249-1.808-4.953c-0.552,0.334-1.093,0.665-1.615,0.992
		C92.348,190.254,91.788,190.608,90.763,191.256z"/>
	<polygon points="64.181,276.664 64.182,276.642 63.476,276.661 	"/>
	<path d="M174.009,138.222l-0.166-0.062l0.062,0.141C173.94,138.275,173.975,138.249,174.009,138.222z"/>
	<path d="M100.194,265.337c-0.481,1.098-1.497,2.925-2.483,4.668h0.39c2.262-0.334,4.829-0.77,5.484-0.907l0.486-0.103
		c-0.648-1.631-1.4-3.278-2.134-4.887c-0.159-0.351-0.319-0.701-0.479-1.052L100.194,265.337z"/>
	<path d="M105.165,240.69h-0.451l-0.288-0.472c-0.277-0.141-0.53-0.288-0.755-0.419c-0.202-0.118-0.375-0.232-0.522-0.285
		c0.333,0.026,0.48-0.01,0.614-0.079l-0.104-0.21c-0.119-0.042-0.235-0.085-0.349-0.125l-0.257,0.538
		c-1.077-0.489-2.248-0.92-3.428-1.343l-2.644,1.238l-0.131-0.252c-0.563,0.249-1.049,0.472-1.478,0.668l0.067,0.138l-0.068,0.137
		c0.265,0.364,0.429,0.714,0.586,1.346l0.021,0.092c0.196,0.259,0.401,0.6,0.676,1.251l0.465,1.107
		c0.601,0.917,0.753,1.438,0.822,1.952l0.498,1.183l-0.323-0.239c0.044,0.122,0.102,0.262,0.181,0.429
		c0.178,0.092,0.346,0.223,0.5,0.399l0.223,0.364c0.308,0.78,0.522,1.199,0.736,1.615c0.242,0.475,0.484,0.95,0.835,1.835
		l0.088,0.426c0.005,0.154,0.012,0.363-0.038,0.589l0.108,0.132l0.175-0.053c0.228,0.508,0.37,0.861,0.382,1.195
		c0.024,0.046,0.049,0.092,0.075,0.142c1.99-3.843,4.049-7.784,6.463-12.258C106.837,241.372,105.969,241.047,105.165,240.69z"/>
	<path d="M142.075,176.038c0.42-0.836,0.872-1.651,1.312-2.474l-0.272-1.339c-1.338-6.591-2.014-10.043-2.17-11.069
		c-0.072-0.226-0.144-0.501-0.221-0.842l-1.05,0.665l-0.093-0.138l-5.556,3.604c0.861,1.258,1.692,2.457,2.339,3.377l1.05,1.455
		c0.996,1.376,1.453,2.005,4.166,5.955l-0.042,0.03L142.075,176.038z"/>
	<path d="M128.332,276.845c2.378-0.017,4.566-0.032,6.352-0.043l1.392,0.423l4.121,0.079l4.796-0.164l4.189,0.032l1.861,0.014
		l1.215,0.013l0.81-0.079l0.71-0.052l4.426-0.314l2.87-0.053l1.015-0.02l1.553-0.06l-0.643-0.209l-1.382-0.347l-0.374-0.06
		l-3.007-0.289l-0.878,0.007l-4.324,0.046l-4.055-0.019l-3.852-0.053l-0.278-0.007c-1.35-2.361-2.582-4.796-3.752-7.266
		l-0.791,0.095c-2.688,0.317-3.451,0.364-3.843,0.364c-0.258,0-0.527-0.02-0.792-0.135c-0.421,0.01-1.14,0.076-2.547,0.239
		l-6.858,1.016c0.47,1.359,0.938,2.759,1.399,4.219l-0.205,0.086L128.332,276.845z"/>
	<path d="M198.272,107.755c-3.565,8.884-6.933,17.273-8.941,21.875l-4.135,10.256l1.186,1.976l0.904,1.304l0.773,1.146l4.861,7.181
		l1.339,2.148l1.851,3.076l0.032-0.059l0.8,1.277l1.63,2.558l-0.398-1.218l-0.997-2.565l-0.307-0.665l-0.188-0.364l15.651-28.272
		l1.237-2.165l4.008-6.909l1.089-1.894l-0.182-0.082l-0.693,1.183l0.662-1.195l-18.285-8.242l0.03-0.069l-1.725-0.782
		L198.272,107.755z"/>
	<path d="M174.237,96.299l1.546,10.768l-0.088,0.013c0.688,4.039,1.945,12.792,2.959,19.841c0.426,2.964,0.803,5.579,1.062,7.318
		l-0.043,0.006c0.003,0.023,0.007,0.042,0.01,0.065c0.524-0.334,1.029-0.701,1.559-1.029l1.911,3.197l2.595-6.286
		c0.132-0.413,0.355-0.992,0.706-1.9c0.123-0.321,0.246-0.639,0.356-0.923l-0.072-0.03c0.765-1.851,1.083-2.601,1.391-2.918
		l0.491-1.192c0.111-0.55,0.51-1.54,1.386-3.718c0.012-0.026,0.021-0.052,0.033-0.079l-0.095-0.042l5.469-13.526l-11.422-5.182
		c0.024,0.014-0.172-0.065-0.382-0.15l-0.303-0.118l-0.015,0.042c-3.518-1.536-3.779-1.683-4.08-1.857
		c-0.218-0.125-0.443-0.246-2.839-1.301l0.019-0.042L174.237,96.299z"/>
	<path d="M87.015,271.099l-0.524-0.409l-1.946-2.519l0.063-0.05c-0.079-0.092-0.156-0.19-0.233-0.281
		c-0.018-0.01-0.036-0.017-0.054-0.03c-0.306,0.125-0.595,0.246-0.863,0.361l-0.223-0.502l-0.003,0.452l-0.198,0.075
		c-1.235,0.475-2.685,1.082-4.267,1.742c0.104,0.794,0.198,1.566,0.283,2.313C82.09,271.853,85.092,271.453,87.015,271.099z"/>
	<path d="M120.264,277.015l4.596-0.059h0.021l-0.2-0.577l-0.067,0.027l-0.544-1.095l-0.811-2.64l0.12-0.04l-0.763-2.201
		c-0.028,0.006-0.056,0.01-0.082,0.017l-0.409-0.996c-0.02,0.003-0.04,0.007-0.061,0.01l-0.067,1.028
		c-0.451,0.004-3.53,0.406-5.778,0.698c-1.043,0.135-2.083,0.271-2.998,0.384l0.012,0.134c-1.171,0.187-2.282,0.354-3.343,0.501
		l0.849,1.028l-0.313,1.176c0.025,0.103,0.041,0.197,0.048,0.292c0.182,0.302,0.369,0.576,0.431,0.648l1.284,1.583
		c2.697-0.014,5.348-0.029,7.854-0.043l-0.318,0.085L120.264,277.015z"/>
	<path d="M98.929,276.988l0.121,0.184l4.292-0.085l4.2-0.043c-0.01-0.029-0.018-0.056-0.026-0.081l-0.324-0.007h-0.441
		c0.257,0,0.505,0,0.762,0c-0.089-0.269-0.177-0.534-0.254-0.79c-0.213-0.703-0.396-1.313-0.732-1.916l-0.982-1.445l0.015-0.062
		c-1.96,0.224-3.783,0.399-5.562,0.57c-1.467,0.141-2.904,0.278-4.362,0.438c-0.09,0.177-0.168,0.331-0.226,0.462l-0.158-0.049
		l-0.671,1.301l1.268,1.529C96.869,276.995,97.896,276.988,98.929,276.988z"/>
	<polygon points="112.16,277.055 111.916,277.041 111.816,277.064 	"/>
	<path d="M89.082,277.012l1.103-2.015l-0.379-0.472l-4.376,0.746l-1.406-0.046l-1.784,0.345c-0.745,0.135-1.419,0.259-2.283,0.391
		l0.169,1.054C82.881,277.019,85.897,277.019,89.082,277.012z"/>
	<path d="M108.214,110.264l0.969,0.419c0.357,0.128,0.678,0.236,1.009,0.351c1.289,0.445,2.732,0.943,6.996,2.549l-0.048,0.137
		c3.625,1.376,5.132,1.874,6.596,2.359l1.564,0.524c3.865,1.382,5.776,2.126,7.455,2.804l-0.072-0.38
		c-0.635-3.312-1.271-6.627-1.915-9.922l-0.239-1.975c-0.567-2.87-1.011-4.799-1.459-6.749c-0.486-2.109-0.978-4.249-1.654-7.724
		l0.066-0.013l-1.95-10.001c-9.292,7.354-17.84,15.602-25.508,24.624c1.237,0.456,1.933,0.691,2.549,0.897
		C103.666,108.531,104.613,108.849,108.214,110.264z"/>
	<path d="M78.322,265.989l0.024,0.14l0.907-0.33l-0.021-0.079l0.139-0.045l0.711-0.243c0.552-0.187,1.089-0.373,1.62-0.56
		c-0.344-0.417-0.704-0.855-1.064-1.294c-1.11-1.356-2.218-2.706-2.806-3.388l-0.313-0.468c-0.095-0.154-0.193-0.312-0.349-0.534
		c0.369,2.3,0.729,4.603,1.053,6.816L78.322,265.989z"/>
	<path d="M139.763,181.01c0.008-0.016,0.017-0.036,0.025-0.052l-0.131-0.02l-0.008,0.022L139.763,181.01z"/>
	<path d="M129.282,157.355c0.267,0.446,1.364,2.116,3.156,4.76c1.017-0.648,2.082-1.339,3.138-2.027
		c1.583-1.025,3.145-2.041,4.505-2.883c-0.594-2.971-1.391-7.108-2.066-10.607l-0.063-0.331l-0.763,0.134
		c-0.591,0.301-1.931,0.531-4.989,1.058l-0.016-0.091c-1.258,0.223-1.482,0.249-1.871,0.295c-0.436,0.052-1.084,0.131-3.757,0.557
		c-1.103,0.226-2.197,0.423-3.197,0.596l2.354,3.41l-0.056,0.04C127.392,154.785,128.894,156.861,129.282,157.355z"/>
	<path d="M80.741,153.015l0.807-0.141l-0.129-0.374c-0.191-0.517-0.339-0.907-0.44-1.208l-0.082-0.216
		c-0.083-0.265-0.104-0.439-0.105-0.583l-3.364-9.575c-2.34,4.514-4.511,9.132-6.468,13.859l0.875-0.167
		C74.019,154.188,75.771,153.848,80.741,153.015z"/>
	<path d="M74.587,159.544l8.174,2.355l0.115,0.016l1.039,0.315l0.017,0.091c0.395,0.128,0.881,0.278,1.398,0.436
		c-0.39-1.206-0.565-1.812-0.58-2.202c-0.211-0.521-0.46-1.16-0.726-1.841c-0.23-0.59-0.475-1.215-0.707-1.805
		c-0.303-0.183-0.508-0.524-0.716-1.038l-12.553,2.221l1.347,0.409C73.023,158.997,74.004,159.295,74.587,159.544z"/>
	<path d="M115.19,249.099c-0.691-1.958-1.402-3.973-1.857-5.097l-0.63-0.171c-0.282-0.131-0.614-0.278-0.961-0.429
		c-0.321,0.635-0.603,1.186-0.76,1.543l0.055,0.134l-5.727,10.749c3.26-1.271,6.823-2.608,10.857-3.984
		C115.85,250.966,115.518,250.026,115.19,249.099z"/>
	<path d="M134.505,194.61l0.536-0.537c0.416-1.444,0.837-2.886,1.312-4.304l-0.276,0.235l-0.125-0.144
		c-1.939,1.91-6.464,5.762-10.32,9.031l0.126,0.2l-0.074,0.049c0.456,0.786,1.192,1.919,1.962,3.108
		c0.287,0.442,0.582,0.895,0.874,1.347c0.108-0.17,0.231-0.338,0.388-0.465c0.589-1.045,1.007-1.907,1.426-2.768
		c0.265-0.547,0.531-1.091,0.835-1.678l0.106,0.046c0.745-1.327,1.554-2.82,2.392-4.379L134.505,194.61z"/>
	<path d="M138.264,184.6c0.311-0.79,0.612-1.579,0.942-2.355l-0.028-0.01c-2.536-0.721-6.059-1.739-8.498-2.463
		c-7.023-2.123-7.083-2.175-7.427-2.466c-0.04,0.016-1.296-0.383-3.543-1.071l-3.659-1.071l-3.739,2.454
		c0.049,0.079,0.093,0.145,0.141,0.223l0.18-0.098l1.882,3.213l-0.044,0.029c1.098,1.851,2.239,3.702,3.467,5.671
		c1.212,1.936,2.485,3.973,3.769,6.119c0.326,0.364,0.788,1.078,1.667,2.493l1.946-1.697c1.761-1.582,3.834-3.345,6.093-5.215
		l5.754-4.724L138.264,184.6z"/>
	<path d="M91.567,143.814c1.319,2.061,2.749,4.301,4.121,6.63l22.285-3.833l-11.741-17.116c-0.481-0.717-0.775-1.153-0.907-1.49
		l-10.201-14.695c-4.237,5.44-8.173,11.131-11.77,17.05l3.833,6.093C88.144,138.461,89.731,140.941,91.567,143.814z"/>
	<path d="M73.185,260.698l0.053-0.082c-0.087-1.002-0.467-4.137-0.975-7.569c-0.236-0.312-0.614-0.793-1.263-1.592l-10.494,4.726
		c0.973,5.156,2.167,10.231,3.566,15.224l10.297-3.816L73.185,260.698z"/>
	<path d="M64.092,242.561c-0.003-0.003-0.008-0.009-0.011-0.016l-0.619-0.256l-0.182-0.235c-1.956-2.516-3.731-4.668-5.435-6.719
		c0.314,4.612,0.806,9.179,1.467,13.689l5.857-4.927c-0.231-0.252-0.569-0.662-1.167-1.438l0.102-0.082
		C64.1,242.571,64.095,242.564,64.092,242.561z"/>
	<path d="M68.364,248.346c-0.259-0.344-0.544-0.721-0.849-1.117c-1.145,0.917-2.458,1.999-3.812,3.122l-0.719,0.6L68.364,248.346z"
		/>
	<path d="M75.866,276.222l-11.327,0.395c1.258,0.012,9.762,0.382,11.327,0.389V276.222z"/>
	<path d="M66.306,174.341c0.081,0.111,0.157,0.229,0.228,0.347l0.455-0.102l0.166,0.957l2.355,5.136
		c0.208,0.387,0.355,0.822,0.49,1.225c0.073,0.226,0.134,0.436,0.206,0.57l2.646,3.05l-1.512-0.419
		c0.254,0.56,0.51,1.11,0.762,1.657c0.539,1.164,1.063,2.296,1.517,3.381l1.227,2.922c0.22,0.356,0.464,0.772,0.465,1.245
		c0,0.003,0,0.006,0,0.009c0,0.049-0.001,0.099-0.008,0.147l0.015,0.03l0.083-0.053l-0.054,0.037l0.056-0.033l-0.082,0.056
		l0.874,1.69c0.727-0.456,1.454-0.934,1.937-1.323c1.962-1.121,1.982-1.133,2.342-1.133c0.495-0.315,0.969-0.623,1.421-0.917
		c1.255-0.813,2.266-1.471,3.065-1.88l0.195-0.154c-0.757-0.81-1.489-1.576-2.069-2.152l-0.927-0.865
		c-0.953-0.884-1.367-1.268-3.855-3.908l0.1-0.098c-0.929-0.983-1.462-1.497-1.97-1.988c-0.648-0.626-1.256-1.209-2.531-2.608
		l-0.282-0.311l0.069-0.063c-2.843-2.922-3.499-3.531-5.227-5.143l-1.266-1.179l0.106-0.138l-1.952-1.972
		c-0.277,0.897-0.534,1.808-0.798,2.712l1.177-0.223L66.306,174.341z"/>
	<path d="M81.864,181.96l-0.108,0.108c0.18,0.206,0.431,0.481,0.749,0.816c0.405,0.072,0.697,0.39,1.98,1.795l-0.079,0.075
		c0.118,0.141,0.284,0.324,0.463,0.514l3.615,3.548c0.619-0.374,1.31-0.799,2.039-1.248l-0.12-0.196
		c0.001-0.003,0.003-0.003,0.003-0.003c1.083-0.662,1.759-1.084,2.181-1.356c0.095-0.16,0.236-0.304,0.415-0.445
		c-0.062-0.167-0.131-0.364-0.208-0.586l0.097-0.036c-1.358-3.996-2.354-6.512-3.32-8.949l0.15-0.069
		c-0.545-1.543-0.791-2.155-1.079-2.876c-0.346-0.865-0.751-1.877-1.791-4.77l0.164-0.063c-0.023-0.072-0.047-0.147-0.074-0.229
		c-0.232-0.357-0.457-0.908-0.762-1.72c-3.438-1.042-6.507-1.998-9.488-2.932c-2.622-0.819-5.177-1.615-7.854-2.431l-0.247-0.075
		c-0.67,1.802-1.311,3.616-1.923,5.444l5.577,5.848L81.864,181.96z"/>
	<path d="M61.085,218.078l0.712,0.367l0.085-0.173c0.788,0.249,1.212,0.491,1.553,0.685c0.3,0.17,0.516,0.295,1.029,0.445
		l1.233,0.357l-0.059,0.399c0.324,0.145,0.676,0.345,0.979,0.518c0.257,0.144,0.501,0.285,0.703,0.367
		c-0.072-0.589-0.158-1.261-0.259-2.047c-0.287-0.734-0.568-2.362-1.274-7.056c-0.27-1.808-0.568-3.79-0.799-5.032l-3.714,2.211
		l-3.468,2.087c-0.121,1.818-0.206,3.649-0.272,5.48l1.025,0.354C59.413,217.328,60.22,217.6,61.085,218.078z"/>
	<path d="M58.744,231.119c2.742,3.642,5.625,7.157,8.802,10.98l1.64-1.379l-0.085-0.151c0.408-0.333,0.742-0.586,1.055-0.815
		c-0.154-0.776-0.298-1.435-0.437-2.063c-0.251-1.137-0.48-2.175-0.693-3.594c-0.747-5.218-1.007-7.213-1.208-8.9
		c-0.134-0.049-0.269-0.108-0.411-0.17L67.412,225c-0.054-0.016-0.113-0.033-0.175-0.052l0.015-0.049
		c-0.005,0-0.008-0.003-0.012-0.003l-0.017,0.049c-0.178-0.055-0.496-0.16-0.766-0.363c-0.739-0.286-1.476-0.57-2.232-0.891
		c-0.968-0.41-1.962-0.832-3.012-1.212l0.049-0.19c-1.176-0.511-2.139-0.829-3.235-1.188l-0.58-0.197
		c-0.011,0.783-0.039,1.559-0.039,2.342c0,2.096,0.049,4.183,0.123,6.263L58.744,231.119z"/>
	<path d="M346.861,147.05l-0.304,0.049l-4.445,0.16l-1.903,0.069c-1.189,0.121-3.12,0.209-6.249,0.347
		c-2.377,0.105-4.742,0.209-5.955,0.275l-0.58,0.003l-0.346-0.003c-0.424,0-0.979,0.01-2.021,0.049
		c-0.48,0.082-1.385,0.125-3.366,0.213c-1.022,0.045-2.051,0.095-2.674,0.138c-1.363,0.046-1.727,0.046-1.948,0.036
		c0.211,0.878,0.429,1.769,0.655,2.683l-0.128,0.029c0.523,2.156,0.729,3.034,0.808,3.394l-0.989,0.462
		c6.514,7.698,11.952,16.339,16.071,25.691l0.203-0.118c2.27-1.146,3.403-1.736,3.97-2.041l-0.054-0.114
		c3.952-1.946,5.803-2.919,7.586-3.855c1.841-0.967,3.613-1.897,7.516-3.804l8.556-4.137c0.239-0.196,0.545-0.356,0.858-0.521
		c1.536-0.728,3.067-1.468,4.607-2.225l-0.043-0.082l2.64-1.33l0.017-6.457l-0.044-0.314l0.068-9.542L346.861,147.05z"/>
	<path d="M300.475,78.974c0.506,2.24,0.981,4.34,1.45,6.263L302.368,87c0.049,0.213,0.094,0.417,0.104,0.613
		c0.167,0.698,0.322,1.346,0.465,1.939l0.072-0.017l1.748,7.275l7.308-6.191l1.779-1.51l0.018,0.02
		c1.358-1.113,2.864-2.358,4.555-3.776l-0.106-0.138c2.051-1.759,2.442-2.077,2.807-2.136c1.381-1.166,2.796-2.358,4.242-3.584
		c2.799-2.365,5.638-4.762,8.285-6.977c-3.613-2.329-7.305-4.543-11.09-6.61l-24.145,4.2
		C299.173,73.202,299.848,76.193,300.475,78.974z"/>
	<path d="M317.715,63.343c-7.403-3.758-15.105-7-23.056-9.719l3.11,13.191L317.715,63.343z"/>
	<path d="M372.446,115.859c-0.024,0.301-0.036,1.867-0.046,2.879l0.09,1.271l-0.219,4.806l-0.023,4.74
		c0.136,0.58,0.134,1.999,0.126,6.562h-0.024c-0.038,1.461-0.032,3.298-0.025,5.602l0.002,1.378l6.479-0.291l0.009,0.065
		c2.11-0.088,4.237-0.15,6.149-0.209c1.595-0.046,3.074-0.092,4.237-0.141l-0.003-0.075l7.315-0.324
		c-6.576-12.936-14.677-24.955-24.065-35.843c-0.013,2.667-0.031,5.238-0.074,7.321c0.018,0.108,0.033,0.229,0.043,0.36
		c-0.002,0.033,0.009,0.062,0.008,0.095c0.031,0.438,0.038,0.992,0.044,1.693l-0.507,0.053L372.446,115.859z"/>
	<path d="M354.046,102.546l-6.473,5.218l-1.793,1.451c-1.56,1.268-2.55,2.07-5.563,4.425l-0.026-0.033
		c-0.323,0.269-0.645,0.541-0.968,0.813c-1.507,1.261-3.038,2.545-4.601,3.823l-0.063-0.059l-4.863,4.006l-0.03-0.033
		c-3.344,2.673-3.852,3.161-4.228,3.518c-0.386,0.37-0.684,0.658-3.074,2.529l-0.168,0.167c0.024-0.026,0.049-0.055,0.072-0.092
		c-0.028,0.02-0.056,0.042-0.083,0.065l-0.146-0.187c-0.023,0.02-0.046,0.039-0.07,0.059l0.12,0.197l-0.133-0.187
		c-0.028,0.023-0.054,0.046-0.082,0.069l0.188,0.246l-0.867,0.681c-1.921,1.514-2.735,2.156-3.172,2.431l-1.068,0.887l0.088,0.115
		l-3.002,2.466l0.465,1.937l-0.063,0.016l0.111,0.491c0.529,2.33,1.135,4.996,1.82,7.904l10.165-0.367
		c0.403-0.068,0.916-0.098,1.542-0.131l1.91-0.115l18.739-0.737l0.001,0.04l20.644-0.93l0.102-40.203l0.136,0.003
		c-2.331-2.578-4.754-5.068-7.231-7.505l-1.13,0.924c-2.587,2.113-4.999,4.082-7.265,6.021L354.046,102.546z"/>
	<path d="M372.327,146.028c-0.003,1.887-0.015,3.987-0.051,6.365h-0.061l0.008,2.601h-0.021l-0.021,6.122
		c1.725-0.872,3.48-1.762,5.284-2.679c4.863-2.474,10.06-5.117,15.848-7.927l0.052,0.102l5.875-2.926
		c-0.434-0.933-0.886-1.85-1.337-2.774l-0.224,0.013c-0.817,0.003-2.388,0.04-3.672,0.092L372.327,146.028z"/>
	<path d="M328.278,81.048c-0.837,0.704-1.689,1.418-2.506,2.11l0.065,0.078l-3.866,3.207l-14.593,12.258
		c-0.038,0.039-0.079,0.079-0.121,0.121c-0.354,0.341-0.883,0.799-1.657,1.458c0.056,0.216,0.108,0.422,0.16,0.616l0.114-0.026
		c0.619,2.526,0.872,3.646,0.899,4.235c0.961,4.042,1.285,5.208,1.556,6.194c0.32,1.15,0.573,2.064,1.657,6.859
		c0.058,0.233,0.107,0.433,0.145,0.603l0.07,0.285c0.01,0.055-0.01,0.082-0.001,0.127l0.89,3.767l-0.17,0.043
		c0.29,1.218,0.563,2.375,0.762,3.266c0.176,0.695,0.301,1.179,0.39,1.507c0.234,0.324,0.352,0.776,0.473,1.241l0.167,0.642
		l-0.033,0.036c0.071,0.321,0.174,0.767,0.295,1.291l0.067-0.016l0.239,1.002l1.248-1.029l-0.02-0.022l1.821-1.543l0.041,0.049
		l3.035-2.5l0.077,0.095l0.198-0.16c3.119-2.556,6.654-5.454,7.346-6.129l16.579-13.355c2.167-1.789,4.571-3.75,6.74-5.516
		c1.672-1.366,3.364-2.745,4.622-3.784l0.197-0.196c0.288-0.298,0.646-0.668,1.436-1.307c0.218-0.158,0.374-0.256,0.531-0.347
		c0.961-0.796,2.092-1.704,3.261-2.64c-7.43-7.089-15.457-13.559-24.016-19.298l-0.118,0.095c-1.749,1.455-2.535,2.106-2.981,2.401
		C332.611,77.408,330.892,78.856,328.278,81.048z"/>
	<path d="M301.636,97.141l-0.042-0.13c-0.202-0.643-0.439-1.648-0.814-3.237l-0.427-1.805c-0.153-0.619-0.271-1.098-0.356-1.468
		l-0.141-0.57c-0.018-0.102-0.003-0.174-0.013-0.256l-4.542-19.028l-37.925,6.604l-2.008,3.626l-3.927,6.958l-0.215,0.383
		l1.464,3.007c1.382,2.702,1.796,3.452,1.9,3.6c0.144,0.128,0.249,0.289,0.947,1.654c0.175,0.396,0.308,0.701,0.367,0.963
		l9.938,19.255l-0.018,0.039l2.936,5.72c1.309,0.416,2.613,0.845,3.896,1.31l2.031-1.71l0.023,0.026
		c2.077-1.713,4.442-3.731,6.578-5.553c3.628-3.095,5.716-4.864,6.405-5.28c0.082-0.069,0.153-0.131,0.218-0.183
		c0.017-0.014,0.029-0.026,0.038-0.033c0.193-0.157,0.336-0.249,0.5-0.298c1.98-1.671,2.833-2.437,3.664-3.188
		c1.056-0.95,2.078-1.867,5.286-4.537l4.807-4.039c-0.093-0.37-0.2-0.793-0.311-1.232C301.809,97.6,301.727,97.407,301.636,97.141z"
		/>
	<path d="M244.502,100.65l-2.932,5.015l-1.821,3.135l-1.201,2.063l-0.708,1.415l-0.627,1.235l-3.951,7.715l-2.738,4.9l-0.963,1.73
		l-1.455,2.663l0.872-0.937l1.769-2.104l0.438-0.599l3.27-4.894l0.852-1.487l1.708-3.017c9.516,0.03,18.724,1.343,27.49,3.728
		l-15.111-29.714l-0.093,0.167c0.044,0.03,0.083,0.06,0.127,0.085l-4.013,7.25L244.502,100.65z"/>
	<path d="M443.051,217.02l0.668-1.251l4.127-7.829l2.862-4.976l1.017-1.762l1.513-2.709l-0.904,0.95l-1.831,2.139l-0.452,0.596
		l-3.417,4.959l-0.884,1.517l-4.363,7.468l-3.204,5.353l-22.28-0.131c-0.264-25.272-5.79-49.274-15.479-71.005l-4.586,2.286
		l0.018,0.037l-1.428,0.799l-3.167,1.52l-0.028-0.056l-13.609,6.787l-0.021-0.039c-0.531,0.262-0.934,0.458-1.235,0.609
		c-0.472,0.36-1.435,0.838-3.302,1.766l-0.103-0.18l0.051,0.15c-0.111,0.046-0.373,0.167-0.84,0.393l-0.094,36.079h-0.272
		c0.015,0.756,0.026,1.582,0.037,2.381l-0.06,0.003c0.03,4.805-0.451,8.953-0.55,12.241l-1.415,4.959
		c-0.04-0.875-0.375-7.835-0.367-9.12c0.007-0.809-0.073-2.886-0.083-3.25l-0.103,1.707l-0.082-0.013
		c0.023-0.212,0.067-1.664,0.069-4.049l-0.149-7.128c0.013-0.258,0.031-0.623,0.136-0.959l0.01-3.983
		c-0.005-0.315-0.01-0.688-0.015-1.097h-0.13l0.02-2.48h0.095c-0.008-2.496-0.005-5.598-0.003-8.356l0.079-5.739l-0.02-6.106
		l-0.016-2.326l0.023-0.003l-0.003-1.284l-1.324,0.593l-14.92,7.393c-3.489,1.71-5.896,2.948-8.258,4.167
		c-0.466,0.294-1.391,0.753-3.46,1.775l-0.031-0.062l-6.792,3.334c4.808,11.708,7.605,24.45,7.896,37.822l-26.434-0.158
		l6.543,11.488l-1.754-2.513l-1.238-2.011c-0.065,0.04-0.138,0.072-0.203,0.112l1.291,2.057l4.52,7.462l3.29,6.034l1.709,3.204
		l1.402,2.633l4.219,7.092l4.049,6.893l4.154,7.049l2.835,4.6l5.575,9.794l-0.188-0.216l0.498,0.93l1.821,3.026l22.976,40.345
		l0.292-0.498l3.456,5.942l1.834,3.125l1.193,2.057l0.904,1.316l0.767,1.153l4.756,7.24l2.922,4.782l1.035,1.696l1.605,2.581
		l-0.386-1.225l-0.963-2.575l-0.308-0.668l-2.647-5.261l-0.878-1.474l-4.35-7.253l-4.002-6.833l-3.768-6.525l-0.022-0.039
		l29.943-51.16l16.593-28.352l0.408-0.439l4.301-7.029l4.684-8.36l4.328-7.19l1.908-3.18l1.257-2.09L443.051,217.02z M339.961,263.1
		l-4.036-6.898l-4.141-6.987l-3.191-5.942l-3.583-6.551l-0.792-1.464l16.657,29.246l0.488,0.989L339.961,263.1z"/>
	<path d="M304.226,107.61c-0.518-2.253-0.764-3.321-0.819-3.901c-0.099-0.38-0.21-0.816-0.331-1.294l-3.022,2.562l-0.031-0.026
		c-0.97,0.799-2.347,1.982-3.833,3.256c-1.782,1.533-3.72,3.197-5.303,4.501c-0.441,0.36-0.705,0.573-0.942,0.691
		c-0.161,0.127-0.48,0.39-1.128,0.937l-0.069-0.085c-1.913,2.093-8.74,7.698-11.922,10.276l-0.032-0.037l-0.714,0.61
		c9.645,3.875,18.59,9.125,26.583,15.52l0.234-0.239l7.577-6.207c-0.94-3.925-1.669-6.801-2.394-9.647l0.063-0.02l-2.619-10.659
		l0.085-0.023c-0.041-0.184-0.087-0.38-0.136-0.596c-0.211-0.593-0.452-1.576-0.852-3.201l0.149-0.036
		C304.617,109.311,304.42,108.459,304.226,107.61z"/>
	<path d="M311.242,137.423l-4,3.286c-0.266,0.216-0.447,0.364-0.64,0.452l-1.664,1.346c1.256,1.064,2.486,2.156,3.69,3.276
		l4.53-0.193l-1.849-7.685l0.044-0.01L311.242,137.423z"/>
	<path d="M314.662,151.84l-0.814-3.384l-1.019,0.04c-0.546,0.026-0.961,0.046-1.309,0.065
		C312.588,149.631,313.64,150.722,314.662,151.84z"/>
	<path d="M259.475,73.481l35.043-6.099l-2.536-10.627l0.077-0.02l-1.033-4.308c-5.469-1.736-11.041-3.25-16.725-4.465l0.819-1.53
		l4.288-7.816l3.063-5.854l-3.132,5.221l-4.36,8.15l-0.945,1.766c-0.097-0.02-0.192-0.045-0.29-0.065l-13.584,24.532L259.475,73.481
		z"/>
	<polygon points="815.472,325.869 815.452,329.99 815.626,330.678 815.931,325.896 815.878,286.842 815.852,287.183 	"/>
	<polygon points="742.002,18.239 742.149,19.923 742.153,18.003 741.838,11.373 741.847,17.39 	"/>
	<polygon points="741.948,39.328 742.227,37.645 741.979,23.922 741.953,24.044 741.768,37.645 741.771,39.092 	"/>
	<polygon points="545.392,25.003 545.529,24.162 545.451,18.144 545.234,24.771 545.267,26.693 	"/>
	<polygon points="545.434,28.748 545.381,42.476 545.683,44.156 545.866,43.904 545.84,42.463 545.458,28.872 	"/>
	<polygon points="813.529,25.479 813.667,24.633 813.588,18.619 813.373,25.242 813.405,27.165 	"/>
	<polygon points="813.575,29.219 813.523,42.948 813.824,44.628 814.008,44.376 813.981,42.938 813.598,29.344 	"/>
	<polygon points="642.389,430.194 640.731,427.974 642.775,431.099 647.086,437.624 	"/>
	<polygon points="635.281,419.168 633.859,416.94 631.048,412.303 633.499,417.171 	"/>
	<polygon points="472.344,23.565 472.377,21.636 472.159,15.016 472.082,21.03 472.22,21.881 	"/>
	<polygon points="472.469,39.649 472.423,25.924 472.396,26.042 472.015,39.636 471.991,41.081 472.174,41.33 	"/>
	<path d="M472.248,153.379l0.079-1.277l-0.382-6.755l0.021-16.729l0.216-16.248l-0.093-12.041l-0.549,11.065l-0.046,16.853
		l-0.007,6.859l0.053,10.358l-0.072,7.361C471.75,152.986,471.985,153.199,472.248,153.379z"/>
	<polygon points="1102.567,162.888 1110.553,162.944 1118.742,163.007 1118.479,162.718 1110.095,162.771 1101.571,162.761 
		1093.837,162.662 1092.848,162.662 1094.105,162.735 	"/>
	<polygon points="723.535,134.655 718.379,141.77 716.938,144.139 719.074,141.085 	"/>
	<polygon points="710.799,152.481 709.253,154.627 705.991,158.954 709.601,154.879 	"/>
	<polygon points="866.049,161.775 853.916,161.811 850.096,162.043 855.246,161.961 	"/>
	<polygon points="835.794,161.998 832.139,162.024 824.657,161.936 832.145,162.45 	"/>
	<polygon points="583.79,96.224 579.479,96.27 578.868,96.44 577.664,96.594 579.04,96.588 	"/>
	<polygon points="574.948,96.362 574.856,96.339 565.102,96.247 564.058,96.25 563.883,96.434 565.095,96.709 	"/>
	<path d="M1238.066,402.141V162.42l-0.445-7.144l-0.186-0.196l-0.069-0.007v0.065l-0.229,7.282h-0.22l0.043-7.744l0.334-6.738
		l0.302-7.462l0.196-4.488l-0.249-3.698l-0.092-7.528c-0.085,0.016-0.164,0.033-0.249,0.053l0.02,1.854l0.104,5.684l0.033,8.713
		l-0.289,6.869l-0.192,3.633l-0.147,2.974l-0.035,7.878h-0.119l0.049-7.75l-0.288,0.262l0.053,7.488h-71.777l0.187-5.319l0.17-4.488
		l-0.269-3.699l-0.13-7.527c-0.086,0.016-0.164,0.036-0.25,0.056l0.026,1.854l0.138,5.68l0.079,8.713l-0.171,4.73h-0.246v137.506
		c0,15.952-3.983,28.597-11.966,37.894c-7.982,9.316-18.616,13.967-31.915,13.967c-26.914,0-40.357-16.975-40.357-50.924v-136.11
		l0.043-0.822l6.093-0.049l8.254-0.082l7.521,0.187l7.403,0.367l1.651,0.091l7.266-0.445l0.196-0.184l0.007-0.068h-0.066
		l-7.73-0.246l-7.928-0.108l-2.764-0.229l2.771,0.033l7.983,0.095l8.127,0.049l6.741,0.328l7.463,0.305l4.487,0.2l3.695-0.256
		l7.527-0.088c-0.014-0.082-0.036-0.167-0.053-0.249l-1.854,0.02l-5.681,0.102l-8.713,0.032l-6.873-0.288l-3.629-0.187l-2.975-0.15
		l-8.255-0.042l-7.993-0.079l-8.183-0.069l-9.126,0.102l-0.072-0.013l-5.25-0.017l0.192-3.829l0.089-1.654l-0.442-7.262
		l-0.184-0.196l-0.075-0.007v0.065l-0.238,7.728l-0.063,4.586h-0.206l0.06-4.651l0.046-8.124l0.333-6.738l0.302-7.462l0.193-4.488
		l-0.246-3.699l-0.092-7.527c-0.088,0.016-0.164,0.033-0.248,0.052l0.016,1.854l0.108,5.683l0.033,8.714l-0.288,6.869l-0.191,3.633
		l-0.149,2.974l-0.04,8.255l-0.046,4.655h-0.107l0.036-4.593l0.053-8.189l-0.289,0.262l0.059,8.39l-0.007,4.13h-30.909l-1.599-0.357
		l-8.059-0.17l-9.375,0.154l-8.206-0.118l-3.618-0.036l-2.379-0.039l-1.592,0.095l-1.39,0.063l-8.648,0.35l-5.613,0.04l-1.979,0.01
		l-3.04,0.049l1.251,0.301l2.705,0.498l0.722,0.085l5.87,0.433l1.723,0.006l1.518,0.003v143.647
		c0,67.421,27.85,101.135,83.537,101.135c30.667,0,55.143-14.145,73.461-42.467h1.166v36.023l-26.854,0.121l26.854,0.36v0.105h8.039
		l0.491,0.006l4.065-0.006h61.324v-0.099l10.364-0.014l16.429-0.068c-0.053-0.142-0.069-0.299-0.111-0.442L1238.066,402.141z"/>
	<path d="M1171.943,482.705c-0.112-0.217-0.263-0.394-0.426-0.505c-0.171-0.118-0.374-0.184-0.609-0.184h-18.239V438.05
		c0-0.203-0.046-0.393-0.157-0.557c-0.099-0.151-0.281-0.276-0.551-0.367c-0.269-0.099-0.603-0.17-1.041-0.235
		c-0.427-0.073-0.977-0.099-1.625-0.099c-0.629,0-1.169,0.025-1.618,0.099c-0.438,0.065-0.793,0.137-1.055,0.235
		c-0.263,0.091-0.448,0.216-0.551,0.367c-0.104,0.164-0.157,0.354-0.157,0.557v47.072c0,1.028,0.269,1.742,0.806,2.148
		c0.537,0.399,1.107,0.609,1.704,0.609h22.484c0.235,0,0.438-0.059,0.609-0.177c0.163-0.118,0.313-0.301,0.426-0.55
		c0.118-0.249,0.21-0.557,0.262-0.897c0.053-0.36,0.078-0.8,0.078-1.324c0-0.523-0.025-0.963-0.078-1.343
		C1172.153,483.229,1172.062,482.934,1171.943,482.705z"/>
	<path d="M1228.2,438.24c-0.104-0.282-0.256-0.525-0.438-0.722c-0.184-0.196-0.439-0.347-0.779-0.458
		c-0.348-0.092-0.786-0.17-1.344-0.21c-0.543-0.039-1.237-0.059-2.076-0.059c-0.787,0-1.436,0.02-1.945,0.059
		c-0.519,0.04-0.932,0.118-1.271,0.21c-0.315,0.111-0.564,0.255-0.734,0.433c-0.17,0.183-0.308,0.425-0.412,0.714l-17.061,47.229
		c-0.203,0.589-0.314,1.048-0.327,1.402c-0.021,0.347,0.078,0.621,0.265,0.799c0.206,0.19,0.541,0.314,1.025,0.38
		c0.491,0.059,1.107,0.098,1.867,0.098c0.737,0,1.337-0.032,1.795-0.078c0.452-0.052,0.813-0.144,1.062-0.262
		s0.433-0.256,0.563-0.426c0.138-0.171,0.236-0.381,0.32-0.609l4.168-12.226h21.135l4.369,12.376c0.099,0.242,0.21,0.439,0.318,0.59
		c0.128,0.157,0.312,0.281,0.566,0.38c0.243,0.092,0.609,0.157,1.094,0.196c0.485,0.04,1.131,0.059,1.946,0.059
		c0.813,0,1.461-0.032,1.945-0.078c0.479-0.052,0.833-0.17,1.042-0.36c0.196-0.177,0.308-0.445,0.296-0.799
		c-0.014-0.354-0.125-0.819-0.342-1.402L1228.2,438.24z M1214.561,469.137l8.763-25.354h0.036l8.883,25.354H1214.561z"/>
	<path d="M1308.744,464.773c-0.91-1.075-1.959-1.966-3.164-2.653c-1.206-0.694-2.503-1.18-3.892-1.435
		c1.101-0.479,2.083-1.075,2.928-1.815c0.852-0.727,1.56-1.56,2.116-2.489c0.563-0.93,0.996-1.946,1.281-3.054
		c0.281-1.087,0.436-2.247,0.436-3.452c0-2.011-0.334-3.819-0.985-5.418c-0.652-1.599-1.628-2.948-2.926-4.049
		c-1.297-1.101-2.916-1.939-4.854-2.516c-1.939-0.577-4.429-0.865-7.469-0.865h-11.55c-0.604,0-1.174,0.203-1.714,0.609
		c-0.533,0.406-0.803,1.121-0.803,2.143v45.343c0,1.028,0.27,1.742,0.803,2.148c0.54,0.399,1.11,0.609,1.714,0.609h13.286
		c1.906,0,3.597-0.137,5.083-0.413c1.481-0.281,2.87-0.688,4.168-1.237c1.297-0.551,2.463-1.231,3.498-2.045
		c1.035-0.813,1.913-1.749,2.653-2.83c0.734-1.074,1.304-2.286,1.703-3.629c0.413-1.35,0.609-2.824,0.609-4.423
		c0-1.736-0.256-3.314-0.786-4.756C1310.355,467.105,1309.647,465.848,1308.744,464.773z M1284.864,442.524h6.983
		c1.934,0,3.486,0.184,4.665,0.551c1.163,0.367,2.129,0.903,2.862,1.592c0.734,0.694,1.271,1.539,1.605,2.535
		c0.341,0.996,0.512,2.109,0.512,3.341c0,1.107-0.171,2.169-0.485,3.204c-0.335,1.028-0.845,1.946-1.553,2.712
		c-0.708,0.773-1.599,1.389-2.667,1.841c-1.071,0.466-2.482,0.688-4.232,0.688h-7.69V442.524z M1303.811,477.424
		c-0.498,1.081-1.179,1.972-2.057,2.693c-0.879,0.727-1.894,1.257-3.04,1.631c-1.153,0.367-2.496,0.544-4.042,0.544h-9.808v-17.918
		h8.091c2.109,0,3.872,0.209,5.268,0.615c1.402,0.406,2.562,0.996,3.491,1.788c0.931,0.787,1.625,1.756,2.114,2.902
		c0.486,1.16,0.73,2.496,0.73,4.01C1304.559,475.104,1304.303,476.35,1303.811,477.424z"/>
	<path d="M1370.013,464.512c-1.087-1.082-2.325-2.025-3.721-2.825c-1.386-0.798-2.798-1.532-4.238-2.2
		c-1.441-0.669-2.857-1.33-4.246-1.985c-1.389-0.654-2.627-1.376-3.714-2.162c-1.089-0.786-1.959-1.696-2.614-2.712
		c-0.649-1.022-0.989-2.248-0.989-3.655c0-0.971,0.176-1.888,0.518-2.745c0.337-0.872,0.851-1.612,1.533-2.241
		c0.681-0.636,1.546-1.141,2.594-1.514c1.049-0.379,2.273-0.576,3.695-0.576c1.52,0,2.89,0.197,4.107,0.576
		c1.219,0.373,2.268,0.8,3.165,1.245c0.891,0.472,1.645,0.871,2.254,1.245c0.615,0.367,1.067,0.557,1.355,0.557
		c0.184,0,0.347-0.065,0.498-0.178c0.138-0.117,0.249-0.307,0.334-0.556c0.065-0.249,0.138-0.558,0.17-0.918
		c0.039-0.367,0.057-0.792,0.057-1.265c0-0.491-0.011-0.897-0.036-1.211c-0.027-0.315-0.06-0.591-0.125-0.807
		c-0.039-0.223-0.105-0.406-0.189-0.55c-0.079-0.151-0.243-0.348-0.492-0.597c-0.242-0.249-0.767-0.57-1.546-0.977
		c-0.792-0.405-1.684-0.779-2.692-1.101c-1.01-0.334-2.09-0.59-3.223-0.786c-1.141-0.196-2.274-0.295-3.407-0.295
		c-2.195,0-4.239,0.295-6.146,0.885c-1.9,0.59-3.538,1.447-4.907,2.575c-1.383,1.126-2.457,2.516-3.227,4.18
		c-0.77,1.67-1.163,3.563-1.163,5.68c0,2.07,0.341,3.853,1.003,5.32c0.675,1.493,1.54,2.777,2.613,3.878
		c1.075,1.101,2.297,2.058,3.656,2.87c1.363,0.813,2.765,1.553,4.206,2.221c1.435,0.668,2.85,1.323,4.226,1.959
		c1.376,0.642,2.602,1.356,3.676,2.129c1.064,0.76,1.938,1.664,2.581,2.686c0.668,1.022,0.995,2.261,0.995,3.702
		c0,1.33-0.242,2.522-0.706,3.571c-0.473,1.047-1.146,1.933-2.025,2.652c-0.878,0.728-1.926,1.278-3.145,1.671
		c-1.219,0.394-2.562,0.59-4.029,0.59c-1.939,0-3.656-0.229-5.13-0.688c-1.48-0.459-2.745-0.95-3.786-1.481
		c-1.056-0.517-1.914-1.002-2.575-1.448c-0.678-0.438-1.187-0.667-1.56-0.667c-0.203,0-0.386,0.045-0.543,0.137
		c-0.164,0.099-0.288,0.256-0.397,0.491c-0.114,0.236-0.187,0.544-0.238,0.925c-0.052,0.379-0.072,0.857-0.072,1.441
		c0,0.799,0.065,1.454,0.203,1.938c0.157,0.484,0.373,0.885,0.681,1.199c0.302,0.314,0.822,0.694,1.605,1.14
		c0.772,0.445,1.733,0.878,2.869,1.297c1.141,0.42,2.444,0.768,3.892,1.056c1.455,0.295,3.027,0.438,4.737,0.438
		c2.431,0,4.704-0.334,6.819-0.989c2.11-0.648,3.938-1.625,5.501-2.928c1.556-1.292,2.78-2.864,3.659-4.731
		c0.87-1.86,1.31-3.983,1.31-6.361c0-2.018-0.327-3.767-1.002-5.248C1371.979,466.889,1371.102,465.599,1370.013,464.512z"/>
	<polygon points="544.05,463.715 543.6,464.708 548.967,465.873 553.283,465.435 557.161,464.924 559.99,464.616 554.775,464.026 	
		"/>
	<polygon points="577.72,466.392 585.17,466.346 586.217,466.182 588.299,466.024 585.919,466.03 	"/>
	<polygon points="596.472,465.487 596.889,465.441 600.768,464.93 603.598,464.616 598.383,464.032 587.658,463.719 
		587.206,464.708 591.265,465.592 587.701,465.664 587.854,465.69 591.818,465.71 592.578,465.873 594.1,465.723 604.688,465.781 
		606.478,465.772 606.777,465.585 604.688,465.317 	"/>
	<polygon points="660.415,465.781 663.689,465.772 670.398,465.88 663.689,465.343 	"/>
	<polygon points="698.551,464.943 699.301,464.95 706.154,464.878 701.39,464.196 695.875,464.609 	"/>
	<polygon points="621.326,466.392 628.775,466.346 629.823,466.188 631.906,466.024 629.528,466.037 	"/>
	<polygon points="631.311,465.664 631.461,465.69 642.642,465.752 633.294,465.9 644.171,465.906 646.277,465.772 648.298,465.781 
		650.087,465.775 650.388,465.592 648.298,465.324 	"/>
	<polygon points="691.204,465.69 686.585,465.749 676.902,465.9 687.778,465.906 	"/>
	<path d="M1109.737,464.406l-1.645-0.15l-13.261-0.715l-3.871,0.021l-19.071,0.111l-17.88-0.053l-1.493-0.011l-1.287-0.068
		l-3.879,0.021l-1.035,0.007l-9.296-0.073l-15.498-0.34l-16.378-0.171l-19.079,0.256l-1.965,0.049l-6.185-0.134l-16.382-0.177
		l-19.077,0.262l-20.856,0.511l-20.56,0.334l-19.52,0.256l-2.385,0.022l-10.895,0.15l-13.585-0.454l-3.728-0.145l-14.627,0.812
		l-8.565-0.11l-16.69-0.563l-3.725-0.145l-15.936,0.891l-0.354-0.013l-8.344,0.518l-10.613,0.171l-14.515-0.381l-8.026-0.249
		l-4.537-0.648l-5.517,0.413l2.68,0.334l0.747,0.014l2.087-0.023l-5.913,0.37l-20.712,0.334l-6.95,0.043l-4.119-0.331l-2.832,0.373
		l-6.208,0.04l-14.899,0.347l13.706,0.314l20.858-0.308l8.491-0.134l12.817-0.279l19.663-0.189l4.049,0.11l-0.966,0.014
		l-20.113,0.132l-14.898,0.34l13.706,0.321l20.86-0.314l8.49-0.131l3.396-0.072l0.974,0.026l8.192,0.301l6.709,0.22l18.622-0.042
		l18.026,0.032h6.555l0.406,0.014l6.207-0.014h5.308l0.891-0.013l6.215-0.014l18.029,0.033h13.289l-1.475,0.229l1.868,0.066
		l-13.539-0.118h-18.022l-18.476,0.02l0.043,0.039l-7.151-0.065h-18.026l-18.475,0.022l0.599,0.521l18.924-0.216l19.219-0.111
		l5.104,0.02l0.36,0.313l18.921-0.222l19.222-0.105l17.434,0.06l2.233-0.026l-2.829-0.085l-4.144-0.032l19.382-0.139l7.901-0.227
		l-0.118-0.251l16.162-0.073l15.19-0.075l0.592,0.007l-15.782,0.22l-2.98,0.458l2.385,0.085l20.258-0.137l1.723-0.046l4.143,0.71
		l18.171,0.201l21.158-0.409l3.112,0.016l1.162,0.196l18.174,0.203l21.162-0.413l18.475,0.085l8.196,0.021l5.362,0.032l3.573-0.189
		l3.132-0.131l19.517-0.78l12.664-0.138l4.468-0.052l6.854-0.138l-2.83-0.524L1109.737,464.406z M807.918,466.005l-18.327,0.036
		l-8.688-0.285l1.942-0.046l19.383-0.189l1.254,0.019l14.519,0.4l2.702,0.104L807.918,466.005z M822.271,465.684l3.673,0.014
		l3.616,0.229L822.271,465.684z"/>
	<polygon points="528.682,465.048 524.804,465.553 521.973,465.867 527.195,466.457 537.913,466.766 538.365,465.775 
		532.999,464.609 	"/>
	<polygon points="495.748,464.295 493.671,464.459 496.049,464.452 504.245,464.092 496.796,464.138 	"/>
	<polygon points="477.279,464.701 475.491,464.708 475.189,464.897 477.279,465.166 494.267,464.819 494.109,464.793 	"/>
	<path d="M713.125,402.712l-92.218-127.434l85.951-112.645l1.78,0.046l18.783,0.376l11.308,0.275l2.326-0.138v220.711l-0.192,9.809
		l0.061,10.239l0.028,3.604l0.1,5.536l0.542-2.276l0.907-4.927l0.154-1.33l0.136-1.847h71.99l-0.107,13.855l0.157,7.895l0.02-10.62
		l0.01-11.13h0.344V283.501h0.187l0.121,4.697l0.03-4.697h0.599l76.686,119.131h-1.428l-38.458,0.348l35.378,0.314l53.84-0.308
		l21.915-0.131l15.369-0.132l6.106,7.94l-3.78-5.798l-1.134-1.565l-0.426-0.583l0.668-0.006h0.338l1.66,2.286l22.819,30.955
		l-20.48-28.847l-3.226-4.401l15.177-0.132l20.414-0.078c-0.066-0.274-0.158-0.544-0.217-0.819l-20.595,0.498l-15.101,0.092
		l-9.477-12.942c-0.018,0.01-0.033,0.017-0.05,0.023l-82.551-114.068l75.758-99.277l3.275-4.104l5.283-6.512l-0.062-0.387
		l-2.941,3.728l4.812-6.306h-87.104l0.17-0.269l3.918-5.493l4.277-6.123l2.585-3.672l1.785-3.249l3.984-6.391
		c-0.082-0.03-0.157-0.056-0.239-0.088l-0.986,1.573l-2.975,4.844l-4.671,7.354l-3.948,5.628l-2.119,2.958l-1.732,2.424
		l-0.324,0.504h-0.125l0.295-0.455l-0.386,0.065l-0.242,0.39h-0.155L816.14,273.412h-0.704l-0.114-9.539l-0.043,9.539h-0.075V46.957
		h-74.149v115.502l-15.127,0.187l-17.29-0.367l-9.139-0.275l-7.482-0.187l-20.781,0.111l-20.113,0.033l-20.604,0.072l-9.704,0.16
		l0.682-0.927l7.994-11.013l4.842-6.604l2.634-4.638c-0.164-0.053-0.314-0.125-0.478-0.183l-7.96,12.087l-7.357,10.135l-0.861,1.153
		l-12.733,0.212l-0.164-0.013l-14.184,0.108c-0.465,0.632-0.996,1.209-1.579,1.746h0.144l17.624-0.278l8.69-0.141l-70.647,109.574
		h-0.943V96.182l2.004-0.052l-2.004-0.003V46.957h-74.156l-42.987,48.196l-3.987-0.023l-1.297,0.026l1.638,0.089l3.518,0.052
		l-0.258,0.289l-2.827,0.003l-11.917,0.298l-0.084-0.01l-7.377,0.059c-0.238,0.632-0.524,1.199-0.826,1.736l0.072,0.003l9.159-0.219
		l10.797-0.259l9.84,0.223l9.67,0.563l2.156,0.137l9.506-0.914l0.184-0.236h15.022v305.19l-30.53,0.274l30.53,0.276h0.433
		l4.422,0.039l6.873-0.039h59.749l0.506,5.801l0.179,1.327l0.977,4.913l0.145,6.616l0.451-9.886l0.422-3.616v-5.155v-5.118V283.501
		h0.943l76.316,118.568l-24.337-0.249c0.007,0.131,0.033,0.255,0.033,0.387h0.314l24.249,0.262l0.155,0.243h1.047l0.414,0.614
		l-0.365-0.614h19.728l7.904,0.11c-0.005-0.032-0.01-0.071-0.013-0.11H713.125z"/>
	<path d="M1438.509,157.654c-30.582,0-51.757,16.317-63.517,48.933h-0.943v-44.698h-63.579l-2.643-0.13l-1.651-0.092l-3.672,0.223
		h-2.801v0.171l-0.793,0.046l-0.196,0.189l-0.007,0.072h0.066l0.93,0.029v0.384l-1.389-0.007l-6.742-0.331l-7.461-0.305
		l-4.488-0.196l-3.695,0.249l-7.527,0.092c0.014,0.085,0.032,0.167,0.053,0.246l1.854-0.017l5.681-0.104l8.713-0.033l6.872,0.288
		l3.63,0.19l2.975,0.151l1.526,0.006v0.104l-1.396-0.009l0.263,0.292l1.133-0.01V402.79h54.512c0,0.013,0.003,0.026,0.003,0.039
		c0,0.046-0.007,0.089-0.007,0.138l0.623-0.007l7.003-0.059l8.255-0.079l7.521,0.184l7.402,0.373l1.651,0.086l7.266-0.445
		l0.196-0.184l0.007-0.066h-0.065l-7.73-0.242l-7.928-0.11l-2.765-0.23l2.771,0.03l7.985,0.095l8.125,0.053l6.741,0.327l7.462,0.302
		l4.488,0.2l3.694-0.253l7.524-0.092c-0.01-0.079-0.029-0.164-0.049-0.249l-1.854,0.021l-5.68,0.104l-8.714,0.033l-6.872-0.288
		l-3.63-0.19l-2.974-0.15l-8.256-0.042l-7.992-0.075l-4.37-0.039v-0.142l4.312,0.082l7.986,0.06l8.186,0.058l-0.259-0.288
		l-8.386,0.053l-8.523-0.014l-3.315-0.039V287.746c0-20.389,4.547-36.495,13.647-48.34c9.093-11.838,21.718-17.764,37.874-17.764
		c11.917,0,22.35,2.434,31.289,7.295v-68.459C1452.47,158.594,1446.352,157.654,1438.509,157.654z"/>
	<polygon points="993.875,138.829 990.059,143.48 989.639,144.237 988.683,145.629 989.904,144.148 	"/>
	<polygon points="986.01,148.609 985.914,148.685 977.133,159.072 976.215,160.193 976.202,160.488 977.486,159.367 	"/>
	<path d="M145.807,169.273c5.51-9.225,12.368-17.542,20.329-24.673l-2.576,1.658l-0.374-0.501l-0.86,0.409l0.237,0.357
		c-0.537,0.439-1.561,1.068-2.416,1.589c-0.473,0.289-0.889,0.537-1.091,0.685l-0.146-0.167c-0.085,0.053-0.172,0.105-0.257,0.158
		l0.044,0.144c-0.19,0.075-1.13,0.583-2.436,1.412c-0.981,0.76-1.633,1.208-2.294,1.661c-0.549,0.376-1.105,0.757-1.942,1.389
		c-0.588,0.295-0.86,0.387-1.157,0.387h-0.929l-0.021-0.066l-0.206,0.112l0.465,0.652c-0.388,0.305-1.148,0.773-1.794,1.169
		l-0.072,0.042l-0.157,0.102l0.015,0.056l-1.585,0.963l-0.103-0.167c-0.778,0.508-1.665,1.078-2.806,1.802
		c0.383,1.782,0.811,3.803,1.408,6.951l-0.031,0.006L145.807,169.273z"/>
	<path d="M170.894,140.571l-14.173,2.519l-0.008-0.046l-0.251,0.032l-12.872,2.375c-0.865,0.131-1.167,0.151-1.303,0.151
		l-0.362-0.04c0.002,0.02-0.199,0.056-0.769,0.154l0.996,5.153l-0.031,0.006c0.357,1.907,0.648,3.338,0.924,4.638
		c0.152-0.075,0.293-0.141,0.42-0.196l0.097,0.184c0.537-0.328,1.191-0.744,1.967-1.268c0.109-0.073,0.213-0.145,0.303-0.207
		l-0.089-0.147c0.292-0.184,0.5-0.301,0.639-0.374l1.584-0.92l0.159,0.226l0.594-0.383l0.399,0.561l0.475-0.282
		c-0.203-0.93,0.464-1.432,3.667-3.613l0.085,0.104c2.881-1.929,5.585-3.577,7.834-4.763l0.105,0.16h1.035l-0.26-0.351l1.073-0.92
		c1.972-1.264,2.237-1.264,2.543-1.264h0.913l0.3,0.871c0.198,0.61-0.079,1.045-0.354,1.327
		C167.958,142.995,169.403,141.757,170.894,140.571z"/>
</g>
</svg>
