<svg enable-background="new 0 0 1500 500" height="500" viewBox="0 0 1500 500" width="1500" xmlns="http://www.w3.org/2000/svg"><path d="m227.033 304.073v1.186c0 .386.079.707.242.949.164.243.365.4.609.459.249.059.531.131.858.216h.918c.524 0 .982-.032 1.369-.092.393-.065.681-.256.891-.583.158-.242.236-.583.209-1.009-.021-.426-.026-.845-.026-1.251v-4.77-26.029-6.112c0-.57 0-1.114 0-1.625 0-.505-.126-.924-.367-1.252-.164-.203-.426-.333-.792-.393-.369-.064-.76-.092-1.166-.092-.079.039-.185.06-.301.06-.125 0-.229.019-.308.059-.367.085-.655.249-.852.491-.249.367-.446.793-.583 1.284-.144.491-.334.937-.583 1.343-.367.57-.753 1.101-1.159 1.592-.406.485-.897.918-1.468 1.284-.531.321-1.081.598-1.651.819-.57.229-1.16.438-1.775.642-.236.085-.485.138-.729.151-.248.026-.47.059-.673.098-.445.119-.997.184-1.645.184-.661 0-1.146.099-1.474.302-.282.164-.498.452-.636.858-.15.406-.178.852-.098 1.343.046.203.064.381.064.518 0 .145.041.274.12.399.249.452.694.682 1.35.701.648.02 1.322.033 2.011.033h4.651c.485 0 .943.013 1.368.032.434.02.788.132 1.076.335.242.203.374.438.393.701.026.268.07.582.157.949v21.757z"/><path d="m261.002 304.073v1.186c0 .386.079.707.249.949.164.243.367.4.609.459s.53.131.852.216h.917c.53 0 .989-.032 1.375-.092.387-.065.681-.256.885-.583.164-.242.235-.583.216-1.009s-.032-.845-.032-1.251v-4.77-26.029-6.112c0-.57 0-1.114 0-1.625 0-.505-.119-.924-.368-1.252-.163-.203-.426-.333-.792-.393-.369-.064-.753-.092-1.159-.092-.079.039-.184.06-.308.06-.118 0-.223.019-.303.059-.366.085-.654.249-.857.491-.242.367-.438.793-.576 1.284-.145.491-.341.937-.583 1.343-.367.57-.76 1.101-1.159 1.592-.413.485-.898.918-1.468 1.284-.532.321-1.081.598-1.65.819-.57.229-1.16.438-1.776.642-.242.085-.485.138-.727.151-.249.026-.472.059-.675.098-.445.119-1.002.184-1.651.184-.655 0-1.14.099-1.467.302-.281.164-.498.452-.642.858s-.17.852-.091 1.343c.039.203.065.381.065.518 0 .145.04.274.116.399.25.452.696.682 1.351.701.648.02 1.317.033 2.01.033h4.646c.491 0 .95.013 1.376.032.433.02.786.132 1.068.335.249.203.38.438.399.701.02.268.072.582.151.949v21.757 4.463z"/><path d="m241.896 213.583c.251.449.697.682 1.352.705.648.02 1.323.026 2.01.026h4.653c.485 0 .95.013 1.37.033.432.02.786.131 1.074.334.242.203.374.439.393.701.026.269.072.583.157.95v21.757 4.462 1.192s.079.701.242.943c.164.242.367.4.61.459.249.059.53.131.856.216h.919c.53 0 .982-.033 1.369-.102.393-.056.681-.246.891-.573.157-.242.235-.583.209-1.008-.02-.426-.028-.845-.028-1.251v-4.77-26.028-6.113c0-.57 0-1.107 0-1.625 0-.504-.123-.92-.365-1.251-.164-.2-.426-.33-.793-.393-.367-.06-.753-.092-1.166-.092-.079.042-.184.059-.301.059-.125 0-.229.023-.31.066-.365.075-.653.242-.85.488-.249.367-.439.792-.583 1.281-.144.491-.334.94-.583 1.346-.367.57-.754 1.101-1.16 1.588-.406.488-.897.917-1.467 1.284-.533.328-1.082.599-1.653.825-.562.223-1.158.439-1.773.639-.236.085-.484.134-.728.154-.242.016-.472.052-.675.095-.445.118-.996.183-1.644.183-.655 0-1.146.098-1.474.298-.282.167-.498.452-.635.858-.151.406-.177.858-.099 1.346.044.203.065.377.065.518.001.145.041.276.117.4z"/><path d="m236.526 183.811c.289.039.563.069.825.092.262.02.524.068.767.147h.367c.125.045.262.045.425 0 .164-.036.347-.017.55.065.125.04.328.062.61.062s.511-.022.675-.062c.157-.042.34-.052.517-.029.184.02.352.009.524-.036.485-.079.948-.141 1.402-.181.446-.039.891-.141 1.343-.304.413-.118.832-.243 1.282-.367.447-.125.838-.281 1.162-.488.249-.161.498-.314.766-.459.262-.141.498-.298.701-.458.773-.534 1.494-1.222 2.175-2.081.668-.852 1.212-1.729 1.611-2.626.164-.364.321-.741.465-1.13.138-.384.288-.783.452-1.189.085-.324.164-.662.249-1.009.079-.347.164-.681.241-1.012.159-.524.264-1.068.309-1.615.04-.55.118-1.107.243-1.681v-.612c.085-.403.125-.826.125-1.251 0-.429.04-.848.118-1.255v-.668-.979c.079-.285.111-.603.091-.95s-.026-.681-.026-1.005v-1.896c0-.161 0-.334 0-.518s-.021-.337-.065-.459c-.079-.246-.085-.521-.026-.829.059-.301.052-.577-.033-.822v-.55c-.039-.203-.053-.419-.026-.642.013-.226.007-.436-.033-.642-.04-.161-.053-.325-.033-.489.02-.16-.007-.347-.092-.547-.079-.449-.133-.897-.151-1.346-.026-.449-.092-.897-.216-1.343-.079-.328-.158-.661-.209-1.015-.066-.337-.138-.678-.217-1.002-.203-.57-.386-1.121-.55-1.648-.164-.53-.347-1.042-.55-1.533-1.022-2.319-2.57-4.121-4.645-5.405-2.077-1.284-4.809-1.887-8.19-1.805-.288.043-.55.059-.792.059s-.511.026-.792.065c-.577.121-1.134.216-1.684.305-.55.082-1.095.223-1.625.426-1.867.819-3.328 1.815-4.363 2.991-1.042 1.189-1.946 2.716-2.726 4.589-.282.609-.484 1.254-.609 1.923-.118.675-.289 1.356-.486 2.05-.084.203-.117.42-.09.643.02.223-.013.432-.092.642-.04.406-.085.802-.125 1.186-.039.393-.079.786-.125 1.195l-.183 2.568v1.157c-.08.331-.099.727-.059 1.195s.059.881.059 1.251c0 .321-.02.662-.059 1.009s-.021.662.059.947c.084.203.105.41.065.609-.039.206-.039.39 0 .547.04.209.04.423 0 .646-.039.226-.02.438.06.642v.645c0 .223.02.436.059.639.046.164.052.327.033.491-.021.157-.007.321.033.484.079.449.144.897.184 1.343.038.449.098.901.182 1.35.165.652.303 1.274.426 1.861.126.589.31 1.173.55 1.743.486 1.264 1.063 2.427 1.711 3.482.655 1.061 1.468 1.956 2.451 2.689.196.164.413.298.635.399.229.102.439.229.643.396.57.328 1.166.593 1.769.792.615.206 1.264.406 1.958.613zm-4.638-12.101c-.17-.445-.262-.927-.281-1.438-.02-.508-.085-1.006-.217-1.494-.039-.449-.065-.865-.085-1.251-.02-.393-.052-.789-.098-1.196-.033-.079-.046-.189-.026-.333.02-.145.026-.259.026-.334v-1.104c-.079-.285-.105-.6-.085-.947.019-.344.033-.681.033-1.009v-1.831c0-.209 0-.39 0-.55 0-.164.02-.305.052-.429v-.734c0-.324.013-.661.033-1.012.02-.341.031-.678.031-1.002.041-.407.08-.81.119-1.192.046-.387.085-.764.131-1.134.031-.2.052-.416.052-.639 0-.226.046-.436.131-.642.118-.531.229-1.048.334-1.56.098-.511.249-.986.452-1.435.452-1.141 1.009-2.149 1.683-3.027.675-.875 1.56-1.556 2.661-2.047.281-.121.556-.212.825-.275.262-.059.563-.131.883-.213.126-.04.281-.052.493-.029.203.02.341-.01.426-.092 1.178 0 2.175.111 2.993.334.814.226 1.548.563 2.203 1.009 1.014.733 1.821 1.68 2.416 2.843.585 1.159 1.024 2.476 1.312 3.938.282 1.467.465 3.04.55 4.71s.118 3.38.118 5.133c0 1.671-.033 3.341-.118 5.009-.085 1.67-.329 3.161-.733 4.465-.079.324-.159.632-.217.914-.059.285-.15.573-.275.855-.281.694-.57 1.284-.852 1.772-.289.484-.636 1.019-1.043 1.589-.241.246-.45.409-.607.491-.079.075-.164.161-.242.242-.085.085-.184.164-.308.246-.655.448-1.389.792-2.203 1.038-.241.082-.503.131-.791.154-.288.02-.577.068-.858.15-.249.082-.585.102-1.009.059-.426-.036-.721-.075-.885-.121-.203-.079-.374-.111-.517-.088-.144.02-.302-.01-.465-.092-1.297-.406-2.378-1.019-3.23-1.834-.779-.816-1.363-1.69-1.744-2.627-.387-.94-.748-2.018-1.068-3.24z"/><path d="m270.751 152.399c.491 0 .95.01 1.376.03s.786.134 1.068.334c.249.206.38.442.4.7.02.269.065.587.15.95v21.757 4.461 1.187c0 .393.079.707.249.953.164.243.367.397.607.456.244.063.526.134.854.219h.917c.531 0 .99-.032 1.376-.102.387-.055.682-.249.885-.573.162-.246.235-.58.216-1.009s-.033-.845-.033-1.251v-4.769-26.032-6.113c0-.566 0-1.107 0-1.625 0-.504-.118-.921-.367-1.248-.164-.203-.426-.334-.793-.396-.367-.059-.753-.092-1.16-.092-.08.043-.183.059-.308.059-.118 0-.223.026-.301.065-.367.075-.655.243-.858.488-.243.367-.439.792-.583 1.28-.138.492-.334.941-.577 1.347-.367.573-.76 1.101-1.16 1.588-.413.488-.899.917-1.468 1.285-.531.328-1.081.599-1.657.822-.563.229-1.153.442-1.769.642-.243.085-.492.135-.728.154-.249.016-.472.049-.682.091-.445.121-.996.187-1.644.187-.656 0-1.14.102-1.468.298-.282.164-.498.456-.642.858-.144.406-.17.858-.092 1.346.04.203.066.376.066.521 0 .141.039.272.118.396.249.449.694.681 1.35.704.648.02 1.317.029 2.011.029h4.647z"/><path d="m173.947 213.583c.249.449.694.682 1.35.705.648.02 1.323.026 2.011.026h4.645c.491 0 .95.013 1.376.033.431.02.786.131 1.068.334.249.203.38.439.399.701.02.269.072.583.151.95v21.757 4.462 1.192s.079.701.249.943c.164.242.367.4.609.459.243.059.531.131.852.216h.917c.531 0 .989-.033 1.376-.102.387-.056.679-.246.884-.573.164-.242.236-.583.215-1.008-.018-.426-.032-.845-.032-1.251v-4.77-26.028-6.113c0-.57 0-1.107 0-1.625 0-.504-.118-.92-.367-1.251-.157-.2-.419-.33-.792-.393-.367-.06-.753-.092-1.16-.092-.079.042-.183.059-.31.059-.117 0-.221.023-.3.066-.367.075-.655.242-.858.488-.244.367-.438.792-.577 1.281-.144.491-.34.94-.583 1.346-.367.57-.755 1.101-1.16 1.588-.412.488-.897.917-1.467 1.284-.53.328-1.081.599-1.651.825-.57.223-1.16.439-1.775.639-.243.085-.485.134-.727.154-.249.016-.472.052-.675.095-.446.118-.996.183-1.651.183s-1.14.098-1.467.298c-.282.167-.498.452-.635.858-.151.406-.177.858-.099 1.346.046.203.066.377.066.518 0 .145.039.276.118.4z"/><path d="m232.556 235.672c.079-.34.164-.681.243-1.009.164-.531.268-1.068.308-1.618.04-.551.123-1.107.243-1.677v-.616c.085-.406.125-.819.125-1.251 0-.425.038-.845.125-1.25v-.675-.976c.078-.282.104-.603.084-.95s-.027-.681-.027-1.002v-1.899c0-.157 0-.334 0-.518 0-.183-.018-.333-.057-.458-.087-.243-.092-.518-.033-.829.059-.298.053-.573-.033-.822v-.55c-.039-.196-.053-.419-.026-.642.011-.223.005-.433-.032-.642-.04-.157-.053-.321-.033-.485.026-.164-.006-.351-.091-.551-.079-.452-.131-.897-.151-1.35-.02-.445-.092-.891-.216-1.336-.079-.331-.151-.665-.209-1.012-.066-.344-.138-.681-.217-1.009-.203-.566-.386-1.117-.55-1.654-.166-.521-.348-1.032-.55-1.523-1.017-2.319-2.562-4.124-4.646-5.405-2.076-1.284-4.808-1.887-8.182-1.805-.294.042-.557.059-.799.059-.244 0-.511.023-.792.066-.571.121-1.135.216-1.684.305-.55.078-1.088.223-1.618.425-1.874.819-3.335 1.815-4.37 2.994-1.035 1.183-1.946 2.712-2.719 4.586-.288.613-.491 1.251-.609 1.926-.125.668-.289 1.353-.492 2.047-.079.204-.111.413-.092.635.02.229-.013.436-.091.643-.04.413-.081.806-.125 1.189-.04.396-.079.79-.119 1.196l-.183 2.568v1.16c-.085.328-.105.727-.065 1.192s.065.881.065 1.251c0 .324-.026.662-.065 1.009s-.02.662.065.95c.079.203.099.406.059.609s-.04.387 0 .547c.04.206.04.416 0 .645-.04.223-.02.439.059.636v.648c0 .223.02.439.065.642.04.164.053.321.025.485-.018.161-.006.327.035.491.079.446.144.898.184 1.343.039.445.104.897.183 1.343.164.655.308 1.278.426 1.867.125.59.308 1.173.55 1.743.491 1.265 1.062 2.424 1.71 3.479.655 1.062 1.467 1.959 2.45 2.693.195.164.413.295.642.399.223.099.433.226.636.393.57.328 1.166.589 1.775.793.609.209 1.264.406 1.952.616.289.04.563.072.832.085.262.026.518.079.76.154h.367c.125.042.269.042.426 0 .164-.036.345-.017.557.068.118.04.321.06.603.06.289 0 .511-.02.675-.06.164-.045.34-.052.518-.033.184.02.354.007.524-.036.492-.076.957-.144 1.409-.18.445-.04.891-.144 1.336-.308.413-.118.838-.243 1.291-.367.445-.128.832-.282 1.153-.485.248-.164.504-.321.766-.458.263-.144.498-.298.708-.459.766-.53 1.494-1.225 2.168-2.083.668-.852 1.212-1.73 1.611-2.621.162-.367.321-.747.466-1.133.144-.387.294-.787.458-1.193.074-.328.154-.663.239-1.01zm-4.462-6.021c-.085 1.671-.327 3.158-.735 4.461-.077.328-.149.636-.214.918-.061.288-.15.576-.269.858-.288.694-.577 1.284-.858 1.769-.288.492-.636 1.022-1.035 1.592-.249.243-.452.406-.616.492-.08.075-.164.157-.242.242-.085.079-.184.164-.308.242-.65.445-1.382.792-2.195 1.042-.249.079-.511.131-.799.151-.281.02-.57.072-.858.151-.243.085-.577.104-1.002.059-.433-.033-.728-.079-.891-.118-.203-.079-.373-.111-.518-.092-.144.02-.295-.006-.458-.092-1.304-.406-2.385-1.022-3.236-1.834-.78-.813-1.356-1.691-1.743-2.627-.387-.937-.741-2.018-1.068-3.236-.172-.452-.255-.924-.275-1.441-.026-.504-.092-1.002-.216-1.494-.046-.445-.072-.865-.091-1.251-.02-.39-.053-.786-.092-1.192-.04-.079-.052-.197-.026-.341.013-.137.026-.252.026-.334v-1.101c-.079-.282-.112-.596-.092-.943s.031-.682.031-1.009v-1.834c0-.207 0-.387 0-.55s.021-.301.061-.426v-.734c0-.327.006-.661.026-1.012.026-.344.033-.678.033-1.006.046-.406.079-.809.125-1.192.038-.386.085-.76.125-1.133.04-.203.059-.413.059-.636 0-.229.039-.438.125-.645.118-.527.229-1.045.334-1.556.098-.511.255-.986.458-1.438.452-1.136 1.002-2.148 1.684-3.023.669-.875 1.553-1.56 2.66-2.047.282-.122.55-.213.819-.275.262-.059.563-.131.884-.213.125-.039.289-.052.492-.029.203.02.347-.01.432-.092 1.18 0 2.175.112 2.994.334.813.226 1.545.563 2.195 1.009 1.015.737 1.821 1.684 2.417 2.843.589 1.157 1.029 2.477 1.311 3.938.281 1.464.465 3.037.55 4.707.085 1.671.118 3.381.118 5.136-.004 1.667-.036 3.338-.122 5.002z"/><path d="m300.508 235.672c.079-.34.164-.681.242-1.009.164-.531.267-1.068.308-1.618.039-.551.125-1.107.241-1.677v-.616c.087-.406.126-.819.126-1.251 0-.425.039-.845.125-1.25v-.675-.976c.079-.282.112-.603.092-.95-.026-.347-.026-.681-.026-1.002v-1.899c0-.157 0-.334 0-.518 0-.183-.026-.333-.065-.458-.085-.243-.091-.518-.033-.829.064-.298.052-.573-.033-.822v-.55c-.033-.196-.052-.419-.026-.642.02-.223.006-.433-.033-.642-.039-.157-.052-.321-.026-.485.02-.164-.013-.351-.1-.551-.077-.452-.129-.897-.149-1.35-.02-.445-.092-.891-.216-1.336-.079-.331-.15-.665-.21-1.012-.059-.344-.137-.681-.216-1.009-.203-.566-.387-1.117-.55-1.654-.157-.521-.34-1.032-.55-1.523-1.016-2.319-2.562-4.124-4.646-5.405-2.076-1.284-4.809-1.887-8.182-1.805-.289.042-.55.059-.801.059-.24 0-.509.023-.791.066-.57.121-1.133.216-1.684.305-.55.078-1.087.223-1.618.425-1.874.819-3.328 1.815-4.37 2.994-1.036 1.183-1.945 2.712-2.718 4.586-.282.613-.492 1.251-.61 1.926-.118.668-.288 1.353-.485 2.047-.085.204-.118.413-.098.635.02.229-.006.436-.085.643-.046.413-.085.806-.131 1.189-.033.396-.079.79-.12 1.196l-.182 2.568v1.16c-.085.328-.1.727-.065 1.192.046.465.065.881.065 1.251 0 .324-.02.662-.065 1.009-.034.347-.02.662.065.95.085.203.098.406.065.609-.046.203-.046.387 0 .547.033.206.033.416 0 .645-.046.223-.028.439.052.636v.648c0 .223.026.439.064.642.041.164.055.321.034.485-.02.161-.013.327.033.491.079.446.138.898.184 1.343.032.445.098.897.183 1.343.157.655.301 1.278.42 1.867.13.59.314 1.173.55 1.743.491 1.265 1.061 2.424 1.709 3.479.653 1.062 1.474 1.959 2.451 2.693.203.164.412.295.642.399.221.099.433.226.634.393.578.328 1.168.589 1.777.793.616.209 1.264.406 1.959.616.288.04.557.072.825.085.262.026.518.079.758.154h.369c.125.042.269.042.433 0 .164-.036.347-.017.55.068.118.04.319.06.607.06.283 0 .506-.02.669-.06.163-.045.341-.052.518-.033.183.02.36.007.524-.036.491-.076.956-.144 1.408-.18.445-.04.891-.144 1.341-.308.408-.118.834-.243 1.286-.367.445-.128.832-.282 1.159-.485.242-.164.497-.321.767-.458.262-.144.498-.298.701-.459.773-.53 1.494-1.225 2.169-2.083.675-.852 1.212-1.73 1.618-2.621.164-.367.321-.747.458-1.133.144-.387.295-.787.459-1.193.087-.328.165-.663.244-1.01zm-4.462-6.021c-.085 1.671-.321 3.158-.734 4.461-.079.328-.151.636-.216.918-.052.288-.151.576-.269.858-.282.694-.57 1.284-.858 1.769-.288.492-.637 1.022-1.035 1.592-.249.243-.452.406-.616.492-.078.075-.164.157-.244.242-.078.079-.182.164-.306.242-.649.445-1.383.792-2.195 1.042-.249.079-.511.131-.799.151-.282.02-.57.072-.852.151-.249.085-.583.104-1.009.059-.434-.033-.72-.079-.884-.118-.203-.079-.382-.111-.52-.092-.149.02-.299-.006-.463-.092-1.297-.406-2.378-1.022-3.236-1.834-.775-.813-1.356-1.691-1.736-2.627-.393-.937-.747-2.018-1.074-3.236-.164-.452-.256-.924-.275-1.441-.02-.504-.091-1.002-.216-1.494-.04-.445-.066-.865-.092-1.251-.02-.39-.052-.786-.091-1.192-.04-.079-.046-.197-.026-.341.013-.137.026-.252.026-.334v-1.101c-.079-.282-.112-.596-.094-.943.028-.347.035-.682.035-1.009v-1.834c0-.207 0-.387 0-.55s.02-.301.059-.426v-.734c0-.327.013-.661.033-1.012.018-.344.032-.678.032-1.006.04-.406.079-.809.119-1.192.039-.386.085-.76.125-1.133.039-.203.059-.413.059-.636 0-.229.04-.438.125-.645.123-.527.229-1.045.334-1.556s.256-.986.458-1.438c.452-1.136 1.008-2.148 1.684-3.023.668-.875 1.558-1.56 2.66-2.047.282-.122.557-.213.819-.275.262-.059.564-.131.891-.213.116-.039.282-.052.485-.029.202.02.347-.01.433-.092 1.179 0 2.175.112 2.994.334.812.226 1.546.563 2.195 1.009 1.015.737 1.827 1.684 2.417 2.843.59 1.157 1.028 2.477 1.311 3.938.282 1.464.465 3.037.55 4.707.083 1.671.125 3.381.125 5.136-.004 1.667-.045 3.338-.129 5.002z"/><path d="m300.056 293.171v-20.021-6.112c0-.57 0-1.114 0-1.625 0-.505-.125-.924-.367-1.252-.164-.203-.426-.333-.792-.393-.367-.064-.754-.092-1.167-.092-.079.039-.183.06-.302.06-.125 0-.229.019-.308.059-.367.085-.655.249-.853.491-.248.367-.438.793-.582 1.284-.137.491-.333.937-.583 1.343-.369.57-.753 1.101-1.16 1.592-.406.485-.892.918-1.467 1.284-.531.321-1.081.598-1.651.819-.565.229-1.16.438-1.769.642-.242.085-.491.138-.733.151-.242.026-.472.059-.675.098-.446.119-.996.184-1.645.184-.655 0-1.146.099-1.467.302-.29.164-.498.452-.642.858-.145.406-.171.852-.092 1.343.04.203.059.381.059.518 0 .145.046.274.125.399.243.452.687.682 1.343.701.655.02 1.323.033 2.018.033h4.646c.484 0 .949.013 1.375.032.426.02.786.132 1.068.335.243.203.374.438.399.701.02.268.066.582.151.949v19.563c1.741-1.357 3.431-2.771 5.071-4.246z"/><path d="m200.355 272.383c.588 1.16 1.029 2.477 1.311 3.944s.465 3.033.55 4.704c.077 1.507.105 3.046.111 4.611h5.451v-1.375c0-.164 0-.334 0-.519 0-.183-.02-.34-.059-.457-.085-.249-.092-.519-.033-.826.066-.309.053-.583-.034-.825v-.551c-.031-.203-.051-.413-.024-.642.02-.224.006-.439-.033-.643-.04-.163-.053-.321-.026-.484.02-.164-.013-.348-.098-.551-.079-.452-.131-.897-.151-1.35-.02-.445-.092-.891-.216-1.337-.079-.333-.153-.667-.21-1.015-.065-.341-.137-.682-.218-1.009-.201-.57-.385-1.121-.548-1.645-.164-.531-.347-1.042-.55-1.533-1.015-2.319-2.562-4.121-4.645-5.405-2.079-1.283-4.809-1.887-8.183-1.802-.289.039-.55.06-.799.06-.243 0-.511.019-.792.059-.57.124-1.134.229-1.684.309-.55.078-1.087.222-1.618.425-1.874.82-3.328 1.815-4.37 2.994-1.035 1.186-1.946 2.713-2.718 4.587-.289.616-.492 1.251-.609 1.926-.125.668-.288 1.355-.491 2.05-.079.204-.112.413-.092.636.02.229-.015.439-.091.642-.04.406-.079.807-.125 1.193-.033.387-.08.786-.118 1.192l-.184 2.567v1.16c-.085.327-.098.727-.065 1.192.036.367.043.675.05.976h5.394v-1.435c0-.203 0-.386 0-.55 0-.163.018-.309.059-.426v-.734c0-.327.007-.661.033-1.008.02-.348.026-.683.026-1.01.044-.413.078-.806.125-1.192.039-.386.085-.767.125-1.127.039-.209.059-.419.059-.648 0-.223.04-.433.125-.643.118-.523.229-1.048.334-1.559.098-.504.253-.983.458-1.436.452-1.133 1.009-2.142 1.684-3.026.668-.871 1.559-1.553 2.66-2.044.282-.117.55-.21.819-.274.263-.06.564-.132.892-.217.118-.032.281-.046.484-.025.203.019.347-.007.433-.093 1.179 0 2.175.111 2.994.335.812.222 1.546.563 2.194 1.008 1.012.736 1.824 1.687 2.413 2.846z"/><path d="m164.349 236.681c.085-.327.164-.662.249-1.009.079-.34.164-.681.243-1.009.164-.531.269-1.068.308-1.618.04-.551.125-1.107.242-1.677v-.616c.085-.406.125-.819.125-1.251 0-.425.04-.845.125-1.25v-.675-.976c.079-.282.105-.603.084-.95-.018-.347-.025-.681-.025-1.002v-1.899c0-.157 0-.334 0-.518 0-.183-.02-.333-.059-.458-.085-.243-.091-.518-.032-.829.059-.298.052-.573-.033-.822v-.55c-.039-.196-.052-.419-.026-.642.013-.223.006-.433-.033-.642-.039-.157-.052-.321-.032-.485.026-.164-.007-.351-.092-.551-.08-.452-.13-.897-.15-1.35-.02-.445-.092-.891-.218-1.336-.077-.331-.149-.665-.208-1.012-.067-.344-.138-.681-.216-1.009-.203-.566-.386-1.117-.552-1.654-.162-.521-.346-1.032-.549-1.523-1.016-2.319-2.562-4.124-4.645-5.405-2.077-1.284-4.809-1.887-8.189-1.805-.288.042-.55.059-.792.059s-.511.023-.793.066c-.57.121-1.133.216-1.683.305-.429.062-.849.193-1.263.331-.545 2.421-1.007 4.868-1.361 7.354.196-.317.388-.645.612-.933.668-.875 1.553-1.56 2.653-2.047.288-.122.557-.213.826-.275.262-.059.563-.131.884-.213.125-.039.289-.052.491-.029.203.02.348-.01.426-.092 1.186 0 2.182.112 2.994.334.813.226 1.553.563 2.202 1.009 1.015.737 1.821 1.684 2.417 2.843.583 1.157 1.028 2.477 1.31 3.938.282 1.464.465 3.037.549 4.707.087 1.671.12 3.381.12 5.136 0 1.671-.033 3.341-.12 5.005-.083 1.671-.326 3.158-.732 4.461-.079.328-.151.636-.217.918-.059.288-.151.576-.275.858-.282.694-.57 1.284-.852 1.769-.289.492-.636 1.022-1.042 1.592-.242.243-.445.406-.609.492-.079.075-.164.157-.242.242-.087.079-.184.164-.308.242-.649.445-1.389.792-2.202 1.042-.242.079-.506.131-.792.151-.282.02-.57.072-.858.151-.243.085-.583.104-1.003.059-.432-.033-.727-.079-.891-.118-.203-.079-.374-.111-.518-.092-.144.02-.294-.006-.458-.092-1.304-.406-2.385-1.022-3.236-1.834-.343-.357-.629-.73-.895-1.114.375 2.339.829 4.648 1.375 6.925.439.141.873.282 1.348.426.289.04.564.072.833.085.26.026.517.079.76.154h.367c.125.042.269.042.426 0 .164-.036.347-.017.55.068.125.04.328.06.609.06.282 0 .511-.02.675-.06.164-.045.341-.052.518-.033.184.02.354.007.524-.036.485-.076.957-.144 1.402-.18.452-.04.897-.144 1.343-.308.413-.118.838-.243 1.284-.367.452-.128.839-.282 1.158-.485.251-.164.5-.321.769-.458.262-.144.497-.298.701-.459.771-.53 1.5-1.225 2.175-2.083.668-.852 1.211-1.73 1.611-2.621.164-.367.321-.747.465-1.133.134-.391.289-.791.448-1.197z"/><path d="m168.575 183.811c.288.039.557.069.826.092.262.02.516.068.76.147h.367c.125.045.269.045.433 0 .164-.036.347-.017.55.065.118.04.328.062.609.062.282 0 .504-.022.668-.062.164-.042.341-.052.518-.029.184.02.36.009.529-.036.487-.079.952-.141 1.404-.181.445-.039.891-.141 1.343-.304.406-.118.833-.243 1.285-.367.444-.125.832-.281 1.159-.488.249-.161.498-.314.767-.459.262-.141.498-.298.701-.458.773-.534 1.494-1.222 2.168-2.081.673-.852 1.212-1.729 1.619-2.626.164-.364.319-.741.457-1.13.144-.384.296-.783.46-1.189.085-.324.164-.662.249-1.009.079-.347.157-.681.235-1.012.164-.524.269-1.068.313-1.615.034-.55.12-1.107.237-1.681v-.612c.085-.403.131-.826.131-1.251 0-.429.033-.848.118-1.255v-.668-.979c.077-.285.112-.603.092-.95-.026-.347-.026-.681-.026-1.005v-1.896c0-.161 0-.334 0-.518s-.026-.337-.066-.459c-.085-.246-.091-.521-.032-.829.065-.301.052-.577-.035-.822v-.55c-.031-.203-.05-.419-.024-.642.02-.226.006-.436-.026-.642-.046-.161-.053-.325-.033-.489.02-.16-.013-.347-.098-.547-.079-.449-.13-.897-.15-1.346s-.087-.897-.216-1.343c-.079-.328-.152-.661-.21-1.015-.059-.337-.13-.678-.209-1.002-.21-.57-.393-1.121-.551-1.648-.164-.53-.347-1.042-.557-1.533-.117-.265-.264-.498-.393-.75-1.5 1.048-2.969 2.139-4.404 3.272.367.901.682 1.857.886 2.916.288 1.467.472 3.04.55 4.71.085 1.67.123 3.38.123 5.133 0 1.671-.038 3.341-.123 5.009-.079 1.67-.321 3.161-.734 4.465-.079.324-.15.632-.209.914-.059.285-.158.573-.275.855-.282.694-.57 1.284-.858 1.772-.288.484-.628 1.019-1.035 1.589-.249.246-.452.409-.616.491-.079.075-.158.161-.236.242-.085.085-.184.164-.314.246-.648.448-1.382.792-2.194 1.038-.251.082-.511.131-.799.154-.282.02-.572.068-.854.15-.248.082-.582.102-1.007.059-.426-.036-.721-.075-.884-.121-.205-.079-.38-.111-.518-.088-.151.02-.301-.01-.465-.092-1.297-.406-2.378-1.019-3.237-1.834-.773-.816-1.355-1.69-1.736-2.627-.395-.94-.747-2.018-1.074-3.24-.164-.445-.256-.927-.275-1.438-.021-.508-.091-1.006-.216-1.494-.04-.449-.066-.865-.087-1.251-.021-.351-.049-.705-.087-1.064-1.612 2.093-3.144 4.251-4.578 6.479.056.249.122.514.172.753.125.589.308 1.173.55 1.743.485 1.264 1.055 2.427 1.708 3.482.657 1.061 1.469 1.956 2.446 2.689.203.164.419.298.642.399s.433.229.642.396c.57.328 1.158.593 1.769.792.611.206 1.26.406 1.955.613z"/><path d="m210.864 153.553-5.071 8.036v14.583 4.461 1.187c0 .393.079.707.249.953.158.243.367.397.603.456.249.063.531.134.858.219h.917c.531 0 .982-.032 1.376-.102.386-.055.681-.249.884-.573.164-.246.236-.58.216-1.009-.027-.429-.032-.845-.032-1.251v-4.769z"/><path d="m308.029 184.177c.282 0 .511-.022.673-.062.159-.042.342-.052.519-.029.182.02.354.009.524-.036.485-.079.957-.141 1.402-.181.445-.039.891-.141 1.343-.304.411-.118.838-.243 1.284-.367s.839-.281 1.16-.488c.249-.161.498-.314.765-.459.264-.141.499-.298.702-.458.773-.534 1.494-1.222 2.175-2.081.367-.468.688-.946.978-1.431-1.093-1.972-2.236-3.911-3.463-5.795-.05.216-.103.436-.148.629-.059.285-.151.573-.275.855-.282.694-.57 1.284-.852 1.772-.289.484-.636 1.019-1.042 1.589-.243.246-.446.409-.609.491-.079.075-.164.161-.242.242-.085.085-.184.164-.31.246-.654.448-1.389.792-2.2 1.038-.243.082-.504.131-.793.154-.288.02-.577.068-.858.15-.243.082-.583.102-1.002.059-.433-.036-.729-.075-.891-.121-.204-.079-.374-.111-.518-.088-.144.02-.303-.01-.458-.092-1.304-.406-2.385-1.019-3.236-1.834-.78-.816-1.363-1.69-1.743-2.627-.387-.94-.747-2.018-1.068-3.24-.17-.445-.255-.927-.281-1.438-.02-.508-.087-1.006-.216-1.494-.039-.449-.065-.865-.085-1.251-.02-.393-.053-.789-.098-1.196-.033-.079-.046-.189-.026-.333.02-.145.026-.259.026-.334v-1.104c-.079-.285-.106-.6-.085-.947.02-.344.033-.681.033-1.009v-2.381c0-.164.02-.305.053-.429v-.734c0-.324.013-.661.031-1.012.021-.341.034-.678.034-1.002.04-.407.079-.81.118-1.192.046-.387.085-.764.129-1.134.035-.2.061-.416.061-.639 0-.226.039-.436.125-.642.001-.007.003-.014.003-.02-1.468-1.304-2.991-2.548-4.539-3.761-.097.315-.236.613-.293.937-.124.675-.288 1.356-.491 2.05-.085.203-.111.42-.092.643s-.013.432-.091.642c-.04.406-.085.802-.126 1.186-.038.393-.077.786-.123 1.195l-.184 2.568v1.157c-.079.331-.098.727-.059 1.195.04.468.059.881.059 1.251 0 .321-.02.662-.059 1.009s-.02.662.059.947c.085.203.105.41.065.609-.041.206-.041.39 0 .547.04.209.04.423 0 .646-.041.226-.02.438.059.642v.645c0 .223.02.436.059.639.046.164.052.327.032.491-.02.157-.006.321.033.484.079.449.144.897.184 1.343.039.449.098.901.183 1.35.164.652.308 1.274.426 1.861.125.589.308 1.173.55 1.743.485 1.264 1.061 2.427 1.71 3.482.655 1.061 1.468 1.956 2.449 2.689.198.164.415.298.637.399.229.102.439.229.642.396.57.328 1.166.593 1.775.792.609.207 1.258.406 1.952.613.289.039.563.069.832.092.262.02.518.068.76.147h.367c.125.045.262.045.426 0 .162-.036.347-.017.55.065.124.043.327.065.609.065z"/><path d="m306.87 221.756c.034-.022.073-.039.107-.062l-.107-.19z"/><path d="m315.273 209.335c.67-.875 1.555-1.56 2.653-2.047.289-.122.557-.213.828-.275.262-.059.563-.131.884-.213.125-.039.282-.052.492-.029.203.02.347-.01.426-.092 1.179 0 2.175.112 2.994.334.811.226 1.546.563 2.201 1.009 1.016.737 1.819 1.684 2.417 2.843.167.331.297.705.439 1.062h1.911c-.319-2.571-.758-5.107-1.282-7.609-.167-.115-.316-.249-.491-.357-2.077-1.284-4.809-1.887-8.189-1.805-.288.042-.55.059-.793.059-.242 0-.511.023-.792.066-.57.121-1.133.216-1.684.305-.55.078-1.094.223-1.618.425-1.874.819-3.335 1.815-4.37 2.994-1.042 1.183-1.946 2.712-2.726 4.586-.196.426-.301.881-.417 1.337h5.639c.411-.958.89-1.836 1.478-2.593z"/><path d="m121.751 33.189 1.605 2.582-.773-2.005-1.46-1.978.458 1.116z"/><path d="m98.958 49.729-2.338.049-4.907.118 5.51-.02z"/><path d="m110.514 49.807-3.392-.331-1.664.285 1.657-.01z"/><path d="m125.165 49.155 3.485-.049-2.424-.426-2.798.276 1.357.199z"/><path d="m217.875 47.632 9.139-.036.136-.003.065.131-.123.003-4.694.006-.072.243h4.772l.241-.003.13.255-.449-.006-4.765-.003-.087.298-13.942 34.443.075.036c-.322.79-.575 1.37-.817 1.93-.374.865-.726 1.68-1.299 3.154l.064.03-.588 1.412c.845 1.186 1.751 2.477 2.607 3.695 1.325 1.883 2.524 3.593 3.166 4.442l-.067.055 2.681 3.695-.128.095c.089.125.182.256.278.394.242.16.444.426.712.779l.875 1.418c.026.036.052.072.077.108l.141-.098 5.411 7.561.252-.439 4.416-7.973.04-.056 4.213-7.4 3.682-6.486 9.804-15.593.944-1.444 1.457-2.693 4.121-6.921 4.488-8.238 4.134-7.079 1.822-3.135 1.205-2.063.708-1.418.629-1.231 3.943-7.718 2.739-4.897.97-1.74 1.448-2.667-.872.95-1.769 2.103-.433.586-3.269 4.904-.858 1.491-4.167 7.354-3.99 6.846-1.111 1.89.336-.603-6.845.122-5.372-.158-4.153-.18-3.394-.118-5.724.039-.031-.065-.052-.063 5.65-.032-.295-.321-5.569.102-.363-.436-.867.105c-.141.016-.28.036-.431.042l-1.942.085.133.265-.565.01-9.737.108-8.836-.006-1.134.016 1.441.042zm18.507.285 7.705.292.144.003-9.071.164-4.066-.079-.166-.347z"/><path d="m340.131 264.227 3.905 6.669.511.851-.596-1.114-4.221-7.324-4.067-6.879-4.167-7.046-.111.374 4.363 7.157z"/><path d="m374.507 353.896 4.173 7.05.111-.374-4.37-7.167-4.382-7.305-3.899-6.682-.511-.846.59 1.12 4.226 7.326z"/><path d="m380.062 363.73-1.402-2.621-4.219-7.102-4.049-6.886-4.16-7.05-4.782-7.77-.026-.065-4.37-7.318-.016-.026-1.188-2.083 1.276 2.077.891 1.009-.498-.931-4.632-7.704-1.753-2.738-4.425-7.777-4.33-7.6-.321-.963-4.004-6.99-2.419-3.882-6.869-12.058c-.052.092-.113.18-.164.271l-1.468-2.499-1.192-2.058-.897-1.317-.767-1.159-4.763-7.232-2.922-4.796-1.029-1.684-1.605-2.585.387 1.229.963 2.575.301.668 2.647 5.247.884 1.488 4.344 7.245 3.965 6.765c-18.467 30.878-52.171 51.603-90.772 51.603-21.109 0-40.708-6.276-57.206-16.942l10.654-19.255 1.976-.131 2.014.046 1.995.19.439.045 1.952-.399.039-.137v-.053l-2.09-.092-2.129.014-.753-.145h.753l2.149-.02 2.175-.06 1.809.164 2.011.145 1.205.098.983-.229 2.463-.185 2.391-.091 1.769-.177-1.631-.099-2.477.177-1.008.072-1.52.145-2.339.124-1.854-.145-.969-.098-.799-.072-2.221.065-2.142.026-2.195.046-1.63.111.234-.426-12.084.223-1.661-.033-.927.079-47.148.858-31.191.573-.924-.187-.465-.007h-2.267l-2.125-.06-2.022-.085-1.837-.17-1.949-.105-2.267.06-2.486.164-2.447.085-2.326.059h-.282l-1.88.053-2.219.065-2.013-.125-1.985-.262-.439-.065-1.965.327-.046.132v.053l2.083.177 2.129.065.747.17-.753-.026-2.146-.059-2.177-.032-1.803-.23-2.001-.222-1.203-.139-.989.19-2.47.085-2.391.007-1.776.105 1.628.157 2.483-.079 1.009-.039 1.526-.085 2.339-.027 1.844.21.971.138.794.099 2.218.026 2.149.053.916.019-1.914.033-1.141-.026-2.195-.025.065.209 1.443-.026 31.822 52.863 31.392 52.134-.819 1.202-.695.989-.298.963-1.084 2.222-1.124 2.108-.739 1.619.899-1.363 1.097-2.228.446-.903.646-1.39 1.071-2.076.688-.997.416.689 10.954-19.803.975-1.608.539-1.13.503-.907c5.254 3.197 9.065 5.215 9.065 5.215 25 13.267 53.491 20.827 83.767 20.827 51.932 0 98.673-22.104 131.411-57.388l1.033 1.818 3.499 6.531.773 1.461 4.121 6.002.262.071.059-.032-.033-.053-3.773-6.748-3.99-6.853-1.226-2.489 1.394 2.391 4.037 6.898 4.147 6.991 3.184 5.942 3.151 5.752c.052-.047.111-.093.164-.138l-3.119-5.727z"/><path d="m218.293 117.52 3.893-6.676.484-.875-.669 1.078-4.303 7.278-3.99 6.922-4.088 7.092.386-.075 4.088-7.325z"/><path d="m287.591 23.975-.704 1.267-1.5 2.555 1.697-2.446z"/><path d="m278.122 41.919 1.362-1.667.995-2.251-.739.957-.164.285z"/><path d="m254.851 81.186-4.104 7.465-1.642 2.899c.026.016.046.03.072.046l2.152-3.748 3.902-6.974 3.99-7.154-.38.089z"/><path d="m47.068 293.256 1.297.026.406-.078-.56.012z"/><path d="m50.298 293.275h.383l.796.053-.789-.229z"/><path d="m54.835 293.02h.091l.808-.012-.552-.283-.665.158z"/><path d="m215.535 291.887.557-.033 1.143-.085-1.297.026z"/><path d="m212.825 291.867.797.197.387-.191-.387.014z"/><path d="m209.39 292.307-.806.046.561.254.661-.176-.325-.131z"/><path d="m194.027 291.848-2.07.013-.262.012.337.033 2.27.02 2.149-.039 2.195-.053-.077-.21-2.249.132z"/><path d="m122.632 413.344.633-1.126.119-.401-.247.498z"/><path d="m124.168 410.507.181-.34.421-.675-.572.583z"/><path d="m126.495 405.58-.508.361-.18.663.275-.224.043-.078z"/><path d="m43.242 275.79-.101.399 1.218.466.976-.177.884-.204.636-.124-1.181-.235z"/><path d="m52.735 276.714-1.858.144 1.688-.02.239-.059.471-.065z"/><path d="m56.989 276.616h.407l.069-.08-.476-.104-3.851.137.036.007z"/><path d="m71.529 222.451c.026.003.042.003.056.003.534 0 .968.151 1.631.508l.971.305-.001.458c.11-.026.218-.056.336-.056l1.72.266-.069.209c.062.023.124.046.191.066l-.029.095c.097.052.196.108.3.164.577.321 1.229.685 1.998.911l-.062.242c.572.207.978.364 1.229.73.041.01.082.023.117.03.426-.023.734.082 1.736.553l.061-.111c.578.278 1.05.475 1.507.662.28.118.555.229.843.357.072.007.149.02.238.039l1.118-.949c-.088-.177-.182-.384-.296-.655l.123-.072c-.077-.177-.138-.266-.206-.367h-.067l-.167-.37c-.089-.164-.182-.36-.278-.628l-.059-.171-.01-.029.082-.026c-.311-.596-.406-.718-.73-1.127l-2.925-3.79 1.259.458c-.39-.511-.735-1.37-1.247-2.641l-.283-.691.075-.033c-.616-1.14-1.089-2.332-1.547-3.495-.254-.642-.508-1.288-.787-1.916l-.185-.417.1-.347c-.082-.105-.177-.203-.296-.324-.313-.321-.74-.756-1.08-1.549l.108-.069c-.765-1.657-1.095-2.47-1.706-3.97l-.553-1.36-.323-.819c-.03-.285-.252-.842-.522-1.441-.611.38-1.209.75-1.793 1.114-1.301.803-2.541 1.569-3.725 2.342.202.953.405 1.762.609 2.578.393 1.569.799 3.19 1.207 5.834l-.137.026z"/><path d="m68.373 200.697c.277-.121.475-.193.646-.239.811-.515 1.74-1.068 2.722-1.638.152-.203.404-.413.776-.675-.184-.403-.329-.816-.493-1.225l-.114.052-.429-.832.188-.105c-.004-.016-.013-.033-.018-.046l-.267-.003-.547-1.258c-.498-1.114-.81-1.864-.796-2.539-.17-.314-.344-.655-.438-.94l.749-.737-1.194.383c-.367-1.022-.883-2.221-1.382-3.387-.739-1.716-1.435-3.341-1.674-4.402-.316-.56-.717-1.32-1.11-2.064-.008-.013-.015-.029-.023-.042.636 3.869 1.222 7.767 1.809 11.665.403 2.676.806 5.356 1.225 8.022l-.008.288c.128-.095.211-.177.378-.278z"/><path d="m71.212 246.544-.037-.659-.275-1.317-.65.557c-.044.029-.087.062-.129.091z"/><path d="m73.693 236.747c2.204-1.772 4.789-3.938 7.271-6.038l-.964-.334-.01-.246c-.214-.125-.436-.275-.606-.475-.845-.37-1.6-.619-2.392-.877-.675-.223-1.354-.449-2.098-.748l-.115-.046.02-.102c-.814-.367-1.358-.488-1.98-.625l.009-.157c-.341-.138-.462-.167-.608-.197l.98 6.309-.149-.079z"/><path d="m93.731 236.589c.317-.144.648-.302.991-.462-.506-.2-1.017-.406-1.53-.639z"/><path d="m72.989 272.068-.351-.006c-.288.098-1.056.366-2.735 1.009-.089.144-1.418.544-1.609.675.403-.043 2.044-.361 2.541-.42l.312-.035.029-.004.002.02c1.227-.177 2.532-.354 3.859-.53-.016-.216-.01-.36.003-.511.007-.086-.021-.341-.087-.754-.244.099-.493.196-.749.295-.642.199-.947.261-1.215.261z"/><path d="m80.108 243.032c3.274-1.506 4.968-2.355 6.692-3.22.967-.485 1.949-.976 3.23-1.595-.129-.312-.219-.577-.255-.826-.085-.209-.151-.396-.233-.632-.087-.137-.232-.419-.352-.753l.274-.134-.213.075c-.276-.773-.925-1.809-1.398-2.565l-.261-.419c-.085-.026-.169-.046-.252-.069h-.031c-.375 0-.703-.137-1.122-.337l.062-.17c-.131-.069-.277-.142-.518-.256l-1.375 1.14c-3.433 2.84-6.743 5.579-9.976 8.324.139 1.065.316 2.287.52 3.613 1.61-.829 4.055-1.894 5.167-2.28z"/><path d="m100.865 197.67c.049.18.126.439.238.803.828 2.348 1.053 2.843 1.259 3.292.22.479.421.908 1.229 3.26 1.226 1.294 2.433 2.562 3.636 3.819 3.028-2.516 6.188-5.16 10.089-8.622.708-.556.993-.782 1.346-.842l1.759-1.536-5.238-8.399-.037.02-.882-1.49.044-.026c-.63-1.12-1.359-2.368-2.18-3.725l-.313.144c-.973-1.51-1.343-2.148-1.258-2.722-.419-.678-.839-1.363-1.265-2.051-3.814 2.519-7.649 4.802-11.049 6.823l-.675.403c.742 2.31 1.573 4.796 2.578 7.465l-.247.099c.802 2.201 1.035 2.883.966 3.285z"/><path d="m131.175 208.257c.172.203.394.518.666.924.211-1.583.502-3.142.782-4.701l-1.709 3.243.056.128-.018.033c.06.101.135.226.223.373z"/><path d="m128.79 211.753-2.816 5.339-.1-.052c-.102.18-.217.383-.336.593-.975 1.709-1.376 2.391-1.626 2.722-.012.023-.021.046-.031.066-.016.445-.365 1.136-1.309 2.977 1.969-.917 3.826-1.818 5.544-2.653l2.923-1.406c.046-1.248.072-2.502.161-3.741l-1.127-1.778c-.527-.836-.948-1.511-1.283-2.067z"/><path d="m111.505 227.692c.111.357.201.645.255.894 1.69-.806 3.356-1.608 4.884-2.355l.489-.957c-2.714-2.844-3.67-3.878-3.915-4.311l-2.508-2.667c-.634-.625-1.336-1.346-2.098-2.172l.044-.046-.144-.184c-.426-.461-.928-.992-1.458-1.546-.041.033-.083.066-.127.102l1.312 3.862c.247.364.484 1.006.894 2.11l-.135.056.082-.013c.079.351.577 1.834 1.094 3.394.434 1.307.883 2.66 1.135 3.485z"/><path d="m110.943 174.77.027.042c.392-.209.822-.465 1.297-.76l-2.596-.76c.283.452.616.992 1.012 1.641z"/><path d="m93.673 176.535c.106.265.195.485.27.665.421.255.625.747.785 1.136l.285.688-.075.095c.061.193.137.426.226.691l.131-.04 1.41 3.977c.282-.275.729-.576 1.367-1.005l.411.337-.161-.429c.3-.137 1.302-.75 1.872-1.094l.747-.688 4.039-1.897c.907-.616 1.405-.969 1.679-1.169.141-.282.44-.541.964-.901-1.099-1.782-2.187-3.554-3.2-5.242-1.415-.438-4.061-1.231-6.704-2.024l-3.977-1.199-.021.065c-.889-.259-1.746-.508-2.578-.75.237.671.529 1.563.918 2.804.069.183.13.347.179.495l.042.114c.051.164.049.292.062.426.125.37.256.76.375 1.101l.479 1.333-.326.118c.312.893.602 1.738.801 2.393z"/><path d="m77.712 199.02c-.065.065-.145.137-.252.229l.141.328.039-.02.563 1.251.616.907-.189.108c.118.174.234.38.335.629.593 1.572.69 1.952.826 2.476.052.207.111.436.214.783.367.41.623 1.035.912 1.746.128.314.342.835.438.973l.382.255-.071.255c.403 1.366 1.158 3.069 1.958 4.871.454 1.025.917 2.07 1.332 3.092l-.054.026c.02.062.039.118.059.167l1.033-.58-.571 1.32c.238.321.514.737.776 1.438l-.084.04c.46 1.35 1.471 3.42 2.354 5.038 4.103-3.462 7.295-6.086 9.445-7.636 1.505-1.326 2.984-2.587 4.444-3.815l-.89-2.444.046-.315c-.046-.072-.429-1.241-.659-1.942l-.053-.16-3.033-2.991.212-.22c-.331-.399-.619-.759-.797-1.1-1.338-1.373-2.831-2.932-4.599-4.861l.103-.102c-1.453-1.523-2.853-2.833-3.213-3.105l-.337-.386c-.079-.121-.563-.721-1.766-2.067-1.379.917-2.508 1.588-3.557 2.214-1.073.635-2.064 1.225-3.171 1.991l-.406-.566s-.003 0-.005.003l.241.616c-.256.114-1.203.662-2.113 1.182z"/><path d="m113.234 150.51c-.678.177-1.731.37-3.351.668-1.707.315-4.044.747-4.381.842l-.013-.046c-.085.02-.154.036-.199.049l-.047-.16-.074.232-1.368.014c-.479.091-.968.18-1.456.271-1.688.314-3.515.655-4.842.914.641.911 1.639 2.522 3.394 5.369l-.07.045c.082.17.278.514.463.842.229.407.405.714.513.98 1.417 2.135 4.024 6.283 5.549 8.877.322.102.609.2.968.321l2.219.73c.257.075.487.141.691.2h.275c.193 0 .303.013 1.335.301 1.44.446 2.278.704 2.747.966 1.418-.911 3.11-1.972 5.095-3.141l.074.121 2.15-1.392.026.039c1.308-.717 1.84-1.068 2.419-1.451.631-.416 1.315-.868 2.929-1.775l.126.209 1.266-.865-9.77-14.243c-.275.056-.485.105-.609.151l-.308.079c-1.564.193-1.714.219-3.2.452z"/><path d="m95.431 157.441c-.767-1.183-1.461-2.257-1.802-2.859-.112-.131-.226-.289-.354-.482l-6.738 1.098-.003-.023-.098.016c.178.527.378 1.134.611 1.854.171.442.322.822.452 1.136l.221-.082c.685 1.848.911 2.771.929 3.299.428 1.225.735 2.054.975 2.66 1.883.57 3.755 1.141 5.009 1.553 1.045.265 3.605 1.025 6.258 1.814l1.271.374c-.098-.174-.196-.347-.29-.514-.252-.262-.537-.691-.996-1.379-.187-.281-.36-.543-.462-.688l-1.67-2.077.381-.007c-.198-.281-.357-.491-.506-.684-.092-.121-.185-.252-.277-.377l-.046.026c-.465-.721-.669-1.068-.907-1.478l-.333-.57.033-.02c-.523-.837-1.106-1.738-1.658-2.59z"/><path d="m98.13 233.808c.31.108.568.22.783.328.887-.403 1.741-.767 2.489-1.032l.121.301.932-.38c1.533-.724 2.119-1.035 2.341-1.169.262-.361.693-.574 1.498-.954.621-.193.803-.239 1.018-.239h.062l1.242-.59-.145-.432.229-.076c-.033-.095-.062-.187-.091-.275l-.331.111-2.709-7.688.113-.039c-.376-1.065-.771-2.143-1.176-3.25l-.653-1.802-2.262 1.789c-.248.331-.682.727-1.342 1.33-.201.184-.403.367-.576.527l.093.121c-1.553 1.245-1.81 1.425-2.329 1.425-.087.072-.194.147-.285.226-.284.514-1 1.117-2.314 2.23-.015.01-.028.022-.041.036l.125.164c-1.576 1.33-3.109 2.611-4.614 3.865.332.852.683 1.72 1.05 2.601l.588.216c.138.105.318.17.474.255l.045-.128.989.351-.075.223c.318.114.637.229.994.34.954.301 2.034.645 3.143 1.268z"/><path d="m124.29 226.831 3.518 3.717.287.561c.968 1.015 1.436 1.428 1.865 1.805.433.383.845.753 1.599 1.556-.373-3.524-.614-7.088-.632-10.708z"/><path d="m92.683 270.522c.465-.815.899-1.566 1.276-2.194.945-1.802 1.851-3.545 2.733-5.255-1.864.74-4.016 1.55-6.121 2.339-1.079.406-2.141.806-3.14 1.186l2.77 3.473-.059.049.532.642c.633-.073 1.319-.155 2.009-.24z"/><path d="m125.243 266.709c.383-.354.998-.464 1.432-.543 1.174-.131 1.708-.17 1.926-.17l1.094.025 3.608-.681c1.052-.109 1.781-.155 2.277-.155l.595-.068c1.023-.177 2.033-.354 3.197-.505-1.704-3.989-3.158-8.11-4.367-12.333l-1.288-.036c-.668-.16-1.239-.393-1.773-.615-.578-.242-1.034-.429-1.472-.436l.001-.308-.208.383-.788-.39c-1.441.429-3.418 1.077-7.349 2.63-.273.367-.742.583-1.102.747l-.181.069 1.124 3.108-.2.072c.524 1.461 1.022 2.892 1.589 4.422.573 1.553 1.163 3.148 1.757 4.803.045-.005.088-.012.128-.019z"/><path d="m168.889 59.081c.236 1.785.453 3.164.671 4.546l.376 2.444-.047.006 3.782 26.314 4.488 1.995-.046.104c1.322.613 2.598 1.206 3.795 1.772l.67.134 3.12 1.383c4.38 1.976 8.904 4.016 10.943 5.044l5.208-12.88-21.278-29.511c-2.086-2.945-5.423-7.704-7.444-10.633l-.213-.308-4.55.082-.814-.03 1.263 8.55c.06.428.102.732.076.988z"/><path d="m107.836 268.485c.038.071.057.156.095.231 1.775-.219 3.693-.461 4.909-.537.683-.187 2.655-.455 4.745-.742 1.208-.164 2.44-.331 3.471-.492l.333-.052-1.695-4.885.083-.029c-.081-.242-.149-.452-.208-.629-.361-.347-.631-1.144-1.229-2.899l.461-.242-.413.036c-.041-.21-.205-.727-.529-1.756l-.411-.885-11.299 4.246c-1.168.317-1.378.347-1.578.347h-.067c.137.223.237.452.319.643l-.17.084c.131.249.219.544.178.938.113.16.2.32.269.461h.738l-.113 1.366.054.285c.015.02.029.039.042.062l1.104.38-.172 1.802h.379l.429 1.412c.061.225.12.462.275.855z"/><path d="m180.13 49.365-3.325.059 4.607 6.499c.755 1.006 1.613 2.182 2.372 3.22.963 1.32 1.756 2.417 1.99 2.673l17.553 24.473 2.884-7.128c1.075-2.411 3.398-8.144 5.449-13.205 2.724-6.715 3.874-9.549 4.545-10.745l-.033-.013 2.791-6.983h-1.011l-3.172-.236h3.166 1.112l.096-.242-1.202.003-9.362.033-10.43.236h-.072l-9.735.085-5.949.063c-.013.082-.048.161-.066.246l-.539-.023-1.885-.075-3.716.265.518.73z"/><path d="m206.66 107.338.035-.072 11.031 5.019-13.562-19.127c-1.382 3.381-2.917 7.193-4.486 11.095 1.449.642 3.019 1.336 4.229 1.896 1.04.462 2.093.918 2.753 1.189z"/><path d="m172.729 49.224-.266-.386-.848.058-.23.217v.075l.077.013z"/><path d="m107.903 126.227c3.01 4.429 7.192 10.335 10.263 14.672l1.63 2.306-.125.089c.265.409.485.756.648 1.058l.069.102c.022.046.034.098.054.141l.986 1.425 15.946-2.745-.302-1.563v-.003l.042-.013c-1.251-6.149-2.455-12.376-3.653-18.616l-4.234-1.563.038-.108c-4.34-1.494-12.11-4.377-19.626-7.165l-11.715-4.448c-.228.278-.463.553-.691.832l.948 1.311c2.458 3.561 4.092 5.932 4.373 6.44l5.251 7.636-.026.016z"/><path d="m79.591 257.085c.242.185.516.502.964 1.019.303.352.646.744.919 1.032l3.623 4.537c5.251-1.896 9.743-3.686 14.084-5.421l.115-.224c-.48-1.339-1.06-2.374-1.669-3.462-.696-1.241-1.415-2.525-1.947-4.242l.054-.029c-.133-.298-.225-.547-.248-.786-.242-.374-.496-.894-.842-1.615-.183-.383-.362-.76-.514-1.038l.211-.147c-.529-.524-1.176-1.871-1.861-3.296-.231-.478-.457-.95-.674-1.372l-.082-.164c-.938.541-2.105 1.173-4.771 2.385l-11.386 5.136.522 3.194c1.221 1.535 2.369 2.987 3.502 4.493z"/><path d="m125.807 246.184c.121.046.25.102.392.17l.223-.439c.429.216 1.046.508 1.634.783.313.148.618.292.885.42 1.119-.429 2.164-.833 3.023-1.173l.092.213 1.276-.551c-.497-2.293-.92-4.615-1.266-6.964l-.024-.026-1.312.796-3.733-3.849c-.354-.498-1.709-2.054-2.907-3.426-1.064-1.222-2.242-2.575-3.211-3.728l-1.365.632c-1.25 2.277-2.465 4.461-3.638 6.571l-.968 1.739c.349.872.726 1.848 1.21 3.26l1.661 1.648c.071.052.48.292.976.527l.138-.118.757.39c.806.419 1.549.672 2.247.911.057.02.114.039.172.059l-.031-.111.269.196c.3.105.591.21.876.328l.629.259.102.02-.001.023 2.578 1.061-.676.195z"/><path d="m140.485 179.411c.015-.032.029-.065.044-.098l-2.416-3.466.065-.046c-.258-.386-.62-.914-1.074-1.572-.326-.262-.768-.911-1.865-2.529l.046-.033c-.146-.219-.334-.498-.534-.79l-3.356-4.697-3.04 1.995.416-.802c-1.171.747-2.315 1.461-3.525 2.201l.173.203-.377.334c-1.395.891-2.904 1.769-4.215 2.528-.323.187-.573.337-.867.508l1.5.419c1.489.465 2.514.806 3.09 1.025l.893.246c2.088.589 4.135 1.166 7.094 2.123l-.009.029 3.423.986c1.813.566 3.176.999 4.228 1.336z"/><path d="m117.755 245.82c.267.897.57 1.903.897 2.964.247.252.393.603.529.934.116.399.226.77.334 1.12.793-.393 2.442-1.052 5.184-2.103l-5.221-1.976.034-.259c-.556-.248-1.148-.464-1.757-.68z"/><path d="m150.563 129.499.011-.036c-.942-.354-1.646-.623-2.172-.846-.063-.02-.132-.042-.209-.069l-.308-.105.015-.049c-.074-.033-.143-.069-.207-.102-.333-.127-.765-.295-1.315-.504-.701-.187-4.128-1.448-9.337-3.381l3.538 18.315 11.516-1.982-.006-.039 19.551-3.345z"/><path d="m64.418 203.468c-.726-5.454-1.738-11.957-2.815-18.832-1.63 7.416-2.799 15.006-3.479 22.736 1.669-1.054 3.485-2.174 5.14-3.193z"/><path d="m109.292 238.892.131.059 1.446-2.591c-.275-.508-.563-1.353-1.048-2.794l-.016-.046c-1.939.901-3.862 1.805-5.784 2.709l.69.256-.359.317c.347.128.719.272 1.101.42.422.164.855.331 1.258.472l1.334.468-.062.128c.436.192.872.396 1.309.602z"/><path d="m81.836 142.389c.513 1.615.995 3.135 1.497 4.504l.773 1.942-.071.165c.137.386.269.753.392 1.094l.141-.046c.287.838.506 1.412.742 2.027l.054.147 6.098-1.052-.268-.438.262-.164c-.756-1.169-1.397-2.107-2.036-3.043-1.171-1.716-2.383-3.495-4.312-6.702l-1.884-3.384c-.337-.37-.921-1.211-2.175-3.197-.411.717-.801 1.452-1.203 2.175l.347.983c.609 1.723 1.141 3.403 1.643 4.989z"/><path d="m122.652 201.421c-.815.694-1.529 1.304-2.08 1.779l-.053-.059c-1.91 1.631-3.053 2.503-4.167 3.351-.734.56-1.448 1.107-2.362 1.851l.143.18c-2.072 1.684-3.526 2.948-3.974 3.384l.372.39c.458.518.794.897.937 1.271l7.603 7.868c1.851-3.672 3.823-7.547 6.63-12.611l.11.056c.254-.482.509-.973.757-1.455-.418-.629-.721-1.035-1.019-1.438-.655-.885-1.274-1.72-2.87-4.432l.041-.023z"/><path d="m124.044 50.099 7.391-.167 3.74 6.011 3.354 6.001 1.743 3.187 1.428 2.611 1.546 2.526c-2.598 1.592-5.14 3.262-7.649 4.976l4.154 1.837c3.456 1.681 10.081 4.648 17.752 8.085 4.118 1.844 8.475 3.793 12.664 5.693-.863-6.326-1.736-12.609-2.586-18.266l.049-.006c-.064-.547-.177-1.438-.313-2.451l-.077.01-3.007-20.726-1.006-.036-8.538-.243-5.135-.18-4.226.348-10.497.242-3.247.039-.873-1.215-4.914-7.767-4.678-7.587-3.578-5.549 2.994 5.293 4.932 7.819 2.019 3.177 3.08 4.776.657 1.055-6.58.079-7.547.249zm19.396 20.047-1.473-2.412-3.248-5.906-3.662-6.515-.595-1.071 9.406 15.635c-.143.089-.284.181-.428.269zm-8.829-20.286 4.305-.108 6.493-.193 9.964-.157 7.862.236.537.022-31.723.57.016.026-.241-.334z"/><path d="m170.697 94.727-5.901-2.696c-.308-.138-6.186-2.876-11.499-5.277l-.037.082-20.873-9.346c-1.337.957-2.662 1.926-3.97 2.922l.835 4.579c.172.374.715 3.128 1.898 9.267.69 3.567 1.4 7.259 1.674 8.33l3.531 18.272c1.923.763 4.587 1.788 9.267 3.498.04.013.077.026.112.036h.077c.244 0 .398.042 1.259.337l19.987 7.459c.97.403 1.582.655 1.928.937l4.581 1.687-.029.17 3.074 1.133-.211-1.556-1.903-12.756c-1.022-6.578-2.191-15.212-3.432-24.355z"/><path d="m90.763 191.256-.083-.102c-.007.003-.015.007-.021.013 2.322 2.509 4.732 5.107 7.18 7.728-.627-1.74-1.24-3.407-1.854-5.081-.596-1.622-1.192-3.249-1.808-4.953-.552.334-1.093.665-1.615.992-.214.401-.774.755-1.799 1.403z"/><path d="m64.181 276.664.001-.022-.706.019z"/><path d="m174.009 138.222-.166-.062.062.141c.035-.026.07-.052.104-.079z"/><path d="m100.194 265.337c-.481 1.098-1.497 2.925-2.483 4.668h.39c2.262-.334 4.829-.77 5.484-.907l.486-.103c-.648-1.631-1.4-3.278-2.134-4.887-.159-.351-.319-.701-.479-1.052z"/><path d="m105.165 240.69h-.451l-.288-.472c-.277-.141-.53-.288-.755-.419-.202-.118-.375-.232-.522-.285.333.026.48-.01.614-.079l-.104-.21c-.119-.042-.235-.085-.349-.125l-.257.538c-1.077-.489-2.248-.92-3.428-1.343l-2.644 1.238-.131-.252c-.563.249-1.049.472-1.478.668l.067.138-.068.137c.265.364.429.714.586 1.346l.021.092c.196.259.401.6.676 1.251l.465 1.107c.601.917.753 1.438.822 1.952l.498 1.183-.323-.239c.044.122.102.262.181.429.178.092.346.223.5.399l.223.364c.308.78.522 1.199.736 1.615.242.475.484.95.835 1.835l.088.426c.005.154.012.363-.038.589l.108.132.175-.053c.228.508.37.861.382 1.195.024.046.049.092.075.142 1.99-3.843 4.049-7.784 6.463-12.258-1.007-.359-1.875-.684-2.679-1.041z"/><path d="m142.075 176.038c.42-.836.872-1.651 1.312-2.474l-.272-1.339c-1.338-6.591-2.014-10.043-2.17-11.069-.072-.226-.144-.501-.221-.842l-1.05.665-.093-.138-5.556 3.604c.861 1.258 1.692 2.457 2.339 3.377l1.05 1.455c.996 1.376 1.453 2.005 4.166 5.955l-.042.03z"/><path d="m128.332 276.845c2.378-.017 4.566-.032 6.352-.043l1.392.423 4.121.079 4.796-.164 4.189.032 1.861.014 1.215.013.81-.079.71-.052 4.426-.314 2.87-.053 1.015-.02 1.553-.06-.643-.209-1.382-.347-.374-.06-3.007-.289-.878.007-4.324.046-4.055-.019-3.852-.053-.278-.007c-1.35-2.361-2.582-4.796-3.752-7.266l-.791.095c-2.688.317-3.451.364-3.843.364-.258 0-.527-.02-.792-.135-.421.01-1.14.076-2.547.239l-6.858 1.016c.47 1.359.938 2.759 1.399 4.219l-.205.086z"/><path d="m198.272 107.755c-3.565 8.884-6.933 17.273-8.941 21.875l-4.135 10.256 1.186 1.976.904 1.304.773 1.146 4.861 7.181 1.339 2.148 1.851 3.076.032-.059.8 1.277 1.63 2.558-.398-1.218-.997-2.565-.307-.665-.188-.364 15.651-28.272 1.237-2.165 4.008-6.909 1.089-1.894-.182-.082-.693 1.183.662-1.195-18.285-8.242.03-.069-1.725-.782z"/><path d="m174.237 96.299 1.546 10.768-.088.013c.688 4.039 1.945 12.792 2.959 19.841.426 2.964.803 5.579 1.062 7.318l-.043.006c.003.023.007.042.01.065.524-.334 1.029-.701 1.559-1.029l1.911 3.197 2.595-6.286c.132-.413.355-.992.706-1.9.123-.321.246-.639.356-.923l-.072-.03c.765-1.851 1.083-2.601 1.391-2.918l.491-1.192c.111-.55.51-1.54 1.386-3.718.012-.026.021-.052.033-.079l-.095-.042 5.469-13.526-11.422-5.182c.024.014-.172-.065-.382-.15l-.303-.118-.015.042c-3.518-1.536-3.779-1.683-4.08-1.857-.218-.125-.443-.246-2.839-1.301l.019-.042z"/><path d="m87.015 271.099-.524-.409-1.946-2.519.063-.05c-.079-.092-.156-.19-.233-.281-.018-.01-.036-.017-.054-.03-.306.125-.595.246-.863.361l-.223-.502-.003.452-.198.075c-1.235.475-2.685 1.082-4.267 1.742.104.794.198 1.566.283 2.313 3.04-.398 6.042-.798 7.965-1.152z"/><path d="m120.264 277.015 4.596-.059h.021l-.2-.577-.067.027-.544-1.095-.811-2.64.12-.04-.763-2.201c-.028.006-.056.01-.082.017l-.409-.996c-.02.003-.04.007-.061.01l-.067 1.028c-.451.004-3.53.406-5.778.698-1.043.135-2.083.271-2.998.384l.012.134c-1.171.187-2.282.354-3.343.501l.849 1.028-.313 1.176c.025.103.041.197.048.292.182.302.369.576.431.648l1.284 1.583c2.697-.014 5.348-.029 7.854-.043l-.318.085z"/><path d="m98.929 276.988.121.184 4.292-.085 4.2-.043c-.01-.029-.018-.056-.026-.081l-.324-.007h-.441.762c-.089-.269-.177-.534-.254-.79-.213-.703-.396-1.313-.732-1.916l-.982-1.445.015-.062c-1.96.224-3.783.399-5.562.57-1.467.141-2.904.278-4.362.438-.09.177-.168.331-.226.462l-.158-.049-.671 1.301 1.268 1.529c1.02.001 2.047-.006 3.08-.006z"/><path d="m112.16 277.055-.244-.014-.1.023z"/><path d="m89.082 277.012 1.103-2.015-.379-.472-4.376.746-1.406-.046-1.784.345c-.745.135-1.419.259-2.283.391l.169 1.054c2.755.004 5.771.004 8.956-.003z"/><path d="m108.214 110.264.969.419c.357.128.678.236 1.009.351 1.289.445 2.732.943 6.996 2.549l-.048.137c3.625 1.376 5.132 1.874 6.596 2.359l1.564.524c3.865 1.382 5.776 2.126 7.455 2.804l-.072-.38c-.635-3.312-1.271-6.627-1.915-9.922l-.239-1.975c-.567-2.87-1.011-4.799-1.459-6.749-.486-2.109-.978-4.249-1.654-7.724l.066-.013-1.95-10.001c-9.292 7.354-17.84 15.602-25.508 24.624 1.237.456 1.933.691 2.549.897 1.093.367 2.04.685 5.641 2.1z"/><path d="m78.322 265.989.024.14.907-.33-.021-.079.139-.045.711-.243c.552-.187 1.089-.373 1.62-.56-.344-.417-.704-.855-1.064-1.294-1.11-1.356-2.218-2.706-2.806-3.388l-.313-.468c-.095-.154-.193-.312-.349-.534.369 2.3.729 4.603 1.053 6.816z"/><path d="m139.763 181.01c.008-.016.017-.036.025-.052l-.131-.02-.008.022z"/><path d="m129.282 157.355c.267.446 1.364 2.116 3.156 4.76 1.017-.648 2.082-1.339 3.138-2.027 1.583-1.025 3.145-2.041 4.505-2.883-.594-2.971-1.391-7.108-2.066-10.607l-.063-.331-.763.134c-.591.301-1.931.531-4.989 1.058l-.016-.091c-1.258.223-1.482.249-1.871.295-.436.052-1.084.131-3.757.557-1.103.226-2.197.423-3.197.596l2.354 3.41-.056.04c1.735 2.519 3.237 4.595 3.625 5.089z"/><path d="m80.741 153.015.807-.141-.129-.374c-.191-.517-.339-.907-.44-1.208l-.082-.216c-.083-.265-.104-.439-.105-.583l-3.364-9.575c-2.34 4.514-4.511 9.132-6.468 13.859l.875-.167c2.184-.422 3.936-.762 8.906-1.595z"/><path d="m74.587 159.544 8.174 2.355.115.016 1.039.315.017.091c.395.128.881.278 1.398.436-.39-1.206-.565-1.812-.58-2.202-.211-.521-.46-1.16-.726-1.841-.23-.59-.475-1.215-.707-1.805-.303-.183-.508-.524-.716-1.038l-12.553 2.221 1.347.409c1.628.496 2.609.794 3.192 1.043z"/><path d="m115.19 249.099c-.691-1.958-1.402-3.973-1.857-5.097l-.63-.171c-.282-.131-.614-.278-.961-.429-.321.635-.603 1.186-.76 1.543l.055.134-5.727 10.749c3.26-1.271 6.823-2.608 10.857-3.984-.317-.878-.649-1.818-.977-2.745z"/><path d="m134.505 194.61.536-.537c.416-1.444.837-2.886 1.312-4.304l-.276.235-.125-.144c-1.939 1.91-6.464 5.762-10.32 9.031l.126.2-.074.049c.456.786 1.192 1.919 1.962 3.108.287.442.582.895.874 1.347.108-.17.231-.338.388-.465.589-1.045 1.007-1.907 1.426-2.768.265-.547.531-1.091.835-1.678l.106.046c.745-1.327 1.554-2.82 2.392-4.379z"/><path d="m138.264 184.6c.311-.79.612-1.579.942-2.355l-.028-.01c-2.536-.721-6.059-1.739-8.498-2.463-7.023-2.123-7.083-2.175-7.427-2.466-.04.016-1.296-.383-3.543-1.071l-3.659-1.071-3.739 2.454c.049.079.093.145.141.223l.18-.098 1.882 3.213-.044.029c1.098 1.851 2.239 3.702 3.467 5.671 1.212 1.936 2.485 3.973 3.769 6.119.326.364.788 1.078 1.667 2.493l1.946-1.697c1.761-1.582 3.834-3.345 6.093-5.215l5.754-4.724z"/><path d="m91.567 143.814c1.319 2.061 2.749 4.301 4.121 6.63l22.285-3.833-11.741-17.116c-.481-.717-.775-1.153-.907-1.49l-10.201-14.695c-4.237 5.44-8.173 11.131-11.77 17.05l3.833 6.093c.957 2.008 2.544 4.488 4.38 7.361z"/><path d="m73.185 260.698.053-.082c-.087-1.002-.467-4.137-.975-7.569-.236-.312-.614-.793-1.263-1.592l-10.494 4.726c.973 5.156 2.167 10.231 3.566 15.224l10.297-3.816z"/><path d="m64.092 242.561c-.003-.003-.008-.009-.011-.016l-.619-.256-.182-.235c-1.956-2.516-3.731-4.668-5.435-6.719.314 4.612.806 9.179 1.467 13.689l5.857-4.927c-.231-.252-.569-.662-1.167-1.438l.102-.082c-.004-.006-.009-.013-.012-.016z"/><path d="m68.364 248.346c-.259-.344-.544-.721-.849-1.117-1.145.917-2.458 1.999-3.812 3.122l-.719.6z"/><path d="m75.866 276.222-11.327.395c1.258.012 9.762.382 11.327.389z"/><path d="m66.306 174.341c.081.111.157.229.228.347l.455-.102.166.957 2.355 5.136c.208.387.355.822.49 1.225.073.226.134.436.206.57l2.646 3.05-1.512-.419c.254.56.51 1.11.762 1.657.539 1.164 1.063 2.296 1.517 3.381l1.227 2.922c.22.356.464.772.465 1.245v.009c0 .049-.001.099-.008.147l.015.03.083-.053-.054.037.056-.033-.082.056.874 1.69c.727-.456 1.454-.934 1.937-1.323 1.962-1.121 1.982-1.133 2.342-1.133.495-.315.969-.623 1.421-.917 1.255-.813 2.266-1.471 3.065-1.88l.195-.154c-.757-.81-1.489-1.576-2.069-2.152l-.927-.865c-.953-.884-1.367-1.268-3.855-3.908l.1-.098c-.929-.983-1.462-1.497-1.97-1.988-.648-.626-1.256-1.209-2.531-2.608l-.282-.311.069-.063c-2.843-2.922-3.499-3.531-5.227-5.143l-1.266-1.179.106-.138-1.952-1.972c-.277.897-.534 1.808-.798 2.712l1.177-.223z"/><path d="m81.864 181.96-.108.108c.18.206.431.481.749.816.405.072.697.39 1.98 1.795l-.079.075c.118.141.284.324.463.514l3.615 3.548c.619-.374 1.31-.799 2.039-1.248l-.12-.196c.001-.003.003-.003.003-.003 1.083-.662 1.759-1.084 2.181-1.356.095-.16.236-.304.415-.445-.062-.167-.131-.364-.208-.586l.097-.036c-1.358-3.996-2.354-6.512-3.32-8.949l.15-.069c-.545-1.543-.791-2.155-1.079-2.876-.346-.865-.751-1.877-1.791-4.77l.164-.063c-.023-.072-.047-.147-.074-.229-.232-.357-.457-.908-.762-1.72-3.438-1.042-6.507-1.998-9.488-2.932-2.622-.819-5.177-1.615-7.854-2.431l-.247-.075c-.67 1.802-1.311 3.616-1.923 5.444l5.577 5.848z"/><path d="m61.085 218.078.712.367.085-.173c.788.249 1.212.491 1.553.685.3.17.516.295 1.029.445l1.233.357-.059.399c.324.145.676.345.979.518.257.144.501.285.703.367-.072-.589-.158-1.261-.259-2.047-.287-.734-.568-2.362-1.274-7.056-.27-1.808-.568-3.79-.799-5.032l-3.714 2.211-3.468 2.087c-.121 1.818-.206 3.649-.272 5.48l1.025.354c.854.288 1.661.56 2.526 1.038z"/><path d="m58.744 231.119c2.742 3.642 5.625 7.157 8.802 10.98l1.64-1.379-.085-.151c.408-.333.742-.586 1.055-.815-.154-.776-.298-1.435-.437-2.063-.251-1.137-.48-2.175-.693-3.594-.747-5.218-1.007-7.213-1.208-8.9-.134-.049-.269-.108-.411-.17l.005-.027c-.054-.016-.113-.033-.175-.052l.015-.049c-.005 0-.008-.003-.012-.003l-.017.049c-.178-.055-.496-.16-.766-.363-.739-.286-1.476-.57-2.232-.891-.968-.41-1.962-.832-3.012-1.212l.049-.19c-1.176-.511-2.139-.829-3.235-1.188l-.58-.197c-.011.783-.039 1.559-.039 2.342 0 2.096.049 4.183.123 6.263z"/><path d="m346.861 147.05-.304.049-4.445.16-1.903.069c-1.189.121-3.12.209-6.249.347-2.377.105-4.742.209-5.955.275l-.58.003-.346-.003c-.424 0-.979.01-2.021.049-.48.082-1.385.125-3.366.213-1.022.045-2.051.095-2.674.138-1.363.046-1.727.046-1.948.036.211.878.429 1.769.655 2.683l-.128.029c.523 2.156.729 3.034.808 3.394l-.989.462c6.514 7.698 11.952 16.339 16.071 25.691l.203-.118c2.27-1.146 3.403-1.736 3.97-2.041l-.054-.114c3.952-1.946 5.803-2.919 7.586-3.855 1.841-.967 3.613-1.897 7.516-3.804l8.556-4.137c.239-.196.545-.356.858-.521 1.536-.728 3.067-1.468 4.607-2.225l-.043-.082 2.64-1.33.017-6.457-.044-.314.068-9.542z"/><path d="m300.475 78.974c.506 2.24.981 4.34 1.45 6.263l.443 1.763c.049.213.094.417.104.613.167.698.322 1.346.465 1.939l.072-.017 1.748 7.275 7.308-6.191 1.779-1.51.018.02c1.358-1.113 2.864-2.358 4.555-3.776l-.106-.138c2.051-1.759 2.442-2.077 2.807-2.136 1.381-1.166 2.796-2.358 4.242-3.584 2.799-2.365 5.638-4.762 8.285-6.977-3.613-2.329-7.305-4.543-11.09-6.61l-24.145 4.2c.763 3.094 1.438 6.085 2.065 8.866z"/><path d="m317.715 63.343c-7.403-3.758-15.105-7-23.056-9.719l3.11 13.191z"/><path d="m372.446 115.859c-.024.301-.036 1.867-.046 2.879l.09 1.271-.219 4.806-.023 4.74c.136.58.134 1.999.126 6.562h-.024c-.038 1.461-.032 3.298-.025 5.602l.002 1.378 6.479-.291.009.065c2.11-.088 4.237-.15 6.149-.209 1.595-.046 3.074-.092 4.237-.141l-.003-.075 7.315-.324c-6.576-12.936-14.677-24.955-24.065-35.843-.013 2.667-.031 5.238-.074 7.321.018.108.033.229.043.36-.002.033.009.062.008.095.031.438.038.992.044 1.693l-.507.053z"/><path d="m354.046 102.546-6.473 5.218-1.793 1.451c-1.56 1.268-2.55 2.07-5.563 4.425l-.026-.033c-.323.269-.645.541-.968.813-1.507 1.261-3.038 2.545-4.601 3.823l-.063-.059-4.863 4.006-.03-.033c-3.344 2.673-3.852 3.161-4.228 3.518-.386.37-.684.658-3.074 2.529l-.168.167c.024-.026.049-.055.072-.092-.028.02-.056.042-.083.065l-.146-.187c-.023.02-.046.039-.07.059l.12.197-.133-.187c-.028.023-.054.046-.082.069l.188.246-.867.681c-1.921 1.514-2.735 2.156-3.172 2.431l-1.068.887.088.115-3.002 2.466.465 1.937-.063.016.111.491c.529 2.33 1.135 4.996 1.82 7.904l10.165-.367c.403-.068.916-.098 1.542-.131l1.91-.115 18.739-.737.001.04 20.644-.93.102-40.203.136.003c-2.331-2.578-4.754-5.068-7.231-7.505l-1.13.924c-2.587 2.113-4.999 4.082-7.265 6.021z"/><path d="m372.327 146.028c-.003 1.887-.015 3.987-.051 6.365h-.061l.008 2.601h-.021l-.021 6.122c1.725-.872 3.48-1.762 5.284-2.679 4.863-2.474 10.06-5.117 15.848-7.927l.052.102 5.875-2.926c-.434-.933-.886-1.85-1.337-2.774l-.224.013c-.817.003-2.388.04-3.672.092z"/><path d="m328.278 81.048c-.837.704-1.689 1.418-2.506 2.11l.065.078-3.866 3.207-14.593 12.258c-.038.039-.079.079-.121.121-.354.341-.883.799-1.657 1.458.056.216.108.422.16.616l.114-.026c.619 2.526.872 3.646.899 4.235.961 4.042 1.285 5.208 1.556 6.194.32 1.15.573 2.064 1.657 6.859.058.233.107.433.145.603l.07.285c.01.055-.01.082-.001.127l.89 3.767-.17.043c.29 1.218.563 2.375.762 3.266.176.695.301 1.179.39 1.507.234.324.352.776.473 1.241l.167.642-.033.036c.071.321.174.767.295 1.291l.067-.016.239 1.002 1.248-1.029-.02-.022 1.821-1.543.041.049 3.035-2.5.077.095.198-.16c3.119-2.556 6.654-5.454 7.346-6.129l16.579-13.355c2.167-1.789 4.571-3.75 6.74-5.516 1.672-1.366 3.364-2.745 4.622-3.784l.197-.196c.288-.298.646-.668 1.436-1.307.218-.158.374-.256.531-.347.961-.796 2.092-1.704 3.261-2.64-7.43-7.089-15.457-13.559-24.016-19.298l-.118.095c-1.749 1.455-2.535 2.106-2.981 2.401-.666.642-2.385 2.09-4.999 4.282z"/><path d="m301.636 97.141-.042-.13c-.202-.643-.439-1.648-.814-3.237l-.427-1.805c-.153-.619-.271-1.098-.356-1.468l-.141-.57c-.018-.102-.003-.174-.013-.256l-4.542-19.028-37.925 6.604-2.008 3.626-3.927 6.958-.215.383 1.464 3.007c1.382 2.702 1.796 3.452 1.9 3.6.144.128.249.289.947 1.654.175.396.308.701.367.963l9.938 19.255-.018.039 2.936 5.72c1.309.416 2.613.845 3.896 1.31l2.031-1.71.023.026c2.077-1.713 4.442-3.731 6.578-5.553 3.628-3.095 5.716-4.864 6.405-5.28.082-.069.153-.131.218-.183.017-.014.029-.026.038-.033.193-.157.336-.249.5-.298 1.98-1.671 2.833-2.437 3.664-3.188 1.056-.95 2.078-1.867 5.286-4.537l4.807-4.039c-.093-.37-.2-.793-.311-1.232-.086-.139-.168-.332-.259-.598z"/><path d="m244.502 100.65-2.932 5.015-1.821 3.135-1.201 2.063-.708 1.415-.627 1.235-3.951 7.715-2.738 4.9-.963 1.73-1.455 2.663.872-.937 1.769-2.104.438-.599 3.27-4.894.852-1.487 1.708-3.017c9.516.03 18.724 1.343 27.49 3.728l-15.111-29.714-.093.167c.044.03.083.06.127.085l-4.013 7.25z"/><path d="m443.051 217.02.668-1.251 4.127-7.829 2.862-4.976 1.017-1.762 1.513-2.709-.904.95-1.831 2.139-.452.596-3.417 4.959-.884 1.517-4.363 7.468-3.204 5.353-22.28-.131c-.264-25.272-5.79-49.274-15.479-71.005l-4.586 2.286.018.037-1.428.799-3.167 1.52-.028-.056-13.609 6.787-.021-.039c-.531.262-.934.458-1.235.609-.472.36-1.435.838-3.302 1.766l-.103-.18.051.15c-.111.046-.373.167-.84.393l-.094 36.079h-.272c.015.756.026 1.582.037 2.381l-.06.003c.03 4.805-.451 8.953-.55 12.241l-1.415 4.959c-.04-.875-.375-7.835-.367-9.12.007-.809-.073-2.886-.083-3.25l-.103 1.707-.082-.013c.023-.212.067-1.664.069-4.049l-.149-7.128c.013-.258.031-.623.136-.959l.01-3.983c-.005-.315-.01-.688-.015-1.097h-.13l.02-2.48h.095c-.008-2.496-.005-5.598-.003-8.356l.079-5.739-.02-6.106-.016-2.326.023-.003-.003-1.284-1.324.593-14.92 7.393c-3.489 1.71-5.896 2.948-8.258 4.167-.466.294-1.391.753-3.46 1.775l-.031-.062-6.792 3.334c4.808 11.708 7.605 24.45 7.896 37.822l-26.434-.158 6.543 11.488-1.754-2.513-1.238-2.011c-.065.04-.138.072-.203.112l1.291 2.057 4.52 7.462 3.29 6.034 1.709 3.204 1.402 2.633 4.219 7.092 4.049 6.893 4.154 7.049 2.835 4.6 5.575 9.794-.188-.216.498.93 1.821 3.026 22.976 40.345.292-.498 3.456 5.942 1.834 3.125 1.193 2.057.904 1.316.767 1.153 4.756 7.24 2.922 4.782 1.035 1.696 1.605 2.581-.386-1.225-.963-2.575-.308-.668-2.647-5.261-.878-1.474-4.35-7.253-4.002-6.833-3.768-6.525-.022-.039 29.943-51.16 16.593-28.352.408-.439 4.301-7.029 4.684-8.36 4.328-7.19 1.908-3.18 1.257-2.09zm-103.09 46.08-4.036-6.898-4.141-6.987-3.191-5.942-3.583-6.551-.792-1.464 16.657 29.246.488.989z"/><path d="m304.226 107.61c-.518-2.253-.764-3.321-.819-3.901-.099-.38-.21-.816-.331-1.294l-3.022 2.562-.031-.026c-.97.799-2.347 1.982-3.833 3.256-1.782 1.533-3.72 3.197-5.303 4.501-.441.36-.705.573-.942.691-.161.127-.48.39-1.128.937l-.069-.085c-1.913 2.093-8.74 7.698-11.922 10.276l-.032-.037-.714.61c9.645 3.875 18.59 9.125 26.583 15.52l.234-.239 7.577-6.207c-.94-3.925-1.669-6.801-2.394-9.647l.063-.02-2.619-10.659.085-.023c-.041-.184-.087-.38-.136-.596-.211-.593-.452-1.576-.852-3.201l.149-.036c-.153-.681-.35-1.533-.544-2.382z"/><path d="m311.242 137.423-4 3.286c-.266.216-.447.364-.64.452l-1.664 1.346c1.256 1.064 2.486 2.156 3.69 3.276l4.53-.193-1.849-7.685.044-.01z"/><path d="m314.662 151.84-.814-3.384-1.019.04c-.546.026-.961.046-1.309.065 1.068 1.07 2.12 2.161 3.142 3.279z"/><path d="m259.475 73.481 35.043-6.099-2.536-10.627.077-.02-1.033-4.308c-5.469-1.736-11.041-3.25-16.725-4.465l.819-1.53 4.288-7.816 3.063-5.854-3.132 5.221-4.36 8.15-.945 1.766c-.097-.02-.192-.045-.29-.065l-13.584 24.532z"/><path d="m815.472 325.869-.02 4.121.174.688.305-4.782-.053-39.054-.026.341z"/><path d="m742.002 18.239.147 1.684.004-1.92-.315-6.63.009 6.017z"/><path d="m741.948 39.328.279-1.683-.248-13.723-.026.122-.185 13.601.003 1.447z"/><path d="m545.392 25.003.137-.841-.078-6.018-.217 6.627.033 1.922z"/><path d="m545.434 28.748-.053 13.728.302 1.68.183-.252-.026-1.441-.382-13.591z"/><path d="m813.529 25.479.138-.846-.079-6.014-.215 6.623.032 1.923z"/><path d="m813.575 29.219-.052 13.729.301 1.68.184-.252-.027-1.438-.383-13.594z"/><path d="m642.389 430.194-1.658-2.22 2.044 3.125 4.311 6.525z"/><path d="m635.281 419.168-1.422-2.228-2.811-4.637 2.451 4.868z"/><path d="m472.344 23.565.033-1.929-.218-6.62-.077 6.014.138.851z"/><path d="m472.469 39.649-.046-13.725-.027.118-.381 13.594-.024 1.445.183.249z"/><path d="m472.248 153.379.079-1.277-.382-6.755.021-16.729.216-16.248-.093-12.041-.549 11.065-.046 16.853-.007 6.859.053 10.358-.072 7.361c.282.161.517.374.78.554z"/><path d="m1102.567 162.888 7.986.056 8.189.063-.263-.289-8.384.053-8.524-.01-7.734-.099h-.989l1.257.073z"/><path d="m723.535 134.655-5.156 7.115-1.441 2.369 2.136-3.054z"/><path d="m710.799 152.481-1.546 2.146-3.262 4.327 3.61-4.075z"/><path d="m866.049 161.775-12.133.036-3.82.232 5.15-.082z"/><path d="m835.794 161.998-3.655.026-7.482-.088 7.488.514z"/><path d="m583.79 96.224-4.311.046-.611.17-1.204.154 1.376-.006z"/><path d="m574.948 96.362-.092-.023-9.754-.092-1.044.003-.175.184 1.212.275z"/><path d="m1238.066 402.141v-239.721l-.445-7.144-.186-.196-.069-.007v.065l-.229 7.282h-.22l.043-7.744.334-6.738.302-7.462.196-4.488-.249-3.698-.092-7.528c-.085.016-.164.033-.249.053l.02 1.854.104 5.684.033 8.713-.289 6.869-.192 3.633-.147 2.974-.035 7.878h-.119l.049-7.75-.288.262.053 7.488h-71.777l.187-5.319.17-4.488-.269-3.699-.13-7.527c-.086.016-.164.036-.25.056l.026 1.854.138 5.68.079 8.713-.171 4.73h-.246v137.506c0 15.952-3.983 28.597-11.966 37.894-7.982 9.316-18.616 13.967-31.915 13.967-26.914 0-40.357-16.975-40.357-50.924v-136.11l.043-.822 6.093-.049 8.254-.082 7.521.187 7.403.367 1.651.091 7.266-.445.196-.184.007-.068h-.066l-7.73-.246-7.928-.108-2.764-.229 2.771.033 7.983.095 8.127.049 6.741.328 7.463.305 4.487.2 3.695-.256 7.527-.088c-.014-.082-.036-.167-.053-.249l-1.854.02-5.681.102-8.713.032-6.873-.288-3.629-.187-2.975-.15-8.255-.042-7.993-.079-8.183-.069-9.126.102-.072-.013-5.25-.017.192-3.829.089-1.654-.442-7.262-.184-.196-.075-.007v.065l-.238 7.728-.063 4.586h-.206l.06-4.651.046-8.124.333-6.738.302-7.462.193-4.488-.246-3.699-.092-7.527c-.088.016-.164.033-.248.052l.016 1.854.108 5.683.033 8.714-.288 6.869-.191 3.633-.149 2.974-.04 8.255-.046 4.655h-.107l.036-4.593.053-8.189-.289.262.059 8.39-.007 4.13h-30.909l-1.599-.357-8.059-.17-9.375.154-8.206-.118-3.618-.036-2.379-.039-1.592.095-1.39.063-8.648.35-5.613.04-1.979.01-3.04.049 1.251.301 2.705.498.722.085 5.87.433 1.723.006 1.518.003v143.647c0 67.421 27.85 101.135 83.537 101.135 30.667 0 55.143-14.145 73.461-42.467h1.166v36.023l-26.854.121 26.854.36v.105h8.039l.491.006 4.065-.006h61.324v-.099l10.364-.014 16.429-.068c-.053-.142-.069-.299-.111-.442z"/><path d="m1171.943 482.705c-.112-.217-.263-.394-.426-.505-.171-.118-.374-.184-.609-.184h-18.239v-43.966c0-.203-.046-.393-.157-.557-.099-.151-.281-.276-.551-.367-.269-.099-.603-.17-1.041-.235-.427-.073-.977-.099-1.625-.099-.629 0-1.169.025-1.618.099-.438.065-.793.137-1.055.235-.263.091-.448.216-.551.367-.104.164-.157.354-.157.557v47.072c0 1.028.269 1.742.806 2.148.537.399 1.107.609 1.704.609h22.484c.235 0 .438-.059.609-.177.163-.118.313-.301.426-.55.118-.249.21-.557.262-.897.053-.36.078-.8.078-1.324 0-.523-.025-.963-.078-1.343-.052-.359-.143-.654-.262-.883z"/><path d="m1228.2 438.24c-.104-.282-.256-.525-.438-.722-.184-.196-.439-.347-.779-.458-.348-.092-.786-.17-1.344-.21-.543-.039-1.237-.059-2.076-.059-.787 0-1.436.02-1.945.059-.519.04-.932.118-1.271.21-.315.111-.564.255-.734.433-.17.183-.308.425-.412.714l-17.061 47.229c-.203.589-.314 1.048-.327 1.402-.021.347.078.621.265.799.206.19.541.314 1.025.38.491.059 1.107.098 1.867.098.737 0 1.337-.032 1.795-.078.452-.052.813-.144 1.062-.262s.433-.256.563-.426c.138-.171.236-.381.32-.609l4.168-12.226h21.135l4.369 12.376c.099.242.21.439.318.59.128.157.312.281.566.38.243.092.609.157 1.094.196.485.04 1.131.059 1.946.059.813 0 1.461-.032 1.945-.078.479-.052.833-.17 1.042-.36.196-.177.308-.445.296-.799-.014-.354-.125-.819-.342-1.402zm-13.639 30.897 8.763-25.354h.036l8.883 25.354z"/><path d="m1308.744 464.773c-.91-1.075-1.959-1.966-3.164-2.653-1.206-.694-2.503-1.18-3.892-1.435 1.101-.479 2.083-1.075 2.928-1.815.852-.727 1.56-1.56 2.116-2.489.563-.93.996-1.946 1.281-3.054.281-1.087.436-2.247.436-3.452 0-2.011-.334-3.819-.985-5.418-.652-1.599-1.628-2.948-2.926-4.049-1.297-1.101-2.916-1.939-4.854-2.516-1.939-.577-4.429-.865-7.469-.865h-11.55c-.604 0-1.174.203-1.714.609-.533.406-.803 1.121-.803 2.143v45.343c0 1.028.27 1.742.803 2.148.54.399 1.11.609 1.714.609h13.286c1.906 0 3.597-.137 5.083-.413 1.481-.281 2.87-.688 4.168-1.237 1.297-.551 2.463-1.231 3.498-2.045 1.035-.813 1.913-1.749 2.653-2.83.734-1.074 1.304-2.286 1.703-3.629.413-1.35.609-2.824.609-4.423 0-1.736-.256-3.314-.786-4.756-.524-1.441-1.232-2.698-2.135-3.773zm-23.88-22.249h6.983c1.934 0 3.486.184 4.665.551 1.163.367 2.129.903 2.862 1.592.734.694 1.271 1.539 1.605 2.535.341.996.512 2.109.512 3.341 0 1.107-.171 2.169-.485 3.204-.335 1.028-.845 1.946-1.553 2.712-.708.773-1.599 1.389-2.667 1.841-1.071.466-2.482.688-4.232.688h-7.69zm18.947 34.9c-.498 1.081-1.179 1.972-2.057 2.693-.879.727-1.894 1.257-3.04 1.631-1.153.367-2.496.544-4.042.544h-9.808v-17.918h8.091c2.109 0 3.872.209 5.268.615 1.402.406 2.562.996 3.491 1.788.931.787 1.625 1.756 2.114 2.902.486 1.16.73 2.496.73 4.01.001 1.415-.255 2.661-.747 3.735z"/><path d="m1370.013 464.512c-1.087-1.082-2.325-2.025-3.721-2.825-1.386-.798-2.798-1.532-4.238-2.2-1.441-.669-2.857-1.33-4.246-1.985-1.389-.654-2.627-1.376-3.714-2.162-1.089-.786-1.959-1.696-2.614-2.712-.649-1.022-.989-2.248-.989-3.655 0-.971.176-1.888.518-2.745.337-.872.851-1.612 1.533-2.241.681-.636 1.546-1.141 2.594-1.514 1.049-.379 2.273-.576 3.695-.576 1.52 0 2.89.197 4.107.576 1.219.373 2.268.8 3.165 1.245.891.472 1.645.871 2.254 1.245.615.367 1.067.557 1.355.557.184 0 .347-.065.498-.178.138-.117.249-.307.334-.556.065-.249.138-.558.17-.918.039-.367.057-.792.057-1.265 0-.491-.011-.897-.036-1.211-.027-.315-.06-.591-.125-.807-.039-.223-.105-.406-.189-.55-.079-.151-.243-.348-.492-.597-.242-.249-.767-.57-1.546-.977-.792-.405-1.684-.779-2.692-1.101-1.01-.334-2.09-.59-3.223-.786-1.141-.196-2.274-.295-3.407-.295-2.195 0-4.239.295-6.146.885-1.9.59-3.538 1.447-4.907 2.575-1.383 1.126-2.457 2.516-3.227 4.18-.77 1.67-1.163 3.563-1.163 5.68 0 2.07.341 3.853 1.003 5.32.675 1.493 1.54 2.777 2.613 3.878 1.075 1.101 2.297 2.058 3.656 2.87 1.363.813 2.765 1.553 4.206 2.221 1.435.668 2.85 1.323 4.226 1.959 1.376.642 2.602 1.356 3.676 2.129 1.064.76 1.938 1.664 2.581 2.686.668 1.022.995 2.261.995 3.702 0 1.33-.242 2.522-.706 3.571-.473 1.047-1.146 1.933-2.025 2.652-.878.728-1.926 1.278-3.145 1.671-1.219.394-2.562.59-4.029.59-1.939 0-3.656-.229-5.13-.688-1.48-.459-2.745-.95-3.786-1.481-1.056-.517-1.914-1.002-2.575-1.448-.678-.438-1.187-.667-1.56-.667-.203 0-.386.045-.543.137-.164.099-.288.256-.397.491-.114.236-.187.544-.238.925-.052.379-.072.857-.072 1.441 0 .799.065 1.454.203 1.938.157.484.373.885.681 1.199.302.314.822.694 1.605 1.14.772.445 1.733.878 2.869 1.297 1.141.42 2.444.768 3.892 1.056 1.455.295 3.027.438 4.737.438 2.431 0 4.704-.334 6.819-.989 2.11-.648 3.938-1.625 5.501-2.928 1.556-1.292 2.78-2.864 3.659-4.731.87-1.86 1.31-3.983 1.31-6.361 0-2.018-.327-3.767-1.002-5.248-.663-1.48-1.54-2.77-2.629-3.857z"/><path d="m544.05 463.715-.45.993 5.367 1.165 4.316-.438 3.878-.511 2.829-.308-5.215-.59z"/><path d="m577.72 466.392 7.45-.046 1.047-.164 2.082-.158-2.38.006z"/><path d="m596.472 465.487.417-.046 3.879-.511 2.83-.314-5.215-.584-10.725-.313-.452.989 4.059.884-3.564.072.153.026 3.964.02.76.163 1.522-.15 10.588.058 1.79-.009.299-.187-2.089-.268z"/><path d="m660.415 465.781 3.274-.009 6.709.108-6.709-.537z"/><path d="m698.551 464.943.75.007 6.853-.072-4.764-.682-5.515.413z"/><path d="m621.326 466.392 7.449-.046 1.048-.158 2.083-.164-2.378.013z"/><path d="m631.311 465.664.15.026 11.181.062-9.348.148 10.877.006 2.106-.134 2.021.009 1.789-.006.301-.183-2.09-.268z"/><path d="m691.204 465.69-4.619.059-9.683.151 10.876.006z"/><path d="m1109.737 464.406-1.645-.15-13.261-.715-3.871.021-19.071.111-17.88-.053-1.493-.011-1.287-.068-3.879.021-1.035.007-9.296-.073-15.498-.34-16.378-.171-19.079.256-1.965.049-6.185-.134-16.382-.177-19.077.262-20.856.511-20.56.334-19.52.256-2.385.022-10.895.15-13.585-.454-3.728-.145-14.627.812-8.565-.11-16.69-.563-3.725-.145-15.936.891-.354-.013-8.344.518-10.613.171-14.515-.381-8.026-.249-4.537-.648-5.517.413 2.68.334.747.014 2.087-.023-5.913.37-20.712.334-6.95.043-4.119-.331-2.832.373-6.208.04-14.899.347 13.706.314 20.858-.308 8.491-.134 12.817-.279 19.663-.189 4.049.11-.966.014-20.113.132-14.898.34 13.706.321 20.86-.314 8.49-.131 3.396-.072.974.026 8.192.301 6.709.22 18.622-.042 18.026.032h6.555l.406.014 6.207-.014h5.308l.891-.013 6.215-.014 18.029.033h13.289l-1.475.229 1.868.066-13.539-.118h-18.022l-18.476.02.043.039-7.151-.065h-18.026l-18.475.022.599.521 18.924-.216 19.219-.111 5.104.02.36.313 18.921-.222 19.222-.105 17.434.06 2.233-.026-2.829-.085-4.144-.032 19.382-.139 7.901-.227-.118-.251 16.162-.073 15.19-.075.592.007-15.782.22-2.98.458 2.385.085 20.258-.137 1.723-.046 4.143.71 18.171.201 21.158-.409 3.112.016 1.162.196 18.174.203 21.162-.413 18.475.085 8.196.021 5.362.032 3.573-.189 3.132-.131 19.517-.78 12.664-.138 4.468-.052 6.854-.138-2.83-.524zm-301.819 1.599-18.327.036-8.688-.285 1.942-.046 19.383-.189 1.254.019 14.519.4 2.702.104zm14.353-.321 3.673.014 3.616.229z"/><path d="m528.682 465.048-3.878.505-2.831.314 5.222.59 10.718.309.452-.991-5.366-1.166z"/><path d="m495.748 464.295-2.077.164 2.378-.007 8.196-.36-7.449.046z"/><path d="m477.279 464.701-1.788.007-.302.189 2.09.269 16.988-.347-.158-.026z"/><path d="m713.125 402.712-92.218-127.434 85.951-112.645 1.78.046 18.783.376 11.308.275 2.326-.138v220.711l-.192 9.809.061 10.239.028 3.604.1 5.536.542-2.276.907-4.927.154-1.33.136-1.847h71.99l-.107 13.855.157 7.895.02-10.62.01-11.13h.344v-119.21h.187l.121 4.697.03-4.697h.599l76.686 119.131h-1.428l-38.458.348 35.378.314 53.84-.308 21.915-.131 15.369-.132 6.106 7.94-3.78-5.798-1.134-1.565-.426-.583.668-.006h.338l1.66 2.286 22.819 30.955-20.48-28.847-3.226-4.401 15.177-.132 20.414-.078c-.066-.274-.158-.544-.217-.819l-20.595.498-15.101.092-9.477-12.942c-.018.01-.033.017-.05.023l-82.551-114.068 75.758-99.277 3.275-4.104 5.283-6.512-.062-.387-2.941 3.728 4.812-6.306h-87.104l.17-.269 3.918-5.493 4.277-6.123 2.585-3.672 1.785-3.249 3.984-6.391c-.082-.03-.157-.056-.239-.088l-.986 1.573-2.975 4.844-4.671 7.354-3.948 5.628-2.119 2.958-1.732 2.424-.324.504h-.125l.295-.455-.386.065-.242.39h-.155l-71.582 110.992h-.704l-.114-9.539-.043 9.539h-.075v-226.455h-74.149v115.502l-15.127.187-17.29-.367-9.139-.275-7.482-.187-20.781.111-20.113.033-20.604.072-9.704.16.682-.927 7.994-11.013 4.842-6.604 2.634-4.638c-.164-.053-.314-.125-.478-.183l-7.96 12.087-7.357 10.135-.861 1.153-12.733.212-.164-.013-14.184.108c-.465.632-.996 1.209-1.579 1.746h.144l17.624-.278 8.69-.141-70.647 109.574h-.943v-177.229l2.004-.052-2.004-.003v-49.17h-74.156l-42.987 48.196-3.987-.023-1.297.026 1.638.089 3.518.052-.258.289-2.827.003-11.917.298-.084-.01-7.377.059c-.238.632-.524 1.199-.826 1.736l.072.003 9.159-.219 10.797-.259 9.84.223 9.67.563 2.156.137 9.506-.914.184-.236h15.022v305.19l-30.53.274 30.53.276h.433l4.422.039 6.873-.039h59.749l.506 5.801.179 1.327.977 4.913.145 6.616.451-9.886.422-3.616v-5.155-5.118-114.091h.943l76.316 118.568-24.337-.249c.007.131.033.255.033.387h.314l24.249.262.155.243h1.047l.414.614-.365-.614h19.728l7.904.11c-.005-.032-.01-.071-.013-.11z"/><path d="m1438.509 157.654c-30.582 0-51.757 16.317-63.517 48.933h-.943v-44.698h-63.579l-2.643-.13-1.651-.092-3.672.223h-2.801v.171l-.793.046-.196.189-.007.072h.066l.93.029v.384l-1.389-.007-6.742-.331-7.461-.305-4.488-.196-3.695.249-7.527.092c.014.085.032.167.053.246l1.854-.017 5.681-.104 8.713-.033 6.872.288 3.63.19 2.975.151 1.526.006v.104l-1.396-.009.263.292 1.133-.01v239.403h54.512c0 .013.003.026.003.039 0 .046-.007.089-.007.138l.623-.007 7.003-.059 8.255-.079 7.521.184 7.402.373 1.651.086 7.266-.445.196-.184.007-.066h-.065l-7.73-.242-7.928-.11-2.765-.23 2.771.03 7.985.095 8.125.053 6.741.327 7.462.302 4.488.2 3.694-.253 7.524-.092c-.01-.079-.029-.164-.049-.249l-1.854.021-5.68.104-8.714.033-6.872-.288-3.63-.19-2.974-.15-8.256-.042-7.992-.075-4.37-.039v-.142l4.312.082 7.986.06 8.186.058-.259-.288-8.386.053-8.523-.014-3.315-.039v-113.999c0-20.389 4.547-36.495 13.647-48.34 9.093-11.838 21.718-17.764 37.874-17.764 11.917 0 22.35 2.434 31.289 7.295v-68.459c-4.389-1.884-10.507-2.824-18.35-2.824z"/><path d="m993.875 138.829-3.816 4.651-.42.757-.956 1.392 1.221-1.481z"/><path d="m986.01 148.609-.096.076-8.781 10.387-.918 1.121-.013.295 1.284-1.121z"/><path d="m145.807 169.273c5.51-9.225 12.368-17.542 20.329-24.673l-2.576 1.658-.374-.501-.86.409.237.357c-.537.439-1.561 1.068-2.416 1.589-.473.289-.889.537-1.091.685l-.146-.167c-.085.053-.172.105-.257.158l.044.144c-.19.075-1.13.583-2.436 1.412-.981.76-1.633 1.208-2.294 1.661-.549.376-1.105.757-1.942 1.389-.588.295-.86.387-1.157.387h-.929l-.021-.066-.206.112.465.652c-.388.305-1.148.773-1.794 1.169l-.072.042-.157.102.015.056-1.585.963-.103-.167c-.778.508-1.665 1.078-2.806 1.802.383 1.782.811 3.803 1.408 6.951l-.031.006z"/><path d="m170.894 140.571-14.173 2.519-.008-.046-.251.032-12.872 2.375c-.865.131-1.167.151-1.303.151l-.362-.04c.002.02-.199.056-.769.154l.996 5.153-.031.006c.357 1.907.648 3.338.924 4.638.152-.075.293-.141.42-.196l.097.184c.537-.328 1.191-.744 1.967-1.268.109-.073.213-.145.303-.207l-.089-.147c.292-.184.5-.301.639-.374l1.584-.92.159.226.594-.383.399.561.475-.282c-.203-.93.464-1.432 3.667-3.613l.085.104c2.881-1.929 5.585-3.577 7.834-4.763l.105.16h1.035l-.26-.351 1.073-.92c1.972-1.264 2.237-1.264 2.543-1.264h.913l.3.871c.198.61-.079 1.045-.354 1.327 1.424-1.263 2.869-2.501 4.36-3.687z"/></svg>