<svg enable-background="new 0 0 1500 500" height="500" viewBox="0 0 1500 500" width="1500" xmlns="http://www.w3.org/2000/svg"><g fill="#fff"><path d="m221.229 304.673v1.198c0 .392.08.716.245.961s.368.404.616.464c.252.06.537.132.868.219h.927c.53 0 .994-.033 1.385-.093.397-.066.689-.259.901-.59.159-.245.238-.59.212-1.021-.023-.431-.026-.854-.026-1.265v-4.822-26.318-6.18c0-.577 0-1.127 0-1.644 0-.51-.129-.934-.371-1.265-.166-.206-.431-.338-.802-.397-.374-.066-.768-.093-1.179-.093-.08.039-.189.06-.305.06-.126 0-.232.02-.312.06-.371.086-.663.252-.861.497-.251.37-.45.801-.589 1.298-.146.497-.338.947-.589 1.358-.371.576-.762 1.112-1.173 1.609-.411.49-.907.928-1.484 1.298-.536.325-1.093.604-1.669.828-.576.232-1.172.444-1.795.649-.238.086-.49.14-.738.152-.249.026-.474.06-.679.1-.45.119-1.01.186-1.663.186-.669 0-1.159.1-1.49.305-.285.165-.503.457-.643.867-.152.411-.182.861-.1 1.358.046.205.063.384.063.523 0 .146.043.278.123.404.251.457.702.688 1.365.708.656.021 1.334.033 2.033.033h4.704c.49 0 .954.014 1.381.033.44.021.798.133 1.09.338.245.205.377.444.397.709.026.271.069.59.159.961v21.998 4.514z"/><path d="m255.575 304.673v1.198c0 .392.079.716.251.961.166.245.371.404.616.464s.537.132.861.219h.928c.537 0 1-.033 1.391-.093.391-.066.689-.259.894-.59.166-.245.238-.59.219-1.021-.02-.431-.033-.854-.033-1.265v-4.822-26.318-6.18c0-.577 0-1.127 0-1.644 0-.51-.119-.934-.371-1.265-.166-.206-.431-.338-.801-.397-.375-.066-.762-.093-1.172-.093-.08.039-.186.06-.312.06-.119 0-.225.02-.308.06-.368.086-.659.252-.864.497-.245.37-.444.801-.583 1.298-.146.497-.345.947-.59 1.358-.371.576-.768 1.112-1.172 1.609-.417.49-.907.928-1.484 1.298-.54.325-1.093.604-1.669.828-.577.232-1.173.444-1.795.649-.245.086-.49.14-.735.152-.251.026-.477.06-.682.1-.451.119-1.014.186-1.669.186-.662 0-1.152.1-1.484.305-.285.165-.503.457-.649.867-.146.411-.172.861-.093 1.358.04.205.066.384.066.523 0 .146.04.278.116.404.255.457.706.688 1.368.708.656.021 1.332.033 2.031.033h4.7c.497 0 .96.014 1.391.033.437.021.795.133 1.08.338.252.205.384.444.404.709.02.271.073.59.152.961v21.998 4.514z"/><path d="m236.256 213.18c.255.454.705.689 1.368.712.656.02 1.338.026 2.03.026h4.707c.49 0 .96.013 1.384.033.438.02.795.132 1.086.338.245.206.377.444.397.709.026.271.073.589.159.96v21.999 4.511 1.206c0 .391.079.709.245.954s.371.404.616.463c.252.06.537.133.865.219h.931c.537 0 .994-.033 1.384-.103.397-.057.689-.249.901-.58.159-.245.239-.59.212-1.021-.02-.43-.03-.854-.03-1.265v-4.822-26.318-6.18c0-.577 0-1.12 0-1.643 0-.51-.123-.931-.368-1.265-.166-.202-.431-.334-.801-.397-.371-.06-.762-.093-1.179-.093-.08.043-.186.06-.305.06-.126 0-.232.023-.314.066-.368.076-.659.245-.858.494-.252.371-.444.801-.59 1.295-.146.497-.338.951-.589 1.361-.371.576-.762 1.113-1.172 1.606-.411.493-.908.927-1.484 1.298-.54.331-1.093.606-1.673.834-.566.225-1.169.444-1.792.646-.239.086-.49.136-.735.155-.245.017-.477.053-.683.096-.45.119-1.007.186-1.663.186-.662 0-1.159.1-1.49.301-.285.169-.503.457-.643.868-.152.411-.179.868-.1 1.361.043.206.066.381.066.523.002.148.042.281.118.407z"/><path d="m230.827 183.076c.292.04.57.069.834.093.265.02.53.069.775.149h.371c.126.046.265.046.431 0 .166-.037.351-.017.557.066.125.04.331.063.616.063s.517-.023.683-.063c.159-.043.344-.053.523-.03.186.02.354.01.53-.036.49-.08.957-.143 1.417-.182.45-.04.901-.143 1.358-.308.417-.119.841-.245 1.295-.371s.848-.285 1.176-.494c.252-.162.503-.318.775-.463.265-.143.503-.301.709-.464.782-.54 1.51-1.235 2.199-2.103.676-.861 1.226-1.749 1.629-2.656.166-.368.325-.749.471-1.143.139-.388.291-.792.457-1.203.086-.328.166-.669.251-1.02.08-.351.166-.689.242-1.023.163-.53.269-1.08.315-1.633.04-.557.119-1.12.245-1.699v-.619c.086-.408.125-.835.125-1.265 0-.434.04-.858.12-1.269v-.676-.99c.079-.288.112-.609.093-.96-.02-.351-.027-.689-.027-1.017v-1.917c0-.163 0-.338 0-.523s-.023-.341-.066-.464c-.08-.248-.086-.526-.027-.838.06-.305.053-.583-.033-.831v-.557c-.04-.205-.053-.424-.027-.649.013-.229.007-.441-.033-.649-.04-.162-.053-.328-.033-.494.02-.162-.007-.351-.093-.553-.08-.454-.136-.908-.152-1.361-.027-.454-.093-.908-.219-1.358-.08-.332-.159-.669-.212-1.027-.066-.341-.139-.686-.219-1.014-.205-.576-.391-1.133-.556-1.666-.166-.537-.351-1.053-.557-1.55-1.033-2.345-2.6-4.167-4.696-5.465-2.1-1.298-4.862-1.908-8.28-1.825-.292.043-.557.06-.802.06s-.517.026-.801.066c-.583.123-1.146.219-1.703.308-.557.083-1.106.225-1.643.43-1.888.828-3.365 1.835-4.412 3.024-1.053 1.202-1.967 2.746-2.755 4.64-.285.616-.49 1.269-.616 1.944-.119.683-.292 1.372-.493 2.074-.083.205-.116.424-.09.649.02.225-.013.438-.093.649-.04.411-.086.812-.125 1.199-.04.397-.08.795-.126 1.209l-.186 2.597v1.169c-.083.335-.099.735-.06 1.209s.06.891.06 1.265c0 .325-.02.669-.06 1.021s-.023.669.06.957c.086.206.106.414.066.616-.04.208-.04.394 0 .553.04.212.04.428 0 .653-.04.229-.02.444.06.649v.653c0 .225.02.44.06.646.046.166.053.332.033.497-.023.159-.007.324.033.49.079.454.146.907.185 1.358.037.454.1.911.183 1.364.168.659.308 1.289.43 1.881.129.596.315 1.186.557 1.762.494 1.278 1.076 2.454 1.732 3.521.662 1.073 1.483 1.978 2.477 2.719.199.166.417.302.643.404.232.103.444.232.649.401.576.331 1.179.599 1.789.801.623.208 1.279.41 1.981.619zm-4.69-12.235c-.172-.451-.265-.938-.285-1.454-.02-.514-.086-1.017-.219-1.51-.04-.454-.066-.875-.086-1.265-.02-.397-.053-.798-.1-1.209-.033-.08-.046-.192-.026-.338s.026-.262.026-.338v-1.116c-.08-.288-.106-.606-.086-.957.017-.348.033-.689.033-1.021v-1.851c0-.212 0-.395 0-.557 0-.166.02-.308.053-.434v-.742c0-.328.013-.669.033-1.023.02-.344.03-.686.03-1.014.043-.411.083-.818.123-1.206.046-.391.086-.771.132-1.146.03-.202.053-.42.053-.646 0-.229.046-.44.132-.649.119-.537.232-1.06.338-1.577.1-.517.252-.997.457-1.451.457-1.152 1.02-2.172 1.703-3.06.682-.884 1.576-1.573 2.689-2.07.285-.123.563-.215.834-.278.265-.06.57-.133.891-.215.129-.04.285-.053.5-.03.205.02.344-.01.431-.093 1.189 0 2.199.112 3.024.338.825.229 1.566.569 2.229 1.02 1.023.742 1.841 1.699 2.441 2.875.593 1.173 1.037 2.504 1.328 3.981.285 1.484.47 3.074.557 4.763.086 1.689.119 3.418.119 5.19 0 1.689-.033 3.378-.119 5.064-.086 1.689-.335 3.196-.742 4.514-.08.328-.162.639-.219.924-.06.288-.152.58-.278.864-.285.702-.577 1.298-.861 1.792-.292.49-.643 1.03-1.057 1.606-.242.249-.454.414-.613.497-.08.076-.166.162-.245.245-.086.086-.186.166-.311.249-.663.454-1.404.801-2.229 1.05-.242.083-.507.132-.798.156-.292.02-.583.069-.868.152-.252.083-.593.103-1.02.06-.431-.037-.729-.076-.895-.123-.205-.08-.377-.113-.523-.089-.146.02-.305-.01-.47-.093-1.312-.411-2.404-1.03-3.266-1.855-.788-.825-1.378-1.709-1.765-2.656-.386-.949-.75-2.038-1.075-3.274z"/><path d="m265.432 151.316c.497 0 .96.01 1.391.03s.795.136 1.08.338c.251.208.384.447.404.708.02.272.066.593.152.961v21.999 4.511 1.199c0 .397.08.716.252.964.166.245.371.401.612.46.249.063.534.136.865.222h.927c.537 0 1-.033 1.391-.103.391-.056.689-.251.895-.58.162-.248.238-.586.218-1.02s-.033-.854-.033-1.265v-4.822-26.321-6.18c0-.573 0-1.12 0-1.643 0-.51-.119-.931-.371-1.262-.166-.206-.431-.338-.802-.401-.371-.06-.762-.093-1.172-.093-.083.043-.186.06-.312.06-.119 0-.225.026-.305.066-.371.076-.662.245-.868.494-.245.371-.444.801-.589 1.295-.139.497-.338.951-.583 1.361-.371.58-.769 1.113-1.172 1.606-.417.494-.911.928-1.484 1.298-.537.332-1.093.606-1.676.832-.57.232-1.166.447-1.789.649-.245.086-.497.136-.735.155-.252.017-.477.05-.689.093-.451.123-1.007.189-1.663.189-.663 0-1.153.103-1.484.301-.285.166-.503.46-.649.868-.146.411-.172.868-.093 1.361.04.206.066.381.066.527 0 .142.04.275.119.4.252.454.702.689 1.365.712.656.02 1.332.03 2.034.03h4.698z"/><path d="m167.553 213.18c.251.454.702.689 1.364.712.656.02 1.338.026 2.034.026h4.697c.497 0 .96.013 1.391.033.434.02.795.132 1.08.338.251.206.384.444.404.709.02.271.073.589.152.96v21.999 4.511 1.206c0 .391.08.709.252.954.166.245.371.404.616.463s.536.133.861.219h.927c.537 0 1-.033 1.391-.103.391-.057.686-.249.895-.58.166-.245.238-.59.215-1.021-.017-.43-.03-.854-.03-1.265v-4.822-26.318-6.18c0-.577 0-1.12 0-1.643 0-.51-.119-.931-.371-1.265-.159-.202-.424-.334-.801-.397-.371-.06-.762-.093-1.173-.093-.08.043-.186.06-.314.06-.116 0-.222.023-.301.066-.371.076-.663.245-.868.494-.248.371-.444.801-.583 1.295-.146.497-.345.951-.59 1.361-.371.576-.765 1.113-1.172 1.606-.417.493-.908.927-1.484 1.298-.537.331-1.093.606-1.669.834-.576.225-1.172.444-1.795.646-.245.086-.49.136-.735.155-.251.017-.477.053-.682.096-.451.119-1.007.186-1.669.186s-1.153.1-1.484.301c-.285.169-.503.457-.643.868-.152.411-.179.868-.099 1.361.046.206.066.381.066.523-.001.148.039.281.118.407z"/><path d="m226.813 235.513c.08-.344.166-.688.245-1.02.166-.537.271-1.08.311-1.636s.123-1.119.245-1.696v-.623c.086-.411.126-.828.126-1.265 0-.431.037-.854.126-1.265v-.683-.987c.08-.285.106-.609.086-.96s-.03-.689-.03-1.014v-1.921c0-.159 0-.338 0-.523s-.017-.338-.056-.463c-.089-.245-.093-.523-.033-.838.06-.302.053-.58-.033-.832v-.557c-.04-.199-.053-.424-.026-.649.01-.225.003-.437-.033-.649-.04-.159-.053-.324-.033-.49.026-.166-.006-.354-.093-.557-.079-.457-.132-.908-.152-1.365-.02-.45-.093-.901-.218-1.351-.08-.334-.152-.672-.212-1.023-.066-.348-.139-.689-.218-1.02-.206-.573-.391-1.129-.557-1.673-.169-.526-.351-1.043-.556-1.54-1.03-2.345-2.59-4.17-4.7-5.465-2.096-1.298-4.859-1.908-8.27-1.825-.298.043-.563.06-.808.06-.249 0-.517.023-.802.066-.58.123-1.149.219-1.702.308-.557.08-1.1.225-1.636.431-1.895.828-3.372 1.835-4.418 3.027-1.046 1.196-1.967 2.743-2.749 4.637-.292.619-.497 1.265-.616 1.947-.125.676-.292 1.368-.497 2.07-.08.205-.113.417-.093.643.02.232-.013.44-.093.649-.04.417-.083.815-.126 1.203-.04.4-.08.798-.119 1.208l-.186 2.597v1.173c-.086.331-.106.735-.066 1.206.04.47.066.891.066 1.265 0 .328-.026.669-.066 1.02s-.02.669.066.96c.08.206.1.411.06.616s-.04.391 0 .553c.04.208.04.42 0 .652-.04.225-.02.444.06.643v.656c0 .225.02.444.066.649.04.166.053.325.023.49-.017.163-.007.332.036.497.08.45.146.907.186 1.358.04.45.106.907.186 1.358.166.663.311 1.292.431 1.888.125.596.311 1.186.556 1.762.497 1.278 1.073 2.451 1.729 3.518.663 1.073 1.484 1.98 2.478 2.722.195.166.417.298.649.404.226.099.438.229.643.397.577.331 1.179.596 1.795.801.616.212 1.278.411 1.974.623.291.04.569.073.841.086.265.026.523.08.769.156h.371c.126.043.271.043.431 0 .166-.037.348-.017.563.069.119.04.325.06.609.06.292 0 .517-.02.682-.06.166-.046.345-.053.523-.033.186.02.358.007.53-.036.497-.076.967-.146 1.424-.182.451-.04.901-.146 1.352-.312.417-.119.848-.245 1.305-.371.451-.129.841-.285 1.166-.49.249-.166.51-.325.775-.464.265-.146.503-.301.715-.464.775-.537 1.51-1.239 2.193-2.106.675-.861 1.225-1.749 1.629-2.649.162-.371.325-.755.47-1.146.146-.391.298-.795.464-1.206.073-.33.156-.668.242-1.019zm-4.511-6.088c-.086 1.689-.331 3.193-.745 4.511-.076.331-.149.643-.215.927-.063.292-.152.583-.271.868-.292.702-.583 1.298-.868 1.789-.292.497-.643 1.033-1.047 1.61-.251.245-.457.411-.623.497-.083.076-.166.159-.245.245-.086.08-.186.166-.312.245-.659.451-1.397.802-2.219 1.053-.252.08-.517.132-.808.152-.285.02-.577.073-.868.152-.245.086-.583.106-1.013.06-.438-.033-.735-.08-.901-.119-.206-.08-.378-.113-.523-.093-.146.02-.298-.007-.464-.093-1.318-.411-2.411-1.033-3.272-1.854-.789-.822-1.372-1.709-1.762-2.656-.391-.947-.749-2.041-1.08-3.272-.176-.457-.258-.934-.278-1.458-.026-.51-.093-1.013-.219-1.51-.046-.45-.073-.875-.093-1.265-.02-.394-.053-.795-.093-1.206-.04-.08-.053-.199-.026-.345.013-.139.026-.255.026-.338v-1.113c-.08-.285-.112-.603-.093-.954.02-.351.03-.689.03-1.02v-1.855c0-.208 0-.391 0-.557s.023-.305.063-.43v-.742c0-.331.007-.669.027-1.023.026-.348.033-.686.033-1.017.046-.411.08-.818.126-1.206.037-.391.086-.769.126-1.146.04-.206.06-.417.06-.643 0-.232.04-.444.126-.652.119-.534.232-1.057.338-1.573.099-.517.258-.997.463-1.454.457-1.149 1.014-2.173 1.703-3.057.676-.884 1.57-1.577 2.689-2.07.285-.123.556-.215.828-.278.265-.06.57-.133.895-.215.126-.04.292-.053.497-.03.206.02.351-.01.438-.093 1.192 0 2.199.112 3.027.338.821.229 1.56.569 2.219 1.02 1.027.745 1.842 1.702 2.444 2.875.596 1.169 1.04 2.504 1.325 3.981.285 1.48.47 3.07.556 4.759s.119 3.418.119 5.193c-.001 1.691-.034 3.38-.12 5.062z"/><path d="m295.519 235.513c.08-.344.166-.688.245-1.02.166-.537.269-1.08.312-1.636.04-.556.126-1.119.242-1.696v-.623c.089-.411.129-.828.129-1.265 0-.431.04-.854.126-1.265v-.683-.987c.079-.285.112-.609.092-.96-.026-.351-.026-.689-.026-1.014v-1.921c0-.159 0-.338 0-.523s-.026-.338-.066-.463c-.086-.245-.093-.523-.033-.838.063-.302.053-.58-.033-.832v-.557c-.033-.199-.053-.424-.026-.649.02-.225.006-.437-.033-.649-.04-.159-.053-.324-.026-.49.02-.166-.014-.354-.103-.557-.076-.457-.129-.908-.149-1.365-.02-.45-.093-.901-.219-1.351-.079-.334-.152-.672-.212-1.023-.06-.348-.139-.689-.219-1.02-.205-.573-.391-1.129-.556-1.673-.159-.526-.345-1.043-.557-1.54-1.026-2.345-2.59-4.17-4.696-5.465-2.1-1.298-4.862-1.908-8.274-1.825-.291.043-.556.06-.811.06-.242 0-.514.023-.798.066-.576.123-1.146.219-1.703.308-.556.08-1.1.225-1.636.431-1.895.828-3.365 1.835-4.418 3.027-1.05 1.196-1.967 2.743-2.749 4.637-.285.619-.497 1.265-.616 1.947-.119.676-.292 1.368-.49 2.07-.086.205-.119.417-.099.643.02.232-.007.44-.086.649-.046.417-.086.815-.132 1.203-.033.4-.08.798-.123 1.208l-.182 2.597v1.173c-.086.331-.103.735-.066 1.206.046.47.066.891.066 1.265 0 .328-.02.669-.066 1.02-.036.351-.02.669.066.96.086.206.099.411.066.616-.046.205-.046.391 0 .553.033.208.033.42 0 .652-.046.225-.03.444.053.643v.656c0 .225.026.444.063.649.043.166.056.325.037.49-.02.163-.013.332.033.497.08.45.139.907.186 1.358.033.45.1.907.186 1.358.159.663.305 1.292.424 1.888.133.596.318 1.186.557 1.762.497 1.278 1.073 2.451 1.729 3.518.659 1.073 1.49 1.98 2.478 2.722.205.166.417.298.649.404.222.099.437.229.639.397.586.331 1.183.596 1.798.801.623.212 1.279.411 1.981.623.292.04.563.073.834.086.265.026.523.08.765.156h.375c.125.043.271.043.437 0 .166-.037.351-.017.556.069.12.04.321.06.613.06.289 0 .514-.02.679-.06.162-.046.344-.053.523-.033.186.02.364.007.53-.036.497-.076.967-.146 1.424-.182.45-.04.901-.146 1.354-.312.414-.119.845-.245 1.302-.371.45-.129.841-.285 1.172-.49.245-.166.5-.325.775-.464.265-.146.503-.301.709-.464.782-.537 1.51-1.239 2.192-2.106.683-.861 1.226-1.749 1.636-2.649.166-.371.325-.755.464-1.146.146-.391.298-.795.463-1.206.084-.33.163-.668.243-1.019zm-4.511-6.088c-.086 1.689-.325 3.193-.742 4.511-.079.331-.152.643-.218.927-.053.292-.152.583-.272.868-.285.702-.576 1.298-.868 1.789-.292.497-.646 1.033-1.046 1.61-.252.245-.457.411-.623.497-.08.076-.166.159-.249.245-.076.08-.182.166-.308.245-.656.451-1.398.802-2.219 1.053-.251.08-.517.132-.808.152-.285.02-.576.073-.861.152-.252.086-.59.106-1.021.06-.44-.033-.729-.08-.894-.119-.206-.08-.388-.113-.527-.093-.149.02-.301-.007-.467-.093-1.312-.411-2.405-1.033-3.272-1.854-.785-.822-1.371-1.709-1.755-2.656-.397-.947-.755-2.041-1.086-3.272-.166-.457-.258-.934-.278-1.458-.02-.51-.092-1.013-.218-1.51-.04-.45-.066-.875-.093-1.265-.02-.394-.053-.795-.093-1.206-.04-.08-.046-.199-.026-.345.013-.139.026-.255.026-.338v-1.113c-.08-.285-.113-.603-.096-.954.03-.351.037-.689.037-1.02v-1.855c0-.208 0-.391 0-.557s.02-.305.06-.43v-.742c0-.331.013-.669.033-1.023.017-.348.033-.686.033-1.017.04-.411.079-.818.119-1.206.04-.391.086-.769.126-1.146.04-.206.06-.417.06-.643 0-.232.04-.444.125-.652.123-.534.232-1.057.338-1.573.106-.517.258-.997.464-1.454.457-1.149 1.017-2.173 1.702-3.057.676-.884 1.573-1.577 2.689-2.07.285-.123.563-.215.828-.278.265-.06.57-.133.901-.215.116-.04.285-.053.49-.03.202.02.351-.01.437-.093 1.192 0 2.199.112 3.027.338.821.229 1.563.569 2.219 1.02 1.027.745 1.848 1.702 2.444 2.875.596 1.169 1.04 2.504 1.325 3.981.285 1.48.47 3.07.557 4.759.083 1.689.126 3.418.126 5.193 0 1.691-.044 3.38-.126 5.062z"/><path d="m295.062 293.65v-20.244-6.18c0-.577 0-1.127 0-1.644 0-.51-.125-.934-.371-1.265-.166-.206-.431-.338-.802-.397-.371-.066-.762-.093-1.179-.093-.079.039-.186.06-.305.06-.125 0-.231.02-.311.06-.371.086-.663.252-.865.497-.248.37-.44.801-.586 1.298-.139.497-.338.947-.59 1.358-.374.576-.762 1.112-1.172 1.609-.411.49-.904.928-1.484 1.298-.537.325-1.093.604-1.669.828-.573.232-1.173.444-1.789.649-.245.086-.497.14-.742.152-.245.026-.477.06-.682.1-.451.119-1.007.186-1.663.186-.663 0-1.159.1-1.484.305-.295.165-.503.457-.649.867-.146.411-.172.861-.093 1.358.04.205.06.384.06.523 0 .146.046.278.126.404.245.457.692.688 1.358.708.663.021 1.338.033 2.041.033h4.696c.49 0 .96.014 1.391.033.431.021.795.133 1.08.338.245.205.378.444.404.709.02.271.066.59.152.961v19.779c1.759-1.369 3.468-2.799 5.128-4.29z"/><path d="m194.255 272.632c.593 1.172 1.04 2.504 1.325 3.987.285 1.484.47 3.067.556 4.756.076 1.523.106 3.081.113 4.664h5.511v-1.392c0-.165 0-.338 0-.523s-.02-.344-.06-.463c-.086-.252-.093-.523-.033-.835.066-.312.053-.59-.037-.835v-.557c-.03-.205-.049-.417-.023-.648.02-.226.007-.444-.033-.649-.04-.166-.053-.324-.026-.49.02-.166-.013-.352-.1-.557-.079-.457-.132-.907-.152-1.364-.02-.45-.093-.901-.218-1.352-.08-.338-.156-.676-.212-1.026-.066-.345-.139-.689-.222-1.021-.202-.576-.388-1.133-.553-1.662-.166-.537-.351-1.054-.556-1.551-1.027-2.345-2.59-4.166-4.697-5.465-2.103-1.298-4.862-1.907-8.273-1.821-.292.039-.557.06-.808.06-.245 0-.517.02-.802.06-.576.126-1.146.231-1.702.312-.557.079-1.1.225-1.636.431-1.895.828-3.365 1.835-4.418 3.027-1.046 1.198-1.967 2.742-2.749 4.637-.292.622-.497 1.265-.616 1.947-.125.676-.291 1.371-.497 2.073-.08.205-.113.417-.093.643.02.231-.017.444-.093.649-.04.41-.08.814-.126 1.205-.033.392-.083.795-.119 1.206l-.186 2.597v1.172c-.086.332-.099.735-.066 1.206.036.371.043.683.049.987h5.455v-1.451c0-.205 0-.391 0-.557 0-.165.017-.311.06-.43v-.742c0-.331.007-.669.033-1.021.02-.351.026-.688.026-1.02.043-.418.08-.815.126-1.206.04-.391.086-.775.126-1.14.04-.212.06-.424.06-.655 0-.226.04-.438.126-.649.119-.53.232-1.06.338-1.576.099-.511.255-.994.463-1.451.457-1.146 1.021-2.166 1.703-3.061.676-.881 1.577-1.569 2.689-2.066.285-.119.556-.212.828-.278.265-.06.569-.133.901-.219.119-.033.285-.046.49-.026.205.021.351-.007.437-.093 1.192 0 2.199.113 3.027.338.821.226 1.563.569 2.219 1.021 1.027.74 1.849 1.701 2.445 2.874z"/><path d="m157.849 236.533c.086-.332.166-.669.252-1.021.079-.344.166-.688.245-1.02.166-.537.272-1.08.312-1.636s.126-1.119.245-1.696v-.623c.086-.411.126-.828.126-1.265 0-.431.04-.854.126-1.265v-.683-.987c.079-.285.106-.609.083-.96-.017-.351-.023-.689-.023-1.014v-1.921c0-.159 0-.338 0-.523s-.02-.338-.06-.463c-.086-.245-.093-.523-.033-.838.06-.302.053-.58-.033-.832v-.557c-.04-.199-.053-.424-.026-.649.013-.225.006-.437-.033-.649-.04-.159-.053-.324-.033-.49.026-.166-.007-.354-.093-.557-.083-.457-.132-.908-.152-1.365-.02-.45-.093-.901-.222-1.351-.076-.334-.149-.672-.208-1.023-.069-.348-.139-.689-.218-1.02-.206-.573-.391-1.129-.56-1.673-.162-.526-.348-1.043-.553-1.54-1.026-2.345-2.59-4.17-4.696-5.465-2.1-1.298-4.862-1.908-8.28-1.825-.292.043-.557.06-.802.06s-.517.023-.801.066c-.576.123-1.146.219-1.703.308-.434.063-.857.195-1.275.334-.553 2.448-1.02 4.922-1.378 7.436.199-.321.391-.652.62-.944.675-.884 1.57-1.577 2.683-2.07.292-.123.563-.215.834-.278.265-.06.57-.133.895-.215.125-.04.292-.053.497-.03.206.02.351-.01.431-.093 1.199 0 2.206.112 3.027.338.821.229 1.57.569 2.226 1.02 1.027.745 1.841 1.702 2.444 2.875.589 1.169 1.04 2.504 1.325 3.981.285 1.48.47 3.07.553 4.759.089 1.689.123 3.418.123 5.193 0 1.689-.033 3.378-.123 5.061-.083 1.689-.328 3.193-.739 4.511-.079.331-.152.643-.218.927-.06.292-.152.583-.278.868-.285.702-.576 1.298-.861 1.789-.292.497-.643 1.033-1.053 1.61-.245.245-.45.411-.616.497-.08.076-.166.159-.245.245-.09.08-.186.166-.312.245-.656.451-1.404.802-2.226 1.053-.245.08-.514.132-.802.152-.285.02-.576.073-.868.152-.245.086-.589.106-1.014.06-.437-.033-.735-.08-.901-.119-.205-.08-.377-.113-.523-.093s-.298-.007-.464-.093c-1.318-.411-2.411-1.033-3.272-1.854-.348-.361-.636-.739-.904-1.126.378 2.365.838 4.7 1.391 7.002.444.143.881.285 1.361.431.292.04.57.073.841.086.262.026.523.08.769.156h.371c.125.043.271.043.43 0 .166-.037.351-.017.557.069.126.04.331.06.616.06s.517-.02.682-.06c.166-.046.344-.053.523-.033.186.02.357.007.53-.036.49-.076.967-.146 1.417-.182.457-.04.908-.146 1.358-.312.417-.119.848-.245 1.298-.371.457-.129.848-.285 1.169-.49.255-.166.507-.325.778-.464.265-.146.5-.301.708-.464.778-.537 1.517-1.239 2.199-2.106.676-.861 1.226-1.749 1.63-2.649.166-.371.324-.755.47-1.146.138-.39.294-.794.456-1.205z"/><path d="m162.121 183.076c.292.04.563.069.835.093.265.02.52.069.768.149h.371c.126.046.271.046.437 0 .166-.037.351-.017.557.066.119.04.331.063.616.063s.51-.023.675-.063c.166-.043.345-.053.523-.03.186.02.364.01.533-.036.494-.08.964-.143 1.421-.182.451-.04.901-.143 1.358-.308.411-.119.841-.245 1.298-.371.447-.126.841-.285 1.172-.494.252-.162.504-.318.775-.463.265-.143.503-.301.708-.464.782-.54 1.51-1.235 2.193-2.103.679-.861 1.226-1.749 1.636-2.656.166-.368.321-.749.46-1.143.146-.388.301-.792.467-1.203.086-.328.166-.669.251-1.02.08-.351.159-.689.239-1.023.166-.53.271-1.08.314-1.633.037-.557.123-1.12.242-1.699v-.619c.086-.408.133-.835.133-1.265 0-.434.033-.858.119-1.269v-.676-.99c.076-.288.113-.609.093-.96-.026-.351-.026-.689-.026-1.017v-1.917c0-.163 0-.338 0-.523s-.027-.341-.066-.464c-.086-.248-.093-.526-.033-.838.066-.305.053-.583-.037-.831v-.557c-.03-.205-.049-.424-.023-.649.02-.229.007-.441-.026-.649-.046-.162-.053-.328-.033-.494.02-.162-.013-.351-.1-.553-.079-.454-.132-.908-.152-1.361-.02-.454-.089-.908-.218-1.358-.08-.332-.156-.669-.212-1.027-.06-.341-.133-.686-.212-1.014-.212-.576-.397-1.133-.556-1.666-.166-.537-.351-1.053-.563-1.55-.116-.269-.269-.503-.397-.759-1.517 1.06-3.004 2.163-4.455 3.309.371.911.689 1.878.898 2.948.292 1.484.477 3.074.556 4.763.086 1.689.123 3.418.123 5.19 0 1.689-.036 3.378-.123 5.064-.08 1.689-.325 3.196-.742 4.514-.08.328-.152.639-.212.924-.06.288-.159.58-.278.864-.285.702-.576 1.298-.868 1.792-.292.49-.636 1.03-1.047 1.606-.251.249-.457.414-.623.497-.08.076-.159.162-.238.245-.086.086-.186.166-.318.249-.656.454-1.397.801-2.219 1.05-.255.083-.517.132-.808.156-.285.02-.58.069-.865.152-.248.083-.586.103-1.017.06-.431-.037-.729-.076-.895-.123-.208-.08-.384-.113-.523-.089-.152.02-.305-.01-.471-.093-1.312-.411-2.404-1.03-3.272-1.855-.782-.825-1.372-1.709-1.755-2.656-.401-.951-.755-2.04-1.086-3.275-.166-.451-.258-.938-.278-1.454-.023-.514-.093-1.017-.219-1.51-.04-.454-.066-.875-.089-1.265-.02-.354-.046-.712-.086-1.077-1.63 2.116-3.18 4.299-4.63 6.551.06.252.126.52.175.762.126.596.312 1.186.557 1.762.49 1.278 1.066 2.454 1.726 3.521.666 1.073 1.487 1.978 2.474 2.719.206.166.424.302.649.404.225.103.437.232.649.401.576.331 1.169.599 1.789.801.623.208 1.279.41 1.981.619z"/><path d="m204.88 152.482-5.127 8.125v14.745 4.511 1.199c0 .397.08.716.252.964.159.245.371.401.609.46.252.063.537.136.868.222h.927c.537 0 .994-.033 1.391-.103.391-.056.689-.251.895-.58.166-.248.238-.586.219-1.02-.03-.434-.033-.854-.033-1.265v-4.822-22.436z"/><path d="m303.124 183.447c.285 0 .517-.023.679-.063.163-.043.348-.053.527-.03.182.02.357.01.53-.036.49-.08.967-.143 1.417-.182.451-.04.901-.143 1.358-.308.414-.119.848-.245 1.298-.371.451-.126.848-.285 1.173-.494.251-.162.503-.318.771-.463.268-.143.507-.301.712-.464.782-.54 1.51-1.235 2.199-2.103.371-.474.696-.957.99-1.447-1.106-1.994-2.262-3.955-3.504-5.859-.05.219-.103.44-.149.636-.06.288-.152.58-.278.864-.285.702-.576 1.298-.861 1.792-.292.49-.643 1.03-1.053 1.606-.245.249-.45.414-.616.497-.08.076-.166.162-.245.245-.086.086-.186.166-.315.249-.659.454-1.404.801-2.222 1.05-.245.083-.51.132-.802.156-.292.02-.583.069-.868.152-.245.083-.589.103-1.014.06-.437-.037-.738-.076-.901-.123-.205-.08-.377-.113-.523-.089-.146.02-.308-.01-.464-.093-1.318-.411-2.411-1.03-3.272-1.855-.788-.825-1.378-1.709-1.762-2.656-.391-.951-.755-2.04-1.08-3.275-.172-.451-.258-.938-.285-1.454-.02-.514-.089-1.017-.219-1.51-.04-.454-.066-.875-.086-1.265-.02-.397-.053-.798-.1-1.209-.033-.08-.046-.192-.026-.338s.026-.262.026-.338v-1.116c-.079-.288-.109-.606-.086-.957.02-.348.033-.689.033-1.021v-2.408c0-.166.02-.308.053-.434v-.742c0-.328.013-.669.03-1.023.023-.344.037-.686.037-1.014.04-.411.08-.818.119-1.206.046-.391.086-.771.129-1.146.036-.202.063-.42.063-.646 0-.229.04-.44.125-.649.003-.006.003-.013.003-.02-1.484-1.318-3.024-2.577-4.59-3.802-.096.318-.239.62-.295.947-.126.683-.292 1.372-.497 2.074-.086.205-.113.424-.093.649s-.013.438-.093.649c-.04.411-.086.812-.129 1.199-.036.397-.076.795-.123 1.209l-.186 2.597v1.169c-.079.335-.099.735-.06 1.209.04.474.06.891.06 1.265 0 .325-.02.669-.06 1.021-.04.351-.02.669.06.957.086.206.106.414.066.616-.043.208-.043.394 0 .553.04.212.04.428 0 .653-.043.229-.02.444.06.649v.653c0 .225.02.44.06.646.046.166.053.332.033.497-.02.159-.007.324.033.49.08.454.146.907.186 1.358.04.454.099.911.186 1.364.166.659.311 1.289.43 1.881.126.596.312 1.186.557 1.762.49 1.278 1.073 2.454 1.729 3.521.662 1.073 1.484 1.978 2.474 2.719.202.166.42.302.646.404.232.103.444.232.649.401.576.331 1.179.599 1.795.801.616.208 1.272.411 1.974.62.292.04.57.069.841.093.265.02.523.069.769.149h.371c.125.046.265.046.43 0 .163-.037.351-.017.557.066.128.038.333.061.619.061z"/><path d="m301.951 221.443c.037-.023.076-.04.109-.063l-.109-.192z"/><path d="m310.446 208.884c.679-.884 1.573-1.577 2.683-2.07.292-.123.563-.215.838-.278.265-.06.569-.133.894-.215.126-.04.285-.053.497-.03.205.02.351-.01.43-.093 1.192 0 2.199.112 3.027.338.818.229 1.563.569 2.226 1.02 1.027.745 1.838 1.702 2.444 2.875.169.334.302.712.444 1.073h1.931c-.321-2.6-.765-5.164-1.295-7.694-.169-.116-.321-.251-.497-.361-2.1-1.298-4.862-1.908-8.28-1.825-.292.043-.556.06-.801.06s-.517.023-.802.066c-.576.123-1.146.219-1.702.308-.557.08-1.106.225-1.636.431-1.895.828-3.372 1.835-4.418 3.027-1.053 1.196-1.967 2.743-2.755 4.637-.199.431-.305.891-.421 1.351h5.7c.414-.967.901-1.855 1.493-2.62z"/><path d="m114.778 30.783 1.623 2.61-.781-2.027-1.478-2.001.464 1.13z"/><path d="m91.733 47.506-2.365.049-4.962.12 5.572-.02z"/><path d="m103.415 47.585-3.429-.335-1.682.289 1.676-.01z"/><path d="m118.229 46.926 3.524-.05-2.45-.43-2.829.278 1.371.202z"/><path d="m211.968 45.386 9.241-.036.136-.003.066.132-.123.003-4.746.007-.073.245h4.826l.242-.003.133.258-.454-.007-4.819-.003-.086.301-14.096 34.827.073.036c-.325.798-.58 1.385-.825 1.951-.377.874-.732 1.699-1.314 3.189l.066.03-.596 1.427c.854 1.199 1.772 2.504 2.637 3.736 1.341 1.904 2.554 3.633 3.203 4.491l-.069.056 2.712 3.736-.129.096c.09.126.186.258.282.397.245.162.447.431.719.788l.888 1.435c.026.036.053.073.076.109l.143-.099 5.471 7.644.255-.444 4.464-8.062.04-.056 4.259-7.482 3.723-6.558 9.913-15.766.954-1.46 1.474-2.723 4.167-6.999 4.538-8.33 4.18-7.158 1.841-3.169 1.219-2.086.715-1.435.636-1.245 3.988-7.803 2.769-4.952.98-1.759 1.464-2.696-.881.96-1.789 2.126-.437.593-3.306 4.958-.868 1.507-4.213 7.436-4.034 6.922-1.123 1.911.338-.609-6.919.123-5.432-.159-4.2-.182-3.431-.12-5.787.04-.033-.066-.053-.063 5.713-.033-.298-.324-5.63.103-.368-.44-.875.106c-.146.017-.285.036-.437.043l-1.964.086.136.269-.573.01-9.847.109-8.933-.007-1.146.017 1.457.043zm18.713.288 7.79.295.146.003-9.171.166-4.113-.08-.166-.351z"/><path d="m335.582 264.385 3.948 6.743.516.861-.602-1.126-4.27-7.406-4.11-6.955-4.213-7.125-.113.378 4.412 7.237z"/><path d="m370.339 355.05 4.22 7.127.112-.377-4.418-7.247-4.432-7.386-3.941-6.757-.517-.854.596 1.132 4.273 7.406z"/><path d="m375.956 364.992-1.417-2.649-4.266-7.181-4.094-6.962-4.206-7.128-4.836-7.856-.026-.065-4.418-7.399-.017-.026-1.199-2.106 1.288 2.1.901 1.02-.504-.94-4.683-7.79-1.772-2.769-4.475-7.863-4.378-7.684-.325-.974-4.051-7.068-2.444-3.925-6.945-12.191c-.053.093-.116.182-.166.274l-1.484-2.527-1.206-2.08-.908-1.331-.775-1.173-4.816-7.313-2.954-4.849-1.04-1.703-1.623-2.613.391 1.242.974 2.604.305.676 2.676 5.306.894 1.504 4.392 7.326 4.011 6.84c-18.674 31.22-52.751 52.175-91.781 52.175-21.343 0-41.159-6.346-57.839-17.13l10.771-19.469 1.997-.132 2.037.046 2.017.192.444.046 1.974-.403.04-.14v-.053l-2.113-.093-2.153.013-.762-.146h.762l2.173-.02 2.199-.06 1.828.165 2.034.146 1.219.099.994-.231 2.491-.186 2.417-.093 1.789-.179-1.649-.1-2.504.179-1.02.073-1.537.146-2.365.126-1.875-.146-.98-.1-.808-.073-2.246.066-2.166.026-2.219.047-1.646.112.235-.431-12.218.226-1.679-.033-.938.079-47.671.868-31.538.58-.934-.189-.47-.007h-2.292l-2.149-.06-2.043-.086-1.858-.172-1.971-.106-2.292.06-2.514.166-2.474.086-2.352.06h-.285l-1.901.053-2.242.066-2.037-.126-2.007-.265-.444-.066-1.987.331-.046.133v.053l2.106.179 2.153.066.755.173-.762-.027-2.169-.06-2.199-.032-1.825-.232-2.024-.226-1.215-.139-1 .192-2.497.086-2.418.007-1.795.105 1.646.159 2.511-.079 1.02-.04 1.543-.086 2.365-.026 1.865.212.983.139.802.1 2.242.026 2.173.053.924.021-1.934.033-1.152-.027-2.219-.026.066.212 1.458-.026 32.177 53.45 31.74 52.712-.828 1.216-.702 1-.302.974-1.096 2.246-1.136 2.133-.745 1.637.908-1.378 1.109-2.253.451-.914.652-1.404 1.083-2.1.695-1.007.421.695 11.076-20.021.987-1.626.543-1.143.51-.918c5.313 3.233 9.165 5.273 9.165 5.273 25.278 13.414 54.083 21.058 84.697 21.058 52.506 0 99.77-22.35 132.871-58.024l1.043 1.839 3.538 6.604.782 1.478 4.167 6.067.265.073.06-.033-.033-.053-3.815-6.823-4.034-6.929-1.239-2.517 1.408 2.417 4.083 6.976 4.193 7.068 3.219 6.008 3.186 5.816c.053-.047.113-.093.166-.14l-3.153-5.789z"/><path d="m212.392 116.049 3.935-6.75.49-.884-.676 1.089-4.352 7.36-4.034 6.998-4.133 7.171.391-.076 4.133-7.406z"/><path d="m282.459 21.466-.712 1.282-1.517 2.583 1.716-2.474z"/><path d="m272.884 39.61 1.378-1.686 1.004-2.276-.746.968-.166.288z"/><path d="m249.355 79.312-4.15 7.548-1.66 2.931c.027.017.046.03.073.046l2.176-3.789 3.945-7.051 4.034-7.234-.384.09z"/><path d="m39.266 293.736 1.312.027.41-.08-.566.013z"/><path d="m42.532 293.756h.387l.805.053-.798-.232z"/><path d="m47.119 293.498h.093l.818-.014-.56-.285-.672.159z"/><path d="m209.604 292.352.563-.034 1.155-.086-1.311.027z"/><path d="m206.864 292.332.805.198.391-.192-.391.014z"/><path d="m203.39 292.775-.815.047.567.258.669-.179-.329-.132z"/><path d="m187.856 292.312-2.093.013-.265.013.341.033 2.295.021 2.173-.04 2.219-.053-.076-.212-2.275.132z"/><path d="m115.669 415.157.64-1.139.122-.405-.252.504z"/><path d="m117.223 412.289.182-.345.424-.682-.577.59z"/><path d="m119.574 407.308-.513.364-.183.669.279-.226.043-.079z"/><path d="m35.397 276.076-.102.404 1.232.47.987-.179.894-.205.643-.126-1.196-.238z"/><path d="m44.996 277.01-1.878.146 1.706-.02.241-.06.477-.066z"/><path d="m49.295 276.911h.414l.069-.08-.483-.105-3.892.138.037.007z"/><path d="m64 222.146c.027.003.04.003.053.003.543 0 .98.152 1.649.514l.983.308-.003.463c.112-.026.222-.056.341-.056l1.739.268-.07.212c.063.023.126.046.195.066l-.033.096c.1.053.199.109.305.166.583.325 1.242.692 2.02.921l-.063.245c.58.208.991.368 1.242.738.043.01.086.023.119.03.431-.023.742.083 1.755.56l.06-.113c.586.282 1.063.48 1.524.669.285.12.563.232.854.361.073.006.152.02.238.04l1.133-.96c-.089-.179-.186-.388-.298-.663l.123-.073c-.076-.179-.139-.268-.208-.371h-.066l-.172-.374c-.089-.166-.182-.364-.278-.636l-.06-.172-.013-.03.086-.027c-.318-.603-.411-.725-.742-1.139l-2.955-3.832 1.272.464c-.394-.517-.742-1.385-1.259-2.67l-.288-.699.076-.033c-.623-1.152-1.1-2.358-1.563-3.534-.258-.649-.517-1.302-.795-1.938l-.188-.421.103-.351c-.086-.106-.179-.205-.301-.328-.315-.325-.749-.765-1.09-1.567l.106-.069c-.771-1.676-1.106-2.498-1.722-4.015l-.56-1.374-.328-.828c-.026-.288-.251-.852-.526-1.458-.62.384-1.222.758-1.812 1.126-1.318.812-2.57 1.587-3.769 2.368.206.964.411 1.782.616 2.607.397 1.586.808 3.226 1.222 5.898l-.139.027z"/><path d="m60.808 200.15c.278-.123.48-.196.653-.242.818-.52 1.759-1.08 2.752-1.656.153-.206.411-.417.785-.682-.186-.408-.334-.825-.5-1.239l-.113.053-.437-.841.192-.106c-.006-.017-.013-.033-.02-.046l-.269-.003-.553-1.272c-.503-1.126-.821-1.885-.805-2.567-.172-.318-.348-.663-.44-.951l.755-.745-1.206.388c-.371-1.034-.894-2.246-1.397-3.425-.749-1.736-1.451-3.378-1.696-4.452-.318-.566-.722-1.334-1.12-2.086-.01-.013-.017-.03-.026-.043.643 3.912 1.239 7.853 1.828 11.794.411 2.706.815 5.416 1.239 8.111l-.006.292c.132-.097.215-.18.384-.282z"/><path d="m63.676 246.506-.033-.666-.278-1.332-.659.563c-.043.03-.089.063-.129.093z"/><path d="m66.187 236.599c2.229-1.792 4.842-3.981 7.353-6.104l-.974-.338-.014-.249c-.215-.125-.437-.278-.609-.48-.854-.375-1.62-.626-2.417-.888-.683-.225-1.372-.454-2.123-.755l-.116-.046.02-.103c-.821-.371-1.371-.494-2-.633l.006-.159c-.344-.139-.467-.169-.616-.199l.994 6.379-.152-.079z"/><path d="m86.447 236.44c.321-.146.656-.305 1.003-.467-.513-.202-1.03-.411-1.55-.646z"/><path d="m65.475 272.313-.354-.007c-.292.1-1.066.371-2.766 1.021-.089.146-1.434.55-1.626.683.407-.044 2.066-.365 2.57-.425l.312-.036.033-.003v.02c1.239-.179 2.56-.357 3.901-.536-.017-.219-.01-.364.003-.518.007-.086-.023-.344-.089-.762-.245.1-.497.199-.755.299-.65.202-.958.264-1.229.264z"/><path d="m72.672 242.955c3.312-1.523 5.024-2.381 6.77-3.256.974-.49 1.968-.987 3.266-1.613-.133-.314-.226-.583-.258-.834-.086-.212-.153-.401-.239-.64-.086-.139-.232-.424-.354-.762l.275-.136-.212.076c-.281-.782-.937-1.828-1.417-2.593l-.262-.424c-.086-.027-.169-.046-.255-.07h-.033c-.377 0-.709-.139-1.133-.341l.063-.172c-.132-.07-.282-.143-.523-.258l-1.388 1.152c-3.471 2.872-6.819 5.641-10.088 8.416.139 1.077.318 2.312.523 3.653 1.63-.838 4.101-1.914 5.227-2.305z"/><path d="m93.66 197.089c.05.182.129.444.242.812.834 2.375 1.063 2.875 1.271 3.329.222.483.424.917 1.242 3.295 1.239 1.309 2.461 2.59 3.676 3.862 3.064-2.543 6.257-5.216 10.201-8.717.716-.563 1.004-.792 1.361-.851l1.779-1.553-5.296-8.492-.037.02-.891-1.507.043-.026c-.64-1.133-1.375-2.395-2.203-3.766l-.318.146c-.984-1.527-1.358-2.173-1.272-2.752-.424-.686-.848-1.378-1.278-2.073-3.855 2.547-7.734 4.855-11.172 6.899l-.682.407c.751 2.335 1.59 4.849 2.606 7.548l-.252.1c.815 2.223 1.05 2.912.98 3.319z"/><path d="m124.307 207.794c.172.206.397.523.672.934.215-1.6.507-3.176.792-4.753l-1.729 3.279.057.129-.017.033c.06.103.136.229.225.378z"/><path d="m121.896 211.328-2.849 5.398-.099-.053c-.106.182-.219.388-.341.6-.983 1.729-1.391 2.417-1.646 2.752-.01.023-.02.046-.03.066-.017.451-.368 1.149-1.322 3.011 1.987-.927 3.869-1.838 5.604-2.683l2.954-1.421c.046-1.262.073-2.531.166-3.783l-1.139-1.798c-.536-.844-.96-1.526-1.298-2.089z"/><path d="m104.418 227.445c.113.361.202.652.258.904 1.709-.814 3.395-1.626 4.938-2.381l.494-.967c-2.746-2.875-3.713-3.922-3.958-4.359l-2.537-2.696c-.639-.633-1.352-1.361-2.12-2.196l.046-.046-.146-.185c-.431-.467-.94-1.004-1.477-1.563-.04.033-.083.066-.126.103l1.325 3.905c.252.368.49 1.017.904 2.133l-.136.056.083-.013c.079.354.583 1.855 1.106 3.431.44 1.322.891 2.689 1.149 3.524z"/><path d="m103.852 173.935.026.043c.397-.212.832-.47 1.312-.768l-2.624-.769c.285.457.623 1.003 1.021 1.659z"/><path d="m86.39 175.72c.106.269.196.49.272.672.424.258.629.755.795 1.149l.285.695-.073.096c.06.195.139.431.225.699l.132-.04 1.428 4.021c.285-.278.739-.583 1.381-1.017l.417.341-.166-.434c.305-.139 1.318-.758 1.895-1.106l.755-.696 4.084-1.917c.917-.623 1.421-.98 1.699-1.183.139-.285.444-.546.974-.911-1.113-1.802-2.212-3.594-3.236-5.299-1.431-.444-4.104-1.246-6.78-2.047l-4.021-1.212-.02.066c-.901-.262-1.765-.514-2.606-.758.242.679.533 1.58.931 2.835.066.186.129.351.179.5l.043.116c.049.166.049.294.063.43.125.375.258.769.377 1.113l.483 1.348-.328.119c.316.903.607 1.758.812 2.42z"/><path d="m70.25 198.454c-.066.066-.146.139-.255.232l.143.331.04-.02.57 1.265.623.917-.192.109c.12.176.235.384.341.636.596 1.59.696 1.974.834 2.504.053.208.113.44.215.792.371.414.629 1.046.924 1.765.126.318.344.845.44.984l.388.258-.073.258c.408 1.381 1.173 3.104 1.981 4.925.457 1.037.927 2.093 1.345 3.127l-.053.026c.02.063.04.119.06.169l1.043-.586-.58 1.335c.242.325.523.745.788 1.454l-.086.04c.464 1.365 1.487 3.458 2.378 5.094 4.15-3.501 7.379-6.154 9.552-7.721 1.523-1.341 3.017-2.617 4.491-3.858l-.897-2.471.046-.318c-.046-.073-.434-1.255-.666-1.964l-.053-.162-3.067-3.024.215-.222c-.334-.404-.626-.769-.805-1.113-1.354-1.388-2.862-2.964-4.65-4.915l.103-.103c-1.467-1.54-2.885-2.865-3.25-3.14l-.341-.391c-.08-.123-.57-.729-1.785-2.09-1.395.928-2.537 1.606-3.597 2.239-1.086.643-2.086 1.239-3.206 2.014l-.411-.573s-.003 0-.007.003l.245.623c-.258.116-1.215.669-2.136 1.195z"/><path d="m106.167 149.405c-.686.179-1.752.375-3.389.676-1.726.318-4.087.755-4.431.851l-.013-.046c-.086.02-.153.037-.199.05l-.046-.162-.076.235-1.381.013c-.483.093-.98.182-1.474.275-1.706.318-3.554.663-4.895.924.646.92 1.656 2.55 3.431 5.428l-.069.046c.08.172.278.52.467.852.232.411.408.722.52.99 1.431 2.159 4.067 6.353 5.611 8.976.325.103.616.202.977.325l2.242.738c.262.076.494.143.702.202h.278c.192 0 .305.013 1.348.305 1.454.451 2.302.712 2.779.977 1.431-.92 3.143-1.994 5.15-3.176l.076.123 2.172-1.408.027.04c1.321-.726 1.861-1.08 2.444-1.467.639-.421 1.331-.878 2.961-1.795l.129.212 1.282-.875-9.88-14.401c-.278.056-.49.106-.616.152l-.311.079c-1.58.196-1.732.222-3.236.457z"/><path d="m88.166 156.414c-.775-1.196-1.477-2.282-1.822-2.891-.112-.133-.229-.292-.357-.487l-6.813 1.11-.003-.023-.099.017c.179.533.384 1.146.616 1.875.176.447.328.832.457 1.149l.226-.083c.692 1.868.92 2.802.94 3.335.431 1.239.742 2.077.984 2.689 1.904.576 3.799 1.153 5.064 1.57 1.057.269 3.644 1.037 6.326 1.835l1.285.378c-.1-.176-.199-.352-.292-.52-.255-.265-.543-.699-1.007-1.395-.189-.285-.364-.55-.467-.696l-1.689-2.1.388-.007c-.202-.285-.365-.497-.514-.692-.093-.123-.188-.255-.281-.381l-.046.026c-.471-.729-.676-1.08-.914-1.494l-.338-.577.033-.02c-.531-.846-1.121-1.757-1.677-2.618z"/><path d="m90.895 233.628c.311.109.576.222.792.331.897-.407 1.759-.775 2.517-1.043l.123.305.94-.384c1.55-.732 2.146-1.047 2.368-1.183.265-.364.699-.58 1.514-.964.629-.195.815-.242 1.03-.242h.063l1.255-.596-.146-.437.232-.076c-.033-.096-.063-.189-.093-.278l-.334.112-2.739-7.773.116-.04c-.384-1.076-.781-2.166-1.192-3.286l-.659-1.822-2.289 1.809c-.249.334-.689.735-1.355 1.345-.202.186-.407.371-.583.533l.096.123c-1.57 1.259-1.832 1.441-2.358 1.441-.086.073-.192.149-.285.229-.288.52-1.013 1.129-2.342 2.255-.016.01-.03.023-.043.037l.126.166c-1.59 1.345-3.14 2.64-4.664 3.908.338.861.689 1.739 1.06 2.63l.596.218c.139.106.321.172.477.259l.046-.129 1 .354-.073.225c.318.116.643.232 1.003.345.964.305 2.057.652 3.176 1.282z"/><path d="m117.345 226.574 3.557 3.759.292.566c.977 1.026 1.451 1.444 1.884 1.825.438.388.854.762 1.617 1.573-.378-3.564-.62-7.167-.64-10.827z"/><path d="m85.387 270.75c.47-.824.911-1.583 1.289-2.219.957-1.822 1.875-3.584 2.766-5.313-1.885.748-4.061 1.566-6.19 2.364-1.09.411-2.163.815-3.173 1.199l2.802 3.511-.06.05.537.649c.638-.072 1.33-.155 2.029-.241z"/><path d="m118.309 266.895c.387-.357 1.01-.47 1.447-.55 1.186-.132 1.729-.172 1.947-.172l1.106.026 3.65-.688c1.06-.109 1.798-.156 2.299-.156l.603-.069c1.033-.179 2.054-.357 3.232-.51-1.722-4.034-3.193-8.201-4.415-12.471l-1.301-.036c-.676-.162-1.252-.397-1.795-.622-.583-.245-1.043-.435-1.487-.441l.003-.311-.212.388-.795-.395c-1.457.434-3.458 1.09-7.432 2.659-.278.371-.749.59-1.113.756l-.186.069 1.139 3.143-.205.073c.53 1.478 1.033 2.925 1.609 4.472.577 1.569 1.173 3.183 1.775 4.855.048-.007.088-.014.131-.02z"/><path d="m162.439 56.961c.239 1.805.46 3.2.679 4.597l.381 2.471-.05.006 3.826 26.606 4.538 2.017-.046.106c1.334.62 2.626 1.219 3.838 1.792l.676.136 3.153 1.398c4.432 1.997 9.002 4.061 11.065 5.101l5.267-13.023-21.513-29.838c-2.113-2.978-5.485-7.79-7.528-10.751l-.215-.312-4.601.083-.825-.03 1.278 8.645c.061.431.104.738.077.996z"/><path d="m100.708 268.69c.037.072.056.158.096.234 1.795-.222 3.736-.467 4.961-.543.692-.188 2.686-.46 4.799-.752 1.222-.165 2.467-.334 3.507-.496l.338-.054-1.716-4.938.086-.03c-.08-.245-.152-.457-.212-.636-.365-.352-.636-1.156-1.239-2.932l.463-.245-.417.037c-.04-.212-.206-.735-.534-1.775l-.414-.895-11.427 4.292c-1.179.321-1.391.352-1.597.352h-.062c.139.226.238.457.324.649l-.172.086c.132.252.218.55.179.947.113.162.202.324.271.467h.749l-.116 1.381.056.288c.013.021.026.04.04.063l1.12.384-.175 1.822h.381l.437 1.427c.059.231.119.47.274.867z"/><path d="m173.803 47.138-3.358.06 4.657 6.571c.762 1.017 1.63 2.206 2.398 3.255.974 1.335 1.775 2.444 2.014 2.703l17.746 24.745 2.915-7.207c1.086-2.438 3.438-8.234 5.511-13.351 2.756-6.79 3.915-9.655 4.597-10.863l-.033-.014 2.822-7.061h-1.023l-3.209-.239h3.203 1.123l.1-.245-1.216.003-9.466.033-10.545.238h-.073l-9.843.086-6.015.063c-.013.083-.05.162-.066.248l-.546-.023-1.904-.076-3.759.268.523.739z"/><path d="m200.631 105.755.033-.073 11.155 5.074-13.712-19.339c-1.397 3.418-2.951 7.273-4.538 11.218 1.464.649 3.054 1.352 4.276 1.918 1.051.467 2.117.927 2.786 1.202z"/><path d="m166.324 46.996-.271-.391-.858.06-.232.218v.076l.076.014z"/><path d="m100.778 124.853c3.041 4.478 7.27 10.449 10.374 14.834l1.649 2.332-.125.089c.268.414.49.765.656 1.07l.069.103c.023.046.037.1.056.143l.994 1.44 16.124-2.775-.305-1.58v-.003l.046-.013c-1.266-6.217-2.484-12.513-3.696-18.823l-4.279-1.58.036-.109c-4.388-1.511-12.245-4.425-19.842-7.244l-11.848-4.498c-.229.282-.467.56-.699.841l.96 1.325c2.484 3.601 4.133 5.999 4.418 6.512l5.313 7.721-.026.017z"/><path d="m72.148 257.164c.245.186.523.507.977 1.03.308.354.652.752.931 1.043l3.663 4.587c5.306-1.917 9.85-3.726 14.239-5.481l.116-.225c-.483-1.354-1.073-2.401-1.689-3.501-.702-1.256-1.431-2.554-1.967-4.29l.053-.03c-.132-.301-.225-.553-.248-.795-.245-.377-.5-.904-.852-1.633-.186-.387-.364-.768-.52-1.05l.215-.149c-.537-.53-1.192-1.891-1.881-3.332-.235-.483-.463-.96-.682-1.388l-.086-.166c-.947.546-2.126 1.186-4.823 2.411l-11.513 5.193.53 3.229c1.232 1.556 2.391 3.024 3.537 4.547z"/><path d="m118.878 246.142c.123.046.255.103.395.172l.225-.444c.437.219 1.06.514 1.656.792.315.149.623.294.895.424 1.129-.434 2.186-.841 3.054-1.186l.093.215 1.292-.556c-.503-2.318-.931-4.667-1.278-7.042l-.026-.027-1.325.805-3.775-3.892c-.358-.503-1.729-2.077-2.941-3.465-1.073-1.235-2.265-2.603-3.246-3.769l-1.378.639c-1.265 2.302-2.494 4.511-3.68 6.644l-.977 1.759c.351.881.732 1.868 1.222 3.295l1.679 1.666c.073.053.483.295.987.533l.139-.119.765.394c.815.424 1.567.679 2.272.921.057.02.116.04.176.06l-.033-.112.271.199c.305.106.596.212.888.331l.636.262.1.02v.023l2.606 1.073-.679.199z"/><path d="m133.72 178.628c.013-.033.03-.066.046-.1l-2.444-3.504.066-.046c-.261-.391-.629-.924-1.086-1.59-.331-.265-.775-.921-1.888-2.557l.046-.033c-.146-.222-.338-.503-.537-.798l-3.395-4.75-3.073 2.017.42-.812c-1.186.755-2.338 1.477-3.564 2.226l.176.206-.381.337c-1.411.901-2.935 1.789-4.263 2.557-.328.189-.58.341-.878.513l1.517.424c1.507.47 2.544.814 3.126 1.037l.901.248c2.113.596 4.184 1.179 7.174 2.146l-.007.03 3.458.997c1.835.573 3.212 1.01 4.276 1.351z"/><path d="m110.737 245.774c.269.907.577 1.924.908 2.997.249.255.397.61.533.944.119.404.232.778.338 1.132.801-.397 2.471-1.063 5.243-2.126l-5.28-1.998.037-.261c-.563-.251-1.162-.47-1.779-.688z"/><path d="m143.908 128.162.013-.037c-.954-.357-1.663-.629-2.196-.854-.063-.02-.136-.043-.212-.069l-.311-.106.017-.05c-.076-.033-.146-.069-.212-.103-.334-.129-.772-.298-1.328-.51-.709-.189-4.177-1.464-9.443-3.418l3.577 18.518 11.645-2.003-.006-.04 19.766-3.381z"/><path d="m56.807 202.952c-.732-5.515-1.755-12.089-2.845-19.041-1.646 7.499-2.832 15.173-3.518 22.989 1.686-1.066 3.524-2.199 5.197-3.229z"/><path d="m102.183 238.769.132.06 1.46-2.62c-.278-.513-.569-1.368-1.06-2.825l-.017-.046c-1.961.911-3.905 1.825-5.849 2.739l.699.258-.361.321c.351.129.725.275 1.113.424.424.166.861.334 1.271.477l1.348.474-.063.129c.442.194.883.4 1.327.609z"/><path d="m74.42 141.195c.517 1.633 1.007 3.169 1.514 4.554l.782 1.964-.073.166c.139.391.271.762.394 1.106l.146-.046c.288.848.51 1.427.749 2.05l.053.149 6.167-1.063-.271-.444.265-.166c-.765-1.182-1.411-2.129-2.06-3.077-1.182-1.736-2.408-3.534-4.358-6.777l-1.905-3.421c-.341-.374-.931-1.225-2.199-3.232-.414.725-.811 1.467-1.215 2.199l.351.994c.614 1.742 1.151 3.441 1.66 5.044z"/><path d="m115.689 200.882c-.825.702-1.547 1.318-2.103 1.798l-.053-.06c-1.931 1.649-3.086 2.53-4.213 3.388-.742.566-1.464 1.12-2.388 1.872l.146.182c-2.097 1.702-3.567 2.98-4.021 3.421l.378.394c.463.523.801.907.947 1.285l7.687 7.956c1.872-3.713 3.865-7.631 6.704-12.751l.109.056c.258-.487.517-.984.769-1.471-.424-.636-.729-1.046-1.033-1.454-.663-.895-1.285-1.739-2.902-4.481l.043-.023z"/><path d="m117.097 47.88 7.476-.169 3.779 6.078 3.392 6.068 1.762 3.223 1.444 2.64 1.563 2.554c-2.626 1.61-5.197 3.299-7.734 5.031l4.2 1.858c3.495 1.699 10.195 4.7 17.952 8.174 4.16 1.865 8.565 3.835 12.805 5.756-.875-6.396-1.755-12.749-2.617-18.468l.05-.007c-.063-.553-.179-1.454-.315-2.477l-.079.01-3.041-20.956-1.017-.037-8.635-.245-5.19-.182-4.272.351-10.615.245-3.279.04-.884-1.229-4.968-7.853-4.73-7.67-3.617-5.611 3.027 5.352 4.985 7.906 2.043 3.212 3.113 4.829.666 1.066-6.654.08-7.631.252zm19.611 20.27-1.49-2.438-3.282-5.972-3.703-6.588-.6-1.083 9.509 15.809c-.146.09-.288.183-.434.272zm-8.926-20.512 4.352-.109 6.564-.195 10.075-.159 7.949.239.543.023-32.078.576.02.027-.245-.338z"/><path d="m164.268 93.004-5.965-2.726c-.311-.139-6.256-2.908-11.628-5.335l-.037.083-21.104-9.449c-1.352.967-2.689 1.947-4.014 2.954l.844 4.63c.176.378.726 3.163 1.918 9.37.699 3.607 1.417 7.339 1.696 8.422l3.57 18.475c1.941.771 4.637 1.808 9.367 3.537.04.013.079.026.112.037h.08c.245 0 .404.043 1.272.341l20.21 7.542c.98.407 1.6.662 1.947.947l4.634 1.706-.03.172 3.106 1.146-.212-1.573-1.924-12.897c-1.033-6.65-2.216-15.381-3.468-24.625z"/><path d="m83.446 190.604-.083-.103c-.007.003-.017.007-.023.014 2.348 2.537 4.786 5.163 7.26 7.813-.633-1.759-1.255-3.444-1.875-5.137-.603-1.639-1.206-3.286-1.829-5.008-.56.338-1.103.672-1.633 1.003-.214.405-.781.763-1.817 1.418z"/><path d="m56.568 276.96v-.022l-.712.019z"/><path d="m167.616 136.981-.166-.063.06.142c.036-.025.073-.052.106-.079z"/><path d="m92.981 265.507c-.487 1.11-1.514 2.958-2.511 4.72h.395c2.289-.338 4.882-.778 5.544-.917l.494-.103c-.656-1.649-1.417-3.315-2.159-4.941-.159-.354-.325-.709-.484-1.063z"/><path d="m98.009 240.587h-.457l-.292-.477c-.278-.142-.537-.291-.762-.424-.206-.119-.381-.235-.53-.288.338.026.484-.01.623-.08l-.106-.212c-.119-.043-.238-.086-.351-.126l-.262.543c-1.09-.494-2.272-.931-3.468-1.358l-2.67 1.252-.132-.255c-.57.252-1.063.477-1.497.676l.07.139-.07.139c.269.368.434.722.593 1.361l.023.093c.199.262.404.606.682 1.265l.47 1.12c.609.927.762 1.454.832 1.974l.503 1.196-.328-.242c.046.123.106.265.186.434.179.093.348.225.503.404l.226.368c.311.788.53 1.212.742 1.633.245.48.49.96.848 1.854l.086.431c.006.156.013.368-.037.597l.109.132.179-.053c.229.514.371.871.384 1.209.026.047.05.093.076.143 2.011-3.885 4.094-7.87 6.535-12.394-1.019-.365-1.896-.693-2.708-1.054z"/><path d="m135.33 175.216c.424-.845.881-1.669 1.325-2.5l-.275-1.354c-1.355-6.664-2.037-10.155-2.196-11.192-.073-.229-.146-.507-.222-.851l-1.063.672-.092-.139-5.618 3.644c.871 1.271 1.709 2.484 2.365 3.415l1.06 1.471c1.007 1.391 1.471 2.027 4.213 6.021l-.04.03z"/><path d="m121.432 277.143c2.405-.017 4.617-.033 6.422-.043l1.408.427 4.167.08 4.849-.166 4.236.033 1.881.014 1.229.013.818-.079.719-.053 4.475-.318 2.901-.053 1.027-.021 1.57-.06-.649-.212-1.397-.351-.377-.06-3.041-.292-.888.007-4.372.047-4.101-.021-3.895-.053-.281-.007c-1.365-2.388-2.61-4.849-3.796-7.346l-.798.096c-2.719.321-3.488.367-3.885.367-.262 0-.533-.02-.802-.136-.424.011-1.152.076-2.577.242l-6.932 1.026c.474 1.375.951 2.789 1.414 4.267l-.205.086z"/><path d="m192.148 106.176c-3.607 8.982-7.012 17.465-9.039 22.118l-4.183 10.37 1.199 1.998.915 1.318.781 1.159 4.916 7.26 1.354 2.173 1.871 3.11.033-.06.808 1.292 1.646 2.587-.401-1.232-1.01-2.593-.308-.672-.189-.368 15.825-28.587 1.249-2.189 4.05-6.985 1.103-1.915-.182-.083-.702 1.195.669-1.208-18.488-8.333.03-.069-1.746-.792z"/><path d="m167.848 94.594 1.563 10.887-.093.013c.695 4.084 1.967 12.934 2.994 20.062.431 2.997.812 5.64 1.073 7.399l-.043.007c.003.023.006.043.01.066.53-.338 1.04-.708 1.577-1.04l1.934 3.233 2.623-6.356c.133-.417.358-1.003.712-1.921.123-.325.248-.646.361-.934l-.073-.03c.771-1.872 1.093-2.63 1.404-2.951l.497-1.206c.113-.557.517-1.557 1.401-3.759.01-.026.023-.053.033-.08l-.096-.043 5.531-13.676-11.553-5.239c.026.013-.172-.066-.384-.153l-.305-.119-.017.043c-3.557-1.553-3.819-1.702-4.124-1.878-.222-.125-.45-.248-2.872-1.314l.017-.043z"/><path d="m79.657 271.333-.53-.414-1.967-2.547.063-.05c-.08-.093-.159-.192-.235-.285-.017-.01-.037-.016-.056-.029-.308.126-.6.248-.871.364l-.225-.507-.003.457-.199.076c-1.252.48-2.716 1.093-4.316 1.762.103.802.202 1.584.288 2.339 3.073-.404 6.107-.809 8.051-1.166z"/><path d="m113.274 277.314 4.647-.06h.02l-.199-.583-.07.026-.55-1.105-.818-2.67.119-.04-.771-2.226c-.03.007-.057.01-.083.017l-.414-1.007c-.02.004-.04.007-.063.01l-.066 1.04c-.457.004-3.571.411-5.843.706-1.053.136-2.106.274-3.03.388l.01.136c-1.183.188-2.305.357-3.378.506l.858 1.04-.315 1.189c.023.103.04.199.046.295.186.305.371.583.438.655l1.298 1.601c2.726-.014 5.405-.03 7.939-.044l-.321.087z"/><path d="m91.703 277.288.123.186 4.339-.086 4.246-.043c-.01-.03-.017-.057-.027-.083l-.328-.007h-.444.769c-.09-.271-.179-.54-.259-.798-.212-.712-.397-1.328-.738-1.938l-.994-1.461.017-.063c-1.984.225-3.829.403-5.624.576-1.484.143-2.938.281-4.412.443-.093.179-.172.335-.229.467l-.159-.049-.679 1.314 1.282 1.547c1.034.002 2.07-.005 3.117-.005z"/><path d="m105.081 277.354-.249-.013-.099.023z"/><path d="m81.747 277.312 1.113-2.037-.381-.477-4.425.755-1.421-.047-1.802.349c-.755.136-1.438.262-2.312.394l.172 1.066c2.786.003 5.836.003 9.056-.003z"/><path d="m101.089 108.713.98.424c.364.129.689.239 1.02.354 1.305.451 2.762.954 7.075 2.577l-.046.139c3.663 1.391 5.187 1.895 6.667 2.385l1.58.53c3.908 1.397 5.842 2.149 7.538 2.835l-.073-.384c-.643-3.349-1.285-6.7-1.934-10.032l-.242-1.997c-.573-2.901-1.023-4.853-1.474-6.823-.493-2.133-.99-4.295-1.676-7.81l.069-.013-1.971-10.112c-9.396 7.436-18.038 15.775-25.794 24.897 1.252.46 1.954.699 2.577.907 1.107.371 2.064.692 5.704 2.123z"/><path d="m70.867 266.166.023.143.921-.334-.023-.08.142-.046.715-.245c.56-.189 1.103-.378 1.64-.566-.348-.421-.712-.864-1.076-1.309-1.123-1.371-2.243-2.735-2.835-3.425l-.318-.474c-.096-.155-.195-.314-.351-.54.371 2.325.735 4.653 1.063 6.893z"/><path d="m132.991 180.244c.007-.017.014-.037.023-.053l-.132-.02-.01.023z"/><path d="m122.393 156.328c.272.45 1.378 2.14 3.193 4.813 1.027-.656 2.104-1.355 3.173-2.05 1.596-1.037 3.179-2.063 4.551-2.915-.596-3.004-1.404-7.188-2.087-10.725l-.063-.334-.771.136c-.596.305-1.954.537-5.044 1.07l-.017-.093c-1.272.225-1.497.252-1.891.298-.44.053-1.096.133-3.799.563-1.113.229-2.219.427-3.233.603l2.378 3.448-.053.04c1.751 2.546 3.272 4.646 3.663 5.146z"/><path d="m73.314 151.939.814-.143-.132-.377c-.192-.523-.341-.917-.444-1.222l-.083-.218c-.083-.269-.103-.444-.106-.59l-3.401-9.681c-2.365 4.564-4.561 9.234-6.538 14.013l.881-.168c2.213-.428 3.982-.773 9.009-1.614z"/><path d="m67.091 158.54 8.264 2.381.119.017 1.047.318.02.093c.397.129.888.282 1.411.44-.391-1.219-.57-1.832-.583-2.226-.215-.527-.467-1.172-.735-1.861-.232-.596-.48-1.229-.715-1.825-.305-.186-.513-.53-.722-1.05l-12.692 2.246 1.358.414c1.648.5 2.638.801 3.228 1.053z"/><path d="m108.144 249.089c-.699-1.981-1.417-4.018-1.878-5.154l-.639-.172c-.285-.132-.619-.281-.97-.434-.325.643-.61 1.199-.769 1.56l.056.136-5.79 10.867c3.295-1.285 6.896-2.637 10.977-4.028-.318-.887-.655-1.838-.987-2.775z"/><path d="m127.672 193.996.543-.543c.421-1.46.848-2.918 1.325-4.352l-.278.238-.126-.146c-1.961 1.931-6.538 5.826-10.433 9.131l.126.202-.073.05c.457.795 1.206 1.941 1.981 3.143.292.447.589.904.884 1.361.109-.172.235-.341.394-.47.596-1.057 1.017-1.928 1.441-2.799.268-.553.537-1.103.844-1.696l.106.046c.755-1.341 1.573-2.852 2.418-4.428z"/><path d="m131.475 183.874c.314-.798.619-1.596.954-2.381l-.03-.01c-2.563-.729-6.124-1.759-8.591-2.491-7.101-2.146-7.164-2.199-7.509-2.494-.04.017-1.312-.387-3.583-1.083l-3.7-1.083-3.779 2.481c.046.079.093.146.139.225l.186-.1 1.901 3.25-.046.03c1.113 1.871 2.266 3.743 3.507 5.733 1.226 1.958 2.514 4.018 3.813 6.187.328.368.795 1.09 1.683 2.521l1.967-1.715c1.782-1.6 3.878-3.382 6.16-5.273l5.819-4.776z"/><path d="m84.257 142.635c1.335 2.083 2.782 4.349 4.167 6.704l22.536-3.875-11.871-17.306c-.49-.725-.785-1.166-.921-1.507l-10.313-14.858c-4.283 5.501-8.261 11.254-11.897 17.239l3.875 6.161c.967 2.031 2.57 4.537 4.424 7.442z"/><path d="m65.673 260.817.053-.083c-.089-1.014-.474-4.184-.983-7.654-.239-.314-.623-.802-1.279-1.609l-10.612 4.779c.987 5.213 2.193 10.344 3.607 15.392l10.41-3.859z"/><path d="m56.479 242.478c-.003-.003-.01-.01-.01-.017l-.629-.258-.182-.238c-1.978-2.543-3.772-4.72-5.495-6.793.318 4.663.815 9.28 1.484 13.841l5.922-4.981c-.231-.255-.576-.669-1.179-1.454l.103-.083c-.004-.007-.011-.014-.014-.017z"/><path d="m60.798 248.327c-.262-.348-.55-.729-.858-1.129-1.159.928-2.484 2.021-3.855 3.157l-.726.606z"/><path d="m68.386 276.514-11.453.397c1.272.013 9.87.387 11.453.394z"/><path d="m58.718 173.5c.083.113.159.232.229.351l.464-.103.166.967 2.381 5.193c.208.391.361.831.494 1.239.076.229.139.44.212.576l2.673 3.083-1.527-.424c.255.566.513 1.123.769 1.676.543 1.176 1.073 2.322 1.533 3.418l1.242 2.955c.219.361.467.782.47 1.259v.01c0 .05-.003.099-.01.149l.017.03.083-.053-.056.036.06-.033-.086.057.884 1.709c.735-.46 1.471-.944 1.958-1.338 1.987-1.133 2.007-1.146 2.371-1.146.497-.318.98-.629 1.438-.928 1.265-.821 2.289-1.487 3.097-1.901l.195-.156c-.762-.818-1.504-1.593-2.09-2.176l-.938-.874c-.964-.895-1.384-1.282-3.898-3.952l.103-.099c-.94-.994-1.48-1.514-1.994-2.011-.656-.632-1.272-1.222-2.557-2.636l-.285-.314.066-.063c-2.875-2.955-3.538-3.57-5.283-5.2l-1.282-1.192.109-.139-1.974-1.994c-.282.908-.54 1.828-.805 2.742l1.189-.225z"/><path d="m74.447 181.205-.106.109c.179.208.434.487.755.825.411.073.706.394 2 1.815l-.08.076c.119.143.288.328.47.52l3.657 3.587c.623-.377 1.325-.808 2.06-1.262l-.119-.199c0-.003 0-.003 0-.003 1.096-.669 1.782-1.096 2.206-1.371.1-.163.239-.308.421-.451-.063-.169-.132-.368-.208-.593l.096-.036c-1.375-4.041-2.381-6.584-3.355-9.049l.152-.069c-.553-1.56-.802-2.18-1.093-2.908-.351-.875-.762-1.898-1.809-4.822l.166-.063c-.026-.073-.05-.149-.076-.232-.235-.361-.46-.917-.771-1.739-3.475-1.053-6.578-2.021-9.592-2.964-2.65-.828-5.233-1.633-7.942-2.458l-.249-.076c-.679 1.821-1.325 3.656-1.944 5.504l5.637 5.912z"/><path d="m53.438 217.724.719.371.086-.176c.798.252 1.226.497 1.57.692.305.172.523.298 1.04.45l1.249.361-.06.404c.328.146.686.348.991.523.258.146.506.288.708.371-.073-.596-.159-1.275-.258-2.07-.292-.742-.576-2.388-1.292-7.134-.272-1.828-.573-3.832-.808-5.087l-3.756 2.235-3.504 2.11c-.123 1.838-.208 3.69-.275 5.541l1.037.358c.861.292 1.679.567 2.553 1.051z"/><path d="m51.07 230.909c2.775 3.683 5.69 7.237 8.903 11.102l1.656-1.395-.086-.152c.411-.338.749-.593 1.066-.825-.155-.785-.301-1.451-.444-2.086-.251-1.149-.483-2.199-.699-3.633-.755-5.276-1.017-7.293-1.222-8.999-.136-.05-.271-.109-.417-.172l.006-.026c-.053-.017-.112-.033-.175-.053l.017-.049c-.007 0-.01-.003-.014-.003l-.016.05c-.183-.057-.5-.163-.775-.368-.745-.288-1.494-.577-2.255-.901-.98-.414-1.987-.841-3.047-1.226l.05-.192c-1.189-.517-2.163-.838-3.269-1.202l-.589-.199c-.01.792-.04 1.577-.04 2.368 0 2.12.053 4.229.126 6.333z"/><path d="m342.388 145.908-.312.05-4.491.162-1.927.07c-1.199.123-3.153.212-6.316.351-2.401.106-4.792.212-6.021.278l-.586.003-.351-.003c-.427 0-.987.01-2.041.05-.487.083-1.404.126-3.405.215-1.033.046-2.073.096-2.703.139-1.378.046-1.749.046-1.971.037.215.887.434 1.788.663 2.712l-.129.03c.53 2.179.735 3.067.815 3.431l-1 .467c6.588 7.783 12.086 16.521 16.249 25.977l.206-.119c2.298-1.159 3.445-1.755 4.014-2.063l-.053-.116c3.994-1.968 5.869-2.951 7.67-3.898 1.862-.977 3.653-1.918 7.598-3.845l8.651-4.184c.245-.199.553-.361.868-.526 1.557-.735 3.104-1.484 4.66-2.249l-.043-.083 2.67-1.345.017-6.528-.043-.318.066-9.648z"/><path d="m295.486 77.076c.513 2.265.99 4.388 1.467 6.333l.447 1.782c.05.215.096.421.103.62.172.706.328 1.361.47 1.96l.073-.017 1.769 7.356 7.389-6.26 1.799-1.527.02.02c1.372-1.126 2.895-2.385 4.604-3.819l-.106-.139c2.073-1.778 2.467-2.1 2.835-2.159 1.398-1.179 2.829-2.385 4.292-3.624 2.829-2.391 5.697-4.816 8.373-7.055-3.65-2.355-7.386-4.594-11.211-6.684l-24.414 4.246c.775 3.131 1.457 6.155 2.09 8.967z"/><path d="m312.917 61.271c-7.485-3.799-15.275-7.078-23.31-9.827l3.143 13.337z"/><path d="m368.255 114.37c-.026.305-.036 1.888-.046 2.911l.093 1.285-.225 4.859-.02 4.792c.136.586.133 2.021.126 6.634h-.026c-.037 1.477-.03 3.335-.023 5.664l.003 1.395 6.551-.295.007.066c2.133-.089 4.286-.152 6.22-.212 1.61-.046 3.107-.093 4.283-.143l-.003-.076 7.396-.328c-6.647-13.079-14.841-25.231-24.334-36.241-.013 2.696-.03 5.296-.073 7.402.02.109.033.232.043.365-.003.033.01.063.01.096.03.444.036 1.004.043 1.712l-.514.053z"/><path d="m349.651 100.91-6.544 5.276-1.812 1.467c-1.576 1.282-2.58 2.093-5.624 4.475l-.027-.033c-.328.271-.656.546-.98.821-1.524 1.275-3.074 2.574-4.65 3.865l-.066-.06-4.915 4.051-.033-.033c-3.378 2.703-3.895 3.196-4.272 3.557-.391.374-.692.666-3.107 2.557l-.172.169c.026-.027.049-.057.073-.093-.026.02-.056.043-.086.066l-.146-.188c-.023.02-.046.04-.073.06l.123.199-.136-.189c-.026.023-.053.046-.08.069l.189.249-.878.689c-1.941 1.53-2.762 2.179-3.206 2.458l-1.08.897.089.116-3.037 2.494.47 1.957-.06.017.112.497c.534 2.355 1.146 5.051 1.838 7.992l10.277-.371c.407-.07.927-.1 1.56-.132l1.931-.116 18.945-.745.003.04 20.873-.94.103-40.649.139.003c-2.358-2.606-4.809-5.124-7.313-7.588l-1.143.934c-2.616 2.136-5.054 4.126-7.346 6.087z"/><path d="m368.136 144.875c-.006 1.908-.017 4.031-.053 6.435h-.06l.007 2.63h-.02l-.023 6.19c1.746-.881 3.521-1.782 5.342-2.709 4.915-2.5 10.171-5.173 16.024-8.015l.053.103 5.942-2.958c-.44-.944-.897-1.872-1.351-2.805l-.229.013c-.825.003-2.415.04-3.713.093z"/><path d="m323.595 79.172c-.844.712-1.706 1.434-2.53 2.133l.066.079-3.909 3.243-14.758 12.394c-.037.04-.08.079-.119.123-.358.344-.895.808-1.676 1.474.057.219.109.427.159.623l.119-.026c.623 2.554.881 3.687.908 4.283.974 4.087 1.298 5.266 1.573 6.263.321 1.163.58 2.086 1.676 6.936.056.235.109.437.146.609l.07.288c.013.056-.007.083 0 .129l.901 3.809-.172.043c.292 1.232.57 2.401.769 3.302.179.702.305 1.192.394 1.523.235.328.354.785.48 1.255l.166.649-.033.036c.073.325.179.775.298 1.305l.07-.017.242 1.014 1.262-1.04-.02-.023 1.841-1.56.043.05 3.067-2.527.08.096.199-.162c3.153-2.583 6.727-5.515 7.426-6.197l16.766-13.503c2.189-1.809 4.621-3.792 6.813-5.578 1.693-1.381 3.402-2.776 4.673-3.826l.199-.199c.292-.301.656-.676 1.451-1.321.222-.159.378-.258.537-.351.974-.805 2.117-1.723 3.299-2.669-7.512-7.167-15.626-13.709-24.284-19.512l-.119.096c-1.769 1.47-2.563 2.129-3.014 2.428-.674.649-2.416 2.113-5.059 4.328z"/><path d="m296.662 95.445-.046-.132c-.202-.649-.444-1.666-.822-3.272l-.43-1.825c-.156-.626-.275-1.109-.361-1.484l-.142-.576c-.02-.103-.003-.175-.013-.258l-4.591-19.24-38.347 6.677-2.032 3.665-3.971 7.035-.219.388 1.484 3.041c1.397 2.732 1.815 3.491 1.921 3.64.146.129.252.292.954 1.673.179.401.311.708.371.974l10.049 19.468-.017.04 2.971 5.783c1.321.421 2.64.854 3.938 1.325l2.054-1.729.023.026c2.1-1.732 4.491-3.772 6.651-5.614 3.669-3.13 5.779-4.918 6.479-5.339.079-.069.152-.132.218-.186.017-.013.03-.026.04-.033.192-.159.337-.251.503-.301 2-1.689 2.865-2.464 3.703-3.223 1.07-.96 2.104-1.888 5.346-4.587l4.862-4.083c-.096-.375-.206-.802-.318-1.246-.087-.143-.169-.339-.258-.607z"/><path d="m238.892 98.992-2.964 5.071-1.841 3.169-1.216 2.087-.715 1.431-.633 1.249-3.994 7.8-2.769 4.955-.974 1.749-1.471 2.692.881-.947 1.788-2.126.444-.606 3.306-4.948.861-1.503 1.726-3.051c9.625.03 18.932 1.358 27.795 3.77l-15.276-30.046-.096.169c.043.03.083.06.129.086l-4.058 7.33z"/><path d="m439.644 216.654.676-1.265 4.173-7.916 2.895-5.031 1.027-1.782 1.53-2.739-.914.96-1.852 2.163-.457.603-3.455 5.014-.894 1.534-4.412 7.552-3.239 5.412-22.529-.132c-.265-25.553-5.853-49.82-15.65-71.793l-4.637 2.312.017.037-1.444.808-3.199 1.537-.03-.056-13.762 6.862-.02-.04c-.537.265-.944.464-1.249.616-.477.364-1.451.848-3.339 1.785l-.103-.182.05.152c-.113.046-.377.169-.851.397l-.093 36.479h-.275c.016.765.026 1.6.036 2.408l-.06.003c.03 4.858-.457 9.052-.556 12.377l-1.431 5.015c-.04-.884-.377-7.922-.371-9.221.006-.818-.073-2.918-.086-3.286l-.103 1.726-.083-.013c.023-.215.066-1.683.07-4.094l-.149-7.208c.014-.261.03-.629.136-.97l.01-4.027c-.007-.318-.01-.696-.013-1.11h-.133l.02-2.507h.096c-.01-2.523-.003-5.66-.003-8.449l.08-5.803-.02-6.174-.017-2.352.023-.003-.003-1.298-1.338.6-15.087 7.475c-3.527 1.729-5.961 2.981-8.35 4.213-.47.298-1.408.762-3.498 1.795l-.03-.063-6.869 3.372c4.862 11.837 7.69 24.722 7.982 38.242l-26.725-.159 6.614 11.615-1.772-2.54-1.252-2.034c-.066.04-.139.073-.206.113l1.305 2.08 4.571 7.545 3.325 6.101 1.729 3.239 1.417 2.663 4.266 7.171 4.094 6.968 4.2 7.128 2.865 4.65 5.637 9.903-.189-.219.503.94 1.842 3.061 23.231 40.791.294-.503 3.495 6.008 1.854 3.16 1.206 2.08.914 1.331.775 1.166 4.809 7.319 2.954 4.836 1.047 1.716 1.623 2.609-.391-1.238-.974-2.604-.312-.676-2.676-5.318-.888-1.491-4.398-7.333-4.047-6.908-3.809-6.598-.023-.04 30.276-51.729 16.776-28.666.414-.444 4.349-7.107 4.736-8.453 4.375-7.27 1.931-3.216 1.272-2.113zm-104.234 46.591-4.081-6.976-4.187-7.064-3.226-6.008-3.624-6.624-.801-1.48 16.842 29.57.494 1.001z"/><path d="m299.278 106.03c-.523-2.279-.771-3.358-.828-3.945-.1-.384-.212-.825-.335-1.308l-3.057 2.59-.03-.026c-.98.808-2.375 2.004-3.875 3.292-1.802 1.55-3.759 3.233-5.362 4.551-.444.365-.712.58-.954.699-.159.129-.484.394-1.14.947l-.069-.086c-1.934 2.117-8.836 7.784-12.053 10.39l-.033-.037-.722.616c9.751 3.918 18.796 9.228 26.878 15.693l.235-.242 7.665-6.277c-.954-3.968-1.689-6.875-2.425-9.754l.066-.02-2.649-10.777.086-.023c-.04-.186-.086-.384-.136-.603-.215-.6-.457-1.593-.861-3.236l.149-.037c-.153-.688-.351-1.549-.55-2.407z"/><path d="m306.373 136.173-4.044 3.322c-.269.219-.454.368-.646.457l-1.683 1.362c1.269 1.076 2.511 2.179 3.729 3.312l4.581-.195-1.872-7.771.047-.01z"/><path d="m309.83 150.75-.821-3.421-1.033.04c-.55.027-.971.046-1.322.066 1.08 1.083 2.143 2.186 3.176 3.315z"/><path d="m254.028 71.521 35.433-6.167-2.563-10.745.08-.02-1.047-4.355c-5.528-1.755-11.162-3.286-16.908-4.515l.828-1.546 4.335-7.903 3.097-5.918-3.166 5.279-4.409 8.24-.954 1.786c-.1-.02-.195-.046-.295-.066l-13.735 24.804z"/><path d="m816.198 326.711-.019 4.167.175.695.308-4.836-.053-39.486-.026.345z"/><path d="m741.912 15.667.152 1.702v-1.941l-.318-6.703.01 6.084z"/><path d="m741.859 36.99.281-1.702-.248-13.875-.027.123-.188 13.752.003 1.463z"/><path d="m543.121 22.506.139-.851-.08-6.085-.219 6.701.034 1.944z"/><path d="m543.164 26.292-.054 13.881.305 1.699.186-.255-.027-1.457-.387-13.743z"/><path d="m814.234 22.986.14-.854-.08-6.081-.219 6.697.033 1.944z"/><path d="m814.281 26.769-.053 13.88.304 1.7.186-.255-.027-1.454-.387-13.745z"/><path d="m641.194 432.194-1.675-2.245 2.066 3.159 4.359 6.598z"/><path d="m634.007 421.046-1.437-2.252-2.842-4.69 2.478 4.921z"/><path d="m469.261 21.052.033-1.951-.219-6.693-.079 6.08.139.862z"/><path d="m469.387 37.314-.047-13.877-.026.119-.384 13.745-.027 1.461.186.252z"/><path d="m469.165 152.307.079-1.292-.387-6.83.023-16.915.219-16.428-.096-12.175-.553 11.188-.046 17.041-.006 6.936.053 10.473-.073 7.442c.283.162.522.378.787.56z"/><path d="m1106.479 161.922 8.076.056 8.28.063-.265-.291-8.479.052-8.618-.01-7.82-.099h-1.001l1.273.073z"/><path d="m723.242 133.375-5.214 7.194-1.457 2.394 2.159-3.087z"/><path d="m710.364 151.399-1.563 2.169-3.299 4.376 3.65-4.12z"/><path d="m867.337 160.795-12.268.037-3.862.235 5.207-.083z"/><path d="m836.747 161.021-3.696.026-7.566-.089 7.572.52z"/><path d="m581.945 94.518-4.359.046-.616.172-1.219.156 1.391-.007z"/><path d="m573.005 94.657-.092-.024-9.864-.092-1.056.003-.176.185 1.225.279z"/><path d="m1243.484 403.83v-242.382l-.451-7.224-.188-.199-.069-.007v.066l-.231 7.363h-.223l.043-7.83.338-6.813.305-7.545.199-4.538-.252-3.739-.093-7.611c-.086.017-.165.033-.252.053l.021 1.875.105 5.747.033 8.81-.291 6.945-.195 3.673-.149 3.007-.036 7.966h-.119l.05-7.836-.292.265.053 7.572h-72.574l.188-5.379.173-4.538-.271-3.739-.133-7.611c-.086.017-.166.037-.252.056l.026 1.875.14 5.743.079 8.81-.172 4.783h-.248v139.031c0 16.13-4.028 28.914-12.1 38.314-8.071 9.419-18.822 14.122-32.27 14.122-27.212 0-40.805-17.163-40.805-51.489v-137.62l.043-.831 6.16-.05 8.347-.083 7.604.189 7.485.371 1.669.093 7.347-.451.198-.186.007-.069h-.066l-7.816-.249-8.015-.109-2.796-.232 2.802.033 8.072.096 8.217.05 6.816.331 7.545.308 4.537.202 3.736-.259 7.611-.089c-.014-.083-.036-.169-.053-.251l-1.875.02-5.743.103-8.81.033-6.949-.292-3.67-.189-3.008-.152-8.346-.043-8.082-.08-8.273-.069-9.228.103-.072-.013-5.31-.017.195-3.872.09-1.672-.447-7.343-.186-.199-.076-.007v.066l-.242 7.813-.063 4.637h-.209l.06-4.703.047-8.214.337-6.813.306-7.545.195-4.538-.249-3.739-.093-7.611c-.089.016-.165.033-.251.053l.016 1.875.109 5.747.033 8.81-.291 6.946-.192 3.673-.152 3.007-.04 8.347-.046 4.707h-.109l.036-4.644.054-8.28-.292.265.06 8.482-.007 4.177h-31.252l-1.617-.361-8.147-.172-9.479.155-8.296-.119-3.66-.036-2.404-.04-1.61.096-1.404.063-8.744.354-5.677.04-2 .01-3.073.05 1.265.305 2.735.503.729.086 5.935.438 1.742.006 1.534.003v145.24c0 68.17 28.159 102.258 84.465 102.258 31.007 0 55.755-14.302 74.276-42.938h1.18v36.423l-27.153.122 27.153.364v.106h8.127l.497.007 4.11-.007h62.006v-.1l10.479-.013 16.61-.07c-.054-.143-.07-.301-.113-.447z"/><path d="m1176.626 485.287c-.112-.219-.265-.397-.431-.51-.172-.119-.377-.186-.615-.186h-18.442v-44.455c0-.205-.046-.397-.158-.563-.1-.152-.285-.278-.557-.371-.271-.1-.609-.173-1.054-.238-.431-.073-.986-.1-1.643-.1-.636 0-1.183.026-1.636.1-.444.065-.802.139-1.067.238-.265.093-.453.219-.556.371-.106.165-.159.357-.159.563v47.595c0 1.04.271 1.762.814 2.173.543.404 1.12.616 1.723.616h22.734c.238 0 .443-.06.615-.179.166-.119.318-.305.431-.557.12-.252.212-.563.266-.907.053-.364.079-.809.079-1.339 0-.529-.026-.974-.079-1.357-.053-.364-.145-.661-.265-.894z"/><path d="m1233.508 440.329c-.105-.285-.258-.53-.443-.729-.186-.199-.444-.352-.788-.464-.352-.093-.795-.172-1.358-.212-.55-.04-1.252-.06-2.1-.06-.795 0-1.451.02-1.968.06-.523.04-.94.119-1.285.212-.317.112-.569.258-.741.438-.173.186-.312.43-.418.722l-17.249 47.754c-.205.596-.318 1.06-.331 1.417-.02.352.079.63.268.809.209.192.547.317 1.037.384.497.06 1.119.1 1.888.1.745 0 1.352-.033 1.815-.079.457-.054.821-.146 1.073-.266.251-.119.437-.258.569-.431.139-.172.238-.384.324-.615l4.213-12.361h21.37l4.418 12.514c.1.245.212.443.321.596.13.159.314.285.573.384.245.093.616.159 1.106.199s1.143.06 1.967.06c.822 0 1.478-.033 1.968-.079.483-.054.841-.173 1.054-.364.198-.18.311-.451.298-.809-.014-.357-.126-.828-.345-1.418zm-13.791 31.239 8.859-25.636h.037l8.982 25.636z"/><path d="m1314.945 467.157c-.92-1.087-1.98-1.987-3.199-2.684-1.219-.702-2.53-1.192-3.935-1.45 1.112-.483 2.106-1.086 2.961-1.835.861-.735 1.576-1.576 2.14-2.518.569-.94 1.007-1.967 1.295-3.087.285-1.1.44-2.271.44-3.49 0-2.034-.338-3.862-.997-5.479s-1.646-2.98-2.957-4.094c-1.312-1.112-2.948-1.961-4.909-2.544-1.96-.583-4.478-.874-7.552-.874h-11.678c-.609 0-1.186.205-1.732.616-.54.41-.812 1.133-.812 2.166v45.846c0 1.04.271 1.762.812 2.173.547.404 1.123.616 1.732.616h13.434c1.928 0 3.637-.14 5.141-.417 1.497-.285 2.901-.696 4.213-1.253 1.312-.556 2.49-1.245 3.537-2.066s1.935-1.769 2.683-2.861c.742-1.087 1.318-2.312 1.723-3.67.417-1.364.616-2.855.616-4.472 0-1.755-.259-3.352-.795-4.809-.531-1.456-1.247-2.728-2.161-3.814zm-24.144-22.496h7.062c1.954 0 3.523.186 4.716.557 1.176.371 2.153.914 2.895 1.609.742.702 1.285 1.557 1.623 2.563.345 1.007.518 2.133.518 3.379 0 1.119-.173 2.192-.49 3.239-.338 1.04-.855 1.967-1.57 2.742-.716.781-1.616 1.404-2.696 1.861-1.083.47-2.511.695-4.279.695h-7.776v-16.645zm19.157 35.287c-.504 1.093-1.192 1.994-2.08 2.723-.888.735-1.915 1.271-3.074 1.649-1.165.371-2.523.55-4.087.55h-9.916v-18.117h8.181c2.133 0 3.915.212 5.326.622 1.417.411 2.59 1.008 3.53 1.809.94.795 1.643 1.775 2.137 2.935.493 1.173.738 2.524.738 4.055 0 1.43-.258 2.687-.755 3.774z"/><path d="m1376.895 466.892c-1.1-1.093-2.352-2.047-3.762-2.854-1.401-.809-2.829-1.55-4.286-2.226s-2.888-1.345-4.292-2.008c-1.405-.662-2.657-1.391-3.757-2.186s-1.98-1.716-2.643-2.742c-.656-1.033-1-2.272-1-3.696 0-.98.179-1.908.522-2.775.342-.882.861-1.63 1.551-2.266.688-.643 1.563-1.153 2.623-1.53 1.06-.385 2.299-.583 3.736-.583 1.536 0 2.921.198 4.153.583 1.231.377 2.292.808 3.199 1.259.9.477 1.663.881 2.278 1.258.623.371 1.08.563 1.371.563.186 0 .352-.066.504-.179.139-.119.252-.312.338-.563.066-.251.139-.563.172-.927.04-.371.057-.802.057-1.279 0-.496-.01-.907-.036-1.225s-.06-.597-.126-.815c-.04-.225-.106-.41-.192-.557-.079-.152-.245-.351-.497-.603-.245-.252-.774-.576-1.563-.986-.802-.411-1.703-.789-2.723-1.113-1.021-.338-2.113-.597-3.26-.795-1.152-.199-2.299-.298-3.444-.298-2.219 0-4.286.298-6.214.894-1.921.597-3.576 1.465-4.961 2.604-1.397 1.14-2.484 2.544-3.263 4.227-.778 1.689-1.176 3.604-1.176 5.743 0 2.093.345 3.895 1.014 5.379.683 1.51 1.557 2.809 2.644 3.921 1.086 1.113 2.321 2.08 3.695 2.901 1.378.822 2.796 1.57 4.253 2.246 1.451.676 2.882 1.338 4.272 1.98 1.392.649 2.63 1.371 3.717 2.153 1.076.768 1.961 1.683 2.609 2.716.676 1.033 1.007 2.285 1.007 3.742 0 1.345-.245 2.551-.715 3.61-.478 1.06-1.159 1.954-2.047 2.683-.888.735-1.948 1.292-3.18 1.689s-2.59.596-4.074.596c-1.961 0-3.696-.231-5.187-.695-1.497-.464-2.775-.96-3.829-1.497-1.066-.523-1.934-1.014-2.603-1.464-.686-.443-1.199-.676-1.577-.676-.205 0-.391.047-.55.14-.165.099-.291.258-.4.496-.116.239-.189.55-.242.935-.053.384-.072.867-.072 1.457 0 .809.065 1.471.205 1.961.159.49.377.895.688 1.212.305.318.832.702 1.623 1.152.782.451 1.752.888 2.901 1.313 1.152.424 2.471.774 3.935 1.066 1.471.298 3.061.443 4.79.443 2.457 0 4.756-.338 6.896-1 2.133-.656 3.981-1.643 5.561-2.961 1.573-1.305 2.813-2.895 3.7-4.783.881-1.881 1.324-4.027 1.324-6.432 0-2.04-.331-3.809-1.014-5.306-.666-1.497-1.554-2.803-2.653-3.902z"/><path d="m541.763 466.087-.454 1.004 5.428 1.179 4.362-.444 3.922-.516 2.858-.312-5.273-.597z"/><path d="m575.808 468.793 7.534-.046 1.057-.166 2.103-.159-2.404.007z"/><path d="m594.769 467.879.42-.046 3.922-.518 2.862-.317-5.273-.59-10.844-.317-.457 1 4.104.894-3.604.073.156.026 4.008.02.768.166 1.54-.153 10.705.06 1.808-.01.305-.188-2.113-.272z"/><path d="m659.421 468.177 3.312-.01 6.783.109-6.783-.543z"/><path d="m697.98 467.329.759.007 6.928-.073-4.818-.689-5.575.417z"/><path d="m619.898 468.793 7.532-.046 1.059-.159 2.107-.166-2.405.014z"/><path d="m629.993 468.058.153.026 11.304.063-9.453.149 10.999.007 2.13-.136 2.043.01 1.809-.007.305-.185-2.114-.272z"/><path d="m690.551 468.084-4.67.06-9.79.152 10.996.007z"/><path d="m1113.729 466.786-1.662-.152-13.407-.723-3.915.021-19.283.112-18.077-.053-1.511-.01-1.302-.07-3.921.021-1.047.007-9.399-.073-15.67-.345-16.561-.172-19.289.258-1.987.05-6.253-.136-16.564-.179-19.289.265-21.088.517-20.787.338-19.736.259-2.411.023-11.017.152-13.735-.461-3.769-.146-14.789.821-8.661-.112-16.875-.57-3.766-.146-16.113.901-.357-.014-8.437.523-10.73.172-14.676-.384-8.115-.252-4.587-.655-5.578.417 2.709.338.755.014 2.11-.023-5.978.374-20.942.338-7.028.043-4.164-.334-2.865.377-6.273.04-15.067.351 13.858.318 21.088-.312 8.585-.136 12.963-.281 19.879-.192 4.094.112-.977.014-20.336.133-15.063.344 13.857.325 21.092-.318 8.585-.132 3.435-.073.983.026 8.283.305 6.783.222 18.829-.043 18.227.033h6.628l.41.014 6.276-.014h5.366l.9-.013 6.283-.014 18.229.033h13.438l-1.49.231 1.888.066-13.688-.119h-18.224l-18.68.02.043.04-7.23-.066h-18.226l-18.681.023.606.526 19.134-.219 19.433-.112 5.16.02.364.318 19.131-.226 19.435-.105 17.627.06 2.259-.026-2.861-.086-4.189-.033 19.598-.14 7.988-.229-.119-.255 16.342-.073 15.358-.076.6.007-15.958.222-3.014.464 2.411.087 20.481-.14 1.742-.046 4.19.719 18.372.201 21.393-.414 3.146.017 1.176.199 18.375.205 21.396-.417 18.68.086 8.287.02 5.422.033 3.613-.191 3.167-.133 19.733-.788 12.805-.14 4.518-.053 6.929-.139-2.862-.53zm-305.168 1.616-18.531.036-8.783-.288 1.964-.046 19.598-.192 1.269.02 14.68.404 2.732.106zm14.513-.324 3.713.013 3.656.231z"/><path d="m526.226 467.436-3.922.509-2.862.318 5.28.596 10.837.312.457-1.001-5.425-1.179z"/><path d="m492.926 466.673-2.1.166 2.404-.007 8.287-.364-7.532.047z"/><path d="m474.252 467.084-1.808.007-.305.192 2.113.272 17.177-.352-.159-.026z"/><path d="m712.716 404.406-93.242-128.846 86.906-113.896 1.798.046 18.992.381 11.433.278 2.352-.139v223.162l-.195 9.916.063 10.354.03 3.644.099 5.598.55-2.302.914-4.981.159-1.345.136-1.868h72.79l-.109 14.01.159 7.982.02-10.738.01-11.254h.348v-120.535h.189l.122 4.749.03-4.749h.605l77.536 120.453h-1.444l-38.884.352 35.771.318 54.438-.312 22.158-.133 15.54-.133 6.174 8.029-3.822-5.862-1.146-1.584-.431-.589.676-.007h.341l1.679 2.312 23.072 31.3-20.707-29.167-3.263-4.451 15.345-.133 20.642-.079c-.066-.278-.159-.55-.219-.828l-20.823.504-15.269.093-9.582-13.087c-.017.011-.033.017-.05.023l-83.469-115.332 76.599-100.379 3.313-4.15 5.342-6.584-.063-.391-2.975 3.769 4.865-6.375h-88.071l.172-.272 3.962-5.554 4.325-6.19 2.613-3.713 1.806-3.285 4.027-6.462c-.083-.03-.159-.057-.242-.09l-.997 1.59-3.007 4.899-4.724 7.436-3.991 5.69-2.143 2.991-1.752 2.451-.328.51h-.126l.298-.46-.391.066-.245.395h-.155l-72.376 112.224h-.712l-.116-9.646-.043 9.646h-.076v-228.972h-74.972v116.784l-15.295.189-17.481-.371-9.241-.278-7.565-.189-21.012.113-20.336.033-20.833.073-9.813.163.689-.938 8.084-11.135 4.896-6.677 2.663-4.69c-.166-.053-.318-.126-.484-.186l-8.048 12.222-7.439 10.248-.871 1.166-12.874.215-.166-.013-14.341.109c-.47.639-1.007 1.222-1.596 1.765h.146l17.819-.282 8.787-.142-71.432 110.79h-.954v-179.199l2.027-.053-2.027-.003v-49.714h-74.979l-43.464 48.731-4.031-.023-1.312.026 1.656.089 3.557.053-.262.292-2.858.003-12.049.301-.086-.01-7.458.06c-.242.639-.53 1.212-.835 1.755l.073.003 9.261-.222 10.917-.262 9.95.226 9.777.569 2.179.139 9.612-.924.186-.239h15.189v308.579l-30.869.278 30.869.278h.438l4.471.04 6.949-.04h60.413l.513 5.865.179 1.342.987 4.968.146 6.69.457-9.996.427-3.656v-5.213-5.174-115.359h.954l77.162 119.884-24.605-.252c.006.133.033.259.033.392h.318l24.519.265.156.245h1.057l.421.622-.368-.622h19.945l7.992.112c-.003-.033-.01-.072-.014-.112h60.885z"/><path d="m1446.15 156.629c-30.921 0-52.331 16.498-64.221 49.476h-.954v-45.193h-64.284l-2.673-.133-1.67-.093-3.712.226h-2.832v.172l-.802.046-.199.192-.006.073h.065l.941.03v.388l-1.404-.007-6.816-.334-7.545-.308-4.538-.199-3.735.252-7.611.093c.013.086.033.169.053.248l1.875-.016 5.743-.106 8.81-.033 6.949.292 3.67.192 3.007.152 1.544.007v.106l-1.411-.01.265.295 1.146-.01v242.06h55.116c0 .014.003.026.003.04 0 .046-.006.09-.006.139l.629-.006 7.081-.06 8.347-.08 7.604.186 7.485.378 1.669.086 7.347-.45.198-.186.007-.066h-.066l-7.816-.245-8.016-.112-2.795-.232 2.802.03 8.075.096 8.214.053 6.816.332 7.545.305 4.537.201 3.736-.255 7.608-.093c-.011-.079-.03-.165-.05-.251l-1.875.02-5.743.105-8.811.033-6.948-.291-3.67-.192-3.007-.152-8.347-.043-8.082-.076-4.418-.04v-.142l4.358.082 8.075.06 8.276.06-.262-.291-8.479.053-8.618-.013-3.352-.04v-115.265c0-20.614 4.597-36.899 13.798-48.876 9.194-11.97 21.959-17.961 38.295-17.961 12.049 0 22.598 2.461 31.637 7.376v-69.219c-4.435-1.905-10.622-2.856-18.552-2.856z"/><path d="m996.581 137.594-3.858 4.703-.424.766-.967 1.407 1.235-1.497z"/><path d="m988.629 147.484-.096.077-8.88 10.502-.927 1.133-.013.298 1.298-1.133z"/><path d="m139.099 168.377c5.571-9.327 12.506-17.736 20.555-24.947l-2.604 1.676-.377-.507-.868.414.238.361c-.543.444-1.577 1.08-2.444 1.606-.477.292-.897.543-1.1.692l-.149-.169c-.086.053-.176.106-.262.159l.046.146c-.192.076-1.143.589-2.464 1.427-.99.769-1.649 1.222-2.318 1.679-.556.381-1.12.765-1.964 1.404-.593.298-.871.391-1.169.391h-.94l-.02-.066-.208.113.47.659c-.394.308-1.163.782-1.812 1.183l-.073.043-.159.103.013.057-1.603.974-.106-.169c-.785.514-1.683 1.09-2.835 1.822.387 1.802.821 3.845 1.424 7.028l-.033.006z"/><path d="m164.466 139.356-14.332 2.547-.007-.046-.251.033-13.017 2.401c-.875.132-1.179.152-1.318.152l-.364-.04c0 .02-.202.057-.778.156l1.007 5.21-.03.007c.358 1.928.656 3.375.934 4.69.152-.076.295-.143.424-.199l.1.186c.543-.332 1.202-.752 1.987-1.282.112-.073.215-.146.305-.208l-.086-.149c.292-.186.504-.305.643-.377l1.603-.931.159.229.603-.388.404.566.48-.285c-.206-.941.467-1.448 3.706-3.653l.086.106c2.915-1.951 5.65-3.617 7.923-4.816l.106.162h1.046l-.265-.354 1.086-.931c1.994-1.279 2.262-1.279 2.57-1.279h.924l.301.881c.202.616-.08 1.056-.358 1.341 1.442-1.277 2.902-2.53 4.409-3.729z"/></g></svg>