<?xml version="1.0" encoding="utf-8"?>
<!-- Generator: Adobe Illustrator 15.0.0, SVG Export Plug-In . SVG Version: 6.00 Build 0)  -->
<!DOCTYPE svg PUBLIC "-//W3C//DTD SVG 1.1//EN" "http://www.w3.org/Graphics/SVG/1.1/DTD/svg11.dtd">
<svg version="1.1" id="Layer_1" xmlns="http://www.w3.org/2000/svg" xmlns:xlink="http://www.w3.org/1999/xlink" x="0px" y="0px"
	 width="300px" height="100px" viewBox="0 0 300 100" enable-background="new 0 0 300 100" xml:space="preserve">
<g>
	<path d="M56.574,59.66c0,0.072,0,0.144,0,0.212c0,0.067,0.015,0.125,0.044,0.168c0.029,0.045,0.065,0.072,0.109,0.083
		c0.044,0.012,0.095,0.023,0.153,0.039h0.164c0.094,0,0.176-0.006,0.245-0.017c0.07-0.011,0.122-0.045,0.16-0.105
		c0.028-0.043,0.042-0.103,0.037-0.18c-0.003-0.075-0.004-0.15-0.004-0.223v-0.852v-4.65v-1.093c0-0.101,0-0.198,0-0.289
		s-0.022-0.165-0.065-0.224c-0.03-0.038-0.077-0.06-0.143-0.071c-0.065-0.012-0.135-0.017-0.208-0.017
		c-0.014,0.007-0.033,0.012-0.054,0.012c-0.022,0-0.041,0.004-0.054,0.011c-0.066,0.016-0.118,0.043-0.153,0.087
		c-0.044,0.065-0.08,0.142-0.104,0.23c-0.025,0.087-0.06,0.166-0.104,0.239c-0.065,0.102-0.134,0.196-0.207,0.284
		c-0.073,0.088-0.161,0.164-0.262,0.229c-0.095,0.057-0.194,0.106-0.296,0.146c-0.102,0.04-0.207,0.078-0.316,0.114
		c-0.042,0.016-0.087,0.025-0.13,0.027c-0.044,0.005-0.084,0.011-0.121,0.017c-0.08,0.022-0.179,0.032-0.294,0.032
		c-0.118,0-0.205,0.019-0.263,0.056c-0.05,0.028-0.088,0.081-0.113,0.153c-0.027,0.071-0.032,0.152-0.018,0.24
		c0.008,0.035,0.011,0.067,0.011,0.092c0,0.025,0.007,0.05,0.021,0.07c0.045,0.081,0.124,0.123,0.241,0.127
		c0.116,0.003,0.235,0.005,0.359,0.005h0.831c0.087,0,0.169,0.003,0.244,0.007c0.078,0.004,0.141,0.022,0.192,0.059
		c0.044,0.036,0.067,0.079,0.07,0.126c0.005,0.048,0.013,0.104,0.028,0.169v3.888V59.66z"/>
	<path d="M62.643,59.66c0,0.072,0,0.144,0,0.212c0,0.067,0.014,0.125,0.044,0.168c0.029,0.045,0.065,0.072,0.109,0.083
		c0.043,0.012,0.095,0.023,0.152,0.039h0.164c0.094,0,0.176-0.006,0.245-0.017s0.122-0.045,0.159-0.105
		c0.029-0.043,0.042-0.103,0.039-0.18c-0.004-0.075-0.006-0.15-0.006-0.223v-0.852v-4.65v-1.093c0-0.101,0-0.198,0-0.289
		s-0.021-0.165-0.065-0.224c-0.03-0.038-0.077-0.06-0.142-0.071c-0.066-0.012-0.135-0.017-0.208-0.017
		c-0.014,0.007-0.033,0.012-0.055,0.012c-0.021,0-0.04,0.004-0.054,0.011c-0.065,0.016-0.116,0.043-0.153,0.087
		c-0.043,0.065-0.079,0.142-0.103,0.23c-0.026,0.087-0.061,0.166-0.104,0.239c-0.066,0.102-0.136,0.196-0.208,0.284
		c-0.073,0.088-0.16,0.164-0.262,0.229c-0.095,0.057-0.193,0.106-0.296,0.146c-0.101,0.04-0.207,0.078-0.316,0.114
		c-0.044,0.016-0.087,0.025-0.13,0.027c-0.044,0.005-0.084,0.011-0.121,0.017c-0.08,0.022-0.179,0.032-0.295,0.032
		c-0.117,0-0.204,0.019-0.262,0.056c-0.05,0.028-0.089,0.081-0.114,0.153c-0.026,0.071-0.031,0.152-0.017,0.24
		c0.007,0.035,0.012,0.067,0.012,0.092c0,0.025,0.008,0.05,0.021,0.07c0.045,0.081,0.125,0.123,0.242,0.127
		c0.116,0.003,0.236,0.005,0.359,0.005h0.83c0.088,0,0.169,0.003,0.246,0.007c0.077,0.004,0.141,0.022,0.191,0.059
		c0.044,0.036,0.068,0.079,0.071,0.126c0.004,0.048,0.013,0.104,0.027,0.169v3.888V59.66z"/>
	<path d="M59.229,43.494c0.045,0.08,0.125,0.122,0.242,0.126c0.116,0.004,0.236,0.005,0.358,0.005h0.832
		c0.086,0,0.169,0.002,0.244,0.005c0.077,0.003,0.141,0.024,0.192,0.06c0.043,0.036,0.067,0.078,0.07,0.125
		c0.005,0.048,0.014,0.104,0.028,0.17v3.887v0.797c0,0.073,0,0.144,0,0.213c0,0.069,0.014,0.125,0.044,0.169
		c0.029,0.043,0.065,0.071,0.108,0.082c0.045,0.01,0.095,0.022,0.154,0.039h0.164c0.095,0,0.175-0.006,0.245-0.018
		c0.07-0.011,0.122-0.044,0.16-0.103c0.028-0.043,0.042-0.104,0.037-0.18c-0.003-0.076-0.005-0.151-0.005-0.224v-0.852v-4.65v-1.091
		c0-0.103,0-0.198,0-0.291c0-0.09-0.021-0.164-0.065-0.223c-0.029-0.036-0.076-0.06-0.142-0.07
		c-0.065-0.011-0.134-0.017-0.208-0.017c-0.014,0.008-0.032,0.011-0.054,0.011c-0.022,0-0.041,0.004-0.055,0.012
		c-0.065,0.013-0.116,0.043-0.151,0.087c-0.045,0.065-0.079,0.141-0.104,0.229c-0.026,0.087-0.06,0.167-0.104,0.24
		c-0.065,0.102-0.134,0.196-0.207,0.284c-0.073,0.087-0.161,0.164-0.263,0.229c-0.095,0.059-0.193,0.107-0.295,0.147
		c-0.101,0.04-0.207,0.078-0.317,0.114c-0.042,0.016-0.086,0.024-0.13,0.027c-0.043,0.003-0.084,0.01-0.121,0.018
		c-0.079,0.021-0.177,0.033-0.293,0.033c-0.117,0-0.206,0.018-0.264,0.054c-0.05,0.029-0.089,0.08-0.114,0.153
		c-0.027,0.073-0.031,0.153-0.017,0.24c0.008,0.036,0.012,0.068,0.012,0.093C59.209,43.448,59.216,43.472,59.229,43.494z"/>
	<path d="M58.271,38.175c0.051,0.007,0.101,0.013,0.147,0.017c0.046,0.003,0.094,0.012,0.137,0.026h0.065
		c0.022,0.008,0.047,0.008,0.077,0c0.029-0.007,0.062-0.003,0.098,0.012c0.022,0.006,0.059,0.011,0.109,0.011
		c0.05,0,0.091-0.004,0.12-0.011c0.029-0.007,0.062-0.009,0.093-0.005c0.033,0.003,0.063,0.001,0.094-0.006
		c0.086-0.015,0.169-0.025,0.25-0.032c0.079-0.007,0.159-0.025,0.24-0.054c0.074-0.021,0.149-0.044,0.229-0.065
		c0.08-0.023,0.15-0.051,0.207-0.088c0.044-0.028,0.089-0.056,0.137-0.082c0.047-0.025,0.089-0.052,0.125-0.082
		c0.138-0.095,0.267-0.218,0.389-0.371c0.119-0.152,0.217-0.309,0.288-0.47c0.029-0.064,0.057-0.131,0.083-0.201
		c0.024-0.069,0.051-0.141,0.081-0.213c0.015-0.058,0.029-0.118,0.044-0.18c0.014-0.063,0.03-0.122,0.043-0.181
		c0.028-0.094,0.047-0.191,0.055-0.289c0.007-0.098,0.021-0.198,0.044-0.3V35.5c0.015-0.072,0.021-0.147,0.021-0.223
		c0-0.077,0.007-0.152,0.022-0.225v-0.119v-0.176c0.013-0.05,0.019-0.107,0.016-0.169c-0.004-0.063-0.005-0.122-0.005-0.18V34.07
		c0-0.029,0-0.06,0-0.092s-0.003-0.061-0.011-0.082c-0.015-0.044-0.016-0.093-0.005-0.148c0.01-0.055,0.009-0.104-0.006-0.147
		v-0.099c-0.007-0.036-0.01-0.075-0.005-0.115c0.002-0.041,0.001-0.078-0.006-0.114c-0.007-0.029-0.009-0.058-0.006-0.087
		c0.003-0.028-0.001-0.062-0.016-0.098c-0.015-0.081-0.024-0.16-0.027-0.241c-0.004-0.081-0.017-0.16-0.039-0.24
		c-0.014-0.059-0.028-0.118-0.038-0.181c-0.011-0.061-0.024-0.122-0.038-0.18c-0.036-0.101-0.069-0.2-0.098-0.294
		c-0.029-0.095-0.062-0.187-0.098-0.273c-0.183-0.415-0.459-0.737-0.83-0.966c-0.371-0.229-0.859-0.337-1.463-0.322
		c-0.052,0.007-0.098,0.011-0.142,0.011c-0.043,0-0.091,0.004-0.141,0.011c-0.103,0.021-0.203,0.04-0.301,0.054
		c-0.099,0.015-0.195,0.04-0.291,0.077c-0.333,0.146-0.594,0.324-0.779,0.534c-0.186,0.212-0.348,0.485-0.488,0.82
		c-0.05,0.109-0.086,0.224-0.108,0.343c-0.021,0.121-0.051,0.243-0.086,0.367c-0.016,0.036-0.021,0.075-0.017,0.115
		c0.004,0.039-0.003,0.077-0.017,0.115c-0.006,0.073-0.015,0.143-0.021,0.212c-0.007,0.07-0.015,0.14-0.022,0.213l-0.034,0.459
		v0.207c-0.014,0.06-0.017,0.13-0.009,0.214c0.006,0.084,0.009,0.157,0.009,0.224c0,0.058-0.003,0.118-0.009,0.18
		c-0.007,0.062-0.004,0.118,0.009,0.169c0.016,0.037,0.02,0.073,0.012,0.109c-0.007,0.037-0.007,0.069,0,0.098
		c0.007,0.037,0.007,0.075,0,0.115c-0.007,0.041-0.003,0.079,0.011,0.115c0,0.037,0,0.074,0,0.115c0,0.04,0.003,0.078,0.01,0.114
		c0.008,0.029,0.009,0.059,0.005,0.088c-0.004,0.028-0.001,0.057,0.006,0.086c0.014,0.08,0.026,0.161,0.033,0.241
		c0.007,0.08,0.018,0.16,0.033,0.241c0.029,0.116,0.054,0.227,0.076,0.332c0.022,0.105,0.055,0.21,0.098,0.312
		c0.087,0.226,0.19,0.434,0.306,0.623c0.117,0.189,0.263,0.349,0.438,0.479c0.035,0.03,0.074,0.054,0.114,0.071
		c0.041,0.019,0.079,0.041,0.114,0.071c0.102,0.059,0.208,0.106,0.316,0.142C58.031,38.103,58.146,38.138,58.271,38.175z
		 M57.442,36.014c-0.031-0.08-0.047-0.166-0.051-0.257c-0.004-0.09-0.015-0.18-0.039-0.267c-0.007-0.08-0.012-0.154-0.015-0.224
		s-0.01-0.141-0.018-0.213c-0.006-0.014-0.009-0.034-0.005-0.06c0.003-0.025,0.005-0.046,0.005-0.059v-0.197
		c-0.015-0.051-0.019-0.107-0.016-0.169c0.003-0.061,0.006-0.122,0.006-0.18V34.06c0-0.037,0-0.07,0-0.099
		c0-0.029,0.004-0.054,0.01-0.076v-0.131c0-0.058,0.002-0.118,0.006-0.181c0.003-0.061,0.005-0.121,0.005-0.179
		c0.007-0.073,0.014-0.144,0.021-0.213c0.008-0.07,0.015-0.137,0.023-0.203c0.005-0.035,0.009-0.074,0.009-0.114
		s0.008-0.077,0.023-0.114c0.021-0.095,0.041-0.187,0.06-0.279c0.018-0.091,0.044-0.175,0.081-0.256
		c0.082-0.204,0.18-0.383,0.301-0.541c0.121-0.156,0.279-0.278,0.476-0.366c0.05-0.021,0.1-0.039,0.147-0.049
		c0.047-0.01,0.101-0.024,0.158-0.038c0.022-0.007,0.05-0.01,0.087-0.005c0.037,0.003,0.062-0.002,0.077-0.017
		c0.21,0,0.389,0.021,0.534,0.06c0.146,0.041,0.276,0.101,0.394,0.181c0.182,0.131,0.326,0.3,0.432,0.508
		c0.104,0.207,0.182,0.442,0.234,0.703c0.05,0.263,0.083,0.543,0.098,0.842s0.021,0.604,0.021,0.917
		c0,0.299-0.006,0.597-0.021,0.896c-0.015,0.298-0.059,0.564-0.131,0.797c-0.014,0.058-0.029,0.113-0.039,0.163
		c-0.011,0.051-0.027,0.102-0.049,0.152c-0.051,0.125-0.102,0.229-0.152,0.317c-0.052,0.086-0.114,0.182-0.186,0.283
		c-0.043,0.044-0.081,0.073-0.109,0.088c-0.014,0.014-0.029,0.029-0.043,0.043c-0.016,0.015-0.033,0.03-0.056,0.044
		c-0.117,0.081-0.248,0.142-0.394,0.185c-0.042,0.015-0.089,0.023-0.141,0.028c-0.051,0.003-0.103,0.012-0.153,0.027
		c-0.045,0.015-0.104,0.018-0.18,0.011c-0.077-0.007-0.129-0.014-0.158-0.021c-0.037-0.014-0.067-0.021-0.093-0.016
		c-0.026,0.003-0.053-0.002-0.083-0.016c-0.232-0.073-0.425-0.182-0.578-0.328c-0.14-0.146-0.244-0.302-0.312-0.469
		C57.564,36.424,57.5,36.232,57.442,36.014z"/>
	<path d="M64.385,32.564c0.087,0,0.169,0.002,0.246,0.005s0.14,0.024,0.19,0.06c0.045,0.037,0.068,0.079,0.072,0.125
		c0.003,0.047,0.012,0.104,0.027,0.169v3.887v0.797c0,0.073,0,0.143,0,0.212c0,0.069,0.014,0.126,0.045,0.17
		c0.029,0.044,0.066,0.071,0.108,0.082c0.044,0.011,0.094,0.024,0.152,0.039h0.164c0.095,0,0.177-0.006,0.246-0.018
		c0.069-0.01,0.122-0.045,0.158-0.103c0.029-0.044,0.042-0.103,0.038-0.18c-0.003-0.077-0.005-0.151-0.005-0.225v-0.851v-4.651
		v-1.092c0-0.102,0-0.198,0-0.291c0-0.09-0.022-0.165-0.066-0.222c-0.029-0.037-0.076-0.06-0.142-0.072
		c-0.065-0.011-0.134-0.016-0.207-0.016c-0.014,0.007-0.033,0.011-0.055,0.011c-0.021,0-0.04,0.004-0.054,0.011
		c-0.065,0.014-0.116,0.044-0.153,0.087c-0.043,0.066-0.079,0.142-0.104,0.229c-0.024,0.087-0.06,0.168-0.104,0.24
		c-0.065,0.103-0.135,0.196-0.208,0.284c-0.073,0.088-0.16,0.164-0.262,0.229c-0.094,0.058-0.193,0.107-0.296,0.147
		c-0.1,0.041-0.206,0.079-0.315,0.115c-0.043,0.015-0.088,0.023-0.13,0.027c-0.044,0.003-0.084,0.009-0.122,0.017
		c-0.08,0.021-0.178,0.033-0.294,0.033c-0.117,0-0.203,0.018-0.262,0.054c-0.05,0.029-0.088,0.082-0.115,0.153
		c-0.025,0.073-0.03,0.153-0.016,0.241c0.006,0.036,0.012,0.067,0.012,0.093s0.007,0.049,0.021,0.071
		c0.045,0.081,0.124,0.122,0.241,0.126c0.116,0.003,0.235,0.005,0.36,0.005H64.385z"/>
	<path d="M47.091,43.494c0.044,0.08,0.124,0.122,0.241,0.126c0.116,0.004,0.236,0.005,0.36,0.005h0.83
		c0.087,0,0.17,0.002,0.246,0.005c0.077,0.003,0.141,0.024,0.191,0.06c0.044,0.036,0.068,0.078,0.072,0.125
		c0.003,0.048,0.012,0.104,0.027,0.17v3.887v0.797c0,0.073,0,0.144,0,0.213c0,0.069,0.014,0.125,0.044,0.169
		c0.029,0.043,0.065,0.071,0.109,0.082c0.043,0.01,0.094,0.022,0.152,0.039h0.164c0.095,0,0.177-0.006,0.246-0.018
		c0.068-0.011,0.122-0.044,0.157-0.103c0.029-0.043,0.042-0.104,0.039-0.18c-0.004-0.076-0.006-0.151-0.006-0.224v-0.852v-4.65
		v-1.091c0-0.103,0-0.198,0-0.291c0-0.09-0.021-0.164-0.065-0.223c-0.028-0.036-0.075-0.06-0.142-0.07
		c-0.066-0.011-0.135-0.017-0.207-0.017c-0.015,0.008-0.033,0.011-0.055,0.011c-0.021,0-0.04,0.004-0.054,0.012
		c-0.065,0.013-0.117,0.043-0.153,0.087c-0.043,0.065-0.079,0.141-0.103,0.229c-0.026,0.087-0.061,0.167-0.104,0.24
		c-0.065,0.102-0.135,0.196-0.207,0.284c-0.074,0.087-0.16,0.164-0.262,0.229c-0.095,0.059-0.193,0.107-0.295,0.147
		c-0.102,0.04-0.207,0.078-0.317,0.114c-0.042,0.016-0.086,0.024-0.129,0.027c-0.044,0.003-0.085,0.01-0.121,0.018
		c-0.08,0.021-0.178,0.033-0.295,0.033c-0.117,0-0.204,0.018-0.262,0.054c-0.051,0.029-0.089,0.08-0.114,0.153
		c-0.027,0.073-0.032,0.153-0.017,0.24c0.008,0.036,0.012,0.068,0.012,0.093C47.07,43.448,47.077,43.472,47.091,43.494z"/>
	<path d="M57.562,47.44c0.013-0.061,0.029-0.122,0.043-0.18c0.029-0.095,0.048-0.19,0.055-0.289c0.007-0.098,0.022-0.198,0.043-0.3
		v-0.11c0.015-0.073,0.022-0.146,0.022-0.224c0-0.076,0.006-0.151,0.022-0.223v-0.122v-0.174c0.014-0.05,0.018-0.107,0.015-0.17
		c-0.003-0.062-0.005-0.122-0.005-0.179v-0.339c0-0.028,0-0.059,0-0.092c0-0.033-0.002-0.06-0.01-0.083
		c-0.016-0.042-0.017-0.092-0.006-0.147c0.011-0.053,0.009-0.103-0.006-0.147v-0.099c-0.007-0.035-0.01-0.075-0.005-0.114
		c0.002-0.04,0.001-0.078-0.005-0.115c-0.007-0.028-0.009-0.058-0.005-0.087s-0.001-0.063-0.017-0.098
		c-0.015-0.081-0.023-0.161-0.027-0.242c-0.004-0.08-0.017-0.159-0.039-0.239c-0.014-0.059-0.027-0.118-0.037-0.181
		c-0.012-0.061-0.025-0.122-0.039-0.18c-0.037-0.102-0.069-0.2-0.099-0.295c-0.029-0.094-0.062-0.185-0.098-0.273
		c-0.182-0.414-0.458-0.737-0.83-0.965c-0.371-0.23-0.859-0.337-1.461-0.323c-0.053,0.008-0.1,0.011-0.143,0.011
		s-0.091,0.004-0.142,0.012c-0.102,0.021-0.203,0.038-0.301,0.054c-0.098,0.014-0.195,0.041-0.289,0.076
		c-0.335,0.147-0.596,0.325-0.78,0.535c-0.185,0.211-0.348,0.485-0.486,0.819c-0.052,0.11-0.088,0.224-0.109,0.345
		c-0.022,0.119-0.051,0.241-0.088,0.365c-0.014,0.036-0.02,0.074-0.016,0.113c0.003,0.041-0.003,0.079-0.017,0.115
		c-0.007,0.074-0.014,0.145-0.022,0.213c-0.008,0.071-0.015,0.141-0.021,0.213l-0.032,0.459v0.207
		c-0.016,0.058-0.02,0.13-0.012,0.213c0.007,0.083,0.012,0.158,0.012,0.224c0,0.058-0.005,0.118-0.012,0.18s-0.003,0.118,0.012,0.17
		c0.013,0.036,0.017,0.072,0.01,0.109c-0.007,0.036-0.007,0.069,0,0.098c0.007,0.036,0.007,0.074,0,0.115
		c-0.007,0.04-0.004,0.079,0.011,0.113c0,0.038,0,0.075,0,0.116c0,0.04,0.003,0.078,0.011,0.115
		c0.007,0.029,0.009,0.057,0.004,0.086c-0.003,0.029-0.001,0.058,0.006,0.088c0.014,0.08,0.025,0.16,0.033,0.239
		c0.007,0.081,0.019,0.161,0.033,0.241c0.029,0.117,0.055,0.228,0.077,0.333c0.021,0.105,0.054,0.209,0.098,0.312
		c0.087,0.225,0.189,0.433,0.305,0.621c0.117,0.189,0.263,0.351,0.438,0.481c0.035,0.029,0.074,0.052,0.114,0.071
		c0.041,0.018,0.078,0.041,0.114,0.07c0.101,0.059,0.208,0.106,0.317,0.142c0.109,0.038,0.226,0.072,0.349,0.11
		c0.051,0.007,0.101,0.013,0.149,0.015c0.047,0.004,0.092,0.014,0.136,0.028h0.065c0.022,0.007,0.048,0.007,0.076,0
		c0.029-0.007,0.062-0.003,0.1,0.012c0.021,0.006,0.057,0.01,0.107,0.01c0.052,0,0.091-0.004,0.121-0.01
		c0.029-0.009,0.061-0.01,0.092-0.006c0.033,0.003,0.063,0.001,0.094-0.006c0.088-0.014,0.17-0.026,0.251-0.032
		c0.08-0.007,0.159-0.026,0.239-0.056c0.074-0.021,0.15-0.043,0.231-0.065c0.079-0.022,0.148-0.05,0.206-0.086
		c0.044-0.029,0.09-0.057,0.137-0.082c0.047-0.025,0.089-0.053,0.126-0.082c0.137-0.095,0.267-0.219,0.387-0.373
		c0.12-0.152,0.217-0.309,0.288-0.468c0.029-0.065,0.058-0.133,0.083-0.202c0.025-0.07,0.053-0.141,0.082-0.214
		C57.532,47.562,57.546,47.502,57.562,47.44z M56.765,46.364c-0.016,0.299-0.059,0.564-0.132,0.797
		c-0.013,0.059-0.026,0.114-0.038,0.164c-0.011,0.052-0.027,0.104-0.048,0.154c-0.051,0.124-0.103,0.229-0.153,0.316
		c-0.051,0.087-0.113,0.183-0.185,0.285c-0.045,0.042-0.081,0.072-0.11,0.087c-0.014,0.014-0.029,0.028-0.043,0.043
		c-0.015,0.014-0.033,0.029-0.055,0.043c-0.116,0.08-0.247,0.142-0.392,0.187c-0.044,0.013-0.091,0.023-0.143,0.027
		c-0.05,0.003-0.102,0.013-0.153,0.026c-0.042,0.016-0.103,0.019-0.179,0.011c-0.077-0.006-0.129-0.014-0.159-0.021
		c-0.037-0.014-0.067-0.02-0.092-0.016c-0.026,0.003-0.053-0.001-0.082-0.017c-0.233-0.073-0.426-0.183-0.578-0.328
		c-0.14-0.145-0.242-0.302-0.312-0.47c-0.069-0.167-0.132-0.36-0.191-0.578c-0.031-0.08-0.046-0.165-0.049-0.257
		c-0.004-0.09-0.016-0.179-0.039-0.267c-0.008-0.08-0.012-0.155-0.016-0.224c-0.004-0.069-0.009-0.141-0.017-0.212
		c-0.007-0.015-0.009-0.036-0.004-0.062c0.002-0.025,0.004-0.045,0.004-0.06v-0.196c-0.014-0.05-0.02-0.106-0.016-0.169
		c0.004-0.062,0.005-0.122,0.005-0.18v-0.327c0-0.038,0-0.07,0-0.099s0.004-0.054,0.011-0.076v-0.131
		c0-0.059,0.001-0.118,0.005-0.18c0.005-0.062,0.006-0.122,0.006-0.18c0.008-0.073,0.014-0.145,0.021-0.214
		c0.007-0.069,0.015-0.136,0.022-0.202c0.007-0.036,0.011-0.074,0.011-0.113c0-0.042,0.007-0.079,0.022-0.115
		c0.021-0.095,0.041-0.187,0.06-0.279c0.018-0.091,0.046-0.176,0.082-0.257c0.081-0.203,0.18-0.383,0.302-0.54
		c0.119-0.156,0.277-0.278,0.475-0.366c0.051-0.021,0.099-0.038,0.146-0.049c0.047-0.011,0.101-0.023,0.158-0.038
		c0.022-0.007,0.051-0.009,0.087-0.005c0.037,0.003,0.062-0.001,0.078-0.017c0.21,0,0.388,0.02,0.535,0.06
		c0.146,0.041,0.276,0.101,0.392,0.18c0.182,0.132,0.325,0.301,0.432,0.508c0.105,0.207,0.184,0.442,0.234,0.704
		s0.083,0.542,0.099,0.841c0.015,0.299,0.021,0.604,0.021,0.917C56.785,45.769,56.779,46.067,56.765,46.364z"/>
	<path d="M69.7,47.44c0.015-0.061,0.03-0.122,0.044-0.18c0.03-0.095,0.047-0.19,0.055-0.289c0.008-0.098,0.023-0.198,0.043-0.3
		v-0.11c0.015-0.073,0.022-0.146,0.022-0.224c0-0.076,0.007-0.151,0.022-0.223v-0.122v-0.174c0.014-0.05,0.02-0.107,0.016-0.17
		c-0.005-0.062-0.005-0.122-0.005-0.179v-0.339c0-0.028,0-0.059,0-0.092c0-0.033-0.004-0.06-0.011-0.083
		c-0.015-0.042-0.017-0.092-0.006-0.147c0.011-0.053,0.009-0.103-0.006-0.147v-0.099c-0.006-0.035-0.01-0.075-0.005-0.114
		c0.003-0.04,0.001-0.078-0.006-0.115c-0.007-0.028-0.009-0.058-0.005-0.087c0.004-0.029-0.002-0.063-0.018-0.098
		c-0.014-0.081-0.023-0.161-0.027-0.242c-0.003-0.08-0.017-0.159-0.039-0.239c-0.014-0.059-0.027-0.118-0.038-0.181
		c-0.01-0.061-0.024-0.122-0.039-0.18c-0.036-0.102-0.068-0.2-0.098-0.295c-0.027-0.094-0.06-0.185-0.098-0.273
		c-0.182-0.414-0.458-0.737-0.83-0.965c-0.371-0.23-0.858-0.337-1.461-0.323c-0.052,0.008-0.098,0.011-0.144,0.011
		c-0.042,0-0.09,0.004-0.141,0.012c-0.102,0.021-0.203,0.038-0.301,0.054c-0.099,0.014-0.194,0.041-0.29,0.076
		c-0.334,0.147-0.594,0.325-0.78,0.535c-0.185,0.211-0.347,0.485-0.486,0.819c-0.05,0.11-0.087,0.224-0.108,0.345
		c-0.021,0.119-0.052,0.241-0.086,0.365c-0.016,0.036-0.021,0.074-0.018,0.113c0.004,0.041-0.001,0.079-0.015,0.115
		c-0.008,0.074-0.015,0.145-0.023,0.213c-0.005,0.071-0.014,0.141-0.021,0.213l-0.033,0.459v0.207
		c-0.015,0.058-0.018,0.13-0.011,0.213c0.008,0.083,0.011,0.158,0.011,0.224c0,0.058-0.003,0.118-0.011,0.18
		c-0.006,0.062-0.004,0.118,0.011,0.17c0.016,0.036,0.018,0.072,0.012,0.109c-0.008,0.036-0.008,0.069,0,0.098
		c0.006,0.036,0.006,0.074,0,0.115c-0.008,0.04-0.005,0.079,0.009,0.113c0,0.038,0,0.075,0,0.116c0,0.04,0.004,0.078,0.012,0.115
		c0.007,0.029,0.009,0.057,0.006,0.086s-0.002,0.058,0.006,0.088c0.014,0.08,0.025,0.16,0.033,0.239
		c0.006,0.081,0.018,0.161,0.033,0.241c0.028,0.117,0.054,0.228,0.075,0.333c0.023,0.105,0.056,0.209,0.098,0.312
		c0.088,0.225,0.19,0.433,0.306,0.621c0.117,0.189,0.263,0.351,0.438,0.481c0.036,0.029,0.073,0.052,0.115,0.071
		c0.04,0.018,0.077,0.041,0.113,0.07c0.103,0.059,0.209,0.106,0.317,0.142c0.11,0.038,0.227,0.072,0.351,0.11
		c0.052,0.007,0.1,0.013,0.147,0.015c0.046,0.004,0.093,0.014,0.135,0.028h0.065c0.022,0.007,0.049,0.007,0.078,0
		c0.029-0.007,0.062-0.003,0.098,0.012c0.021,0.006,0.057,0.01,0.109,0.01c0.05,0,0.09-0.004,0.119-0.01
		c0.029-0.009,0.061-0.01,0.092-0.006c0.033,0.003,0.064,0.001,0.094-0.006c0.087-0.014,0.17-0.026,0.251-0.032
		c0.079-0.007,0.159-0.026,0.24-0.056c0.073-0.021,0.148-0.043,0.229-0.065c0.08-0.022,0.149-0.05,0.207-0.086
		c0.043-0.029,0.089-0.057,0.137-0.082c0.047-0.025,0.089-0.053,0.125-0.082c0.138-0.095,0.267-0.219,0.388-0.373
		c0.12-0.152,0.216-0.309,0.289-0.468c0.029-0.065,0.057-0.133,0.082-0.202c0.025-0.07,0.052-0.141,0.082-0.214
		C69.672,47.562,69.687,47.502,69.7,47.44z M68.903,46.364c-0.015,0.299-0.057,0.564-0.13,0.797
		c-0.014,0.059-0.027,0.114-0.039,0.164c-0.01,0.052-0.027,0.104-0.048,0.154c-0.051,0.124-0.102,0.229-0.153,0.316
		c-0.052,0.087-0.114,0.183-0.185,0.285c-0.045,0.042-0.081,0.072-0.11,0.087c-0.014,0.014-0.029,0.028-0.043,0.043
		c-0.015,0.014-0.032,0.029-0.056,0.043c-0.116,0.08-0.247,0.142-0.391,0.187c-0.045,0.013-0.092,0.023-0.144,0.027
		c-0.05,0.003-0.102,0.013-0.152,0.026c-0.045,0.016-0.104,0.019-0.18,0.011c-0.078-0.006-0.129-0.014-0.158-0.021
		c-0.037-0.014-0.068-0.02-0.093-0.016c-0.026,0.003-0.053-0.001-0.083-0.017c-0.231-0.073-0.424-0.183-0.578-0.328
		c-0.138-0.145-0.243-0.302-0.311-0.47c-0.07-0.167-0.133-0.36-0.191-0.578c-0.029-0.08-0.046-0.165-0.049-0.257
		c-0.004-0.09-0.016-0.179-0.039-0.267c-0.007-0.08-0.011-0.155-0.016-0.224c-0.003-0.069-0.009-0.141-0.016-0.212
		c-0.007-0.015-0.009-0.036-0.005-0.062c0.002-0.025,0.005-0.045,0.005-0.06v-0.196c-0.015-0.05-0.02-0.106-0.018-0.169
		c0.005-0.062,0.007-0.122,0.007-0.18v-0.327c0-0.038,0-0.07,0-0.099s0.003-0.054,0.011-0.076v-0.131
		c0-0.059,0.002-0.118,0.006-0.18c0.003-0.062,0.006-0.122,0.006-0.18c0.007-0.073,0.014-0.145,0.021-0.214
		c0.007-0.069,0.016-0.136,0.023-0.202c0.007-0.036,0.01-0.074,0.01-0.113c0-0.042,0.007-0.079,0.023-0.115
		c0.021-0.095,0.041-0.187,0.06-0.279c0.019-0.091,0.045-0.176,0.082-0.257c0.081-0.203,0.18-0.383,0.3-0.54
		c0.119-0.156,0.278-0.278,0.476-0.366c0.05-0.021,0.1-0.038,0.146-0.049c0.047-0.011,0.101-0.023,0.16-0.038
		c0.02-0.007,0.05-0.009,0.086-0.005c0.036,0.003,0.062-0.001,0.077-0.017c0.21,0,0.389,0.02,0.535,0.06
		c0.145,0.041,0.275,0.101,0.391,0.18c0.182,0.132,0.328,0.301,0.433,0.508c0.105,0.207,0.183,0.442,0.234,0.704
		c0.05,0.261,0.083,0.542,0.098,0.841c0.016,0.299,0.023,0.604,0.023,0.917C68.926,45.769,68.918,46.067,68.903,46.364z"/>
	<path d="M69.62,57.712v-3.576v-1.093c0-0.101,0-0.198,0-0.289s-0.022-0.165-0.066-0.224c-0.029-0.038-0.076-0.06-0.141-0.071
		s-0.134-0.017-0.208-0.017c-0.014,0.007-0.033,0.012-0.054,0.012c-0.022,0-0.041,0.004-0.055,0.011
		c-0.065,0.016-0.117,0.043-0.152,0.087c-0.044,0.065-0.078,0.142-0.104,0.23c-0.025,0.087-0.06,0.166-0.104,0.239
		c-0.066,0.102-0.135,0.196-0.208,0.284c-0.073,0.088-0.16,0.164-0.262,0.229c-0.095,0.057-0.193,0.106-0.294,0.146
		c-0.102,0.04-0.208,0.078-0.317,0.114c-0.043,0.016-0.087,0.025-0.131,0.027c-0.042,0.005-0.083,0.011-0.12,0.017
		c-0.08,0.022-0.178,0.032-0.294,0.032c-0.117,0-0.205,0.019-0.263,0.056c-0.051,0.028-0.089,0.081-0.115,0.153
		c-0.025,0.071-0.03,0.152-0.016,0.24c0.007,0.035,0.01,0.067,0.01,0.092c0,0.025,0.009,0.05,0.023,0.07
		c0.042,0.081,0.123,0.123,0.24,0.127c0.117,0.003,0.236,0.005,0.36,0.005h0.83c0.087,0,0.17,0.003,0.247,0.007
		c0.076,0.004,0.14,0.022,0.19,0.059c0.043,0.036,0.066,0.079,0.071,0.126c0.003,0.048,0.012,0.104,0.027,0.169v3.495
		C69.025,58.229,69.327,57.976,69.62,57.712z"/>
	<path d="M51.809,53.998c0.105,0.208,0.183,0.443,0.234,0.705c0.05,0.262,0.083,0.542,0.098,0.841
		c0.015,0.268,0.02,0.544,0.021,0.823h0.973v-0.245c0-0.03,0-0.061,0-0.093c0-0.034-0.003-0.061-0.01-0.083
		c-0.015-0.043-0.017-0.092-0.006-0.146c0.011-0.055,0.009-0.104-0.006-0.147v-0.099c-0.005-0.036-0.009-0.073-0.004-0.115
		c0.003-0.039,0.001-0.077-0.006-0.114c-0.007-0.028-0.009-0.057-0.004-0.086c0.004-0.03-0.002-0.063-0.017-0.099
		c-0.014-0.08-0.023-0.16-0.027-0.241c-0.003-0.079-0.017-0.158-0.039-0.238C53,54.6,52.987,54.541,52.977,54.479
		c-0.012-0.062-0.024-0.122-0.039-0.181c-0.036-0.101-0.069-0.201-0.098-0.293c-0.029-0.096-0.062-0.187-0.098-0.274
		c-0.182-0.414-0.458-0.736-0.83-0.965c-0.371-0.229-0.858-0.339-1.461-0.323c-0.052,0.007-0.098,0.012-0.144,0.012
		c-0.042,0-0.091,0.004-0.141,0.011c-0.102,0.022-0.203,0.04-0.301,0.055c-0.099,0.015-0.194,0.039-0.29,0.076
		c-0.334,0.146-0.594,0.323-0.78,0.535c-0.185,0.212-0.347,0.483-0.486,0.818c-0.051,0.11-0.087,0.223-0.108,0.345
		c-0.023,0.119-0.052,0.242-0.088,0.366c-0.014,0.036-0.02,0.073-0.017,0.113c0.004,0.041-0.002,0.079-0.017,0.114
		c-0.006,0.072-0.014,0.145-0.022,0.214c-0.005,0.068-0.014,0.141-0.021,0.213l-0.033,0.459v0.207
		c-0.015,0.059-0.017,0.129-0.011,0.212c0.006,0.065,0.007,0.121,0.009,0.175h0.963V56.11c0-0.035,0-0.067,0-0.099
		c0-0.027,0.003-0.054,0.01-0.075v-0.131c0-0.06,0.001-0.118,0.006-0.181c0.003-0.062,0.004-0.122,0.004-0.18
		c0.008-0.074,0.014-0.143,0.022-0.212c0.007-0.069,0.016-0.139,0.023-0.203c0.006-0.036,0.01-0.074,0.01-0.115
		c0-0.04,0.007-0.077,0.023-0.115c0.021-0.093,0.041-0.187,0.059-0.278c0.018-0.09,0.045-0.176,0.082-0.256
		c0.081-0.202,0.18-0.383,0.301-0.542c0.119-0.154,0.279-0.276,0.476-0.364c0.05-0.021,0.098-0.037,0.146-0.049
		c0.047-0.012,0.101-0.024,0.16-0.039c0.02-0.006,0.05-0.008,0.086-0.005c0.036,0.004,0.062-0.001,0.077-0.016
		c0.21,0,0.389,0.02,0.535,0.06c0.145,0.039,0.275,0.101,0.391,0.18C51.558,53.622,51.704,53.79,51.809,53.998z"/>
	<path d="M45.376,47.62c0.015-0.058,0.029-0.118,0.044-0.18c0.014-0.061,0.029-0.122,0.043-0.18c0.029-0.095,0.048-0.19,0.055-0.289
		c0.007-0.098,0.022-0.198,0.043-0.3v-0.11c0.015-0.073,0.022-0.146,0.022-0.224c0-0.076,0.007-0.151,0.022-0.223v-0.122v-0.174
		c0.014-0.05,0.019-0.107,0.015-0.17c-0.003-0.062-0.004-0.122-0.004-0.179v-0.339c0-0.028,0-0.059,0-0.092
		c0-0.033-0.004-0.06-0.011-0.083c-0.015-0.042-0.016-0.092-0.006-0.147c0.011-0.053,0.01-0.103-0.006-0.147v-0.099
		c-0.007-0.035-0.009-0.075-0.004-0.114c0.002-0.04,0.001-0.078-0.006-0.115c-0.007-0.028-0.01-0.058-0.006-0.087
		c0.005-0.029-0.001-0.063-0.017-0.098c-0.014-0.081-0.024-0.161-0.026-0.242c-0.004-0.08-0.017-0.159-0.04-0.239
		c-0.014-0.059-0.026-0.118-0.037-0.181c-0.013-0.061-0.024-0.122-0.039-0.18c-0.037-0.102-0.069-0.2-0.099-0.295
		c-0.029-0.094-0.062-0.185-0.098-0.273c-0.181-0.414-0.458-0.737-0.83-0.965c-0.372-0.23-0.86-0.337-1.463-0.323
		c-0.052,0.008-0.098,0.011-0.142,0.011s-0.091,0.004-0.142,0.012c-0.102,0.021-0.203,0.038-0.301,0.054
		c-0.076,0.011-0.151,0.035-0.225,0.06c-0.097,0.433-0.18,0.87-0.243,1.313c0.035-0.056,0.069-0.115,0.109-0.166
		c0.12-0.156,0.277-0.278,0.474-0.366c0.051-0.021,0.099-0.038,0.147-0.049c0.046-0.011,0.101-0.023,0.158-0.038
		c0.022-0.007,0.051-0.009,0.088-0.005c0.036,0.003,0.062-0.001,0.076-0.017c0.211,0,0.39,0.02,0.535,0.06
		c0.145,0.041,0.278,0.101,0.394,0.18c0.181,0.132,0.325,0.301,0.431,0.508c0.104,0.207,0.185,0.442,0.234,0.704
		c0.051,0.261,0.083,0.542,0.098,0.841c0.016,0.299,0.021,0.604,0.021,0.917c0,0.299-0.006,0.597-0.021,0.894
		c-0.015,0.299-0.058,0.564-0.131,0.797c-0.014,0.059-0.027,0.114-0.039,0.164c-0.01,0.052-0.026,0.104-0.049,0.154
		c-0.05,0.124-0.102,0.229-0.152,0.316c-0.052,0.087-0.114,0.183-0.187,0.285c-0.043,0.042-0.08,0.072-0.108,0.087
		c-0.014,0.014-0.029,0.028-0.044,0.043c-0.015,0.014-0.033,0.029-0.054,0.043c-0.116,0.08-0.249,0.142-0.394,0.187
		c-0.043,0.013-0.091,0.023-0.141,0.027c-0.051,0.003-0.103,0.013-0.154,0.026c-0.043,0.016-0.104,0.019-0.18,0.011
		c-0.077-0.006-0.129-0.014-0.158-0.021c-0.036-0.014-0.067-0.02-0.092-0.016c-0.026,0.003-0.054-0.001-0.083-0.017
		c-0.233-0.073-0.426-0.183-0.578-0.328c-0.062-0.063-0.112-0.131-0.16-0.198c0.067,0.417,0.148,0.831,0.246,1.236
		c0.078,0.025,0.156,0.051,0.24,0.077c0.052,0.007,0.101,0.013,0.149,0.015c0.046,0.004,0.092,0.014,0.135,0.028h0.066
		c0.022,0.007,0.047,0.007,0.076,0c0.029-0.007,0.062-0.003,0.098,0.012c0.022,0.006,0.058,0.01,0.108,0.01s0.092-0.004,0.121-0.01
		c0.029-0.009,0.061-0.01,0.092-0.006c0.033,0.003,0.063,0.001,0.094-0.006c0.086-0.014,0.17-0.026,0.251-0.032
		c0.081-0.007,0.159-0.026,0.239-0.056c0.074-0.021,0.15-0.043,0.229-0.065c0.081-0.022,0.149-0.05,0.208-0.086
		c0.044-0.029,0.089-0.057,0.137-0.082c0.047-0.025,0.089-0.053,0.125-0.082c0.138-0.095,0.269-0.219,0.389-0.373
		c0.12-0.152,0.217-0.309,0.288-0.468c0.03-0.065,0.058-0.133,0.083-0.202C45.321,47.764,45.349,47.693,45.376,47.62z"/>
	<path d="M46.131,38.175c0.052,0.007,0.1,0.013,0.148,0.017c0.047,0.003,0.092,0.012,0.136,0.026h0.065
		c0.022,0.008,0.048,0.008,0.077,0c0.03-0.007,0.063-0.003,0.099,0.012c0.021,0.006,0.058,0.011,0.109,0.011
		c0.05,0,0.09-0.004,0.12-0.011c0.029-0.007,0.061-0.009,0.092-0.005c0.033,0.003,0.064,0.001,0.095-0.006
		c0.086-0.015,0.169-0.025,0.25-0.032c0.08-0.007,0.159-0.025,0.24-0.054c0.073-0.021,0.148-0.044,0.229-0.065
		c0.08-0.023,0.148-0.051,0.208-0.088c0.044-0.028,0.088-0.056,0.137-0.082c0.046-0.025,0.089-0.052,0.125-0.082
		c0.138-0.095,0.267-0.218,0.387-0.371c0.12-0.152,0.217-0.309,0.289-0.47c0.029-0.064,0.058-0.131,0.082-0.201
		c0.026-0.069,0.053-0.141,0.083-0.213c0.015-0.058,0.029-0.118,0.045-0.18c0.014-0.063,0.027-0.122,0.042-0.181
		c0.029-0.094,0.047-0.191,0.055-0.289c0.006-0.098,0.021-0.198,0.042-0.3V35.5c0.016-0.072,0.023-0.147,0.023-0.223
		c0-0.077,0.005-0.152,0.021-0.225v-0.119v-0.176c0.013-0.05,0.02-0.107,0.016-0.169c-0.004-0.063-0.004-0.122-0.004-0.18V34.07
		c0-0.029,0-0.06,0-0.092s-0.005-0.061-0.012-0.082c-0.016-0.044-0.017-0.093-0.006-0.148c0.012-0.055,0.01-0.104-0.006-0.147
		v-0.099c-0.005-0.036-0.009-0.075-0.005-0.115c0.004-0.041,0.001-0.078-0.004-0.114c-0.008-0.029-0.009-0.058-0.006-0.087
		c0.003-0.028-0.002-0.062-0.018-0.098c-0.015-0.081-0.023-0.16-0.027-0.241c-0.004-0.081-0.016-0.16-0.038-0.24
		c-0.015-0.059-0.028-0.118-0.038-0.181c-0.011-0.061-0.023-0.122-0.037-0.18c-0.038-0.101-0.071-0.2-0.099-0.294
		c-0.03-0.095-0.063-0.187-0.1-0.273c-0.021-0.048-0.047-0.089-0.07-0.135c-0.268,0.188-0.53,0.382-0.787,0.585
		c0.066,0.161,0.122,0.331,0.159,0.52c0.051,0.263,0.084,0.543,0.098,0.842c0.015,0.299,0.022,0.604,0.022,0.917
		c0,0.299-0.007,0.597-0.022,0.896c-0.014,0.298-0.057,0.564-0.131,0.797c-0.014,0.058-0.027,0.113-0.038,0.163
		c-0.01,0.051-0.027,0.102-0.049,0.152c-0.05,0.125-0.102,0.229-0.153,0.317c-0.051,0.086-0.112,0.182-0.185,0.283
		c-0.044,0.044-0.081,0.073-0.109,0.088c-0.014,0.014-0.028,0.029-0.042,0.043c-0.015,0.015-0.033,0.03-0.056,0.044
		c-0.116,0.081-0.247,0.142-0.392,0.185c-0.044,0.015-0.091,0.023-0.143,0.028c-0.05,0.003-0.102,0.012-0.153,0.027
		c-0.043,0.015-0.103,0.018-0.18,0.011c-0.075-0.007-0.128-0.014-0.158-0.021c-0.037-0.014-0.068-0.021-0.092-0.016
		c-0.027,0.003-0.054-0.002-0.083-0.016c-0.231-0.073-0.425-0.182-0.578-0.328c-0.138-0.146-0.242-0.302-0.31-0.469
		c-0.071-0.168-0.134-0.36-0.192-0.579c-0.029-0.08-0.045-0.166-0.049-0.257c-0.003-0.09-0.016-0.18-0.039-0.267
		c-0.006-0.08-0.012-0.154-0.015-0.224c-0.004-0.062-0.009-0.126-0.016-0.19c-0.288,0.374-0.562,0.759-0.817,1.157
		c0.009,0.045,0.021,0.092,0.03,0.135c0.022,0.105,0.055,0.21,0.098,0.312c0.087,0.226,0.188,0.434,0.305,0.623
		c0.118,0.189,0.262,0.349,0.437,0.479c0.037,0.03,0.075,0.054,0.115,0.071c0.039,0.019,0.077,0.041,0.114,0.071
		c0.102,0.059,0.207,0.106,0.316,0.142C45.892,38.103,46.007,38.138,46.131,38.175z"/>
	<path d="M53.686,32.77l-0.905,1.436v2.606v0.797c0,0.073,0,0.143,0,0.212c0,0.069,0.014,0.126,0.043,0.17
		c0.029,0.044,0.066,0.071,0.108,0.082c0.044,0.011,0.095,0.024,0.153,0.039h0.163c0.095,0,0.176-0.006,0.247-0.018
		c0.069-0.01,0.122-0.045,0.158-0.103c0.029-0.044,0.042-0.103,0.039-0.18c-0.005-0.077-0.006-0.151-0.006-0.225v-0.851V32.77z"/>
	<path d="M71.044,38.241c0.05,0,0.092-0.004,0.12-0.011c0.029-0.007,0.062-0.009,0.093-0.005c0.032,0.003,0.063,0.001,0.094-0.006
		c0.086-0.015,0.17-0.025,0.25-0.032c0.08-0.007,0.159-0.025,0.24-0.054c0.073-0.021,0.15-0.044,0.229-0.065
		c0.079-0.023,0.149-0.051,0.207-0.088c0.044-0.028,0.089-0.056,0.137-0.082c0.047-0.025,0.089-0.052,0.125-0.082
		c0.138-0.095,0.267-0.218,0.389-0.371c0.065-0.083,0.123-0.169,0.175-0.256c-0.195-0.353-0.4-0.699-0.619-1.035
		c-0.009,0.039-0.019,0.078-0.027,0.112c-0.011,0.051-0.027,0.102-0.049,0.152c-0.05,0.125-0.102,0.229-0.152,0.317
		c-0.052,0.086-0.114,0.182-0.186,0.283c-0.043,0.044-0.08,0.073-0.109,0.088c-0.014,0.014-0.029,0.029-0.042,0.043
		c-0.016,0.015-0.034,0.03-0.056,0.044c-0.116,0.081-0.248,0.142-0.393,0.185c-0.044,0.015-0.09,0.023-0.142,0.028
		c-0.051,0.003-0.102,0.012-0.153,0.027c-0.043,0.015-0.104,0.018-0.179,0.011c-0.077-0.007-0.13-0.014-0.159-0.021
		c-0.036-0.014-0.066-0.021-0.093-0.016c-0.025,0.003-0.054-0.002-0.082-0.016c-0.232-0.073-0.426-0.182-0.578-0.328
		c-0.14-0.146-0.244-0.302-0.311-0.469c-0.07-0.168-0.134-0.36-0.191-0.579c-0.031-0.08-0.046-0.166-0.05-0.257
		c-0.004-0.09-0.016-0.18-0.039-0.267c-0.008-0.08-0.012-0.154-0.016-0.224c-0.003-0.069-0.009-0.141-0.017-0.213
		c-0.006-0.014-0.008-0.034-0.005-0.06c0.004-0.025,0.005-0.046,0.005-0.059v-0.197c-0.015-0.051-0.02-0.107-0.016-0.169
		c0.004-0.061,0.006-0.122,0.006-0.18v-0.426c0-0.029,0.003-0.054,0.009-0.076v-0.131c0-0.058,0.002-0.118,0.005-0.181
		c0.003-0.061,0.006-0.121,0.006-0.179c0.007-0.073,0.014-0.144,0.021-0.213c0.008-0.07,0.015-0.137,0.022-0.203
		c0.006-0.035,0.011-0.074,0.011-0.114s0.007-0.077,0.022-0.114c0-0.001,0-0.002,0-0.003c-0.262-0.233-0.534-0.456-0.811-0.672
		c-0.018,0.056-0.042,0.109-0.052,0.167c-0.022,0.121-0.052,0.243-0.088,0.367c-0.015,0.036-0.019,0.075-0.016,0.115
		c0.003,0.039-0.002,0.077-0.017,0.115c-0.007,0.073-0.015,0.143-0.022,0.212c-0.007,0.07-0.014,0.14-0.022,0.213l-0.033,0.459
		v0.207c-0.015,0.06-0.018,0.13-0.011,0.214c0.007,0.084,0.011,0.157,0.011,0.224c0,0.058-0.004,0.118-0.011,0.18
		c-0.007,0.062-0.004,0.118,0.011,0.169c0.015,0.037,0.019,0.073,0.012,0.109c-0.007,0.037-0.007,0.069,0,0.098
		c0.007,0.037,0.007,0.075,0,0.115c-0.007,0.041-0.003,0.079,0.011,0.115v0.115c0,0.04,0.003,0.078,0.01,0.114
		c0.008,0.029,0.01,0.059,0.006,0.088c-0.004,0.028-0.001,0.057,0.005,0.086c0.015,0.08,0.026,0.161,0.033,0.241
		c0.007,0.08,0.018,0.16,0.033,0.241c0.029,0.116,0.056,0.227,0.077,0.332c0.022,0.105,0.055,0.21,0.099,0.312
		c0.086,0.226,0.189,0.434,0.305,0.623c0.117,0.189,0.262,0.349,0.437,0.479c0.036,0.03,0.074,0.054,0.114,0.071
		c0.041,0.019,0.078,0.041,0.114,0.071c0.103,0.059,0.209,0.106,0.317,0.142c0.109,0.037,0.225,0.072,0.349,0.109
		c0.052,0.007,0.101,0.013,0.149,0.017c0.047,0.003,0.093,0.012,0.135,0.026h0.066c0.022,0.008,0.047,0.008,0.076,0
		c0.029-0.007,0.062-0.003,0.098,0.012C70.958,38.236,70.994,38.241,71.044,38.241z"/>
	<path d="M70.837,44.954c0.006-0.004,0.013-0.006,0.02-0.011l-0.02-0.034V44.954z"/>
	<path d="M72.339,42.735c0.119-0.156,0.277-0.278,0.473-0.366c0.052-0.021,0.1-0.038,0.148-0.049
		c0.047-0.011,0.101-0.023,0.158-0.038c0.022-0.007,0.051-0.009,0.087-0.005c0.037,0.003,0.062-0.001,0.077-0.017
		c0.21,0,0.388,0.02,0.535,0.06c0.145,0.041,0.276,0.101,0.394,0.18c0.181,0.132,0.324,0.301,0.431,0.508
		c0.031,0.059,0.053,0.126,0.079,0.19h0.341c-0.057-0.459-0.135-0.912-0.229-1.359c-0.029-0.021-0.056-0.045-0.087-0.064
		c-0.372-0.23-0.859-0.337-1.463-0.323c-0.052,0.008-0.099,0.011-0.142,0.011c-0.043,0-0.091,0.004-0.142,0.012
		c-0.102,0.021-0.202,0.038-0.301,0.054c-0.098,0.014-0.195,0.041-0.289,0.076c-0.335,0.147-0.596,0.325-0.78,0.535
		c-0.186,0.211-0.348,0.485-0.487,0.819c-0.035,0.076-0.054,0.158-0.075,0.239h1.007C72.148,43.027,72.233,42.87,72.339,42.735z"/>
	<polygon points="37.767,11.268 38.054,11.729 37.916,11.371 37.654,11.018 37.736,11.217 	"/>
	<polygon points="33.694,14.223 33.277,14.231 32.4,14.251 33.385,14.249 	"/>
	<polygon points="35.759,14.236 35.153,14.177 34.855,14.228 35.152,14.226 	"/>
	<polygon points="38.376,14.12 38.999,14.111 38.566,14.035 38.066,14.084 38.309,14.12 	"/>
	<path d="M54.938,13.848l1.633-0.006l0.024,0l0.012,0.023h-0.022l-0.839,0.001l-0.014,0.043h0.854h0.042l0.023,0.045l-0.08-0.001
		l-0.851,0l-0.016,0.053l-2.491,6.154l0.014,0.007c-0.058,0.141-0.102,0.244-0.146,0.344c-0.067,0.154-0.13,0.3-0.233,0.563
		l0.012,0.005l-0.106,0.252c0.151,0.211,0.313,0.442,0.466,0.66c0.237,0.336,0.451,0.642,0.565,0.793l-0.012,0.01l0.479,0.661
		l-0.023,0.016c0.016,0.022,0.033,0.046,0.05,0.07c0.043,0.029,0.079,0.076,0.127,0.14l0.156,0.253
		c0.005,0.007,0.009,0.014,0.015,0.02l0.025-0.018l0.967,1.352l0.045-0.079l0.789-1.425l0.007-0.01l0.752-1.322l0.658-1.158
		l1.751-2.786l0.169-0.258l0.26-0.481l0.736-1.236l0.802-1.472l0.738-1.265l0.326-0.56l0.215-0.369l0.126-0.253l0.113-0.22
		l0.705-1.378l0.489-0.875l0.173-0.31l0.259-0.477l-0.156,0.169l-0.316,0.376l-0.077,0.105l-0.584,0.875l-0.153,0.267l-0.744,1.313
		l-0.713,1.224l-0.198,0.337l0.061-0.108l-1.223,0.022l-0.959-0.028l-0.742-0.032l-0.606-0.021l-1.023,0.007l-0.005-0.012
		l-0.01-0.011l1.01-0.006l-0.053-0.057l-0.995,0.017l-0.064-0.077l-0.155,0.018c-0.025,0.003-0.05,0.007-0.077,0.008l-0.347,0.015
		l0.023,0.047l-0.101,0.002l-1.739,0.019l-1.579-0.001l-0.203,0.003l0.257,0.008L54.938,13.848z M58.245,13.898l1.376,0.052
		l0.025,0.001l-1.62,0.029L57.3,13.967l-0.03-0.063L58.245,13.898z"/>
	<polygon points="76.779,52.542 77.477,53.732 77.567,53.886 77.461,53.687 76.707,52.377 75.98,51.148 75.236,49.89 75.216,49.956 
		75.996,51.235 	"/>
	<polygon points="82.92,68.561 83.666,69.82 83.685,69.753 82.904,68.473 82.122,67.168 81.425,65.974 81.334,65.823 81.44,66.023 
		82.195,67.332 	"/>
	<path d="M83.913,70.317l-0.25-0.468l-0.754-1.27l-0.723-1.23l-0.743-1.259l-0.854-1.387l-0.004-0.013l-0.781-1.308L79.8,63.379
		l-0.213-0.372l0.228,0.37l0.159,0.181l-0.089-0.165l-0.828-1.377l-0.313-0.489l-0.791-1.389l-0.773-1.358l-0.058-0.171l-0.715-1.25
		l-0.433-0.693l-1.227-2.153c-0.009,0.017-0.02,0.032-0.03,0.048l-0.262-0.446l-0.213-0.368l-0.161-0.234l-0.137-0.207l-0.851-1.292
		l-0.522-0.857l-0.184-0.301l-0.287-0.462l0.069,0.22l0.172,0.46l0.054,0.119l0.473,0.937l0.158,0.266l0.776,1.296l0.708,1.207
		c-3.3,5.517-9.32,9.22-16.217,9.22c-3.771,0-7.271-1.122-10.218-3.027l1.903-3.44l0.353-0.023l0.36,0.009l0.357,0.034l0.078,0.008
		l0.349-0.071l0.007-0.024v-0.009l-0.374-0.017l-0.38,0.001l-0.134-0.024h0.134l0.384-0.004l0.389-0.01l0.324,0.028l0.358,0.026
		l0.216,0.017l0.175-0.041l0.44-0.031l0.427-0.018l0.316-0.032l-0.291-0.016l-0.442,0.03l-0.181,0.013l-0.271,0.027l-0.418,0.021
		l-0.331-0.024l-0.174-0.019l-0.143-0.013l-0.397,0.012l-0.383,0.005l-0.392,0.008l-0.291,0.021l0.042-0.075l-2.159,0.038
		l-0.297-0.005l-0.166,0.014l-8.422,0.152l-5.573,0.104l-0.165-0.034l-0.083-0.001h-0.405l-0.379-0.011l-0.361-0.015l-0.329-0.03
		l-0.349-0.02l-0.405,0.011l-0.444,0.03l-0.438,0.015l-0.416,0.01h-0.05l-0.336,0.01l-0.396,0.013l-0.359-0.023l-0.355-0.046
		l-0.078-0.013l-0.352,0.059l-0.008,0.023v0.011l0.373,0.03l0.381,0.012l0.133,0.031l-0.134-0.004l-0.383-0.012l-0.389-0.006
		l-0.323-0.04l-0.357-0.041l-0.214-0.024l-0.177,0.034l-0.441,0.016l-0.427,0.001l-0.317,0.02l0.291,0.026l0.444-0.015l0.18-0.007
		l0.273-0.014l0.417-0.005l0.329,0.036l0.174,0.026l0.142,0.017l0.396,0.005l0.384,0.01l0.163,0.003l-0.341,0.005l-0.204-0.004
		l-0.392-0.004l0.012,0.038l0.257-0.006l5.685,9.444l5.608,9.312l-0.146,0.216l-0.124,0.177l-0.053,0.173l-0.194,0.396l-0.2,0.377
		l-0.132,0.289l0.161-0.243l0.196-0.399l0.08-0.161l0.115-0.248l0.192-0.37l0.123-0.178l0.074,0.122l1.957-3.538l0.174-0.286
		l0.096-0.202l0.09-0.162c0.938,0.571,1.62,0.932,1.62,0.932c4.466,2.37,9.556,3.721,14.964,3.721
		c9.278,0,17.628-3.948,23.477-10.253l0.184,0.326l0.625,1.166l0.138,0.262l0.736,1.071l0.047,0.014l0.011-0.007l-0.005-0.009
		l-0.675-1.205l-0.712-1.224l-0.219-0.445l0.249,0.427l0.721,1.232l0.741,1.25l0.569,1.06l0.562,1.028
		c0.01-0.009,0.021-0.016,0.03-0.024l-0.557-1.023L83.913,70.317z"/>
	<polygon points="55.013,26.333 55.708,25.141 55.795,24.984 55.675,25.177 54.907,26.477 54.194,27.713 53.463,28.98 
		53.533,28.967 54.263,27.658 	"/>
	<polygon points="67.394,9.622 67.267,9.848 66.999,10.304 67.302,9.867 	"/>
	<polygon points="65.702,12.827 65.945,12.529 66.123,12.128 65.99,12.298 65.961,12.349 	"/>
	<path d="M61.544,19.841l-0.733,1.334l-0.293,0.518c0.004,0.003,0.008,0.006,0.013,0.008l0.384-0.669l0.697-1.246l0.713-1.278
		l-0.068,0.016L61.544,19.841z"/>
	<polygon points="24.425,57.728 24.657,57.732 24.729,57.718 24.629,57.72 	"/>
	<polygon points="25.001,57.731 25.07,57.731 25.212,57.74 25.071,57.699 	"/>
	<polygon points="25.812,57.687 25.829,57.687 25.973,57.684 25.875,57.633 25.756,57.66 	"/>
	<polygon points="54.521,57.482 54.621,57.477 54.824,57.462 54.593,57.466 	"/>
	<polygon points="54.037,57.479 54.179,57.515 54.248,57.48 54.179,57.482 	"/>
	<polygon points="53.423,57.558 53.279,57.566 53.379,57.612 53.497,57.58 53.439,57.556 	"/>
	<polygon points="50.678,57.475 50.308,57.478 50.262,57.48 50.322,57.486 50.727,57.489 51.111,57.482 51.503,57.473 51.49,57.437 
		51.088,57.46 	"/>
	<polygon points="37.924,79.181 38.037,78.979 38.058,78.907 38.015,78.996 	"/>
	<polygon points="38.199,78.674 38.23,78.613 38.306,78.492 38.204,78.596 	"/>
	<polygon points="38.614,77.794 38.523,77.858 38.491,77.976 38.54,77.937 38.548,77.922 	"/>
	<polygon points="23.741,54.607 23.723,54.679 23.941,54.761 24.115,54.729 24.273,54.695 24.387,54.672 24.176,54.63 	"/>
	<polygon points="25.437,54.772 25.105,54.798 25.407,54.794 25.45,54.783 25.534,54.772 	"/>
	<polygon points="26.197,54.756 26.27,54.756 26.282,54.741 26.197,54.722 25.509,54.746 25.516,54.748 	"/>
	<path d="M28.794,45.079c0.005,0.001,0.008,0.001,0.01,0.001c0.096,0,0.174,0.026,0.292,0.09l0.173,0.054v0.083
		c0.02-0.005,0.039-0.011,0.06-0.011l0.307,0.048l-0.012,0.037c0.01,0.004,0.021,0.008,0.034,0.012l-0.005,0.017
		c0.018,0.01,0.035,0.02,0.053,0.03c0.104,0.057,0.219,0.122,0.357,0.162l-0.011,0.044c0.102,0.037,0.174,0.065,0.22,0.13
		c0.007,0.002,0.014,0.003,0.02,0.004c0.077-0.003,0.132,0.015,0.311,0.1l0.011-0.02c0.103,0.05,0.187,0.084,0.269,0.118
		c0.05,0.021,0.099,0.041,0.151,0.063c0.013,0.001,0.026,0.003,0.042,0.007l0.2-0.17c-0.016-0.031-0.033-0.069-0.053-0.117
		l0.021-0.014c-0.014-0.031-0.024-0.047-0.037-0.064h-0.011l-0.03-0.066c-0.016-0.03-0.032-0.065-0.05-0.113l-0.01-0.031
		l-0.002-0.005l0.015-0.004c-0.056-0.106-0.073-0.128-0.131-0.202l-0.522-0.677l0.225,0.083c-0.069-0.091-0.131-0.245-0.222-0.472
		l-0.051-0.124l0.014-0.005c-0.11-0.204-0.194-0.417-0.276-0.624c-0.045-0.116-0.091-0.23-0.14-0.343l-0.034-0.075L30,42.964
		c-0.016-0.019-0.032-0.036-0.054-0.058c-0.056-0.057-0.132-0.135-0.192-0.276l0.019-0.013c-0.137-0.296-0.195-0.441-0.305-0.709
		l-0.1-0.243l-0.057-0.146c-0.006-0.051-0.045-0.151-0.094-0.258c-0.109,0.068-0.216,0.134-0.32,0.199
		c-0.232,0.143-0.454,0.281-0.666,0.418c0.036,0.17,0.073,0.315,0.109,0.46c0.07,0.28,0.143,0.57,0.216,1.042l-0.025,0.004
		L28.794,45.079z"/>
	<path d="M28.231,41.192c0.05-0.021,0.084-0.034,0.115-0.042c0.145-0.092,0.311-0.191,0.486-0.292
		c0.027-0.036,0.072-0.074,0.139-0.12c-0.033-0.072-0.059-0.146-0.088-0.22l-0.02,0.01l-0.077-0.149l0.033-0.018
		c0-0.003-0.002-0.006-0.003-0.008l-0.048,0l-0.097-0.225c-0.089-0.199-0.145-0.333-0.143-0.454
		c-0.03-0.056-0.061-0.117-0.078-0.167l0.134-0.131l-0.213,0.067c-0.066-0.182-0.158-0.396-0.247-0.604
		c-0.132-0.307-0.256-0.597-0.3-0.787c-0.056-0.101-0.127-0.236-0.198-0.369c-0.001-0.002-0.002-0.005-0.004-0.008
		c0.113,0.691,0.218,1.388,0.323,2.084c0.072,0.478,0.145,0.957,0.219,1.433l-0.001,0.051C28.186,41.225,28.201,41.21,28.231,41.192
		z"/>
	<path d="M28.738,49.382l-0.007-0.118l-0.05-0.235l-0.116,0.099c-0.007,0.006-0.015,0.012-0.023,0.017L28.738,49.382z"/>
	<path d="M29.181,47.632c0.394-0.317,0.856-0.704,1.299-1.079l-0.171-0.06l-0.002-0.043c-0.039-0.023-0.078-0.05-0.108-0.085
		c-0.15-0.066-0.286-0.11-0.427-0.157c-0.12-0.04-0.242-0.08-0.375-0.133l-0.021-0.008l0.004-0.018
		c-0.146-0.066-0.242-0.087-0.354-0.112l0.001-0.027c-0.061-0.025-0.082-0.03-0.108-0.036L29.093,47l-0.027-0.014L29.181,47.632z"/>
	<path d="M32.761,47.604c0.057-0.025,0.116-0.054,0.177-0.083c-0.09-0.035-0.182-0.072-0.273-0.114L32.761,47.604z"/>
	<path d="M29.055,53.942l-0.063-0.001c-0.051,0.018-0.188,0.065-0.488,0.18c-0.016,0.026-0.253,0.097-0.287,0.121
		c0.072-0.008,0.365-0.064,0.454-0.074l0.055-0.008h0.005l0,0.004c0.219-0.031,0.452-0.063,0.689-0.095
		c-0.003-0.04-0.002-0.064,0-0.092c0.001-0.016-0.003-0.061-0.016-0.135c-0.043,0.018-0.088,0.035-0.133,0.053
		C29.158,53.932,29.104,53.942,29.055,53.942z"/>
	<path d="M30.327,48.755c0.585-0.269,0.888-0.42,1.195-0.575c0.173-0.087,0.349-0.174,0.577-0.285
		c-0.022-0.056-0.039-0.103-0.045-0.147c-0.016-0.037-0.027-0.07-0.042-0.113c-0.016-0.025-0.042-0.075-0.063-0.135l0.049-0.024
		l-0.038,0.014c-0.05-0.139-0.166-0.324-0.25-0.458l-0.047-0.075c-0.015-0.005-0.03-0.009-0.044-0.012h-0.006
		c-0.067,0-0.126-0.025-0.2-0.061l0.011-0.03c-0.023-0.012-0.049-0.025-0.093-0.045l-0.245,0.204
		c-0.613,0.507-1.205,0.997-1.783,1.487c0.025,0.19,0.057,0.408,0.093,0.645c0.288-0.148,0.725-0.338,0.923-0.407L30.327,48.755z"/>
	<path d="M34.036,40.651c0.009,0.032,0.022,0.079,0.042,0.145c0.148,0.419,0.188,0.507,0.225,0.587
		c0.039,0.085,0.076,0.162,0.219,0.582c0.219,0.231,0.435,0.458,0.65,0.682c0.541-0.449,1.105-0.921,1.802-1.54
		c0.126-0.099,0.178-0.14,0.241-0.15l0.314-0.275l-0.936-1.5l-0.006,0.003l-0.158-0.266l0.008-0.005
		c-0.112-0.2-0.243-0.423-0.39-0.666l-0.056,0.025c-0.174-0.27-0.24-0.384-0.225-0.486c-0.075-0.121-0.15-0.243-0.227-0.366
		c-0.681,0.449-1.365,0.857-1.973,1.219l-0.121,0.072c0.133,0.413,0.281,0.857,0.461,1.333l-0.044,0.018
		C34.006,40.458,34.048,40.579,34.036,40.651z"/>
	<path d="M39.45,42.543c0.031,0.037,0.07,0.092,0.119,0.165c0.038-0.283,0.09-0.562,0.14-0.84l-0.306,0.579l0.01,0.023l-0.003,0.006
		C39.421,42.494,39.434,42.517,39.45,42.543z"/>
	<path d="M39.024,43.167l-0.503,0.953l-0.017-0.009c-0.019,0.032-0.039,0.068-0.061,0.105c-0.174,0.306-0.246,0.427-0.29,0.486
		c-0.002,0.004-0.004,0.008-0.006,0.013c-0.003,0.08-0.065,0.203-0.234,0.532c0.352-0.164,0.684-0.325,0.99-0.474l0.523-0.251
		c0.007-0.223,0.012-0.446,0.028-0.667l-0.202-0.318C39.159,43.387,39.084,43.267,39.024,43.167z"/>
	<path d="M35.936,46.015c0.02,0.063,0.036,0.116,0.046,0.16c0.302-0.144,0.599-0.288,0.873-0.421l0.087-0.171
		c-0.485-0.508-0.655-0.692-0.699-0.77l-0.448-0.477c-0.114-0.111-0.239-0.24-0.375-0.388l0.008-0.008l-0.026-0.033
		c-0.076-0.083-0.166-0.176-0.26-0.276c-0.007,0.006-0.015,0.012-0.023,0.019l0.234,0.69c0.044,0.065,0.087,0.18,0.16,0.377
		l-0.024,0.01l0.014-0.003c0.014,0.062,0.103,0.328,0.195,0.606c0.078,0.234,0.158,0.476,0.203,0.623L35.936,46.015z"/>
	<path d="M35.835,36.561l0.005,0.007c0.07-0.038,0.147-0.083,0.232-0.136l-0.464-0.136c0.05,0.081,0.11,0.178,0.181,0.293
		L35.835,36.561z"/>
	<path d="M32.75,36.875c0.02,0.048,0.035,0.087,0.048,0.12c0.075,0.045,0.111,0.133,0.14,0.203l0.051,0.123l-0.014,0.017
		c0.011,0.035,0.025,0.077,0.041,0.124l0.024-0.006l0.251,0.71c0.051-0.049,0.13-0.103,0.244-0.18l0.074,0.06l-0.029-0.077
		c0.053-0.024,0.232-0.133,0.334-0.195l0.133-0.123l0.721-0.339c0.163-0.11,0.251-0.173,0.3-0.208
		c0.026-0.05,0.079-0.097,0.173-0.162c-0.196-0.317-0.391-0.634-0.572-0.935c-0.252-0.079-0.725-0.221-1.197-0.362l-0.71-0.214
		l-0.004,0.011c-0.159-0.045-0.312-0.09-0.46-0.134c0.042,0.121,0.094,0.279,0.164,0.501c0.012,0.033,0.023,0.062,0.032,0.088
		l0.008,0.021c0.009,0.029,0.008,0.052,0.011,0.076c0.022,0.066,0.045,0.136,0.067,0.197l0.085,0.238l-0.058,0.021
		C32.663,36.607,32.715,36.759,32.75,36.875z"/>
	<path d="M29.899,40.893c-0.012,0.012-0.026,0.024-0.045,0.041l0.025,0.059l0.007-0.003l0.101,0.224l0.11,0.162l-0.034,0.02
		c0.021,0.031,0.042,0.068,0.061,0.112c0.105,0.281,0.124,0.349,0.147,0.442c0.008,0.037,0.019,0.078,0.038,0.141
		c0.065,0.073,0.111,0.185,0.163,0.312c0.022,0.056,0.062,0.149,0.079,0.174l0.067,0.045l-0.012,0.046
		c0.072,0.244,0.207,0.547,0.35,0.87c0.081,0.183,0.164,0.37,0.238,0.552l-0.01,0.004c0.003,0.011,0.007,0.021,0.011,0.03
		l0.185-0.104l-0.103,0.236c0.042,0.058,0.092,0.131,0.139,0.257L31.4,44.519c0.082,0.241,0.263,0.61,0.42,0.899
		c0.733-0.618,1.304-1.087,1.688-1.364c0.27-0.237,0.533-0.462,0.794-0.682l-0.158-0.437l0.007-0.056
		c-0.007-0.013-0.076-0.222-0.117-0.347l-0.01-0.029l-0.542-0.534l0.038-0.04c-0.059-0.072-0.111-0.136-0.142-0.197
		c-0.24-0.246-0.506-0.524-0.822-0.869l0.019-0.018c-0.26-0.272-0.51-0.506-0.574-0.555l-0.061-0.069
		c-0.013-0.021-0.1-0.128-0.314-0.369c-0.246,0.164-0.448,0.284-0.636,0.396c-0.191,0.114-0.369,0.218-0.566,0.356l-0.073-0.102
		c0,0,0,0-0.001,0l0.043,0.11c-0.046,0.021-0.215,0.119-0.377,0.212L29.899,40.893z"/>
	<path d="M36.245,32.227c-0.121,0.032-0.31,0.066-0.599,0.119c-0.305,0.057-0.723,0.133-0.783,0.15l-0.002-0.008
		c-0.015,0.004-0.027,0.006-0.036,0.009l-0.008-0.028l-0.013,0.042l-0.244,0.002c-0.086,0.016-0.173,0.032-0.26,0.048
		c-0.302,0.056-0.628,0.117-0.865,0.163c0.114,0.163,0.292,0.451,0.606,0.959l-0.013,0.009c0.015,0.03,0.05,0.092,0.083,0.149
		c0.041,0.073,0.073,0.128,0.092,0.176c0.253,0.381,0.719,1.123,0.991,1.585c0.058,0.019,0.108,0.036,0.173,0.058l0.396,0.13
		c0.045,0.014,0.087,0.026,0.124,0.037h0.049c0.035,0,0.054,0.002,0.239,0.054c0.257,0.079,0.407,0.125,0.491,0.172
		c0.253-0.163,0.555-0.352,0.91-0.561l0.013,0.022l0.385-0.25l0.004,0.008c0.234-0.129,0.329-0.191,0.433-0.259
		c0.112-0.074,0.235-0.155,0.523-0.317l0.022,0.037l0.226-0.154l-1.745-2.544c-0.049,0.01-0.087,0.019-0.109,0.027l-0.055,0.014
		c-0.28,0.035-0.307,0.039-0.572,0.081L36.245,32.227z"/>
	<path d="M33.064,33.464c-0.137-0.211-0.261-0.403-0.322-0.511c-0.02-0.023-0.04-0.051-0.063-0.085l-1.205,0.196l0-0.003
		l-0.017,0.002c0.032,0.094,0.068,0.203,0.109,0.332c0.031,0.079,0.058,0.146,0.081,0.203l0.04-0.014
		c0.123,0.33,0.163,0.495,0.166,0.589c0.077,0.219,0.132,0.367,0.175,0.475c0.336,0.102,0.67,0.204,0.895,0.277
		c0.187,0.047,0.644,0.184,1.118,0.324l0.227,0.067c-0.018-0.031-0.035-0.062-0.051-0.092c-0.045-0.046-0.097-0.124-0.179-0.246
		c-0.033-0.05-0.063-0.098-0.082-0.123l-0.299-0.371l0.068-0.001c-0.035-0.05-0.064-0.088-0.09-0.123
		c-0.017-0.021-0.033-0.045-0.05-0.067l-0.008,0.004c-0.083-0.128-0.119-0.19-0.162-0.264l-0.06-0.102l0.006-0.004
		C33.268,33.778,33.164,33.617,33.064,33.464z"/>
	<path d="M33.546,47.107c0.056,0.02,0.103,0.04,0.14,0.059c0.158-0.072,0.311-0.137,0.445-0.185l0.021,0.054l0.167-0.067
		c0.274-0.129,0.378-0.186,0.418-0.209c0.047-0.065,0.124-0.103,0.268-0.171c0.111-0.035,0.143-0.042,0.182-0.042h0.01l0.222-0.105
		l-0.026-0.078l0.041-0.013c-0.006-0.017-0.011-0.034-0.017-0.049l-0.059,0.02l-0.484-1.374l0.02-0.007
		c-0.067-0.19-0.137-0.383-0.21-0.581l-0.117-0.322l-0.404,0.319c-0.044,0.06-0.122,0.131-0.24,0.238
		c-0.036,0.033-0.072,0.066-0.103,0.095l0.016,0.021c-0.277,0.223-0.323,0.255-0.416,0.255c-0.016,0.013-0.035,0.026-0.051,0.041
		c-0.051,0.091-0.178,0.199-0.413,0.398c-0.003,0.002-0.005,0.004-0.008,0.006l0.022,0.029c-0.281,0.238-0.555,0.466-0.824,0.69
		c0.06,0.152,0.122,0.307,0.187,0.464l0.105,0.04c0.025,0.018,0.058,0.03,0.085,0.045l0.008-0.022l0.177,0.063l-0.014,0.04
		c0.057,0.021,0.114,0.041,0.178,0.061c0.169,0.054,0.363,0.116,0.561,0.226L33.546,47.107z"/>
	<path d="M38.22,45.861l0.628,0.664l0.051,0.1c0.173,0.181,0.256,0.255,0.333,0.322c0.078,0.069,0.151,0.135,0.286,0.278
		c-0.067-0.63-0.11-1.266-0.114-1.913L38.22,45.861z"/>
	<path d="M32.574,53.666c0.083-0.146,0.161-0.279,0.228-0.392c0.169-0.323,0.331-0.634,0.488-0.939
		c-0.333,0.134-0.717,0.276-1.093,0.419c-0.192,0.072-0.382,0.144-0.561,0.212l0.495,0.62l-0.01,0.008l0.094,0.115
		C32.328,53.696,32.45,53.682,32.574,53.666z"/>
	<path d="M38.391,52.984c0.068-0.063,0.177-0.082,0.256-0.097c0.209-0.022,0.305-0.03,0.344-0.03l0.195,0.005l0.645-0.123
		c0.188-0.019,0.318-0.026,0.406-0.026l0.107-0.012c0.183-0.031,0.363-0.063,0.571-0.091c-0.304-0.713-0.565-1.449-0.78-2.204
		l-0.23-0.006c-0.119-0.029-0.221-0.071-0.317-0.11c-0.103-0.042-0.184-0.077-0.263-0.078l0-0.055l-0.037,0.068l-0.141-0.069
		c-0.258,0.077-0.611,0.193-1.313,0.471c-0.048,0.065-0.132,0.104-0.196,0.133l-0.033,0.012l0.201,0.555L37.77,51.34
		c0.093,0.263,0.183,0.518,0.284,0.79c0.102,0.279,0.208,0.563,0.314,0.858C38.375,52.986,38.383,52.985,38.391,52.984z"/>
	<path d="M46.187,15.893c0.042,0.319,0.082,0.565,0.121,0.812l0.067,0.437l-0.009,0.001l0.676,4.7l0.802,0.356l-0.008,0.02
		c0.236,0.109,0.464,0.215,0.678,0.317l0.12,0.023l0.557,0.248c0.783,0.352,1.591,0.716,1.955,0.9l0.931-2.301l-3.801-5.272
		c-0.373-0.526-0.969-1.375-1.33-1.899l-0.038-0.055l-0.813,0.014l-0.145-0.005l0.225,1.527
		C46.185,15.793,46.192,15.848,46.187,15.893z"/>
	<path d="M35.281,53.302c0.006,0.014,0.01,0.028,0.017,0.043c0.317-0.04,0.659-0.083,0.876-0.097
		c0.122-0.033,0.475-0.082,0.848-0.133c0.216-0.029,0.436-0.06,0.62-0.088l0.06-0.01l-0.303-0.872l0.014-0.006
		c-0.014-0.043-0.026-0.081-0.038-0.112c-0.064-0.063-0.112-0.204-0.219-0.519l0.083-0.042l-0.074,0.006
		c-0.007-0.037-0.037-0.131-0.095-0.313l-0.073-0.157l-2.019,0.758c-0.209,0.057-0.247,0.062-0.282,0.062h-0.012
		c0.025,0.041,0.042,0.081,0.057,0.114l-0.031,0.016c0.023,0.045,0.04,0.098,0.032,0.167c0.02,0.029,0.036,0.059,0.048,0.083h0.132
		l-0.02,0.244l0.01,0.05c0.002,0.004,0.004,0.008,0.007,0.012l0.197,0.067l-0.03,0.323h0.067l0.077,0.252
		C35.243,53.189,35.253,53.231,35.281,53.302z"/>
	<path d="M48.195,14.157l-0.594,0.011l0.823,1.161c0.136,0.179,0.289,0.39,0.425,0.576c0.172,0.236,0.313,0.432,0.355,0.478
		l3.135,4.372l0.516-1.273c0.192-0.43,0.607-1.455,0.973-2.358c0.487-1.2,0.692-1.706,0.812-1.92l-0.006-0.002l0.499-1.247l-0.18,0
		l-0.567-0.042h0.565h0.199l0.017-0.043h-0.214l-1.672,0.006l-1.864,0.042h-0.013l-1.739,0.016l-1.063,0.011
		c-0.003,0.015-0.009,0.03-0.012,0.044l-0.096-0.004l-0.337-0.013l-0.664,0.047l0.092,0.131L48.195,14.157z"/>
	<path d="M52.936,24.514l0.005-0.013l1.971,0.896l-2.423-3.417c-0.247,0.604-0.521,1.286-0.801,1.981
		c0.259,0.115,0.54,0.24,0.756,0.34C52.629,24.384,52.817,24.465,52.936,24.514z"/>
	<polygon points="46.874,14.132 46.826,14.063 46.674,14.074 46.633,14.112 46.633,14.125 46.647,14.127 	"/>
	<path d="M35.293,27.889c0.538,0.79,1.284,1.846,1.833,2.621l0.291,0.412l-0.021,0.016c0.046,0.073,0.086,0.135,0.116,0.189
		l0.012,0.018c0.004,0.008,0.006,0.017,0.01,0.025l0.176,0.254l2.849-0.49l-0.054-0.279c0,0,0,0,0-0.001l0.008-0.002
		c-0.224-1.098-0.438-2.211-0.653-3.325l-0.756-0.28l0.007-0.02c-0.775-0.267-2.164-0.782-3.506-1.28l-2.093-0.794
		c-0.041,0.049-0.083,0.099-0.124,0.148l0.17,0.234c0.439,0.636,0.73,1.06,0.781,1.15l0.938,1.364l-0.005,0.003L35.293,27.889z"/>
	<path d="M30.235,51.265c0.043,0.034,0.092,0.091,0.172,0.183c0.055,0.063,0.116,0.133,0.165,0.185l0.647,0.81
		c0.938-0.337,1.741-0.657,2.516-0.968l0.021-0.039c-0.086-0.24-0.189-0.424-0.298-0.62c-0.125-0.221-0.253-0.451-0.348-0.757
		l0.009-0.005c-0.023-0.054-0.04-0.099-0.043-0.141c-0.043-0.066-0.089-0.16-0.15-0.289c-0.033-0.069-0.065-0.136-0.092-0.186
		l0.038-0.026c-0.094-0.094-0.21-0.334-0.332-0.588c-0.042-0.085-0.082-0.17-0.121-0.246l-0.015-0.029
		c-0.167,0.096-0.375,0.209-0.852,0.426l-2.034,0.917l0.093,0.571C29.827,50.737,30.032,50.996,30.235,51.265z"/>
	<path d="M38.491,49.318c0.021,0.008,0.045,0.019,0.07,0.031L38.6,49.27c0.077,0.039,0.188,0.091,0.292,0.14
		c0.056,0.026,0.11,0.052,0.158,0.075c0.2-0.077,0.387-0.148,0.54-0.209l0.017,0.038l0.228-0.098
		c-0.088-0.411-0.164-0.825-0.226-1.245l-0.005-0.004l-0.234,0.142l-0.667-0.688c-0.063-0.089-0.306-0.367-0.52-0.613
		c-0.19-0.218-0.4-0.459-0.574-0.665l-0.244,0.112c-0.223,0.407-0.44,0.797-0.65,1.174l-0.172,0.311
		c0.062,0.155,0.13,0.33,0.215,0.582l0.298,0.294c0.012,0.01,0.085,0.052,0.174,0.095l0.024-0.021l0.135,0.07
		c0.144,0.075,0.277,0.12,0.402,0.163c0.01,0.004,0.021,0.007,0.031,0.011l-0.005-0.021l0.047,0.035
		c0.054,0.02,0.106,0.038,0.157,0.059l0.112,0.046l0.019,0.004l0,0.003l0.46,0.189l-0.121,0.036L38.491,49.318z"/>
	<path d="M41.114,37.39c0.001-0.006,0.004-0.013,0.007-0.019l-0.432-0.619l0.012-0.008c-0.046-0.069-0.111-0.164-0.192-0.28
		c-0.058-0.047-0.136-0.164-0.333-0.452l0.008-0.006c-0.026-0.039-0.06-0.089-0.096-0.142l-0.6-0.839l-0.543,0.357l0.075-0.143
		c-0.208,0.132-0.413,0.261-0.629,0.393l0.031,0.036l-0.067,0.06c-0.249,0.16-0.519,0.316-0.753,0.452
		c-0.058,0.033-0.103,0.061-0.155,0.091l0.268,0.075c0.267,0.083,0.45,0.143,0.553,0.183l0.16,0.043
		c0.373,0.105,0.738,0.208,1.267,0.379l-0.001,0.006l0.611,0.175c0.324,0.102,0.567,0.179,0.755,0.239L41.114,37.39z"/>
	<path d="M37.053,49.253c0.047,0.16,0.102,0.34,0.16,0.53c0.044,0.045,0.07,0.108,0.095,0.167c0.02,0.071,0.04,0.138,0.059,0.201
		c0.142-0.071,0.436-0.188,0.926-0.376l-0.932-0.353l0.005-0.046C37.268,49.33,37.161,49.292,37.053,49.253z"/>
	<path d="M42.913,28.473l0.002-0.007c-0.168-0.063-0.294-0.11-0.388-0.15c-0.011-0.004-0.024-0.008-0.037-0.013l-0.055-0.019
		l0.002-0.008c-0.014-0.006-0.025-0.012-0.037-0.018c-0.06-0.023-0.137-0.052-0.235-0.09c-0.125-0.034-0.738-0.259-1.667-0.604
		l0.631,3.272l2.057-0.354l-0.001-0.007l3.493-0.598L42.913,28.473z"/>
	<path d="M27.524,41.688c-0.13-0.975-0.311-2.137-0.503-3.365c-0.292,1.326-0.5,2.681-0.622,4.062
		c0.298-0.188,0.623-0.388,0.918-0.569L27.524,41.688z"/>
	<path d="M35.541,48.015l0.024,0.011l0.258-0.464c-0.05-0.09-0.101-0.241-0.188-0.499l-0.003-0.008
		c-0.347,0.161-0.69,0.322-1.033,0.483l0.124,0.046l-0.064,0.057c0.063,0.022,0.128,0.048,0.196,0.074
		c0.076,0.029,0.153,0.059,0.225,0.084l0.239,0.083l-0.011,0.023C35.384,47.942,35.463,47.979,35.541,48.015z"/>
	<path d="M30.636,30.775c0.092,0.29,0.178,0.561,0.268,0.806l0.138,0.347l-0.013,0.03c0.024,0.067,0.048,0.133,0.07,0.194
		l0.025-0.007c0.051,0.15,0.09,0.252,0.132,0.362l0.009,0.026l1.089-0.188l-0.048-0.079l0.047-0.029
		c-0.135-0.209-0.25-0.377-0.364-0.544c-0.209-0.307-0.426-0.624-0.77-1.197l-0.336-0.605c-0.061-0.066-0.165-0.216-0.389-0.571
		c-0.073,0.128-0.143,0.259-0.215,0.388l0.062,0.176C30.451,30.192,30.546,30.492,30.636,30.775z"/>
	<path d="M37.927,41.322c-0.146,0.124-0.273,0.232-0.372,0.317l-0.009-0.01c-0.341,0.291-0.545,0.447-0.745,0.598
		c-0.131,0.1-0.259,0.198-0.422,0.33l0.026,0.033c-0.371,0.301-0.63,0.527-0.71,0.605l0.066,0.069
		c0.082,0.093,0.142,0.161,0.167,0.228l1.359,1.405c0.331-0.655,0.683-1.348,1.185-2.252l0.02,0.01
		c0.045-0.086,0.091-0.174,0.135-0.26c-0.075-0.112-0.129-0.185-0.183-0.257c-0.117-0.157-0.227-0.307-0.512-0.792l0.007-0.004
		L37.927,41.322z"/>
	<path d="M38.176,14.288l1.321-0.03l0.667,1.074l0.6,1.072l0.311,0.569l0.255,0.466l0.277,0.452
		c-0.464,0.284-0.919,0.583-1.367,0.888l0.742,0.329c0.618,0.3,1.801,0.831,3.171,1.444c0.735,0.329,1.514,0.677,2.262,1.017
		c-0.154-1.129-0.311-2.253-0.462-3.263l0.009-0.001c-0.012-0.098-0.032-0.256-0.057-0.437l-0.014,0.001l-0.537-3.702l-0.18-0.007
		l-1.525-0.043l-0.917-0.032l-0.755,0.062l-1.875,0.043l-0.58,0.007l-0.156-0.218l-0.877-1.387l-0.836-1.355l-0.639-0.991
		l0.535,0.945l0.881,1.397l0.36,0.567l0.55,0.854l0.117,0.188l-1.175,0.014l-1.348,0.044L38.176,14.288z M41.641,17.87l-0.263-0.431
		l-0.58-1.056l-0.654-1.164l-0.105-0.191l1.68,2.793C41.692,17.837,41.667,17.854,41.641,17.87z M40.064,14.246l0.77-0.02
		l1.16-0.034l1.78-0.028l1.404,0.042l0.096,0.004l-5.667,0.102l0.003,0.005l-0.043-0.06L40.064,14.246z"/>
	<path d="M46.51,22.261l-1.054-0.481c-0.055-0.024-1.105-0.514-2.054-0.942l-0.006,0.015l-3.729-1.67
		c-0.239,0.171-0.476,0.345-0.709,0.522l0.149,0.818c0.031,0.067,0.128,0.559,0.339,1.655c0.124,0.637,0.25,1.297,0.299,1.488
		l0.631,3.264c0.343,0.137,0.819,0.319,1.656,0.625c0.006,0.002,0.013,0.005,0.02,0.006h0.014c0.043,0,0.07,0.008,0.224,0.061
		l3.57,1.333c0.173,0.071,0.283,0.117,0.345,0.168l0.818,0.301l-0.005,0.03l0.549,0.204l-0.038-0.278l-0.339-2.279
		c-0.183-1.175-0.393-2.718-0.613-4.351L46.51,22.261z"/>
	<path d="M32.231,39.506l-0.016-0.019c-0.001,0.001-0.002,0.001-0.003,0.002c0.415,0.449,0.846,0.913,1.283,1.381
		c-0.112-0.312-0.222-0.609-0.331-0.908c-0.106-0.29-0.213-0.58-0.323-0.885c-0.099,0.06-0.195,0.119-0.289,0.177
		C32.514,39.327,32.414,39.39,32.231,39.506z"/>
	<polygon points="27.482,54.763 27.482,54.76 27.356,54.763 	"/>
	<path d="M47.102,30.031l-0.029-0.011l0.011,0.024C47.09,30.041,47.096,30.036,47.102,30.031z"/>
	<path d="M33.916,52.739c-0.086,0.196-0.267,0.523-0.444,0.835h0.07c0.404-0.061,0.863-0.139,0.98-0.163l0.086-0.017
		c-0.116-0.294-0.25-0.588-0.381-0.874c-0.028-0.063-0.057-0.125-0.085-0.188L33.916,52.739z"/>
	<path d="M34.803,48.336l-0.08,0l-0.052-0.083c-0.05-0.025-0.095-0.052-0.135-0.075c-0.036-0.022-0.067-0.042-0.093-0.051
		c0.059,0.004,0.086-0.002,0.11-0.014l-0.019-0.038c-0.021-0.008-0.042-0.015-0.063-0.022l-0.046,0.095
		c-0.192-0.086-0.401-0.164-0.612-0.24l-0.472,0.221l-0.024-0.045c-0.1,0.045-0.187,0.084-0.264,0.119l0.012,0.025l-0.013,0.025
		c0.048,0.065,0.077,0.127,0.105,0.24l0.004,0.017c0.035,0.046,0.071,0.106,0.121,0.223l0.083,0.198
		c0.107,0.164,0.134,0.257,0.146,0.348l0.089,0.211l-0.058-0.043c0.008,0.022,0.019,0.047,0.032,0.077
		c0.032,0.017,0.062,0.04,0.089,0.071l0.04,0.065c0.055,0.139,0.093,0.213,0.132,0.288c0.042,0.085,0.086,0.17,0.149,0.328
		l0.016,0.075c0.001,0.028,0.001,0.065-0.007,0.105l0.02,0.023l0.031-0.009c0.04,0.09,0.066,0.154,0.068,0.213
		c0.004,0.008,0.009,0.017,0.013,0.025c0.356-0.686,0.724-1.39,1.155-2.189C35.102,48.458,34.947,48.401,34.803,48.336z"/>
	<path d="M41.397,36.786c0.075-0.149,0.156-0.294,0.235-0.441l-0.049-0.239c-0.238-1.178-0.36-1.795-0.388-1.978
		c-0.013-0.041-0.025-0.09-0.04-0.15l-0.188,0.118l-0.016-0.025l-0.992,0.644c0.154,0.225,0.302,0.44,0.418,0.604l0.187,0.26
		c0.178,0.245,0.26,0.358,0.744,1.064l-0.007,0.005L41.397,36.786z"/>
	<path d="M38.942,54.795c0.425-0.002,0.816-0.005,1.135-0.007l0.248,0.075l0.736,0.014l0.857-0.028l0.749,0.006l0.332,0.003
		l0.218,0.002l0.144-0.015l0.127-0.009l0.791-0.057l0.512-0.01l0.182-0.003l0.277-0.01l-0.115-0.039l-0.247-0.062l-0.066-0.012
		l-0.538-0.05l-0.157,0.001l-0.772,0.008L42.63,54.6l-0.688-0.009l-0.05-0.001c-0.242-0.422-0.461-0.857-0.67-1.298l-0.141,0.017
		c-0.48,0.057-0.616,0.065-0.687,0.065c-0.046,0-0.094-0.004-0.142-0.025c-0.075,0.002-0.204,0.014-0.455,0.045l-1.225,0.18
		c0.084,0.243,0.167,0.494,0.249,0.755l-0.036,0.015L38.942,54.795z"/>
	<path d="M51.437,24.589c-0.637,1.587-1.238,3.085-1.597,3.907l-0.739,1.832l0.212,0.353l0.162,0.233l0.138,0.205l0.868,1.283
		l0.24,0.384l0.331,0.549l0.006-0.011l0.143,0.229l0.291,0.457l-0.071-0.218l-0.178-0.458l-0.056-0.118l-0.033-0.065l2.796-5.052
		l0.221-0.387l0.716-1.234l0.195-0.338l-0.033-0.015l-0.123,0.211l0.118-0.213l-3.267-1.473l0.005-0.012l-0.308-0.14L51.437,24.589z
		"/>
	<path d="M47.143,22.542l0.277,1.923l-0.016,0.002c0.123,0.721,0.347,2.285,0.528,3.544c0.076,0.529,0.144,0.997,0.189,1.307
		l-0.007,0.001c0,0.004,0.001,0.007,0.001,0.012c0.094-0.06,0.184-0.125,0.278-0.184l0.341,0.572l0.463-1.124
		c0.024-0.073,0.064-0.177,0.126-0.339c0.021-0.057,0.044-0.114,0.063-0.165l-0.013-0.005c0.137-0.331,0.193-0.465,0.248-0.521
		l0.088-0.212c0.02-0.099,0.091-0.275,0.247-0.665c0.001-0.005,0.003-0.009,0.006-0.014l-0.017-0.007l0.977-2.417l-2.041-0.926
		c0.005,0.002-0.03-0.013-0.067-0.027l-0.054-0.021l-0.002,0.008c-0.629-0.275-0.675-0.301-0.729-0.332
		c-0.038-0.022-0.079-0.044-0.506-0.232l0.003-0.008L47.143,22.542z"/>
	<path d="M31.562,53.771l-0.094-0.074l-0.348-0.449l0.011-0.011c-0.014-0.015-0.028-0.033-0.042-0.051
		c-0.003-0.001-0.006-0.002-0.01-0.005c-0.055,0.023-0.105,0.045-0.154,0.066l-0.04-0.09l0,0.079l-0.036,0.015
		c-0.221,0.084-0.48,0.193-0.762,0.311c0.018,0.144,0.036,0.279,0.05,0.413C30.681,53.904,31.217,53.833,31.562,53.771z"/>
	<path d="M37.501,54.825l0.82-0.01h0.004l-0.036-0.104l-0.012,0.005l-0.098-0.195l-0.145-0.471l0.021-0.008l-0.136-0.393
		c-0.005,0.001-0.01,0.002-0.015,0.003l-0.073-0.178c-0.003,0-0.007,0.001-0.01,0.002l-0.013,0.182c-0.08,0-0.63,0.073-1.032,0.126
		c-0.186,0.023-0.372,0.049-0.536,0.068l0.002,0.023c-0.21,0.033-0.409,0.064-0.597,0.09l0.151,0.185l-0.056,0.209
		c0.004,0.02,0.007,0.036,0.009,0.053c0.032,0.054,0.066,0.103,0.077,0.116l0.229,0.282c0.481-0.002,0.955-0.005,1.403-0.008
		l-0.058,0.016L37.501,54.825z"/>
	<path d="M33.69,54.821l0.021,0.033l0.767-0.016l0.75-0.008c-0.002-0.006-0.003-0.01-0.005-0.014l-0.058-0.002h-0.078
		c0.045,0,0.09,0,0.135,0c-0.015-0.048-0.031-0.096-0.044-0.141c-0.039-0.126-0.071-0.234-0.131-0.343l-0.176-0.258l0.003-0.011
		c-0.351,0.038-0.676,0.071-0.994,0.102c-0.263,0.024-0.519,0.05-0.779,0.079c-0.017,0.03-0.03,0.059-0.041,0.082l-0.028-0.009
		l-0.12,0.232l0.226,0.272C33.321,54.822,33.504,54.821,33.69,54.821z"/>
	<polygon points="36.053,54.833 36.01,54.83 35.992,54.834 	"/>
	<path d="M31.931,54.825l0.196-0.36l-0.067-0.082l-0.781,0.131l-0.251-0.007l-0.319,0.062c-0.132,0.023-0.253,0.046-0.407,0.068
		l0.03,0.188C30.822,54.826,31.361,54.826,31.931,54.825z"/>
	<path d="M35.348,25.036l0.174,0.076c0.063,0.022,0.121,0.042,0.18,0.063c0.23,0.079,0.488,0.168,1.25,0.455l-0.008,0.024
		c0.647,0.246,0.917,0.335,1.179,0.421l0.279,0.094c0.69,0.247,1.032,0.38,1.333,0.501l-0.013-0.068
		c-0.113-0.592-0.228-1.184-0.342-1.772l-0.043-0.353c-0.101-0.513-0.181-0.857-0.261-1.206c-0.087-0.377-0.175-0.759-0.295-1.379
		l0.011-0.003l-0.348-1.786c-1.66,1.313-3.188,2.787-4.557,4.399c0.221,0.082,0.345,0.123,0.456,0.16
		C34.536,24.727,34.705,24.784,35.348,25.036z"/>
	<path d="M30.008,52.855l0.005,0.025l0.162-0.059l-0.003-0.015l0.025-0.008l0.127-0.043c0.099-0.034,0.194-0.067,0.29-0.101
		c-0.061-0.074-0.126-0.152-0.19-0.231c-0.199-0.242-0.396-0.482-0.501-0.605l-0.056-0.083c-0.017-0.026-0.035-0.055-0.063-0.095
		c0.066,0.411,0.131,0.821,0.188,1.218L30.008,52.855z"/>
	<polygon points="40.984,37.675 40.989,37.666 40.965,37.662 40.963,37.666 	"/>
	<path d="M39.112,33.449c0.048,0.079,0.244,0.378,0.564,0.85c0.181-0.115,0.372-0.238,0.56-0.361
		c0.283-0.183,0.563-0.365,0.805-0.516c-0.106-0.53-0.248-1.27-0.369-1.895l-0.011-0.059l-0.136,0.024
		c-0.105,0.054-0.345,0.095-0.891,0.189l-0.003-0.018c-0.225,0.04-0.265,0.045-0.333,0.053c-0.078,0.01-0.194,0.024-0.671,0.1
		c-0.197,0.04-0.393,0.076-0.572,0.106l0.421,0.609l-0.01,0.007C38.774,32.99,39.042,33.361,39.112,33.449z"/>
	<path d="M30.44,32.674l0.145-0.025l-0.023-0.067c-0.034-0.092-0.06-0.162-0.078-0.216l-0.015-0.038
		c-0.015-0.048-0.018-0.079-0.019-0.104l-0.601-1.711c-0.418,0.806-0.806,1.632-1.156,2.476l0.156-0.03
		C29.239,32.883,29.553,32.822,30.44,32.674z"/>
	<path d="M29.341,33.84l1.46,0.421l0.021,0.003l0.186,0.056l0.003,0.016c0.07,0.023,0.157,0.05,0.25,0.079
		c-0.069-0.216-0.101-0.324-0.104-0.393c-0.038-0.094-0.082-0.208-0.13-0.329c-0.042-0.105-0.085-0.217-0.126-0.322
		c-0.054-0.033-0.09-0.094-0.128-0.186l-2.243,0.397l0.241,0.073C29.062,33.743,29.236,33.795,29.341,33.84z"/>
	<path d="M36.595,49.839c-0.124-0.35-0.25-0.709-0.332-0.911l-0.113-0.03c-0.049-0.024-0.109-0.05-0.171-0.077
		c-0.058,0.114-0.108,0.212-0.136,0.276l0.01,0.024l-1.023,1.92c0.583-0.227,1.219-0.466,1.939-0.712
		C36.712,50.172,36.653,50.004,36.595,49.839z"/>
	<path d="M40.045,40.105l0.096-0.096c0.075-0.257,0.149-0.515,0.234-0.769l-0.05,0.042l-0.022-0.025
		c-0.347,0.341-1.154,1.029-1.844,1.614l0.022,0.035l-0.013,0.008c0.082,0.141,0.213,0.343,0.35,0.556
		c0.052,0.079,0.105,0.16,0.157,0.24c0.02-0.031,0.042-0.06,0.069-0.083c0.105-0.187,0.18-0.34,0.255-0.494
		c0.048-0.098,0.095-0.195,0.149-0.3l0.019,0.008c0.134-0.236,0.278-0.503,0.427-0.782L40.045,40.105z"/>
	<path d="M40.716,38.316c0.056-0.141,0.11-0.282,0.168-0.421l-0.005-0.001c-0.453-0.129-1.083-0.311-1.518-0.44
		c-1.255-0.379-1.266-0.389-1.327-0.441c-0.007,0.002-0.231-0.068-0.633-0.192l-0.653-0.191l-0.668,0.439
		c0.009,0.014,0.017,0.026,0.025,0.04l0.033-0.018l0.336,0.575l-0.008,0.006c0.196,0.331,0.4,0.661,0.62,1.013
		c0.216,0.345,0.443,0.709,0.673,1.093c0.059,0.064,0.141,0.193,0.297,0.445l0.348-0.303c0.315-0.282,0.685-0.597,1.088-0.931
		l1.028-0.845L40.716,38.316z"/>
	<path d="M32.375,31.03c0.236,0.368,0.491,0.769,0.736,1.185l3.981-0.685l-2.098-3.058c-0.086-0.129-0.139-0.206-0.162-0.266
		l-1.823-2.626c-0.757,0.973-1.46,1.989-2.103,3.047l0.685,1.088C31.763,30.075,32.046,30.517,32.375,31.03z"/>
	<path d="M29.09,51.911l0.009-0.015c-0.015-0.178-0.083-0.738-0.174-1.352c-0.042-0.056-0.11-0.142-0.225-0.285l-1.875,0.845
		c0.173,0.922,0.387,1.828,0.637,2.719l1.839-0.681L29.09,51.911z"/>
	<path d="M27.466,48.671c0,0-0.001-0.002-0.002-0.003l-0.111-0.045L27.32,48.58c-0.349-0.449-0.666-0.834-0.971-1.201
		c0.057,0.824,0.145,1.64,0.263,2.446l1.046-0.88c-0.041-0.045-0.101-0.118-0.208-0.256l0.018-0.016
		C27.468,48.672,27.467,48.672,27.466,48.671z"/>
	<path d="M28.229,49.704c-0.046-0.061-0.097-0.128-0.152-0.2c-0.204,0.164-0.439,0.357-0.681,0.558l-0.128,0.107L28.229,49.704z"/>
	<path d="M29.57,54.685l-2.024,0.071c0.225,0.002,1.745,0.067,2.024,0.068V54.685z"/>
	<path d="M27.862,36.483c0.014,0.021,0.028,0.042,0.041,0.063l0.081-0.019l0.03,0.171l0.421,0.917
		c0.037,0.069,0.063,0.147,0.087,0.219c0.013,0.041,0.024,0.078,0.037,0.102l0.472,0.545l-0.27-0.075
		c0.045,0.1,0.091,0.198,0.136,0.295c0.096,0.208,0.19,0.411,0.271,0.604l0.219,0.522c0.039,0.064,0.083,0.139,0.083,0.223
		c0,0,0,0.001,0,0.001c0,0.009,0,0.018-0.002,0.026l0.003,0.005l0.014-0.009l-0.009,0.006l0.01-0.006l-0.014,0.01l0.156,0.302
		c0.129-0.082,0.259-0.166,0.346-0.236c0.35-0.201,0.354-0.203,0.418-0.203c0.087-0.057,0.173-0.111,0.253-0.164
		c0.224-0.146,0.405-0.263,0.548-0.336l0.035-0.028c-0.135-0.145-0.266-0.281-0.369-0.385l-0.166-0.154
		c-0.17-0.158-0.244-0.227-0.689-0.698l0.018-0.019c-0.166-0.175-0.261-0.267-0.352-0.354c-0.116-0.112-0.225-0.217-0.453-0.466
		l-0.05-0.056l0.011-0.012c-0.507-0.521-0.624-0.63-0.933-0.918l-0.227-0.21l0.019-0.024l-0.349-0.353
		c-0.049,0.161-0.095,0.322-0.142,0.485l0.21-0.041L27.862,36.483z"/>
	<path d="M30.641,37.845l-0.02,0.019c0.032,0.038,0.077,0.086,0.134,0.146c0.072,0.013,0.125,0.07,0.354,0.32l-0.015,0.015
		c0.021,0.024,0.051,0.058,0.083,0.092l0.646,0.634c0.11-0.067,0.234-0.143,0.364-0.224l-0.021-0.035c0,0,0,0,0.001,0
		c0.193-0.118,0.314-0.194,0.389-0.242c0.017-0.029,0.042-0.055,0.074-0.08c-0.011-0.03-0.023-0.065-0.037-0.105l0.018-0.006
		c-0.243-0.714-0.421-1.164-0.593-1.599l0.027-0.012c-0.098-0.276-0.142-0.385-0.193-0.514c-0.062-0.155-0.134-0.335-0.32-0.852
		l0.03-0.012c-0.005-0.013-0.009-0.026-0.014-0.041c-0.042-0.064-0.082-0.163-0.136-0.308c-0.615-0.186-1.163-0.357-1.696-0.523
		c-0.468-0.146-0.924-0.289-1.402-0.434l-0.045-0.013c-0.12,0.321-0.233,0.646-0.343,0.972l0.996,1.045L30.641,37.845z"/>
	<path d="M26.929,44.297l0.127,0.065l0.015-0.031c0.141,0.044,0.216,0.088,0.277,0.123c0.053,0.03,0.092,0.052,0.184,0.079
		l0.221,0.063l-0.011,0.071c0.058,0.026,0.121,0.062,0.175,0.092c0.046,0.026,0.089,0.051,0.126,0.066
		c-0.013-0.105-0.028-0.225-0.046-0.366c-0.052-0.13-0.102-0.421-0.228-1.26c-0.047-0.323-0.101-0.677-0.143-0.899l-0.664,0.395
		l-0.619,0.373c-0.022,0.325-0.037,0.652-0.049,0.979l0.183,0.063C26.63,44.163,26.774,44.211,26.929,44.297z"/>
	<path d="M26.51,46.626c0.49,0.651,1.005,1.279,1.573,1.962l0.292-0.247l-0.015-0.027c0.073-0.059,0.133-0.104,0.188-0.146
		c-0.027-0.139-0.054-0.256-0.079-0.369c-0.044-0.203-0.085-0.389-0.124-0.642c-0.133-0.932-0.18-1.289-0.216-1.59
		c-0.024-0.009-0.048-0.02-0.073-0.03l0.001-0.005c-0.01-0.002-0.021-0.005-0.032-0.009l0.002-0.009c-0.001,0-0.001,0-0.002,0
		l-0.002,0.009c-0.032-0.01-0.089-0.029-0.138-0.065c-0.131-0.051-0.264-0.103-0.398-0.159c-0.173-0.073-0.351-0.149-0.538-0.217
		l0.009-0.034c-0.21-0.091-0.382-0.148-0.578-0.212l-0.104-0.035c-0.002,0.14-0.007,0.279-0.007,0.418
		c0,0.375,0.009,0.747,0.022,1.119L26.51,46.626z"/>
	<path d="M77.981,31.608l-0.055,0.009l-0.794,0.029l-0.34,0.011c-0.212,0.022-0.557,0.038-1.116,0.063
		c-0.424,0.019-0.847,0.038-1.064,0.049h-0.103h-0.062c-0.076,0-0.175,0.001-0.361,0.008c-0.086,0.015-0.248,0.023-0.602,0.039
		c-0.183,0.008-0.366,0.017-0.478,0.024c-0.244,0.008-0.309,0.008-0.348,0.006c0.038,0.156,0.077,0.316,0.117,0.479l-0.022,0.005
		c0.093,0.385,0.13,0.542,0.144,0.606l-0.176,0.083c1.163,1.375,2.135,2.918,2.871,4.59l0.036-0.021
		c0.406-0.205,0.608-0.311,0.709-0.365l-0.01-0.021c0.706-0.348,1.037-0.521,1.355-0.688c0.329-0.172,0.646-0.339,1.343-0.68
		l1.528-0.739c0.043-0.035,0.098-0.063,0.154-0.093c0.274-0.129,0.548-0.262,0.822-0.397l-0.007-0.014l0.472-0.237l0.003-1.154
		l-0.009-0.057l0.013-1.704L77.981,31.608z"/>
	<path d="M69.695,19.446c0.09,0.401,0.175,0.776,0.259,1.12l0.08,0.315c0.008,0.038,0.016,0.074,0.018,0.109
		c0.03,0.125,0.058,0.241,0.083,0.347l0.013-0.003l0.313,1.3l1.305-1.106l0.318-0.27l0.003,0.004
		c0.243-0.199,0.512-0.421,0.813-0.675l-0.019-0.025c0.366-0.313,0.437-0.371,0.501-0.382c0.247-0.208,0.499-0.421,0.757-0.64
		c0.5-0.422,1.007-0.851,1.48-1.246c-0.645-0.417-1.305-0.813-1.981-1.183l-4.313,0.751C69.462,18.416,69.583,18.95,69.695,19.446z"
		/>
	<path d="M72.774,16.654c-1.323-0.671-2.698-1.25-4.119-1.736l0.556,2.356L72.774,16.654z"/>
	<path d="M82.552,26.037c-0.004,0.054-0.006,0.333-0.008,0.514l0.016,0.228l-0.039,0.857l-0.004,0.848
		c0.024,0.104,0.024,0.357,0.022,1.172h-0.005c-0.006,0.261-0.005,0.588-0.004,1l0,0.247l1.157-0.052l0.002,0.012
		c0.377-0.015,0.757-0.027,1.098-0.038c0.286-0.008,0.549-0.016,0.757-0.025l-0.001-0.014l1.307-0.058
		c-1.175-2.311-2.622-4.458-4.299-6.404c-0.002,0.477-0.005,0.937-0.013,1.308c0.003,0.02,0.006,0.041,0.008,0.064
		c0,0.005,0.002,0.011,0.001,0.017c0.006,0.078,0.007,0.177,0.008,0.302l-0.091,0.01L82.552,26.037z"/>
	<path d="M79.265,23.658l-1.156,0.933l-0.321,0.258c-0.278,0.227-0.456,0.37-0.994,0.791l-0.004-0.005
		c-0.058,0.048-0.116,0.096-0.173,0.145c-0.269,0.226-0.542,0.454-0.822,0.683l-0.012-0.011l-0.868,0.716l-0.005-0.006
		c-0.598,0.478-0.688,0.564-0.755,0.628c-0.069,0.066-0.123,0.118-0.55,0.453l-0.03,0.03c0.005-0.004,0.009-0.011,0.013-0.017
		c-0.005,0.004-0.01,0.008-0.015,0.012l-0.025-0.033c-0.005,0.003-0.009,0.007-0.013,0.01l0.021,0.035l-0.024-0.033
		c-0.005,0.004-0.009,0.008-0.014,0.012l0.034,0.044l-0.155,0.122c-0.343,0.271-0.489,0.385-0.566,0.434l-0.191,0.158l0.016,0.021
		l-0.536,0.44l0.083,0.346l-0.011,0.003l0.021,0.088c0.094,0.417,0.202,0.893,0.325,1.412l1.816-0.066
		c0.072-0.012,0.164-0.017,0.275-0.023l0.342-0.02l3.347-0.132v0.007l3.688-0.167l0.018-7.182l0.024,0.001
		c-0.416-0.46-0.849-0.905-1.292-1.34l-0.202,0.165c-0.461,0.378-0.893,0.729-1.298,1.076L79.265,23.658z"/>
	<path d="M82.531,31.425c0,0.337-0.003,0.713-0.009,1.138h-0.011l0.001,0.465h-0.004l-0.004,1.093
		c0.308-0.156,0.622-0.315,0.944-0.479c0.868-0.442,1.797-0.914,2.831-1.416l0.01,0.018l1.05-0.522
		c-0.078-0.166-0.159-0.331-0.239-0.495l-0.041,0.002c-0.146,0.001-0.426,0.007-0.656,0.017L82.531,31.425z"/>
	<path d="M74.662,19.817c-0.15,0.125-0.301,0.253-0.448,0.377l0.012,0.014l-0.69,0.573l-2.608,2.189
		c-0.006,0.007-0.013,0.015-0.021,0.022c-0.063,0.061-0.158,0.143-0.295,0.26c0.009,0.039,0.019,0.076,0.028,0.111l0.021-0.005
		c0.111,0.451,0.156,0.651,0.161,0.757c0.172,0.722,0.229,0.93,0.278,1.107c0.057,0.205,0.103,0.368,0.296,1.225
		c0.011,0.042,0.02,0.077,0.026,0.108l0.013,0.051c0.001,0.009-0.002,0.014,0,0.023l0.159,0.672l-0.03,0.007
		c0.052,0.218,0.101,0.424,0.136,0.584c0.032,0.124,0.054,0.21,0.069,0.269c0.042,0.057,0.063,0.139,0.084,0.222l0.03,0.114
		l-0.005,0.007c0.012,0.057,0.031,0.137,0.052,0.23l0.012-0.003l0.043,0.179l0.223-0.183l-0.003-0.004l0.326-0.275l0.007,0.008
		l0.542-0.446l0.014,0.017l0.036-0.029c0.557-0.457,1.188-0.975,1.312-1.095l2.961-2.386c0.387-0.32,0.817-0.67,1.204-0.985
		c0.299-0.244,0.601-0.491,0.826-0.676l0.035-0.036c0.052-0.053,0.116-0.119,0.257-0.234c0.039-0.027,0.066-0.044,0.094-0.062
		c0.172-0.142,0.374-0.304,0.583-0.472c-1.327-1.267-2.761-2.421-4.29-3.447l-0.021,0.018c-0.313,0.259-0.454,0.376-0.533,0.428
		C75.436,19.167,75.129,19.426,74.662,19.817z"/>
	<path d="M69.902,22.692l-0.008-0.024c-0.037-0.114-0.079-0.294-0.146-0.578l-0.077-0.322c-0.027-0.111-0.048-0.196-0.063-0.262
		l-0.025-0.103c-0.004-0.018-0.001-0.031-0.002-0.045l-0.811-3.399l-6.776,1.179l-0.359,0.648l-0.701,1.243l-0.039,0.068
		l0.262,0.538c0.247,0.483,0.32,0.616,0.339,0.643c0.026,0.022,0.044,0.052,0.169,0.295c0.032,0.071,0.055,0.125,0.066,0.172
		l1.775,3.439l-0.004,0.007l0.525,1.022c0.234,0.074,0.466,0.151,0.696,0.234l0.363-0.306l0.004,0.005
		c0.371-0.306,0.793-0.666,1.175-0.992c0.648-0.552,1.021-0.869,1.145-0.943c0.015-0.012,0.027-0.023,0.039-0.033
		c0.003-0.002,0.005-0.003,0.007-0.005c0.034-0.028,0.061-0.045,0.089-0.054c0.354-0.298,0.506-0.435,0.655-0.569
		c0.188-0.17,0.371-0.333,0.944-0.811l0.859-0.722c-0.017-0.066-0.036-0.142-0.056-0.22C69.933,22.774,69.918,22.74,69.902,22.692z"
		/>
	<path d="M59.695,23.319l-0.523,0.896l-0.325,0.56l-0.214,0.369l-0.127,0.252l-0.112,0.221l-0.706,1.377l-0.49,0.876l-0.172,0.309
		l-0.26,0.476l0.156-0.167l0.315-0.376l0.079-0.107l0.584-0.874l0.152-0.266l0.305-0.539c1.7,0.005,3.345,0.239,4.912,0.666
		l-2.7-5.309l-0.017,0.03c0.008,0.005,0.015,0.01,0.023,0.016l-0.717,1.294L59.695,23.319z"/>
	<path d="M95.165,44.108l0.119-0.224l0.738-1.398l0.511-0.889l0.182-0.315l0.271-0.484l-0.162,0.17l-0.327,0.382l-0.081,0.106
		l-0.61,0.886l-0.158,0.272l-0.779,1.333l-0.573,0.957l-3.98-0.023c-0.047-4.515-1.034-8.803-2.766-12.685l-0.819,0.409l0.003,0.005
		l-0.255,0.144l-0.566,0.272l-0.004-0.011l-2.431,1.212l-0.004-0.007c-0.095,0.047-0.167,0.082-0.221,0.109
		c-0.084,0.064-0.257,0.15-0.59,0.315l-0.019-0.032l0.009,0.026c-0.021,0.008-0.066,0.031-0.15,0.071l-0.017,6.445h-0.048
		c0.002,0.135,0.004,0.283,0.006,0.425l-0.01,0.001c0.005,0.859-0.081,1.599-0.099,2.187l-0.253,0.886
		c-0.007-0.157-0.067-1.4-0.065-1.629c0.001-0.145-0.013-0.515-0.015-0.581l-0.02,0.305l-0.014-0.002
		c0.004-0.038,0.012-0.297,0.012-0.723l-0.027-1.273c0.002-0.046,0.005-0.11,0.025-0.171l0.001-0.711
		c0-0.056-0.001-0.123-0.002-0.196h-0.023l0.003-0.443h0.018c-0.001-0.446-0.001-1,0-1.493l0.014-1.025l-0.004-1.091l-0.002-0.415
		l0.004,0l0-0.229L81.75,35.08L79.084,36.4c-0.623,0.305-1.054,0.527-1.475,0.745c-0.083,0.052-0.249,0.134-0.618,0.317
		l-0.006-0.011l-1.213,0.595c0.858,2.092,1.358,4.368,1.411,6.757l-4.722-0.028l1.169,2.052l-0.313-0.448l-0.221-0.36
		c-0.013,0.007-0.025,0.013-0.037,0.02l0.23,0.368l0.808,1.333l0.587,1.078l0.306,0.572l0.251,0.471l0.753,1.266l0.723,1.232
		l0.743,1.259l0.505,0.822l0.997,1.749l-0.034-0.038l0.089,0.165l0.326,0.541l4.104,7.208l0.052-0.09l0.618,1.063l0.327,0.558
		l0.213,0.367l0.162,0.235l0.137,0.207l0.85,1.294l0.522,0.854l0.185,0.303l0.287,0.461l-0.07-0.219l-0.172-0.461l-0.055-0.118
		l-0.473-0.939l-0.157-0.264l-0.777-1.295L84.381,64.8l-0.673-1.166l-0.004-0.008l5.349-9.14l2.964-5.065l0.073-0.079l0.769-1.255
		l0.837-1.494l0.773-1.284l0.341-0.569l0.224-0.374L95.165,44.108z M76.749,52.34l-0.721-1.231l-0.74-1.249l-0.57-1.062l-0.64-1.17
		l-0.142-0.261l2.976,5.224L77,52.768L76.749,52.34z"/>
	<path d="M70.365,24.563c-0.092-0.403-0.136-0.594-0.146-0.697c-0.018-0.068-0.037-0.145-0.059-0.231l-0.54,0.458l-0.006-0.005
		c-0.173,0.143-0.419,0.354-0.684,0.583c-0.319,0.273-0.665,0.571-0.948,0.804c-0.079,0.064-0.125,0.103-0.167,0.124
		c-0.029,0.023-0.086,0.07-0.203,0.167L67.6,25.75c-0.342,0.374-1.561,1.375-2.13,1.835l-0.005-0.007l-0.127,0.109
		c1.723,0.692,3.321,1.63,4.749,2.773l0.042-0.043l1.354-1.108c-0.168-0.702-0.298-1.215-0.428-1.724l0.012-0.004l-0.468-1.904
		l0.016-0.005c-0.008-0.032-0.016-0.067-0.024-0.105c-0.038-0.107-0.082-0.282-0.152-0.572l0.027-0.006
		C70.435,24.867,70.399,24.714,70.365,24.563z"/>
	<path d="M71.618,29.889l-0.715,0.587c-0.047,0.039-0.08,0.065-0.114,0.081l-0.297,0.241c0.224,0.19,0.444,0.385,0.659,0.585
		l0.809-0.035l-0.33-1.373l0.008-0.002L71.618,29.889z"/>
	<path d="M72.229,32.463l-0.145-0.604l-0.182,0.008c-0.098,0.003-0.172,0.008-0.234,0.011C71.858,32.07,72.046,32.264,72.229,32.463
		z"/>
	<path d="M62.37,18.466l6.26-1.09l-0.453-1.899l0.014-0.002l-0.185-0.77c-0.977-0.311-1.972-0.58-2.987-0.797l0.146-0.274
		l0.766-1.396l0.547-1.046l-0.559,0.933L65.14,13.58l-0.169,0.316c-0.017-0.003-0.034-0.008-0.052-0.012l-2.427,4.383L62.37,18.466z
		"/>
	<polygon points="161.697,63.554 161.693,64.289 161.724,64.412 161.778,63.558 161.768,56.582 161.764,56.643 	"/>
	<polygon points="148.571,8.597 148.598,8.898 148.598,8.555 148.542,7.37 148.543,8.445 	"/>
	<polygon points="148.562,12.365 148.611,12.063 148.567,9.612 148.563,9.634 148.529,12.063 148.53,12.322 	"/>
	<polygon points="113.448,9.805 113.473,9.654 113.458,8.58 113.419,9.764 113.425,10.107 	"/>
	<polygon points="113.455,10.474 113.446,12.927 113.5,13.227 113.533,13.181 113.528,12.925 113.46,10.496 	"/>
	<polygon points="161.35,9.89 161.373,9.739 161.36,8.665 161.321,9.848 161.327,10.191 	"/>
	<polygon points="161.357,10.559 161.349,13.011 161.402,13.312 161.436,13.266 161.431,13.009 161.362,10.581 	"/>
	<polygon points="130.775,82.19 130.479,81.794 130.845,82.352 131.615,83.518 	"/>
	<polygon points="129.506,80.221 129.252,79.822 128.75,78.995 129.188,79.865 	"/>
	<polygon points="100.398,9.548 100.404,9.204 100.365,8.021 100.351,9.095 100.376,9.248 	"/>
	<polygon points="100.421,12.421 100.413,9.97 100.407,9.991 100.34,12.419 100.335,12.677 100.368,12.721 	"/>
	<path d="M100.381,32.739l0.014-0.228l-0.068-1.207l0.004-2.989l0.039-2.902l-0.017-2.151l-0.098,1.976l-0.008,3.011l-0.001,1.226
		l0.009,1.85l-0.013,1.315C100.292,32.668,100.334,32.707,100.381,32.739z"/>
	<polygon points="212.983,34.438 214.411,34.448 215.874,34.458 215.827,34.407 214.329,34.417 212.806,34.415 211.425,34.398 
		211.249,34.398 211.473,34.41 	"/>
	<polygon points="145.272,29.394 144.351,30.665 144.093,31.088 144.475,30.542 	"/>
	<polygon points="142.997,32.578 142.72,32.961 142.138,33.735 142.783,33.007 	"/>
	<polygon points="170.731,34.238 168.564,34.245 167.881,34.287 168.802,34.272 	"/>
	<polygon points="165.327,34.278 164.674,34.284 163.338,34.267 164.675,34.359 	"/>
	<polygon points="120.308,22.529 119.537,22.537 119.428,22.567 119.213,22.595 119.459,22.594 	"/>
	<polygon points="118.728,22.553 118.712,22.549 116.969,22.533 116.782,22.533 116.751,22.566 116.968,22.615 	"/>
	<path d="M237.19,77.179V34.354l-0.079-1.277l-0.033-0.035l-0.013-0.001v0.012l-0.041,1.301h-0.04l0.008-1.383l0.061-1.204
		l0.053-1.333l0.036-0.802l-0.044-0.66l-0.017-1.345c-0.016,0.003-0.029,0.006-0.044,0.008l0.003,0.332l0.018,1.016l0.007,1.557
		l-0.052,1.227l-0.034,0.649l-0.026,0.531l-0.007,1.408h-0.021l0.009-1.384l-0.051,0.046l0.01,1.338h-12.823l0.033-0.95l0.03-0.802
		l-0.048-0.66l-0.023-1.345c-0.016,0.003-0.029,0.006-0.044,0.01l0.005,0.331l0.023,1.015l0.015,1.557l-0.03,0.845h-0.045v24.565
		c0,2.849-0.71,5.109-2.138,6.77c-1.425,1.664-3.324,2.495-5.7,2.495c-4.809,0-7.21-3.032-7.21-9.098V34.771l0.008-0.146
		l1.088-0.009l1.475-0.015l1.344,0.034l1.322,0.065l0.296,0.017l1.298-0.08l0.034-0.033l0.001-0.012h-0.011l-1.382-0.044
		l-1.415-0.02l-0.495-0.042l0.496,0.006l1.426,0.018l1.451,0.009l1.205,0.058l1.333,0.055l0.803,0.036l0.658-0.045l1.346-0.017
		c-0.003-0.014-0.007-0.03-0.01-0.044l-0.331,0.004l-1.015,0.018l-1.557,0.006l-1.228-0.051l-0.648-0.034l-0.531-0.027l-1.475-0.008
		l-1.428-0.014l-1.462-0.012l-1.631,0.018l-0.013-0.002l-0.938-0.003l0.034-0.684l0.016-0.296l-0.08-1.297l-0.031-0.035
		l-0.014-0.001v0.011l-0.043,1.38l-0.012,0.819h-0.035l0.009-0.831l0.01-1.451l0.059-1.205l0.054-1.333l0.036-0.802l-0.045-0.661
		l-0.018-1.344c-0.015,0.002-0.028,0.006-0.043,0.009l0.003,0.331l0.02,1.016l0.005,1.556l-0.052,1.227l-0.033,0.649l-0.027,0.532
		l-0.008,1.475l-0.008,0.832h-0.019l0.007-0.821l0.008-1.462l-0.051,0.046l0.011,1.5l-0.002,0.738h-5.521l-0.285-0.063l-1.439-0.031
		l-1.676,0.028l-1.466-0.021l-0.646-0.006l-0.424-0.007l-0.286,0.017l-0.248,0.011l-1.545,0.063l-1.003,0.008l-0.352,0.001
		l-0.544,0.009l0.224,0.054l0.482,0.089l0.13,0.015l1.048,0.078l0.308,0l0.271,0v25.663c0,12.044,4.975,18.067,14.923,18.067
		c5.479,0,9.853-2.527,13.125-7.587h0.207v6.435l-4.797,0.022l4.797,0.064v0.02h1.438l0.087,0.001l0.726-0.001h10.956v-0.019
		l1.853-0.002l2.934-0.013c-0.009-0.025-0.013-0.053-0.021-0.078L237.19,77.179z"/>
	<path d="M225.378,91.572c-0.02-0.039-0.047-0.071-0.076-0.092c-0.031-0.021-0.066-0.032-0.108-0.032h-3.258v-7.854
		c0-0.037-0.009-0.071-0.029-0.1c-0.017-0.026-0.05-0.05-0.097-0.065c-0.05-0.019-0.109-0.03-0.188-0.043
		c-0.075-0.014-0.175-0.017-0.29-0.017c-0.112,0-0.209,0.003-0.289,0.017c-0.078,0.013-0.142,0.024-0.188,0.043
		c-0.046,0.016-0.08,0.039-0.099,0.065c-0.018,0.028-0.028,0.063-0.028,0.1v8.408c0,0.185,0.048,0.312,0.146,0.385
		c0.095,0.071,0.197,0.108,0.304,0.108h4.017c0.042,0,0.077-0.011,0.108-0.032c0.029-0.021,0.057-0.053,0.076-0.099
		c0.021-0.043,0.038-0.099,0.047-0.159c0.01-0.064,0.014-0.144,0.014-0.236c0-0.094-0.004-0.173-0.014-0.24
		C225.416,91.665,225.398,91.611,225.378,91.572z"/>
	<path d="M235.429,83.628c-0.02-0.051-0.046-0.094-0.079-0.129c-0.032-0.034-0.078-0.063-0.139-0.081
		c-0.063-0.017-0.142-0.031-0.24-0.038c-0.098-0.007-0.221-0.01-0.371-0.01c-0.141,0-0.257,0.003-0.348,0.01
		c-0.093,0.007-0.166,0.021-0.227,0.038c-0.057,0.019-0.102,0.046-0.131,0.077c-0.031,0.032-0.055,0.075-0.074,0.127l-3.047,8.437
		c-0.037,0.106-0.058,0.188-0.06,0.252c-0.004,0.062,0.014,0.11,0.048,0.143c0.036,0.033,0.095,0.057,0.183,0.067
		c0.088,0.01,0.198,0.018,0.334,0.018c0.131,0,0.238-0.007,0.32-0.015c0.081-0.009,0.145-0.025,0.189-0.046s0.077-0.046,0.101-0.077
		c0.025-0.03,0.042-0.066,0.057-0.108l0.745-2.183h3.775l0.781,2.21c0.019,0.043,0.038,0.078,0.056,0.105
		c0.024,0.028,0.057,0.05,0.103,0.068c0.043,0.017,0.108,0.027,0.194,0.034c0.087,0.007,0.203,0.011,0.349,0.011
		c0.145,0,0.26-0.007,0.347-0.015c0.087-0.009,0.149-0.029,0.188-0.063c0.034-0.031,0.054-0.08,0.051-0.144
		c-0.001-0.063-0.021-0.146-0.06-0.25L235.429,83.628z M232.992,89.146l1.564-4.527h0.007l1.586,4.527H232.992z"/>
	<path d="M249.816,88.368c-0.162-0.192-0.35-0.352-0.564-0.474c-0.216-0.125-0.447-0.211-0.695-0.257
		c0.197-0.086,0.371-0.191,0.521-0.324c0.153-0.13,0.28-0.278,0.379-0.444c0.102-0.167,0.178-0.348,0.229-0.546
		c0.051-0.193,0.076-0.401,0.076-0.617c0-0.359-0.059-0.682-0.175-0.968c-0.117-0.284-0.29-0.526-0.521-0.723
		c-0.232-0.197-0.521-0.347-0.867-0.45c-0.348-0.102-0.792-0.154-1.335-0.154H244.8c-0.106,0-0.208,0.037-0.306,0.108
		c-0.094,0.073-0.144,0.2-0.144,0.384v8.1c0,0.185,0.05,0.312,0.144,0.385c0.098,0.071,0.199,0.108,0.306,0.108h2.374
		c0.341,0,0.643-0.024,0.908-0.073c0.265-0.051,0.514-0.124,0.745-0.222c0.231-0.099,0.439-0.221,0.624-0.365
		c0.185-0.146,0.343-0.313,0.475-0.506c0.132-0.192,0.232-0.408,0.304-0.648c0.074-0.241,0.109-0.504,0.109-0.79
		c0-0.31-0.045-0.592-0.141-0.85C250.105,88.784,249.979,88.561,249.816,88.368z M245.551,84.394h1.248
		c0.346,0,0.622,0.032,0.832,0.098s0.381,0.162,0.513,0.286c0.131,0.123,0.227,0.273,0.287,0.451
		c0.061,0.179,0.091,0.378,0.091,0.598c0,0.197-0.03,0.388-0.087,0.571c-0.06,0.185-0.15,0.349-0.278,0.485
		c-0.125,0.138-0.284,0.248-0.476,0.329c-0.191,0.084-0.444,0.122-0.755,0.122h-1.375V84.394z M248.936,90.628
		c-0.09,0.193-0.211,0.354-0.367,0.482c-0.157,0.128-0.339,0.224-0.543,0.29c-0.206,0.065-0.446,0.098-0.723,0.098h-1.752v-3.201
		h1.445c0.377,0,0.692,0.038,0.941,0.11c0.25,0.072,0.458,0.178,0.624,0.319c0.166,0.14,0.289,0.313,0.377,0.518
		c0.086,0.207,0.132,0.446,0.132,0.717C249.07,90.214,249.023,90.437,248.936,90.628z"/>
	<path d="M260.763,88.32c-0.195-0.192-0.416-0.36-0.666-0.504c-0.246-0.143-0.499-0.273-0.757-0.393
		c-0.256-0.12-0.51-0.238-0.758-0.354c-0.249-0.117-0.47-0.247-0.664-0.386c-0.194-0.141-0.351-0.304-0.467-0.486
		c-0.115-0.182-0.177-0.4-0.177-0.652c0-0.173,0.031-0.336,0.092-0.49c0.06-0.155,0.153-0.287,0.274-0.4
		c0.122-0.113,0.277-0.203,0.463-0.27c0.188-0.068,0.407-0.104,0.661-0.104c0.271,0,0.516,0.035,0.733,0.104
		c0.217,0.066,0.405,0.143,0.566,0.222c0.158,0.084,0.293,0.156,0.402,0.223c0.109,0.065,0.19,0.1,0.241,0.1
		c0.034,0,0.063-0.013,0.089-0.031c0.025-0.022,0.046-0.055,0.061-0.101c0.011-0.044,0.023-0.099,0.03-0.163
		c0.007-0.065,0.01-0.143,0.01-0.227c0-0.087-0.002-0.16-0.006-0.216c-0.006-0.057-0.012-0.105-0.023-0.145
		c-0.006-0.039-0.018-0.072-0.033-0.099c-0.015-0.025-0.043-0.062-0.088-0.105c-0.044-0.046-0.136-0.102-0.276-0.175
		c-0.142-0.072-0.301-0.139-0.48-0.196c-0.181-0.061-0.374-0.105-0.576-0.142c-0.204-0.034-0.406-0.052-0.608-0.052
		c-0.394,0-0.758,0.052-1.098,0.157c-0.341,0.106-0.633,0.26-0.877,0.46c-0.247,0.201-0.439,0.45-0.575,0.747
		c-0.14,0.299-0.21,0.636-0.21,1.015c0,0.37,0.063,0.688,0.18,0.951c0.12,0.266,0.275,0.495,0.467,0.692
		c0.191,0.195,0.411,0.368,0.653,0.513c0.244,0.145,0.494,0.277,0.753,0.397c0.254,0.119,0.508,0.236,0.754,0.35
		c0.245,0.114,0.465,0.241,0.656,0.38c0.189,0.136,0.347,0.298,0.461,0.48c0.12,0.182,0.178,0.403,0.178,0.66
		c0,0.237-0.043,0.451-0.126,0.639c-0.084,0.187-0.205,0.345-0.361,0.475c-0.157,0.129-0.344,0.228-0.563,0.298
		c-0.218,0.069-0.457,0.104-0.719,0.104c-0.347,0-0.654-0.04-0.917-0.122c-0.266-0.082-0.491-0.171-0.677-0.264
		c-0.188-0.094-0.342-0.18-0.46-0.26c-0.121-0.079-0.212-0.119-0.279-0.119c-0.034,0-0.068,0.008-0.096,0.024
		c-0.03,0.018-0.053,0.046-0.07,0.088c-0.021,0.042-0.034,0.098-0.044,0.166c-0.009,0.066-0.013,0.151-0.013,0.256
		c0,0.144,0.011,0.26,0.037,0.347c0.027,0.087,0.066,0.158,0.12,0.214c0.055,0.057,0.147,0.125,0.287,0.204
		c0.14,0.08,0.31,0.156,0.514,0.231c0.203,0.075,0.436,0.138,0.694,0.188c0.26,0.053,0.542,0.079,0.847,0.079
		c0.435,0,0.841-0.06,1.219-0.177c0.377-0.115,0.703-0.291,0.981-0.523c0.278-0.23,0.497-0.512,0.653-0.846
		c0.156-0.332,0.234-0.711,0.234-1.137c0-0.36-0.058-0.673-0.178-0.937S260.957,88.517,260.763,88.32z"/>
	<polygon points="113.208,88.179 113.128,88.356 114.086,88.565 114.857,88.485 115.55,88.396 116.056,88.34 115.124,88.234 	"/>
	<polygon points="119.223,88.657 120.554,88.649 120.741,88.619 121.113,88.593 120.688,88.593 	"/>
	<polygon points="122.573,88.496 122.647,88.487 123.34,88.396 123.846,88.34 122.915,88.235 120.999,88.18 120.917,88.356 
		121.643,88.516 121.006,88.528 121.033,88.532 121.741,88.534 121.877,88.565 122.149,88.537 124.041,88.548 124.36,88.547 
		124.414,88.514 124.041,88.466 	"/>
	<polygon points="133.996,88.548 134.581,88.547 135.78,88.565 134.581,88.47 	"/>
	<polygon points="140.809,88.399 140.943,88.4 142.167,88.387 141.316,88.266 140.331,88.339 	"/>
	<polygon points="127.013,88.657 128.344,88.649 128.531,88.62 128.903,88.593 128.478,88.594 	"/>
	<polygon points="128.797,88.528 128.824,88.532 130.821,88.543 129.151,88.569 131.094,88.57 131.471,88.547 131.832,88.548 
		132.15,88.547 132.205,88.516 131.832,88.467 	"/>
	<polygon points="139.496,88.532 138.671,88.542 136.941,88.569 138.884,88.57 	"/>
	<path d="M214.264,88.303l-0.293-0.026l-2.368-0.128l-0.692,0.003l-3.405,0.02l-3.194-0.009l-0.268-0.002l-0.229-0.012l-0.693,0.003
		l-0.185,0.002l-1.66-0.014l-2.77-0.061l-2.926-0.03l-3.408,0.046l-0.351,0.008l-1.105-0.023l-2.926-0.032l-3.408,0.048
		l-3.727,0.091l-3.673,0.06l-3.487,0.046l-0.426,0.004l-1.946,0.026l-2.426-0.081l-0.668-0.024l-2.611,0.145l-1.53-0.021
		l-2.981-0.102l-0.667-0.023l-2.847,0.158l-0.063-0.003l-1.49,0.093l-1.896,0.03l-2.593-0.067l-1.434-0.045l-0.811-0.115
		l-0.985,0.073l0.479,0.061l0.133,0.002l0.373-0.004l-1.056,0.065l-3.701,0.061l-1.242,0.008l-0.736-0.062l-0.505,0.067
		l-1.109,0.008l-2.662,0.063l2.448,0.056l3.727-0.055l1.516-0.024l2.29-0.051l3.512-0.033l0.724,0.021l-0.173,0.003l-3.593,0.022
		l-2.661,0.062l2.449,0.057l3.726-0.056l1.517-0.023l0.607-0.013l0.173,0.005l1.464,0.054l1.198,0.038l3.327-0.007l3.221,0.005
		h1.171l0.072,0.003l1.109-0.003h0.947l0.16-0.002l1.11-0.002l3.22,0.006h2.375l-0.264,0.041l0.333,0.011l-2.418-0.021h-3.22
		l-3.301,0.004l0.009,0.008l-1.279-0.013h-3.221l-3.299,0.004l0.105,0.093l3.382-0.037l3.433-0.021l0.911,0.004l0.065,0.055
		l3.38-0.038l3.434-0.02l3.116,0.011l0.396-0.004l-0.505-0.017l-0.74-0.006l3.463-0.024l1.412-0.04l-0.022-0.046l2.888-0.013
		l2.714-0.013l0.106,0.001l-2.82,0.039l-0.531,0.082l0.426,0.015l3.619-0.024l0.308-0.008l0.739,0.127l3.247,0.035l3.779-0.073
		l0.557,0.003l0.206,0.036l3.248,0.035l3.78-0.074l3.3,0.016l1.464,0.004l0.959,0.007l0.638-0.034l0.56-0.023l3.486-0.14
		l2.262-0.024l0.799-0.009l1.224-0.026l-0.505-0.093L214.264,88.303z M160.347,88.589l-3.273,0.006l-1.553-0.052l0.347-0.009
		l3.464-0.033l0.223,0.004l2.594,0.072l0.483,0.019L160.347,88.589z M162.911,88.531l0.656,0.002l0.646,0.041L162.911,88.531z"/>
	<polygon points="110.462,88.417 109.769,88.508 109.265,88.563 110.197,88.669 112.112,88.724 112.192,88.547 111.234,88.339 	"/>
	<polygon points="104.579,88.283 104.208,88.312 104.633,88.311 106.097,88.246 104.766,88.254 	"/>
	<polygon points="101.28,88.354 100.96,88.356 100.907,88.39 101.28,88.438 104.314,88.377 104.287,88.372 	"/>
	<path d="M143.413,77.282l-16.475-22.767l15.354-20.124l0.318,0.008l3.355,0.067l2.021,0.049l0.415-0.025v39.429l-0.034,1.754
		l0.011,1.828l0.005,0.644l0.017,0.989l0.097-0.406l0.162-0.882l0.028-0.236l0.024-0.329h12.861l-0.02,2.474l0.028,1.41l0.003-1.896
		l0.002-1.987h0.062V55.985h0.033l0.021,0.839l0.006-0.839h0.108l13.698,21.282h-0.254l-6.87,0.062l6.319,0.056l9.617-0.054
		l3.915-0.025l2.746-0.022l1.092,1.419l-0.676-1.036l-0.202-0.28l-0.076-0.103l0.119-0.001h0.06l0.297,0.407l4.076,5.53
		l-3.658-5.153l-0.577-0.786l2.713-0.024l3.646-0.014c-0.012-0.049-0.028-0.097-0.039-0.146l-3.679,0.089l-2.698,0.017l-1.692-2.313
		c-0.003,0.002-0.007,0.003-0.01,0.005l-14.747-20.379L188.47,36.78l0.587-0.733l0.942-1.164l-0.011-0.069l-0.525,0.666l0.859-1.126
		h-15.561l0.03-0.048l0.701-0.981l0.763-1.093l0.463-0.656l0.319-0.58l0.71-1.142c-0.015-0.006-0.027-0.01-0.042-0.016l-0.176,0.281
		l-0.532,0.865l-0.834,1.314l-0.706,1.005l-0.377,0.529l-0.311,0.433l-0.058,0.09h-0.023l0.054-0.081l-0.069,0.012l-0.043,0.069
		h-0.027l-12.787,19.829h-0.127l-0.02-1.704l-0.009,1.704h-0.013V13.727h-13.247v20.634l-2.703,0.033l-3.088-0.065l-1.633-0.049
		l-1.336-0.034l-3.712,0.02l-3.593,0.006l-3.681,0.014l-1.733,0.028l0.122-0.166l1.429-1.967l0.864-1.18l0.471-0.829
		c-0.03-0.01-0.057-0.022-0.085-0.033l-1.422,2.16l-1.314,1.81l-0.154,0.206l-2.274,0.038l-0.029-0.002l-2.534,0.019
		c-0.083,0.113-0.178,0.216-0.282,0.312h0.026l3.148-0.049l1.552-0.026l-12.62,19.576h-0.169V22.521l0.358-0.01l-0.358,0v-8.784
		h-13.248l-7.679,8.61l-0.712-0.005l-0.232,0.006l0.292,0.015l0.628,0.009l-0.045,0.052h-0.506l-2.128,0.054l-0.015-0.001
		l-1.318,0.01c-0.043,0.113-0.093,0.215-0.147,0.311l0.013,0l1.636-0.039l1.929-0.047l1.758,0.041l1.728,0.101l0.385,0.024
		l1.698-0.164l0.033-0.042h2.684v54.521l-5.454,0.05l5.454,0.05h0.077l0.791,0.006l1.227-0.006h10.674l0.09,1.035l0.032,0.237
		l0.175,0.878l0.026,1.182l0.08-1.767l0.076-0.646v-0.92v-0.916V55.985h0.169l13.633,21.182l-4.347-0.045
		c0.001,0.023,0.006,0.046,0.006,0.068h0.056l4.332,0.047l0.028,0.045h0.187l0.075,0.108l-0.066-0.108h3.524l1.412,0.019
		c-0.001-0.007-0.002-0.013-0.002-0.019H143.413z"/>
	<path d="M272.998,33.502c-5.463,0-9.245,2.915-11.347,8.742h-0.169v-7.985h-11.357l-0.473-0.023l-0.294-0.017l-0.657,0.04h-0.499
		v0.031l-0.142,0.008l-0.035,0.034l-0.002,0.013h0.012l0.167,0.005v0.068l-0.248-0.001l-1.205-0.059l-1.333-0.055l-0.801-0.035
		l-0.661,0.044l-1.344,0.017c0.002,0.015,0.005,0.03,0.009,0.044l0.33-0.003l1.016-0.019l1.557-0.006l1.228,0.052l0.648,0.034
		l0.531,0.026l0.273,0.001v0.019l-0.249-0.002L248,34.528l0.202-0.001v42.767h9.737c0,0.003,0.001,0.006,0.001,0.008
		c0,0.008-0.001,0.017-0.001,0.025l0.111-0.002l1.251-0.01l1.476-0.015l1.343,0.033l1.323,0.067l0.295,0.016l1.298-0.081
		l0.034-0.033v-0.011h-0.011l-1.38-0.044l-1.417-0.02l-0.493-0.041l0.494,0.005l1.426,0.017l1.453,0.01l1.204,0.06l1.333,0.054
		l0.801,0.035l0.66-0.046l1.345-0.017c-0.002-0.013-0.005-0.027-0.009-0.043l-0.332,0.004l-1.014,0.018l-1.558,0.006l-1.227-0.052
		l-0.649-0.033l-0.531-0.027l-1.476-0.007l-1.427-0.015l-0.781-0.007v-0.025l0.771,0.015l1.428,0.011l1.462,0.011l-0.046-0.051
		l-1.498,0.009l-1.522-0.002l-0.594-0.007V56.743c0-3.643,0.813-6.52,2.438-8.636c1.625-2.114,3.881-3.173,6.767-3.173
		c2.128,0,3.993,0.435,5.59,1.304v-12.23C275.492,33.67,274.399,33.502,272.998,33.502z"/>
	<polygon points="193.567,30.14 192.886,30.971 192.811,31.105 192.641,31.354 192.857,31.09 	"/>
	<polygon points="192.162,31.887 192.146,31.901 190.576,33.756 190.412,33.957 190.409,34.009 190.639,33.808 	"/>
	<path d="M42.064,35.579c0.984-1.648,2.209-3.134,3.631-4.408l-0.46,0.296l-0.067-0.09l-0.153,0.073l0.042,0.064
		c-0.096,0.079-0.278,0.191-0.431,0.284c-0.084,0.051-0.159,0.096-0.195,0.122l-0.026-0.03c-0.015,0.009-0.031,0.019-0.045,0.028
		l0.008,0.026c-0.034,0.014-0.202,0.104-0.435,0.252c-0.176,0.136-0.292,0.216-0.41,0.296c-0.098,0.067-0.197,0.136-0.347,0.248
		c-0.105,0.053-0.153,0.069-0.207,0.069h-0.166l-0.003-0.012l-0.037,0.02l0.083,0.117c-0.069,0.054-0.205,0.138-0.32,0.208
		l-0.013,0.008l-0.028,0.019l0.002,0.01l-0.284,0.171l-0.018-0.029c-0.14,0.09-0.297,0.192-0.501,0.322
		c0.068,0.318,0.145,0.68,0.252,1.241l-0.006,0.001L42.064,35.579z"/>
	<path d="M46.546,30.451l-2.532,0.45l-0.002-0.009l-0.044,0.006l-2.3,0.424c-0.154,0.023-0.208,0.027-0.233,0.027l-0.065-0.006
		c0.001,0.003-0.035,0.009-0.137,0.027l0.178,0.92l-0.005,0.001c0.063,0.341,0.116,0.596,0.165,0.829
		c0.027-0.014,0.052-0.025,0.075-0.035l0.017,0.032c0.096-0.057,0.213-0.132,0.351-0.226c0.02-0.013,0.038-0.025,0.054-0.037
		l-0.016-0.026c0.052-0.033,0.09-0.054,0.114-0.067l0.283-0.164l0.028,0.04l0.106-0.068l0.071,0.1l0.085-0.051
		c-0.037-0.166,0.083-0.256,0.654-0.645l0.016,0.019c0.515-0.344,0.998-0.64,1.399-0.851l0.019,0.028h0.185l-0.047-0.062
		l0.192-0.165c0.352-0.226,0.399-0.226,0.454-0.226h0.163l0.053,0.156c0.036,0.108-0.014,0.187-0.063,0.237
		C46.021,30.884,46.279,30.663,46.546,30.451z"/>
</g>
</svg>
