<svg enable-background="new 0 0 300 100" height="100" viewBox="0 0 300 100" width="300" xmlns="http://www.w3.org/2000/svg"><path d="m128.453 71.091c-1.173 0-2.34-.146-3.498-.438-1.159-.293-2.199-.801-3.118-1.52-.92-.72-1.672-1.68-2.26-2.879-.587-1.198-.878-2.706-.878-4.519 0-.665.052-1.465.159-2.398.105-.933.313-1.892.62-2.879.306-.985.731-1.966 1.278-2.939.548-.973 1.261-1.846 2.139-2.619.88-.772 1.945-1.399 3.199-1.879 1.252-.479 2.745-.72 4.479-.72 1.386 0 2.56.16 3.519.48.958.32 1.731.753 2.318 1.3.587.546 1.013 1.18 1.279 1.899.267.719.4 1.492.4 2.318 0 1.227-.247 2.266-.739 3.119-.494.853-1.133 1.565-1.921 2.14-.786.572-1.658 1.018-2.618 1.339-.958.319-1.906.566-2.838.739-.934.173-1.794.28-2.579.319-.787.04-1.395.06-1.819.06 0 .507.072 1.009.221 1.5.145.494.365.927.659 1.301.293.373.681.679 1.158.918.479.24 1.066.36 1.76.36.692 0 1.232-.113 1.62-.34.386-.227.698-.48.938-.761.24-.279.446-.532.621-.759.172-.226.405-.34.7-.34.133 0 .365.033.698.1.334.068.674.208 1.021.421.346.214.652.506.918.88.267.373.4.854.4 1.439 0 .772-.239 1.438-.72 1.998-.48.561-1.099 1.013-1.858 1.36-.759.346-1.605.6-2.54.759-.931.162-1.838.241-2.718.241zm.761-17.472c-.587 0-1.087.166-1.501.5-.412.334-.759.753-1.039 1.26-.28.506-.493 1.066-.639 1.679-.147.613-.261 1.2-.342 1.758 1.653-.025 2.994-.305 4.02-.838 1.026-.532 1.539-1.293 1.539-2.279 0-.533-.168-1.014-.499-1.439-.333-.427-.846-.641-1.539-.641z" fill="#010101"/><path d="m154.322 48.301c2.507 0 4.392.774 5.657 2.319 1.266 1.546 1.899 3.985 1.899 7.316 0 2.08-.237 3.934-.719 5.558-.48 1.627-1.147 3.007-1.999 4.14-.854 1.133-1.853 1.992-2.999 2.579-1.146.586-2.387.878-3.719.878-1.414 0-2.519-.306-3.318-.919-.801-.612-1.427-1.479-1.879-2.599-.081.96-.146 1.692-.201 2.199-.053.506-.093.913-.12 1.22-.026.307-.047.579-.06.819-.014.24-.04.56-.079.959-.041.4-.087.947-.142 1.64-.053.692-.133 1.652-.239 2.879-.026.321-.094.533-.199.64-.107.106-.333.16-.681.16h-1.438c-.827 0-1.499-.088-2.021-.26-.52-.174-.932-.42-1.239-.739-.307-.32-.518-.714-.638-1.18-.122-.467-.18-1.006-.18-1.62 0-.267.039-.986.118-2.159.081-1.173.182-2.578.3-4.218.12-1.64.254-3.405.399-5.297.148-1.894.288-3.699.422-5.419.132-1.719.245-3.245.338-4.578.094-1.332.167-2.252.221-2.759.026-.585.094-.933.201-1.039.079-.08.292-.12.639-.12h1.56c1.438 0 2.483.3 3.139.899.653.6.979 1.313.979 2.14.612-1.227 1.406-2.105 2.381-2.639.973-.533 2.179-.8 3.617-.8zm-2.918 5.318c-1.359 0-2.36.586-2.999 1.76-.64 1.172-.96 2.771-.96 4.797 0 .693.046 1.374.139 2.039.094.667.262 1.268.501 1.8.239.534.566.959.98 1.28.412.319.939.479 1.58.479 1.144 0 2.104-.56 2.878-1.68.772-1.12 1.159-2.879 1.159-5.279 0-.665-.046-1.311-.141-1.938-.094-.627-.259-1.18-.499-1.659-.239-.48-.574-.866-.999-1.161-.426-.291-.972-.438-1.639-.438z" fill="#010101"/><path d="m173.914 71.091c-1.838 0-3.365-.259-4.577-.779-1.214-.52-2.18-1.232-2.899-2.139-.719-.906-1.227-1.966-1.52-3.18-.294-1.211-.438-2.511-.438-3.897 0-1.599.19-3.165.577-4.698.389-1.533 1.048-2.898 1.979-4.098.934-1.199 2.166-2.166 3.699-2.898 1.532-.733 3.445-1.101 5.738-1.101 3.358 0 5.764.82 7.217 2.46 1.454 1.639 2.179 3.938 2.179 6.896 0 .826-.06 1.739-.178 2.739-.122 1-.348 1.992-.681 2.979-.335.987-.787 1.946-1.36 2.879-.574.934-1.3 1.759-2.178 2.479-.881.721-1.94 1.293-3.18 1.72-1.239.425-2.698.638-4.378.638zm1.879-17.472c-1.012 0-1.819.261-2.419.779-.599.521-1.053 1.146-1.358 1.879-.307.733-.508 1.507-.6 2.319-.094.813-.141 1.5-.141 2.059 0 1.761.28 3.054.839 3.879.562.826 1.36 1.24 2.401 1.24.932 0 1.699-.293 2.297-.88.601-.586 1.065-1.293 1.4-2.12.332-.826.56-1.691.68-2.599.119-.906.181-1.665.181-2.279 0-1.332-.248-2.378-.74-3.138-.495-.759-1.34-1.139-2.54-1.139z" fill="#010101"/><g fill="#008000"><path d="m198.185 48.301c2.266 0 3.932.447 4.997 1.34 1.066.895 1.601 2.032 1.601 3.419 0 1.173-.367 2.065-1.101 2.678-.731.615-1.792.92-3.179.92-.374 0-.627-.038-.759-.12-.134-.079-.199-.226-.199-.44 0-.238-.021-.512-.061-.818s-.134-.6-.281-.88c-.145-.279-.373-.513-.679-.699-.307-.188-.739-.28-1.299-.28-.747 0-1.347.18-1.8.54-.453.359-.68.807-.68 1.339 0 .561.232 1.006.7 1.34.465.333 1.051.646 1.759.939.706.294 1.473.593 2.299.9.827.306 1.592.713 2.299 1.219.707.507 1.293 1.141 1.76 1.899.467.761.699 1.739.699 2.938 0 1.919-.68 3.493-2.039 4.718-1.358 1.228-3.398 1.839-6.116 1.839-.746 0-1.606-.059-2.581-.179-.973-.121-1.898-.306-2.778-.56-.878-.254-1.619-.593-2.219-1.02-.6-.428-.899-.96-.899-1.601 0-.239.047-.532.141-.879.092-.347.238-.68.439-1 .199-.319.44-.593.719-.819.28-.226.62-.34 1.02-.34.32 0 .614.08.881.24.267.159.579.326.939.499.36.174.806.341 1.338.5.534.16 1.241.24 2.12.24.668 0 1.261-.08 1.779-.24.52-.159.78-.52.78-1.079 0-.506-.214-.912-.641-1.22-.427-.306-.967-.594-1.619-.86-.653-.265-1.359-.552-2.118-.858-.761-.307-1.467-.713-2.121-1.22-.652-.507-1.191-1.153-1.618-1.939s-.64-1.806-.64-3.059c0-1.359.273-2.512.819-3.459.545-.945 1.254-1.713 2.119-2.299.866-.586 1.846-1.006 2.938-1.26 1.095-.252 2.188-.379 3.281-.379z"/><path d="m216.897 71.091c-1.175 0-2.342-.146-3.5-.438-1.16-.293-2.2-.801-3.118-1.52-.92-.72-1.673-1.68-2.26-2.879-.586-1.198-.878-2.706-.878-4.519 0-.665.051-1.465.159-2.398.105-.933.313-1.892.619-2.879.306-.985.733-1.966 1.278-2.939.548-.973 1.261-1.846 2.14-2.619.88-.772 1.946-1.399 3.2-1.879 1.253-.479 2.745-.72 4.478-.72 1.386 0 2.559.16 3.519.48.959.32 1.733.753 2.319 1.3.586.546 1.013 1.18 1.279 1.899.267.719.399 1.492.399 2.318 0 1.227-.245 2.266-.739 3.119s-1.133 1.565-1.92 2.14c-.785.572-1.66 1.018-2.619 1.339-.958.319-1.905.566-2.838.739-.934.173-1.793.28-2.579.319-.788.04-1.393.06-1.818.06 0 .507.072 1.009.22 1.5.146.494.365.927.659 1.301.292.373.68.679 1.16.918.479.24 1.066.36 1.759.36s1.232-.113 1.618-.34c.388-.227.701-.48.94-.761.239-.279.446-.532.619-.759.173-.226.406-.34.7-.34.135 0 .367.033.699.1.333.068.673.208 1.02.421.347.214.652.506.919.88.268.373.402.854.402 1.439 0 .772-.242 1.438-.722 1.998-.479.561-1.099 1.013-1.858 1.36-.76.346-1.605.6-2.539.759-.931.162-1.838.241-2.717.241zm.759-17.472c-.587 0-1.088.166-1.5.5-.413.334-.76.753-1.039 1.26-.281.506-.493 1.066-.639 1.679-.148.613-.262 1.2-.341 1.758 1.653-.025 2.993-.305 4.02-.838 1.024-.532 1.539-1.293 1.539-2.279 0-.533-.169-1.014-.501-1.439-.333-.427-.845-.641-1.539-.641z"/><path d="m238.169 71.091c-1.174 0-2.339-.146-3.5-.438-1.16-.293-2.198-.801-3.118-1.52-.92-.72-1.673-1.68-2.26-2.879-.586-1.198-.878-2.706-.878-4.519 0-.665.053-1.465.159-2.398.107-.933.313-1.892.619-2.879.306-.985.733-1.966 1.278-2.939.548-.973 1.261-1.846 2.14-2.619.881-.772 1.945-1.399 3.2-1.879 1.252-.479 2.745-.72 4.479-.72 1.386 0 2.56.16 3.52.48s1.731.753 2.319 1.3c.585.546 1.012 1.18 1.278 1.899.267.719.4 1.492.4 2.318 0 1.227-.248 2.266-.739 3.119-.495.853-1.134 1.565-1.923 2.14-.785.572-1.656 1.018-2.617 1.339-.958.319-1.905.566-2.838.739-.935.173-1.793.28-2.578.319-.788.04-1.394.06-1.82.06 0 .507.073 1.009.22 1.5.146.494.366.927.66 1.301.292.373.68.679 1.159.918.479.24 1.065.36 1.76.36.692 0 1.232-.113 1.618-.34.388-.227.702-.48.939-.761.242-.279.448-.532.619-.759.174-.226.407-.34.701-.34.133 0 .366.033.7.1.332.068.671.208 1.021.421.347.214.65.506.918.88.267.373.398.854.398 1.439 0 .772-.24 1.438-.717 1.998-.481.561-1.101 1.013-1.86 1.36-.76.346-1.605.6-2.54.759-.931.162-1.838.241-2.717.241zm.76-17.472c-.587 0-1.087.166-1.5.5s-.76.753-1.039 1.26c-.28.506-.495 1.066-.639 1.679-.148.613-.263 1.2-.34 1.758 1.65-.025 2.991-.305 4.017-.838 1.026-.532 1.539-1.293 1.539-2.279 0-.533-.167-1.014-.498-1.439-.334-.427-.847-.641-1.54-.641z"/><path d="m257.521 71.091c-1.039 0-2.034-.185-2.979-.559-.947-.373-1.773-.959-2.479-1.76-.708-.8-1.268-1.812-1.681-3.039-.413-1.226-.62-2.704-.62-4.438 0-.772.055-1.633.161-2.579.105-.945.293-1.899.56-2.858.265-.961.641-1.893 1.119-2.799.48-.907 1.085-1.712 1.819-2.419s1.613-1.272 2.64-1.699c1.024-.427 2.231-.641 3.618-.641 1.332 0 2.404.234 3.22.7.811.467 1.325 1.272 1.538 2.419.054-1.04.106-1.945.159-2.719.054-.772.101-1.493.141-2.159.041-.666.087-1.333.14-1.999s.107-1.426.16-2.279c.027-.586.094-.933.199-1.039.054-.054.12-.087.201-.101.079-.014.226-.02.439-.02h1.562c.798 0 1.465.093 1.998.279s.958.44 1.278.76c.321.32.547.688.682 1.1.131.413.199.847.199 1.3-.107 1.333-.199 2.553-.281 3.657-.078 1.107-.174 2.367-.278 3.78-.107 1.411-.215 2.872-.321 4.376-.107 1.508-.213 3.001-.32 4.48s-.214 2.838-.32 4.078c-.104 1.238-.193 2.306-.258 3.198-.067.894-.113 1.486-.142 1.778-.053.321-.119.534-.198.641-.081.107-.308.16-.681.16h-1.439c-.56 0-1.086-.046-1.58-.141-.492-.093-.919-.253-1.278-.479s-.64-.532-.84-.92c-.2-.386-.301-.886-.301-1.498-.479 1.012-1.206 1.839-2.178 2.478-.974.641-2.194.961-3.659.961zm3.479-17.472c-1.359 0-2.366.593-3.021 1.78-.653 1.186-.979 2.778-.979 4.776 0 .693.046 1.374.14 2.039.094.667.26 1.268.5 1.8.239.534.565.959.979 1.28.412.319.94.479 1.579.479 1.146 0 2.106-.56 2.88-1.68.772-1.12 1.159-2.879 1.159-5.279 0-.665-.04-1.311-.121-1.938-.08-.627-.24-1.18-.479-1.659-.239-.48-.573-.866-.999-1.161-.426-.29-.972-.437-1.638-.437z"/></g><path d="m115.818 66.993c-.319-.492-.787-1.193-1.398-2.099l-3.358-4.798c1.812-.854 3.131-2.094 3.958-3.72.826-1.625 1.239-3.478 1.239-5.557 0-1.359-.181-2.585-.54-3.679-.359-1.093-.919-2.025-1.68-2.799-.76-.772-1.752-1.372-2.978-1.799-.684-.237-1.445-.401-2.276-.507l.007-.003c-2.727-.491-9.6.271-15.012.136-.412-.011-.396.624-.014.782 1.947.811 2.727 3.25 2.769 5.216-.015.289-.031.578-.048.893-.094 1.679-.248 3.865-.462 6.558-.104 1.28-.205 2.539-.298 3.778-.094 1.239-.181 2.379-.26 3.419-.082 1.038-.141 1.94-.18 2.699-.04.759-.062 1.3-.062 1.618 0 1.173.313 2.06.941 2.659.625.601 1.697.9 3.219.9h1.997c.24 0 .401-.046.481-.141.079-.093.132-.245.16-.459 0-.106.024-.435.078-.98s.107-1.239.161-2.078c.054-.841.119-1.793.199-2.86.081-1.064.161-2.185.239-3.358.613.135 1.4.228 2.36.28.319 1.307.659 2.56 1.02 3.759s.784 2.26 1.279 3.178c.493.92 1.051 1.66 1.68 2.22.625.56 1.364.839 2.219.839.772 0 1.472-.119 2.1-.359.626-.24 1.158-.526 1.599-.858.44-.333.772-.667.999-.999.229-.334.341-.595.341-.781.002-.24-.158-.607-.479-1.1zm-6.496-14.254c-.094.533-.288 1.034-.581 1.499-.294.468-.699.861-1.22 1.18-.519.319-1.193.479-2.018.479-.695 0-1.508-.106-2.44-.319.106-1.467.194-2.846.26-4.138.066-1.293.127-2.405.182-3.339.452-.053.879-.101 1.277-.14.401-.041.76-.061 1.081-.061 1.331 0 2.266.294 2.799.88.532.587.799 1.426.799 2.519 0 .427-.046.907-.139 1.44z" fill="#010101"/><path d="m52.743 75.628c13.444 0 24.34-2.17 24.34-4.845l-.287-7.021c-4.57 3.917-21.792 4.094-24.053 4.094-2.259 0-19.479-.13-24.05-4.048l-.289 6.975c0 2.675 10.898 4.845 24.339 4.845z" fill="#010101"/><path d="m28.404 74.396.303 6.987c0 2.676 10.595 4.831 24.036 4.831 13.444 0 24.009-2.089 24.009-4.764l.331-7.055c-4.569 3.918-22.079 4.049-24.34 4.049-2.259 0-19.769-.131-24.339-4.048z" fill="#010101"/><path d="m44.011 29.466c2.562 2.56 3.413 6.179 2.562 9.442-3.271.855-6.889.003-9.448-2.555-2.561-2.558-3.41-6.178-2.558-9.445 3.267-.852 6.885-.003 9.444 2.558z" fill="#008000"/><path d="m54.215 19.462c-4.171 4.673-5.288 11.01-3.496 16.568 5.727 1.16 11.896-.667 16.07-5.338 4.17-4.673 5.29-11.009 3.497-16.568-5.728-1.158-11.898.668-16.071 5.338z" fill="#008000"/><path d="m52.744 65.151c12.754 0 19.891-1.904 21.561-3.146-3.156-1.746-11.521-2.998-21.369-3.015-.978-2.271-1.683-4.815-2.105-7.455 4.654.126 9.317-.325 14.277-1.6.895 1.292 2.384 2.14 4.072 2.14 2.737 0 4.955-2.218 4.955-4.953s-2.218-4.953-4.955-4.953c-2.162 0-3.996 1.389-4.671 3.323-4.559 1.231-9.233 1.777-14.113 1.585-.384-10.746 4.026-20.646 11.62-27.518-6.444 5.343-11.37 12.484-13.994 20.706-1.024-2.361-2.451-4.33-4.661-5.539 2.739 3.851 3.606 8.897 3.112 12.027-1.839-.228-3.644-.562-5.409-.995-.592-2.071-2.495-3.59-4.759-3.59-2.736 0-4.954 2.218-4.954 4.953s2.218 4.953 4.954 4.953c1.601 0 3.019-.761 3.924-1.938 1.883.452 3.803.804 5.76 1.041-.159 2.686-.071 5.317.254 8.001-6.998.412-12.604 1.469-15.059 2.826 1.67 1.243 8.808 3.147 21.56 3.147z" fill="#010101"/></svg>