<svg enable-background="new 0 0 1000 350" height="350" viewBox="0 0 1000 350" width="1000" xmlns="http://www.w3.org/2000/svg"><g fill="#fff"><path d="m59.122 247.094h154.422v10.76h-154.422z"/><path d="m59.122 211.188h154.422v10.761h-154.422z"/><path d="m156.98 175.287h56.563v10.759h-56.563z"/><path d="m156.98 142.071h56.563v10.76h-56.563z"/><path d="m235.937 128.361v193.34h-199.209v-235.263h97.798v-13.45h-111.249v262.162h226.11v-206.789z"/><path d="m59.122 282.995h154.422v10.761h-154.422z"/><path d="m305.197 268.484v-126.728h54.058c24.106 0 36.158 10.132 36.158 30.396 0 16.483-11.787 28.684-35.36 36.601l43.513 59.731h-21.624l-40.322-56.983v-10.723c24.222-3.841 36.335-13.146 36.335-27.917 0-11.698-6.736-17.548-20.207-17.548h-36.157v113.171z"/><path d="m452.069 175.431c26.466 0 39.702 13.087 39.702 39.26 0 3.723-.267 7.71-.798 11.966h-65.313c0 19.023 11.106 28.533 33.321 28.533 10.577 0 19.969-1.18 28.182-3.544v13.293c-8.213 2.364-18.198 3.546-29.954 3.546-31.963 0-47.944-15.863-47.944-47.589-.001-30.31 14.267-45.465 42.804-45.465zm-26.41 37.576h50.337c-.354-16.307-8.33-24.46-23.927-24.46-16.543 0-25.346 8.153-26.41 24.46z"/><path d="m510.261 264.054v-14.181c10.931 3.546 21.978 5.316 33.145 5.316 14.828 0 22.245-4.429 22.245-13.292 0-8.27-5.173-12.407-15.511-12.407h-13.292c-20.088 0-30.133-9.157-30.133-27.472 0-17.725 12.908-26.588 38.729-26.588 11.106 0 22.124 1.479 33.055 4.432v14.18c-10.931-3.546-21.948-5.316-33.055-5.316-15.481 0-23.22 4.433-23.22 13.293 0 8.272 4.876 12.406 14.624 12.406h13.292c21.269 0 31.904 9.157 31.904 27.473 0 17.724-12.882 26.587-38.639 26.587-11.167-.001-22.214-1.476-33.144-4.431z"/><path d="m681.71 175.431v93.054h-11.254l-2.837-11.877c-11.285 7.919-22.629 11.877-34.029 11.877-21.388 0-32.083-11.551-32.083-34.652v-58.401h16.396v58.667c0 13.825 6.853 20.737 20.561 20.737 9.394 0 18.344-3.928 26.853-11.784v-67.62h16.393z"/><path d="m705.607 268.484v-93.054h11.078l2.747 11.701c8.922-7.8 18.641-11.701 29.157-11.701 13.471 0 22.657 4.255 27.562 12.762 10.103-8.507 20.351-12.762 30.75-12.762 21.387 0 32.081 11.787 32.081 35.361v57.692h-16.395v-58.577c0-13.884-5.848-20.827-17.546-20.827-8.745 0-16.928 4.017-24.549 12.053v67.352h-16.395v-58.313c0-14.062-5.793-21.092-17.369-21.092-9.218 0-17.459 4.017-24.728 12.053v67.352z"/><path d="m881.044 141.756v15.509h-16.395v-15.509zm0 33.675v93.054h-16.395v-93.054z"/><path d="m976.723 265.826c-7.681 1.771-15.951 2.658-24.813 2.658-33.087 0-49.626-16.101-49.626-48.299 0-29.833 16.539-44.755 49.626-44.755 8.862 0 17.133.889 24.813 2.661v13.292c-7.681-1.772-16.247-2.658-25.699-2.658-21.564 0-32.346 10.487-32.346 31.46 0 23.338 10.781 35.004 32.346 35.004 9.452 0 18.019-.885 25.699-2.658z"/><path d="m114.417 132.625c0 9.722-7.874 17.59-17.592 17.59-9.719 0-17.594-7.868-17.594-17.59 0-9.714 7.875-17.593 17.594-17.593 9.718 0 17.592 7.879 17.592 17.593z"/><path d="m114.122 156.146c-4.461 4.366-10.561 7.069-17.296 7.069-6.74 0-12.837-2.703-17.299-7.069-11.057.489-19.936 9.36-20.386 20.428-.013.291-.019 9.176-.019 9.472h75.405c0-.268-.005-9.117-.015-9.383-.407-11.11-9.304-20.025-20.39-20.517z"/><path d="m156.98 105.909h17.262v17.262h-17.262z"/><path d="m156.98 52.422h26.746v26.74h-26.746z"/><path d="m198.433 79.162h26.745v26.748h-26.745z"/><path d="m211.806 14.849h37.581v37.573h-37.581z"/></g></svg>