<svg enable-background="new 0 0 300 100" height="100" viewBox="0 0 300 100" width="300" xmlns="http://www.w3.org/2000/svg"><g transform="matrix(1.2935718 0 0 1.2935718 -44.037064 -14.679884)"><g><path d="m111.307 49.808c0-4.031 2.251-7.537 5.564-9.327-.896-3.438-2.358-7.034-4.238-9.983-3.587 1.035-7.61.14-10.435-2.686-2.809-2.808-3.707-6.8-2.703-10.369-3.177-1.886-6.558-3.288-10.044-4.166-1.815 3.235-5.276 5.425-9.249 5.425-3.986 0-7.455-2.202-9.263-5.452-3.497.874-6.871 2.262-10.044 4.136 1.028 3.583.135 7.604-2.688 10.426-2.85 2.85-6.914 3.724-10.523 2.648-1.75 2.697-3.275 6.615-4.153 10.02 3.313 1.792 5.514 5.297 5.565 9.327.026 2.021-.715 6.72-5.793 9.46.861 3.476 2.236 6.818 4.09 9.974 3.677-1.211 7.887-.364 10.815 2.562 2.945 2.946 3.782 7.194 2.532 10.892 3.17 1.896 6.512 3.173 9.994 4.057 1.744-3.462 5.328-5.838 9.468-5.838 4.129 0 7.705 2.364 9.454 5.812 3.487-.89 6.825-2.188 9.987-4.084-1.221-3.685-.378-7.906 2.553-10.838 2.901-2.899 7.063-3.759 10.719-2.593 2.207-3.89 3.117-6.15 4.073-10.016-3.376-1.774-5.681-5.31-5.681-9.387zm-31.104 25.279c-13.842 0-25.062-11.219-25.062-25.059 0-13.843 11.22-25.062 25.062-25.062 13.841 0 25.061 11.218 25.061 25.062 0 13.84-11.22 25.059-25.061 25.059z" fill="#006069"/><path d="m80.203 28.608c-11.831 0-21.419 9.59-21.419 21.42 0 11.831 9.588 21.421 21.418 21.421 11.828 0 21.42-9.589 21.423-21.419 0-.001 0-.001 0-.001 0-11.831-9.593-21.421-21.422-21.421zm-7.664 17.841-6.188 3.599 6.188 3.615v4.776l-10.181-6.399v-4.008l10.181-6.39zm7.544 13.831h-3.016l3.276-20.505h3.032zm17.962-8.24-10.179 6.399v-4.776l6.188-3.615-6.188-3.599v-4.806l10.179 6.39z" fill="#00b8d4"/></g><g fill="#00838f"><path d="m170.904 77.701c-.158.381-.357.666-.603.848-.243.183-.566.274-.965.274h-4.445c-.486 0-.821-.082-1.004-.249-.184-.165-.275-.37-.275-.612 0-.123.022-.297.065-.522.045-.228.082-.357.118-.391l3.622-9.496c.324-.831.318-1.763-.021-2.589l-10.65-25.23c0-.035-.01-.062-.026-.079v-.235c-.089-.192-.131-.408-.131-.653 0-.296.105-.53.314-.705s.53-.261.965-.261h4.261c.749 0 1.264.366 1.542 1.096 0 0 7.177 17.61 7.28 17.878.172.452.813.427.981-.028l7.246-17.85c.157-.382.357-.666.603-.848.241-.184.564-.274.965-.274h4.443c.487 0 .822.082 1.004.248.184.166.275.37.275.613 0 .123-.022.296-.065.522-.043.227-.082.357-.117.392z"/><path d="m218.548 44.868c-.57-1.754-.938-2.344-2.045-3.644-1.106-1.298-2.466-2.32-4.082-3.066-1.613-.746-3.614-.886-5.686-.886-1.301 0-6.222.065-9.651 3.496l-.181-1.44c-.053-.789-.708-1.403-1.499-1.403h-2.946c-.777 0-1.407.628-1.407 1.406v.401h.001v27.737c0 .509.135.898.407 1.172.272.271.698.406 1.276.406h3.415c.333 0 .605-.079.817-.235.21-.158.373-.368.486-.631.114-.265.188-.563.226-.896.033-.334.052-.667.052-1.001v-16.123c.107-2.32 2.085-6.619 7.425-6.925 1.174-.067 2.676.211 3.571.632.896.421 1.645.983 2.25 1.685.607.703 1.067 1.497 1.383 2.383.315.886.474 1.795.474 2.724v16.598c0 .667.119 1.132.355 1.396.237.264.707.394 1.409.394h3.068c.561 0 .99-.157 1.289-.473s.448-.79.448-1.422v-16.625c.001-2.017-.284-3.904-.855-5.66z"/><path d="m255.303 37.74h-3.538c-.771 0-1.397.624-1.399 1.396l-.003.901c-.072.548-.751.739-1.151.357-.302-.288-.616-.565-.948-.831-.705-.566-1.472-1.05-2.297-1.45-.829-.402-1.719-.714-2.67-.935-.95-.221-1.951-.333-3-.333-1.476 0-2.897.193-4.267.579-1.367.384-2.651.926-3.847 1.622-1.198.698-2.284 1.533-3.258 2.509-.976.976-1.813 2.061-2.509 3.257-.697 1.196-1.237 2.484-1.623 3.861-.385 1.377-.578 2.812-.578 4.304 0 1.491.193 2.925.578 4.303.386 1.376.926 2.663 1.623 3.859.695 1.197 1.533 2.286 2.509 3.271.974.984 2.06 1.822 3.258 2.521 1.195.697 2.479 1.238 3.847 1.622 1.369.386 2.791.579 4.267.579.951 0 1.878-.103 2.778-.308.901-.205 1.755-.491 2.56-.86.802-.37 1.553-.803 2.25-1.304.305-.218.597-.445.879-.678.415-.343 1.04-.107 1.113.411v1.285c0 .514.415.93.931.93h.58c.034.003.062.007.1.007h3.072c.063 0 .124-.004.188-.007h1.021c.514 0 .93-.416.93-.93v-.515-2.131-25.114-.69-.093c-.002-.771-.627-1.395-1.396-1.395zm-10.183 24.18c-.305.172-.618.335-.944.482-1.223.546-2.536.819-3.94.819-1.387 0-2.664-.273-3.835-.819-1.17-.547-2.188-1.288-3.055-2.223-.186-.2-.356-.411-.525-.623-1.519-1.765-2.442-4.057-2.442-6.566 0-2.512.925-4.803 2.443-6.568.168-.213.339-.423.524-.623.867-.936 1.885-1.681 3.055-2.236 1.171-.554 2.448-.832 3.835-.832 1.404 0 2.718.278 3.94.832.343.157.671.332.99.519 3.192 1.691 5.368 5.044 5.368 8.908 0 3.882-2.198 7.245-5.414 8.93z"/><path d="m154.207 53.007c-.611-1.289-1.467-2.35-2.563-3.177-1.098-.829-2.367-1.489-3.805-1.982-1.439-.493-2.949-.937-4.532-1.331-1.006-.242-1.955-.5-2.846-.777-.893-.276-1.678-.629-2.357-1.056-.68-.428-1.211-.959-1.592-1.593-.382-.634-.555-1.429-.521-2.385.059-1.652.716-2.87 1.976-3.651 3.239-2.008 8.547-.322 10.327.088.057.013.115.027.171.041.71.17 1.464-.126 1.811-.77l1.558-2.88c.307-.566.061-1.274-.546-1.481-3.213-1.084-8.741-2.37-13.882-1.372-1.645.319-3.046 1.093-4.271 2.017-1.226.924-2.212 2.109-2.958 3.559-.747 1.448-1.156 3.167-1.226 5.155-.065 1.802.182 3.313.739 4.535.557 1.223 1.328 2.241 2.314 3.056.985.815 2.137 1.467 3.453 1.954 1.316.488 2.702.918 4.153 1.291 1.099.264 2.146.529 3.141.803.996.27 1.891.606 2.685 1.01.793.405 1.413.911 1.862 1.517.447.609.655 1.392.621 2.347-.039 1.09-.325 1.996-.857 2.719-.534.723-1.226 1.286-2.076 1.687-.85.403-1.807.652-2.861.814-1.848.282-5.323.282-9.994-2.581-.613-.376-1.278-.063-1.649.553-.622.902-1.523 2.855-1.732 3.633-.182.673-.142 1.279.433 1.672 1.573 1.081 6.498 2.53 9.602 2.704 2.343.132 4.511-.074 6.498-.472 1.988-.4 3.687-1.057 5.101-1.973 1.414-.919 2.522-2.105 3.327-3.561.8-1.454 1.239-3.196 1.312-5.223.066-1.97-.205-3.6-.816-4.89z"/></g></g></svg>