<svg enable-background="new 0 0 1000 200" height="200" viewBox="0 0 1000 200" width="1000" xmlns="http://www.w3.org/2000/svg"><path d="m92.459 39.666h24.602v17.894h-24.602z" fill="#0d71b9"/><path d="m25.363 77.688h26.838v17.893h-26.838z"/><path d="m5.234 113.471h24.602v17.893h-24.602z"/><path d="m70.095 149.258h24.603v17.892h-24.603z" fill="#0d71b9"/><path d="m112.59 149.258h51.44v17.892h-51.44z"/><path d="m47.729 113.471h116.301v17.893h-116.301z" fill="#0d71b9"/><path d="m70.095 77.688h93.936v17.893h-93.936z"/><path d="m254.648 149.258h-32.468v17.891h19.451z" fill="#0d71b9"/><path d="m277.125 113.471h-54.945v17.892h41.933z" fill="#1d1d1b"/><g fill="#0d71b9"><path d="m268.844 77.688h-46.664v17.893h59.679z"/><path d="m636.15 59.099c-8.424 0-15.348-6.925-15.348-15.349s6.924-15.161 15.348-15.161 15.158 6.738 15.158 15.161-6.734 15.349-15.158 15.349zm-12.168 109.688v-97.52h24.335v97.52z"/><path d="m724.347 97.847c-3.747-3.745-6.928-5.804-12.919-5.804-7.482 0-15.723 5.615-15.723 17.971v58.773h-24.331v-97.52h23.768v9.358c4.681-5.615 14.042-10.481 24.525-10.481 9.545 0 16.283 2.432 23.023 9.171z"/><path d="m767.794 127.606c0 12.543 7.671 21.717 21.339 21.717 10.668 0 15.906-3 22.088-9.174l14.784 14.415c-9.919 9.92-19.466 15.349-37.062 15.349-23.024 0-45.111-10.483-45.111-49.979 0-31.82 17.223-49.79 42.49-49.79 27.143 0 42.489 19.841 42.489 46.609v10.854h-61.017zm34.813-27.139c-2.618-5.803-8.05-10.109-16.285-10.109-8.234 0-13.663 4.306-16.284 10.109-1.497 3.556-2.056 6.177-2.244 10.482h37.062c-.186-4.304-.749-6.926-2.249-10.482z"/><path d="m493.261 35.145h49.45c11.15 0 19.653.853 25.501 2.56 7.862 2.317 14.596 6.429 20.201 12.341 5.605 5.911 9.871 13.145 12.799 21.708 2.92 8.562 4.388 19.117 4.388 31.669 0 11.03-1.375 20.534-4.118 28.518-3.349 9.753-8.134 17.643-14.347 23.674-4.692 4.569-11.03 8.134-19.012 10.693-5.976 1.893-13.956 2.836-23.949 2.836h-50.913zm27.056 22.668v88.755h20.202c7.555 0 13.008-.428 16.361-1.282 4.387-1.098 8.025-2.954 10.921-5.577 2.895-2.618 5.256-6.929 7.085-12.934 1.829-5.999 2.742-14.178 2.742-24.542 0-10.357-.913-18.309-2.742-23.854-1.829-5.544-4.387-9.871-7.681-12.979-3.289-3.106-7.463-5.211-12.521-6.307-3.779-.852-11.182-1.279-22.212-1.279h-12.155z"/><path d="m992.659 72.073v20.474h-17.548v39.12c0 7.924.169 12.538.503 13.847.337 1.314 1.098 2.396 2.283 3.247 1.19.852 2.635 1.279 4.343 1.279 2.376 0 5.818-.821 10.331-2.47l2.194 19.928c-5.975 2.559-12.754 4.299-20.294 3.84-23.398-1.425-23.093-22.18-23.093-36.471v-42.32l-14.953.17v-20.474l14.953-.17v-23.375l23.732-12.945v36.321h17.549z"/><path d="m904.941 132.021c-.78 3.479-1.975 6.317-3.627 8.668-4.789 5.037-8.971 7.202-14.951 7.299-5.979-.097-10.16-2.262-14.949-7.299-3.254-4.629-4.752-11.123-4.752-20.756 0-9.62 1.495-15.947 4.74-20.557 4.793-5.043 8.979-7.214 14.961-7.313 5.984.099 10.17 2.27 14.963 7.313 1.946 2.761 3.253 6.164 3.993 10.5h24.5c-3.775-31.219-25.333-39.733-43.033-39.733-.146 0-.278.016-.423.017-.144-.001-.276-.017-.421-.017-19.47 0-43.616 10.293-43.616 49.79s24.146 49.979 43.616 49.979c.145 0 .277-.017.421-.019.145.002.277.019.423.019 17.307 0 38.297-8.304 42.747-37.892h-24.592z"/></g><path d="m344.05 35.194-25.507 43.194-25.373-43.194h-155.98v22.558l42.497-.019v111.653h26.837v-111.663l69.745-.032 26.86 40.829-45.655 70.866h32.251l29.608-48.296 29.518 48.296h32.427l-45.507-70.663 25.521-41.185 48.76-.084v111.932h26.839v-111.932h35.782v-2.132-4.731-15.397z"/></svg>