<?xml version="1.0" encoding="utf-8"?>
<!-- Generator: Adobe Illustrator 15.0.0, SVG Export Plug-In . SVG Version: 6.00 Build 0)  -->
<!DOCTYPE svg PUBLIC "-//W3C//DTD SVG 1.1//EN" "http://www.w3.org/Graphics/SVG/1.1/DTD/svg11.dtd">
<svg version="1.1" id="Layer_1" xmlns="http://www.w3.org/2000/svg" xmlns:xlink="http://www.w3.org/1999/xlink" x="0px" y="0px"
	 width="100px" height="100px" viewBox="0 0 100 100" enable-background="new 0 0 100 100" xml:space="preserve">
<g>
	<path d="M46.368,67.864c0,0.088,0,0.176,0,0.259c0,0.085,0.018,0.155,0.053,0.209c0.036,0.052,0.08,0.087,0.133,0.1
		c0.054,0.014,0.116,0.028,0.188,0.048h0.201c0.114,0,0.214-0.008,0.299-0.021c0.086-0.013,0.149-0.056,0.195-0.126
		c0.034-0.054,0.051-0.128,0.045-0.223c-0.004-0.092-0.005-0.184-0.005-0.273v-1.044v-5.699v-1.337c0-0.125,0-0.244,0-0.355
		c0-0.11-0.028-0.202-0.081-0.274c-0.036-0.045-0.093-0.074-0.173-0.086c-0.081-0.014-0.167-0.02-0.255-0.02
		c-0.018,0.008-0.041,0.013-0.067,0.013c-0.027,0-0.05,0.005-0.067,0.012c-0.081,0.019-0.144,0.056-0.186,0.108
		c-0.056,0.08-0.098,0.174-0.128,0.281c-0.031,0.107-0.073,0.206-0.127,0.294c-0.081,0.125-0.165,0.24-0.254,0.349
		c-0.088,0.105-0.197,0.201-0.321,0.281c-0.117,0.07-0.237,0.13-0.362,0.18c-0.125,0.049-0.253,0.095-0.389,0.141
		c-0.052,0.018-0.106,0.029-0.16,0.032c-0.054,0.007-0.103,0.014-0.147,0.021c-0.097,0.025-0.218,0.04-0.36,0.04
		c-0.145,0-0.251,0.021-0.323,0.066c-0.062,0.036-0.109,0.099-0.139,0.188c-0.033,0.089-0.039,0.186-0.021,0.293
		c0.01,0.044,0.014,0.083,0.014,0.113c0,0.032,0.009,0.061,0.026,0.087c0.055,0.1,0.152,0.149,0.296,0.153
		c0.142,0.005,0.289,0.008,0.44,0.008h1.019c0.106,0,0.206,0.003,0.299,0.007c0.095,0.005,0.172,0.029,0.236,0.074
		c0.053,0.044,0.082,0.095,0.086,0.153c0.006,0.058,0.016,0.128,0.034,0.207v4.764V67.864z"/>
	<path d="M53.806,67.864c0,0.088,0,0.176,0,0.259c0,0.085,0.018,0.155,0.055,0.209c0.035,0.052,0.08,0.087,0.133,0.1
		c0.054,0.014,0.117,0.028,0.187,0.048h0.2c0.117,0,0.218-0.008,0.302-0.021c0.084-0.013,0.149-0.056,0.194-0.126
		c0.035-0.054,0.05-0.128,0.047-0.223c-0.005-0.092-0.008-0.184-0.008-0.273v-1.044v-5.699v-1.337c0-0.125,0-0.244,0-0.355
		c0-0.11-0.025-0.202-0.079-0.274c-0.036-0.045-0.094-0.074-0.174-0.086c-0.082-0.014-0.165-0.02-0.254-0.02
		c-0.018,0.008-0.041,0.013-0.068,0.013c-0.026,0-0.048,0.005-0.066,0.012c-0.08,0.019-0.142,0.056-0.187,0.108
		c-0.054,0.08-0.097,0.174-0.126,0.281c-0.032,0.107-0.075,0.206-0.128,0.294c-0.081,0.125-0.166,0.24-0.255,0.349
		c-0.09,0.105-0.196,0.201-0.32,0.281c-0.118,0.07-0.236,0.13-0.361,0.18c-0.125,0.049-0.254,0.095-0.389,0.141
		c-0.053,0.018-0.106,0.029-0.16,0.032c-0.054,0.007-0.103,0.014-0.147,0.021c-0.098,0.025-0.219,0.04-0.36,0.04
		c-0.146,0-0.251,0.021-0.322,0.066c-0.062,0.036-0.11,0.099-0.141,0.188c-0.032,0.089-0.037,0.186-0.02,0.293
		c0.009,0.044,0.014,0.083,0.014,0.113c0,0.032,0.009,0.061,0.024,0.087c0.056,0.1,0.152,0.149,0.297,0.153
		c0.143,0.005,0.289,0.008,0.439,0.008h1.018c0.108,0,0.209,0.003,0.302,0.007c0.095,0.005,0.173,0.029,0.233,0.074
		c0.055,0.044,0.084,0.095,0.088,0.153c0.004,0.058,0.016,0.128,0.033,0.207v4.764V67.864z"/>
	<path d="M49.622,48.052c0.055,0.099,0.153,0.149,0.296,0.155c0.142,0.004,0.29,0.006,0.439,0.006h1.02
		c0.105,0,0.207,0.002,0.3,0.007c0.095,0.004,0.172,0.028,0.235,0.073c0.054,0.044,0.083,0.096,0.085,0.153
		c0.007,0.059,0.017,0.128,0.035,0.208v4.763v0.978c0,0.088,0,0.176,0,0.261s0.018,0.153,0.053,0.207
		c0.036,0.053,0.081,0.087,0.135,0.1c0.054,0.014,0.115,0.029,0.187,0.048h0.202c0.115,0,0.214-0.007,0.3-0.021
		c0.085-0.013,0.149-0.055,0.194-0.126c0.034-0.054,0.052-0.128,0.045-0.221c-0.003-0.094-0.006-0.187-0.006-0.274v-1.044v-5.698
		v-1.339c0-0.125,0-0.242,0-0.355c0-0.111-0.026-0.202-0.079-0.274c-0.036-0.044-0.093-0.073-0.174-0.086
		c-0.08-0.013-0.165-0.02-0.255-0.02c-0.018,0.009-0.04,0.013-0.065,0.013c-0.028,0-0.051,0.005-0.07,0.014
		c-0.077,0.017-0.142,0.053-0.185,0.106c-0.055,0.081-0.096,0.174-0.128,0.281c-0.031,0.107-0.072,0.206-0.128,0.295
		c-0.079,0.125-0.164,0.241-0.253,0.347c-0.09,0.107-0.197,0.201-0.322,0.282c-0.115,0.072-0.236,0.131-0.361,0.18
		c-0.123,0.049-0.253,0.096-0.388,0.14c-0.052,0.019-0.106,0.029-0.159,0.034c-0.053,0.004-0.103,0.012-0.148,0.021
		c-0.098,0.025-0.218,0.04-0.36,0.04c-0.144,0-0.251,0.021-0.323,0.065c-0.062,0.037-0.109,0.099-0.139,0.188
		c-0.033,0.089-0.039,0.188-0.022,0.295c0.01,0.044,0.015,0.082,0.015,0.113C49.597,47.997,49.605,48.026,49.622,48.052z"/>
	<path d="M48.447,41.535c0.063,0.009,0.124,0.015,0.181,0.02c0.057,0.004,0.114,0.015,0.167,0.033h0.081
		c0.027,0.009,0.057,0.009,0.093,0c0.037-0.009,0.077-0.004,0.121,0.013c0.027,0.009,0.072,0.014,0.133,0.014
		s0.112-0.005,0.147-0.014c0.035-0.009,0.074-0.011,0.114-0.006c0.04,0.004,0.077,0.002,0.114-0.007
		c0.106-0.018,0.208-0.031,0.307-0.041c0.097-0.009,0.195-0.03,0.294-0.066c0.09-0.026,0.182-0.053,0.281-0.081
		c0.098-0.027,0.184-0.062,0.254-0.106c0.055-0.036,0.109-0.069,0.168-0.1c0.058-0.031,0.109-0.065,0.155-0.101
		c0.169-0.116,0.326-0.267,0.476-0.455c0.146-0.187,0.265-0.379,0.353-0.575c0.035-0.08,0.071-0.162,0.103-0.247
		c0.029-0.084,0.063-0.172,0.098-0.261c0.02-0.071,0.036-0.145,0.056-0.221c0.017-0.076,0.035-0.149,0.051-0.222
		c0.036-0.115,0.06-0.234,0.069-0.354c0.009-0.121,0.025-0.243,0.053-0.368v-0.134c0.02-0.088,0.027-0.181,0.027-0.274
		c0-0.094,0.009-0.186,0.026-0.275v-0.146v-0.214c0.017-0.063,0.024-0.132,0.02-0.208c-0.004-0.076-0.005-0.149-0.005-0.22v-0.416
		c0-0.035,0-0.073,0-0.114c0-0.04-0.007-0.074-0.015-0.1c-0.018-0.054-0.02-0.114-0.007-0.182c0.014-0.066,0.012-0.126-0.007-0.181
		v-0.12c-0.008-0.044-0.012-0.092-0.006-0.14c0.003-0.049,0.002-0.096-0.007-0.141c-0.008-0.035-0.012-0.071-0.008-0.107
		c0.005-0.035,0-0.076-0.02-0.119c-0.017-0.099-0.029-0.197-0.032-0.295c-0.006-0.099-0.021-0.197-0.048-0.294
		c-0.018-0.072-0.035-0.145-0.047-0.222c-0.014-0.074-0.029-0.148-0.046-0.22c-0.045-0.125-0.085-0.246-0.121-0.36
		c-0.036-0.117-0.075-0.229-0.121-0.336c-0.223-0.508-0.563-0.902-1.016-1.183c-0.456-0.281-1.053-0.413-1.793-0.396
		c-0.063,0.01-0.121,0.014-0.174,0.014c-0.053,0-0.111,0.005-0.174,0.014c-0.126,0.027-0.248,0.048-0.369,0.067
		c-0.12,0.018-0.239,0.049-0.355,0.093c-0.409,0.18-0.729,0.397-0.955,0.656c-0.229,0.259-0.426,0.594-0.597,1.004
		c-0.062,0.133-0.106,0.275-0.133,0.421c-0.026,0.148-0.063,0.297-0.107,0.449c-0.018,0.044-0.025,0.092-0.02,0.141
		c0.004,0.048-0.002,0.095-0.02,0.141c-0.009,0.089-0.019,0.175-0.028,0.26c-0.009,0.085-0.017,0.172-0.027,0.261l-0.04,0.563v0.253
		c-0.018,0.072-0.022,0.159-0.013,0.262c0.008,0.103,0.013,0.193,0.013,0.274c0,0.07-0.005,0.145-0.013,0.221
		c-0.009,0.076-0.004,0.145,0.013,0.208c0.019,0.044,0.022,0.09,0.014,0.134c-0.008,0.045-0.008,0.085,0,0.12
		c0.009,0.046,0.009,0.092,0,0.141c-0.008,0.049-0.004,0.096,0.013,0.141c0,0.045,0,0.091,0,0.141c0,0.049,0.005,0.096,0.013,0.14
		c0.01,0.036,0.012,0.072,0.007,0.107c-0.005,0.035-0.001,0.07,0.007,0.106c0.017,0.098,0.032,0.197,0.041,0.294
		c0.008,0.098,0.021,0.197,0.039,0.295c0.037,0.143,0.067,0.279,0.093,0.407c0.028,0.129,0.068,0.257,0.121,0.381
		c0.106,0.277,0.232,0.531,0.375,0.762c0.144,0.232,0.321,0.429,0.537,0.589c0.043,0.036,0.09,0.065,0.139,0.088
		c0.05,0.022,0.096,0.05,0.141,0.086c0.125,0.072,0.255,0.13,0.387,0.174C48.153,41.446,48.294,41.489,48.447,41.535z
		 M47.432,38.886c-0.038-0.098-0.058-0.203-0.062-0.315c-0.005-0.111-0.019-0.22-0.048-0.327c-0.008-0.098-0.014-0.189-0.019-0.274
		c-0.004-0.085-0.011-0.173-0.021-0.262c-0.007-0.017-0.01-0.042-0.005-0.073c0.004-0.031,0.005-0.056,0.005-0.073V37.32
		c-0.017-0.063-0.023-0.131-0.018-0.207c0.003-0.075,0.007-0.149,0.007-0.221v-0.401c0-0.045,0-0.085,0-0.12
		c0-0.037,0.004-0.067,0.011-0.094v-0.161c0-0.07,0.003-0.145,0.007-0.221c0.004-0.075,0.006-0.149,0.006-0.22
		c0.009-0.089,0.018-0.177,0.026-0.262c0.011-0.084,0.019-0.167,0.029-0.248c0.006-0.043,0.011-0.09,0.011-0.14
		s0.01-0.095,0.028-0.141c0.026-0.116,0.05-0.229,0.074-0.341c0.021-0.112,0.054-0.216,0.099-0.314
		c0.099-0.25,0.221-0.47,0.369-0.663c0.147-0.191,0.341-0.34,0.582-0.448c0.062-0.027,0.122-0.047,0.181-0.06
		c0.057-0.013,0.123-0.029,0.193-0.047c0.027-0.009,0.062-0.011,0.108-0.006c0.044,0.004,0.074-0.002,0.093-0.021
		c0.258,0,0.476,0.025,0.655,0.074c0.178,0.049,0.339,0.123,0.482,0.221c0.222,0.161,0.399,0.368,0.529,0.623
		c0.128,0.254,0.224,0.542,0.289,0.862c0.061,0.321,0.101,0.665,0.119,1.031c0.019,0.365,0.026,0.74,0.026,1.124
		c0,0.366-0.008,0.731-0.026,1.096c-0.019,0.366-0.072,0.692-0.16,0.978c-0.018,0.071-0.036,0.138-0.048,0.2
		c-0.013,0.063-0.033,0.125-0.06,0.187c-0.062,0.152-0.125,0.282-0.187,0.388c-0.063,0.107-0.139,0.223-0.229,0.348
		c-0.053,0.054-0.099,0.09-0.133,0.107c-0.017,0.017-0.036,0.035-0.053,0.053c-0.019,0.019-0.04,0.036-0.067,0.054
		c-0.144,0.099-0.304,0.174-0.482,0.228c-0.053,0.018-0.11,0.028-0.173,0.034c-0.063,0.004-0.127,0.014-0.188,0.032
		c-0.055,0.019-0.128,0.022-0.221,0.013c-0.093-0.008-0.157-0.017-0.194-0.027c-0.044-0.017-0.082-0.024-0.113-0.019
		c-0.032,0.004-0.065-0.002-0.102-0.021c-0.284-0.089-0.521-0.223-0.707-0.402c-0.171-0.179-0.299-0.37-0.382-0.575
		C47.581,39.389,47.502,39.153,47.432,38.886z"/>
	<path d="M55.94,34.658c0.106,0,0.207,0.002,0.301,0.006c0.093,0.004,0.172,0.029,0.233,0.073c0.055,0.045,0.083,0.097,0.088,0.154
		c0.005,0.059,0.015,0.128,0.033,0.208v4.763v0.977c0,0.09,0,0.176,0,0.26c0,0.085,0.017,0.154,0.054,0.208
		c0.036,0.053,0.081,0.087,0.132,0.1c0.055,0.014,0.116,0.03,0.188,0.048h0.201c0.116,0,0.217-0.007,0.302-0.022
		c0.085-0.013,0.148-0.055,0.194-0.126c0.033-0.054,0.051-0.126,0.046-0.221c-0.005-0.094-0.007-0.185-0.007-0.274v-1.044v-5.699
		v-1.338c0-0.124,0-0.242,0-0.355c0-0.111-0.025-0.202-0.08-0.273c-0.036-0.045-0.094-0.074-0.174-0.087
		c-0.081-0.013-0.165-0.021-0.253-0.021c-0.019,0.01-0.041,0.014-0.067,0.014s-0.051,0.005-0.067,0.014
		c-0.08,0.017-0.144,0.053-0.187,0.107c-0.054,0.081-0.097,0.174-0.128,0.28c-0.03,0.108-0.073,0.206-0.127,0.295
		c-0.08,0.125-0.167,0.241-0.254,0.348c-0.089,0.106-0.198,0.2-0.321,0.281c-0.116,0.071-0.236,0.131-0.363,0.18
		c-0.123,0.05-0.252,0.097-0.387,0.14c-0.054,0.019-0.107,0.03-0.158,0.034c-0.056,0.003-0.104,0.011-0.149,0.02
		c-0.098,0.026-0.219,0.041-0.361,0.041s-0.249,0.022-0.321,0.066c-0.061,0.036-0.108,0.1-0.141,0.188
		c-0.03,0.089-0.036,0.188-0.02,0.295c0.009,0.044,0.015,0.083,0.015,0.114c0,0.031,0.009,0.059,0.026,0.087
		c0.054,0.098,0.15,0.149,0.295,0.154c0.142,0.004,0.288,0.007,0.44,0.007H55.94z"/>
	<path d="M34.746,48.052c0.055,0.099,0.152,0.149,0.295,0.155c0.142,0.004,0.29,0.006,0.44,0.006h1.017
		c0.108,0,0.208,0.002,0.301,0.007c0.095,0.004,0.172,0.028,0.234,0.073c0.054,0.044,0.083,0.096,0.087,0.153
		c0.004,0.059,0.016,0.128,0.033,0.208v4.763v0.978c0,0.088,0,0.176,0,0.261s0.017,0.153,0.054,0.207
		c0.036,0.053,0.08,0.087,0.133,0.1c0.053,0.014,0.116,0.029,0.187,0.048h0.201c0.116,0,0.216-0.007,0.301-0.021
		c0.084-0.013,0.149-0.055,0.194-0.126c0.036-0.054,0.052-0.128,0.047-0.221c-0.004-0.094-0.007-0.187-0.007-0.274v-1.044v-5.698
		v-1.339c0-0.125,0-0.242,0-0.355c0-0.111-0.026-0.202-0.081-0.274c-0.034-0.044-0.092-0.073-0.173-0.086
		c-0.081-0.013-0.165-0.02-0.253-0.02c-0.018,0.009-0.041,0.013-0.068,0.013c-0.025,0-0.048,0.005-0.065,0.014
		c-0.081,0.017-0.144,0.053-0.188,0.106c-0.053,0.081-0.096,0.174-0.126,0.281c-0.032,0.107-0.075,0.206-0.128,0.295
		c-0.081,0.125-0.165,0.241-0.253,0.347c-0.091,0.107-0.197,0.201-0.322,0.282c-0.116,0.072-0.236,0.131-0.361,0.18
		c-0.125,0.049-0.253,0.096-0.389,0.14c-0.053,0.019-0.106,0.029-0.159,0.034c-0.055,0.004-0.103,0.012-0.147,0.021
		c-0.098,0.025-0.218,0.04-0.362,0.04c-0.143,0-0.25,0.021-0.321,0.065c-0.062,0.037-0.109,0.099-0.139,0.188
		c-0.033,0.089-0.039,0.188-0.021,0.295c0.01,0.044,0.014,0.082,0.014,0.113C34.72,47.997,34.729,48.026,34.746,48.052z"/>
	<path d="M47.578,52.889c0.017-0.074,0.036-0.149,0.053-0.222c0.036-0.115,0.059-0.232,0.067-0.354
		c0.009-0.12,0.027-0.241,0.053-0.366v-0.135c0.019-0.089,0.027-0.18,0.027-0.275c0-0.092,0.009-0.184,0.028-0.273v-0.147v-0.213
		c0.017-0.062,0.022-0.132,0.018-0.208c-0.004-0.076-0.005-0.149-0.005-0.219v-0.416c0-0.034,0-0.073,0-0.113
		s-0.004-0.073-0.013-0.101c-0.019-0.053-0.021-0.113-0.007-0.181c0.013-0.065,0.011-0.126-0.007-0.18v-0.121
		c-0.008-0.043-0.011-0.092-0.006-0.14c0.003-0.049,0.001-0.095-0.007-0.141c-0.008-0.035-0.011-0.07-0.006-0.106
		c0.005-0.036-0.002-0.077-0.021-0.12c-0.017-0.099-0.029-0.197-0.033-0.296c-0.004-0.097-0.02-0.195-0.047-0.292
		c-0.017-0.072-0.033-0.146-0.045-0.222c-0.015-0.075-0.03-0.149-0.047-0.22c-0.044-0.124-0.085-0.244-0.121-0.362
		c-0.036-0.114-0.076-0.226-0.121-0.334c-0.223-0.507-0.561-0.903-1.018-1.183c-0.454-0.281-1.052-0.413-1.791-0.395
		c-0.064,0.009-0.122,0.013-0.175,0.013s-0.112,0.005-0.173,0.014c-0.125,0.026-0.249,0.047-0.369,0.067
		c-0.121,0.017-0.238,0.048-0.354,0.093c-0.41,0.179-0.73,0.396-0.957,0.655c-0.227,0.259-0.426,0.594-0.595,1.004
		c-0.063,0.134-0.108,0.273-0.133,0.421c-0.027,0.146-0.063,0.296-0.107,0.448c-0.018,0.044-0.024,0.09-0.02,0.139
		c0.004,0.05-0.003,0.096-0.021,0.141c-0.008,0.09-0.017,0.176-0.027,0.261c-0.009,0.085-0.018,0.171-0.026,0.261l-0.041,0.562
		v0.254c-0.018,0.072-0.022,0.159-0.014,0.261c0.009,0.102,0.014,0.194,0.014,0.273c0,0.073-0.005,0.146-0.014,0.222
		c-0.008,0.076-0.004,0.145,0.014,0.208c0.017,0.044,0.022,0.088,0.013,0.133c-0.009,0.044-0.009,0.085,0,0.12
		c0.009,0.045,0.009,0.091,0,0.141c-0.009,0.049-0.004,0.097,0.013,0.139c0,0.046,0,0.093,0,0.143c0,0.049,0.004,0.097,0.015,0.141
		c0.008,0.035,0.012,0.07,0.005,0.106c-0.004,0.036-0.001,0.07,0.008,0.106c0.017,0.099,0.031,0.197,0.04,0.295
		c0.009,0.098,0.023,0.196,0.041,0.293c0.036,0.145,0.067,0.281,0.093,0.41c0.027,0.128,0.067,0.256,0.121,0.381
		c0.107,0.276,0.232,0.531,0.374,0.761c0.144,0.234,0.322,0.429,0.536,0.59c0.043,0.036,0.091,0.065,0.141,0.088
		c0.049,0.022,0.095,0.051,0.139,0.086c0.125,0.072,0.255,0.129,0.389,0.174c0.134,0.046,0.277,0.089,0.428,0.135
		c0.063,0.008,0.123,0.017,0.182,0.019c0.058,0.006,0.114,0.018,0.167,0.035h0.08c0.027,0.008,0.059,0.008,0.093,0
		c0.036-0.01,0.076-0.005,0.122,0.014c0.026,0.009,0.07,0.013,0.132,0.013c0.063,0,0.111-0.004,0.148-0.013
		c0.036-0.01,0.074-0.012,0.113-0.007c0.04,0.005,0.077,0.001,0.114-0.007c0.107-0.018,0.21-0.032,0.309-0.041
		c0.097-0.009,0.195-0.031,0.292-0.066c0.091-0.026,0.184-0.054,0.282-0.081s0.183-0.062,0.253-0.105
		c0.054-0.036,0.11-0.07,0.168-0.101c0.057-0.031,0.109-0.065,0.155-0.101c0.168-0.117,0.327-0.269,0.475-0.457
		c0.146-0.187,0.265-0.377,0.352-0.573c0.036-0.08,0.07-0.164,0.103-0.248c0.031-0.085,0.064-0.172,0.1-0.261
		C47.541,53.038,47.559,52.965,47.578,52.889z M46.6,51.57c-0.018,0.366-0.071,0.692-0.161,0.977
		c-0.017,0.071-0.033,0.14-0.046,0.201c-0.014,0.063-0.033,0.126-0.059,0.188c-0.063,0.152-0.126,0.281-0.188,0.388
		c-0.063,0.107-0.139,0.224-0.227,0.349c-0.054,0.053-0.098,0.089-0.134,0.106c-0.018,0.018-0.036,0.036-0.053,0.053
		c-0.019,0.018-0.04,0.036-0.067,0.054c-0.143,0.099-0.303,0.174-0.48,0.229c-0.055,0.017-0.112,0.027-0.175,0.031
		c-0.062,0.005-0.125,0.017-0.188,0.034c-0.054,0.019-0.127,0.022-0.22,0.012c-0.094-0.007-0.159-0.017-0.195-0.024
		c-0.044-0.019-0.082-0.025-0.114-0.021c-0.031,0.005-0.064-0.001-0.1-0.019c-0.286-0.09-0.522-0.225-0.709-0.402
		c-0.171-0.178-0.296-0.37-0.381-0.575c-0.084-0.205-0.162-0.441-0.234-0.708c-0.038-0.1-0.056-0.203-0.06-0.315
		c-0.006-0.111-0.021-0.22-0.047-0.327c-0.01-0.099-0.016-0.189-0.02-0.274s-0.011-0.172-0.02-0.262
		c-0.009-0.017-0.012-0.042-0.006-0.074c0.002-0.029,0.006-0.054,0.006-0.073v-0.24c-0.018-0.063-0.025-0.131-0.021-0.208
		s0.007-0.149,0.007-0.221v-0.402c0-0.044,0-0.084,0-0.12c0-0.036,0.005-0.066,0.014-0.093v-0.161c0-0.072,0.001-0.145,0.005-0.221
		c0.006-0.076,0.007-0.149,0.007-0.221c0.01-0.089,0.017-0.177,0.027-0.261c0.008-0.084,0.019-0.166,0.027-0.248
		c0.009-0.045,0.013-0.091,0.013-0.14c0-0.05,0.009-0.096,0.027-0.141c0.026-0.115,0.05-0.229,0.073-0.34
		c0.021-0.112,0.056-0.216,0.1-0.315c0.099-0.249,0.219-0.471,0.369-0.662c0.146-0.191,0.339-0.341,0.582-0.449
		c0.062-0.025,0.12-0.046,0.18-0.06c0.057-0.013,0.123-0.029,0.193-0.047c0.027-0.008,0.063-0.011,0.107-0.006
		c0.044,0.004,0.076-0.002,0.094-0.02c0.258,0,0.476,0.024,0.656,0.073c0.178,0.049,0.338,0.124,0.48,0.221
		c0.223,0.162,0.398,0.369,0.529,0.623c0.129,0.253,0.226,0.542,0.287,0.863c0.062,0.32,0.102,0.664,0.12,1.029
		c0.019,0.366,0.026,0.741,0.026,1.125C46.626,50.84,46.619,51.206,46.6,51.57z"/>
	<path d="M62.454,52.889c0.017-0.074,0.036-0.149,0.053-0.222c0.036-0.115,0.059-0.232,0.068-0.354
		c0.007-0.12,0.026-0.241,0.051-0.366v-0.135c0.021-0.089,0.028-0.18,0.028-0.275c0-0.092,0.01-0.184,0.027-0.273v-0.147v-0.213
		c0.018-0.062,0.024-0.132,0.021-0.208c-0.007-0.076-0.007-0.149-0.007-0.219v-0.416c0-0.034,0-0.073,0-0.113
		s-0.005-0.073-0.015-0.101c-0.018-0.053-0.02-0.113-0.006-0.181c0.013-0.065,0.011-0.126-0.009-0.18v-0.121
		c-0.006-0.043-0.011-0.092-0.005-0.14c0.005-0.049,0.002-0.095-0.008-0.141c-0.008-0.035-0.012-0.07-0.005-0.106
		c0.004-0.036-0.003-0.077-0.023-0.12c-0.016-0.099-0.027-0.197-0.032-0.296c-0.003-0.097-0.019-0.195-0.046-0.292
		c-0.019-0.072-0.033-0.146-0.046-0.222c-0.014-0.075-0.031-0.149-0.048-0.22c-0.044-0.124-0.085-0.244-0.121-0.362
		c-0.034-0.114-0.074-0.226-0.119-0.334c-0.224-0.507-0.561-0.903-1.018-1.183c-0.455-0.281-1.053-0.413-1.791-0.395
		c-0.063,0.009-0.12,0.013-0.178,0.013c-0.051,0-0.109,0.005-0.172,0.014c-0.124,0.026-0.247,0.047-0.368,0.067
		c-0.12,0.017-0.238,0.048-0.354,0.093c-0.41,0.179-0.728,0.396-0.957,0.655c-0.228,0.259-0.426,0.594-0.595,1.004
		c-0.062,0.134-0.107,0.273-0.133,0.421c-0.026,0.146-0.063,0.296-0.106,0.448c-0.019,0.044-0.025,0.09-0.021,0.139
		c0.005,0.05-0.002,0.096-0.019,0.141c-0.01,0.09-0.02,0.176-0.029,0.261c-0.007,0.085-0.018,0.171-0.027,0.261l-0.038,0.562v0.254
		c-0.019,0.072-0.023,0.159-0.015,0.261c0.011,0.102,0.015,0.194,0.015,0.273c0,0.073-0.004,0.146-0.015,0.222
		c-0.009,0.076-0.004,0.145,0.015,0.208c0.02,0.044,0.022,0.088,0.015,0.133c-0.01,0.044-0.01,0.085,0,0.12
		c0.008,0.045,0.008,0.091,0,0.141c-0.01,0.049-0.007,0.097,0.011,0.139c0,0.046,0,0.093,0,0.143c0,0.049,0.007,0.097,0.013,0.141
		c0.01,0.035,0.013,0.07,0.009,0.106s-0.003,0.07,0.008,0.106c0.018,0.099,0.03,0.197,0.04,0.295
		c0.007,0.098,0.021,0.196,0.04,0.293c0.035,0.145,0.065,0.281,0.092,0.41c0.028,0.128,0.069,0.256,0.12,0.381
		c0.108,0.276,0.232,0.531,0.375,0.761c0.142,0.234,0.322,0.429,0.537,0.59c0.043,0.036,0.09,0.065,0.14,0.088
		c0.047,0.022,0.095,0.051,0.138,0.086c0.127,0.072,0.256,0.129,0.39,0.174c0.135,0.046,0.276,0.089,0.429,0.135
		c0.063,0.008,0.123,0.017,0.182,0.019c0.057,0.006,0.112,0.018,0.165,0.035h0.081c0.027,0.008,0.059,0.008,0.096,0
		c0.036-0.01,0.075-0.005,0.12,0.014c0.025,0.009,0.068,0.013,0.131,0.013c0.063,0,0.112-0.004,0.148-0.013
		c0.034-0.01,0.075-0.012,0.114-0.007c0.038,0.005,0.077,0.001,0.113-0.007c0.108-0.018,0.211-0.032,0.309-0.041
		s0.195-0.031,0.292-0.066c0.091-0.026,0.185-0.054,0.283-0.081c0.098-0.027,0.183-0.062,0.254-0.105
		c0.053-0.036,0.107-0.07,0.167-0.101c0.059-0.031,0.11-0.065,0.154-0.101c0.169-0.117,0.327-0.269,0.475-0.457
		c0.147-0.187,0.267-0.377,0.354-0.573c0.036-0.08,0.07-0.164,0.101-0.248c0.031-0.085,0.065-0.172,0.101-0.261
		C62.42,53.038,62.437,52.965,62.454,52.889z M61.478,51.57c-0.019,0.366-0.07,0.692-0.161,0.977
		c-0.017,0.071-0.032,0.14-0.047,0.201c-0.012,0.063-0.033,0.126-0.06,0.188c-0.061,0.152-0.124,0.281-0.187,0.388
		c-0.063,0.107-0.141,0.224-0.228,0.349c-0.055,0.053-0.099,0.089-0.135,0.106c-0.018,0.018-0.036,0.036-0.055,0.053
		c-0.017,0.018-0.038,0.036-0.065,0.054c-0.142,0.099-0.304,0.174-0.48,0.229c-0.055,0.017-0.111,0.027-0.175,0.031
		c-0.063,0.005-0.125,0.017-0.188,0.034c-0.054,0.019-0.127,0.022-0.22,0.012c-0.097-0.007-0.157-0.017-0.193-0.024
		c-0.046-0.019-0.085-0.025-0.115-0.021c-0.032,0.005-0.065-0.001-0.101-0.019c-0.285-0.09-0.521-0.225-0.709-0.402
		c-0.17-0.178-0.297-0.37-0.38-0.575c-0.086-0.205-0.163-0.441-0.235-0.708c-0.036-0.1-0.056-0.203-0.061-0.315
		c-0.004-0.111-0.019-0.22-0.047-0.327c-0.008-0.099-0.014-0.189-0.02-0.274c-0.005-0.085-0.012-0.172-0.021-0.262
		c-0.009-0.017-0.01-0.042-0.006-0.074c0.003-0.029,0.006-0.054,0.006-0.073v-0.24c-0.017-0.063-0.024-0.131-0.021-0.208
		c0.007-0.076,0.008-0.149,0.008-0.221v-0.402c0-0.044,0-0.084,0-0.12c0-0.036,0.005-0.066,0.014-0.093v-0.161
		c0-0.072,0.003-0.145,0.008-0.221c0.002-0.076,0.007-0.149,0.007-0.221c0.008-0.089,0.018-0.177,0.025-0.261
		c0.009-0.084,0.02-0.166,0.028-0.248c0.007-0.045,0.012-0.091,0.012-0.14c0-0.05,0.008-0.096,0.027-0.141
		c0.026-0.115,0.051-0.229,0.074-0.34c0.022-0.112,0.055-0.216,0.1-0.315c0.099-0.249,0.219-0.471,0.368-0.662
		c0.147-0.191,0.341-0.341,0.583-0.449c0.062-0.025,0.121-0.046,0.18-0.06c0.057-0.013,0.123-0.029,0.194-0.047
		c0.023-0.008,0.062-0.011,0.106-0.006c0.043,0.004,0.075-0.002,0.095-0.02c0.258,0,0.476,0.024,0.655,0.073
		c0.177,0.049,0.339,0.124,0.48,0.221c0.222,0.162,0.399,0.369,0.528,0.623c0.13,0.253,0.226,0.542,0.287,0.863
		c0.062,0.32,0.103,0.664,0.121,1.029c0.018,0.366,0.027,0.741,0.027,1.125C61.505,50.84,61.495,51.206,61.478,51.57z"/>
	<path d="M62.354,65.478v-4.385v-1.337c0-0.125,0-0.244,0-0.355c0-0.11-0.026-0.202-0.08-0.274
		c-0.035-0.045-0.093-0.074-0.173-0.086c-0.081-0.014-0.165-0.02-0.256-0.02c-0.018,0.008-0.04,0.013-0.065,0.013
		c-0.027,0-0.051,0.005-0.067,0.012c-0.08,0.019-0.145,0.056-0.188,0.108c-0.053,0.08-0.095,0.174-0.126,0.281
		s-0.072,0.206-0.128,0.294c-0.081,0.125-0.165,0.24-0.254,0.349c-0.089,0.105-0.196,0.201-0.32,0.281
		c-0.116,0.07-0.237,0.13-0.362,0.18c-0.124,0.049-0.254,0.095-0.387,0.141c-0.054,0.018-0.108,0.029-0.161,0.032
		c-0.053,0.007-0.104,0.014-0.147,0.021c-0.098,0.025-0.218,0.04-0.36,0.04c-0.144,0-0.25,0.021-0.32,0.066
		c-0.064,0.036-0.11,0.099-0.142,0.188c-0.032,0.089-0.037,0.186-0.02,0.293c0.009,0.044,0.013,0.083,0.013,0.113
		c0,0.032,0.011,0.061,0.027,0.087c0.054,0.1,0.148,0.149,0.294,0.153c0.143,0.005,0.29,0.008,0.442,0.008h1.016
		c0.107,0,0.209,0.003,0.302,0.007c0.094,0.005,0.172,0.029,0.234,0.074c0.053,0.044,0.081,0.095,0.087,0.153
		c0.004,0.058,0.015,0.128,0.033,0.207v4.283C61.625,66.109,61.995,65.8,62.354,65.478z"/>
	<path d="M40.528,60.926c0.128,0.255,0.225,0.543,0.286,0.864c0.062,0.321,0.103,0.663,0.121,1.029
		c0.017,0.33,0.023,0.667,0.024,1.01h1.193v-0.302c0-0.035,0-0.072,0-0.113c0-0.04-0.004-0.074-0.012-0.1
		c-0.019-0.055-0.021-0.114-0.007-0.181c0.014-0.068,0.011-0.128-0.008-0.181v-0.12c-0.007-0.046-0.011-0.091-0.005-0.141
		c0.004-0.049,0.001-0.097-0.007-0.141c-0.009-0.036-0.012-0.071-0.006-0.106c0.004-0.036-0.003-0.076-0.021-0.121
		c-0.018-0.099-0.028-0.196-0.033-0.295c-0.004-0.098-0.02-0.196-0.048-0.293c-0.017-0.073-0.033-0.146-0.045-0.223
		c-0.015-0.074-0.031-0.149-0.048-0.22c-0.044-0.125-0.084-0.246-0.121-0.361c-0.035-0.115-0.076-0.228-0.12-0.336
		c-0.223-0.506-0.561-0.901-1.017-1.183c-0.455-0.28-1.053-0.412-1.792-0.394c-0.063,0.008-0.12,0.013-0.174,0.013
		c-0.054,0-0.112,0.005-0.173,0.012c-0.125,0.028-0.249,0.051-0.369,0.068c-0.121,0.017-0.238,0.049-0.355,0.093
		c-0.41,0.18-0.729,0.397-0.956,0.655c-0.227,0.26-0.426,0.594-0.596,1.005c-0.063,0.135-0.107,0.273-0.133,0.422
		c-0.027,0.146-0.063,0.296-0.107,0.448c-0.017,0.045-0.024,0.09-0.02,0.139c0.004,0.051-0.003,0.096-0.02,0.141
		c-0.009,0.09-0.017,0.177-0.027,0.261c-0.007,0.085-0.018,0.173-0.026,0.262l-0.04,0.563v0.253
		c-0.019,0.072-0.021,0.159-0.014,0.262c0.007,0.08,0.009,0.147,0.01,0.214h1.182v-0.314c0-0.044,0-0.084,0-0.12
		s0.003-0.067,0.013-0.094v-0.16c0-0.071,0.001-0.145,0.007-0.221c0.005-0.075,0.006-0.149,0.006-0.221
		c0.009-0.091,0.017-0.177,0.027-0.262c0.009-0.084,0.019-0.168,0.027-0.246c0.008-0.046,0.013-0.092,0.013-0.143
		c0-0.049,0.008-0.094,0.026-0.141c0.026-0.113,0.051-0.229,0.074-0.341c0.021-0.11,0.056-0.216,0.101-0.314
		c0.099-0.247,0.22-0.47,0.368-0.662c0.146-0.19,0.341-0.34,0.583-0.448c0.062-0.025,0.121-0.045,0.179-0.06
		c0.058-0.013,0.124-0.029,0.195-0.048c0.026-0.007,0.062-0.01,0.106-0.006c0.044,0.005,0.076-0.001,0.094-0.02
		c0.259,0,0.477,0.024,0.656,0.073c0.178,0.048,0.338,0.123,0.48,0.221C40.221,60.465,40.399,60.672,40.528,60.926z"/>
	<path d="M32.645,53.109c0.019-0.071,0.036-0.145,0.055-0.221c0.017-0.074,0.036-0.149,0.053-0.222
		c0.036-0.115,0.058-0.232,0.067-0.354c0.009-0.12,0.027-0.241,0.053-0.366v-0.135c0.019-0.089,0.027-0.18,0.027-0.275
		c0-0.092,0.009-0.184,0.028-0.273v-0.147v-0.213c0.017-0.062,0.022-0.132,0.018-0.208c-0.004-0.076-0.005-0.149-0.005-0.219v-0.416
		c0-0.034,0-0.073,0-0.113s-0.004-0.073-0.013-0.101c-0.019-0.053-0.021-0.113-0.007-0.181c0.013-0.065,0.011-0.126-0.007-0.18
		v-0.121c-0.009-0.043-0.012-0.092-0.006-0.14c0.002-0.049,0.001-0.095-0.007-0.141c-0.009-0.035-0.012-0.07-0.007-0.106
		c0.006-0.036-0.001-0.077-0.02-0.12c-0.018-0.099-0.028-0.197-0.033-0.296c-0.004-0.097-0.02-0.195-0.048-0.292
		c-0.017-0.072-0.032-0.146-0.045-0.222c-0.015-0.075-0.031-0.149-0.047-0.22c-0.045-0.124-0.084-0.244-0.121-0.362
		c-0.035-0.114-0.076-0.226-0.12-0.334c-0.223-0.507-0.561-0.903-1.017-1.183c-0.455-0.281-1.053-0.413-1.793-0.395
		c-0.063,0.009-0.12,0.013-0.173,0.013c-0.054,0-0.112,0.005-0.173,0.014c-0.125,0.026-0.249,0.047-0.369,0.067
		c-0.094,0.014-0.186,0.042-0.277,0.072c-0.119,0.53-0.221,1.066-0.298,1.61c0.043-0.07,0.085-0.141,0.135-0.205
		c0.146-0.191,0.34-0.341,0.581-0.449c0.063-0.025,0.122-0.046,0.181-0.06c0.058-0.013,0.124-0.029,0.194-0.047
		c0.027-0.008,0.063-0.011,0.107-0.006c0.044,0.004,0.076-0.002,0.093-0.02c0.26,0,0.478,0.024,0.656,0.073
		c0.178,0.049,0.339,0.124,0.482,0.221c0.222,0.162,0.398,0.369,0.529,0.623c0.127,0.253,0.225,0.542,0.286,0.863
		c0.062,0.32,0.103,0.664,0.12,1.029c0.019,0.366,0.026,0.741,0.026,1.125c0,0.365-0.007,0.731-0.026,1.096
		c-0.018,0.366-0.071,0.692-0.16,0.977c-0.017,0.071-0.033,0.14-0.048,0.201c-0.013,0.063-0.032,0.126-0.06,0.188
		c-0.061,0.152-0.125,0.281-0.187,0.388c-0.063,0.107-0.139,0.224-0.228,0.349c-0.053,0.053-0.097,0.089-0.133,0.106
		c-0.017,0.018-0.036,0.036-0.053,0.053c-0.019,0.018-0.041,0.036-0.067,0.054c-0.143,0.099-0.304,0.174-0.482,0.229
		c-0.053,0.017-0.111,0.027-0.174,0.031c-0.061,0.005-0.124,0.017-0.188,0.034c-0.053,0.019-0.127,0.022-0.22,0.012
		c-0.094-0.007-0.159-0.017-0.195-0.024c-0.044-0.019-0.082-0.025-0.113-0.021c-0.031,0.005-0.064-0.001-0.1-0.019
		c-0.286-0.09-0.522-0.225-0.708-0.402c-0.075-0.077-0.138-0.159-0.196-0.244c0.082,0.512,0.181,1.019,0.301,1.516
		c0.096,0.033,0.191,0.063,0.295,0.094c0.063,0.008,0.123,0.017,0.182,0.019c0.057,0.006,0.114,0.018,0.167,0.035h0.08
		c0.027,0.008,0.059,0.008,0.093,0c0.036-0.01,0.076-0.005,0.12,0.014c0.028,0.009,0.072,0.013,0.134,0.013
		c0.062,0,0.111-0.004,0.147-0.013c0.036-0.01,0.074-0.012,0.113-0.007c0.041,0.005,0.078,0.001,0.115-0.007
		c0.106-0.018,0.209-0.032,0.307-0.041c0.099-0.009,0.196-0.031,0.294-0.066c0.09-0.026,0.184-0.054,0.281-0.081
		c0.099-0.027,0.184-0.062,0.254-0.105c0.055-0.036,0.109-0.07,0.168-0.101c0.058-0.031,0.108-0.065,0.153-0.101
		c0.169-0.117,0.329-0.269,0.476-0.457c0.146-0.187,0.266-0.377,0.353-0.573c0.036-0.08,0.07-0.164,0.102-0.248
		C32.576,53.285,32.61,53.198,32.645,53.109z"/>
	<path d="M33.57,41.535c0.063,0.009,0.123,0.015,0.181,0.02c0.057,0.004,0.113,0.015,0.167,0.033h0.081
		c0.027,0.009,0.058,0.009,0.095,0c0.035-0.009,0.076-0.004,0.12,0.013c0.026,0.009,0.072,0.014,0.133,0.014
		s0.111-0.005,0.146-0.014s0.074-0.011,0.113-0.006c0.04,0.004,0.079,0.002,0.115-0.007c0.107-0.018,0.209-0.031,0.308-0.041
		c0.098-0.009,0.195-0.03,0.294-0.066c0.089-0.026,0.182-0.053,0.281-0.081c0.098-0.027,0.182-0.062,0.254-0.106
		c0.055-0.036,0.109-0.069,0.167-0.1c0.058-0.031,0.11-0.065,0.154-0.101c0.169-0.116,0.327-0.267,0.475-0.455
		c0.147-0.187,0.266-0.379,0.354-0.575c0.036-0.08,0.07-0.162,0.101-0.247c0.031-0.084,0.065-0.172,0.101-0.261
		c0.019-0.071,0.036-0.145,0.054-0.221c0.018-0.076,0.035-0.149,0.052-0.222c0.036-0.115,0.059-0.234,0.069-0.354
		c0.007-0.121,0.026-0.243,0.052-0.368v-0.134c0.019-0.088,0.029-0.181,0.029-0.274c0-0.094,0.007-0.186,0.025-0.275v-0.146v-0.214
		c0.017-0.063,0.025-0.132,0.021-0.208c-0.006-0.076-0.006-0.149-0.006-0.22v-0.416c0-0.035,0-0.073,0-0.114
		c0-0.04-0.005-0.074-0.015-0.1c-0.019-0.054-0.02-0.114-0.007-0.182c0.015-0.066,0.012-0.126-0.007-0.181v-0.12
		c-0.007-0.044-0.011-0.092-0.006-0.14c0.004-0.049,0.001-0.096-0.005-0.141c-0.01-0.035-0.011-0.071-0.007-0.107
		c0.005-0.035-0.002-0.076-0.021-0.119c-0.017-0.099-0.029-0.197-0.033-0.295c-0.004-0.099-0.019-0.197-0.047-0.294
		c-0.018-0.072-0.034-0.145-0.046-0.222c-0.013-0.074-0.029-0.148-0.046-0.22c-0.045-0.125-0.086-0.246-0.12-0.36
		c-0.036-0.117-0.076-0.229-0.122-0.336c-0.025-0.058-0.058-0.109-0.086-0.164c-0.329,0.229-0.65,0.468-0.964,0.717
		c0.08,0.197,0.149,0.406,0.193,0.638c0.063,0.321,0.104,0.665,0.121,1.031c0.019,0.365,0.027,0.74,0.027,1.124
		c0,0.366-0.008,0.731-0.027,1.096c-0.018,0.366-0.07,0.692-0.161,0.978c-0.017,0.071-0.033,0.138-0.045,0.2
		c-0.013,0.063-0.035,0.125-0.061,0.187c-0.061,0.152-0.125,0.282-0.188,0.388c-0.063,0.107-0.138,0.223-0.227,0.348
		c-0.054,0.054-0.099,0.09-0.134,0.107c-0.018,0.017-0.035,0.035-0.052,0.053c-0.019,0.019-0.04,0.036-0.069,0.054
		c-0.142,0.099-0.303,0.174-0.48,0.228c-0.055,0.018-0.111,0.028-0.175,0.034c-0.062,0.004-0.125,0.014-0.187,0.032
		c-0.055,0.019-0.127,0.022-0.221,0.013c-0.093-0.008-0.158-0.017-0.193-0.027c-0.045-0.017-0.083-0.024-0.114-0.019
		c-0.033,0.004-0.066-0.002-0.102-0.021c-0.284-0.089-0.521-0.223-0.708-0.402c-0.169-0.179-0.297-0.37-0.38-0.575
		c-0.086-0.207-0.164-0.442-0.235-0.709c-0.036-0.098-0.057-0.203-0.061-0.315c-0.004-0.111-0.02-0.22-0.047-0.327
		c-0.009-0.098-0.015-0.189-0.019-0.274c-0.005-0.076-0.011-0.154-0.019-0.233c-0.353,0.458-0.688,0.931-1.002,1.418
		c0.012,0.055,0.026,0.113,0.038,0.166c0.027,0.129,0.067,0.257,0.12,0.381c0.106,0.277,0.231,0.531,0.375,0.762
		c0.144,0.232,0.321,0.429,0.535,0.589c0.044,0.036,0.092,0.065,0.141,0.088c0.048,0.022,0.095,0.05,0.14,0.086
		c0.125,0.072,0.254,0.13,0.388,0.174C33.276,41.446,33.418,41.489,33.57,41.535z"/>
	<path d="M42.829,34.911l-1.11,1.759v3.192v0.977c0,0.09,0,0.176,0,0.26c0,0.085,0.018,0.154,0.054,0.208
		c0.035,0.053,0.081,0.087,0.132,0.1c0.055,0.014,0.116,0.03,0.188,0.048h0.201c0.116,0,0.215-0.007,0.301-0.022
		c0.085-0.013,0.149-0.055,0.193-0.126c0.036-0.054,0.052-0.126,0.047-0.221c-0.005-0.094-0.007-0.185-0.007-0.274v-1.044V34.911z"
		/>
	<path d="M64.101,41.615c0.062,0,0.112-0.005,0.146-0.014c0.035-0.009,0.075-0.011,0.114-0.006c0.039,0.004,0.077,0.002,0.115-0.007
		c0.105-0.018,0.209-0.031,0.307-0.041c0.098-0.009,0.195-0.03,0.294-0.066c0.09-0.026,0.184-0.053,0.281-0.081
		c0.098-0.027,0.184-0.062,0.254-0.106c0.054-0.036,0.109-0.069,0.167-0.1s0.109-0.065,0.155-0.101
		c0.169-0.116,0.326-0.267,0.477-0.455c0.079-0.103,0.15-0.208,0.213-0.313c-0.239-0.432-0.489-0.856-0.76-1.269
		c-0.01,0.047-0.021,0.095-0.031,0.138c-0.013,0.063-0.034,0.125-0.06,0.187c-0.063,0.152-0.126,0.282-0.188,0.388
		c-0.063,0.107-0.139,0.223-0.228,0.348c-0.053,0.054-0.098,0.09-0.134,0.107c-0.017,0.017-0.036,0.035-0.053,0.053
		c-0.019,0.019-0.04,0.036-0.068,0.054c-0.143,0.099-0.305,0.174-0.481,0.228c-0.052,0.018-0.11,0.028-0.174,0.034
		c-0.063,0.004-0.126,0.014-0.187,0.032c-0.054,0.019-0.129,0.022-0.22,0.013c-0.095-0.008-0.16-0.017-0.196-0.027
		c-0.043-0.017-0.08-0.024-0.112-0.019c-0.031,0.004-0.067-0.002-0.101-0.021c-0.286-0.089-0.522-0.223-0.709-0.402
		c-0.17-0.179-0.298-0.37-0.381-0.575c-0.085-0.207-0.164-0.442-0.234-0.709c-0.037-0.098-0.055-0.203-0.061-0.315
		c-0.005-0.111-0.02-0.22-0.048-0.327c-0.009-0.098-0.015-0.189-0.019-0.274c-0.004-0.085-0.012-0.173-0.021-0.262
		c-0.007-0.017-0.01-0.042-0.007-0.073c0.005-0.031,0.007-0.056,0.007-0.073V37.32c-0.018-0.063-0.025-0.131-0.02-0.207
		c0.005-0.075,0.008-0.149,0.008-0.221v-0.521c0-0.037,0.005-0.067,0.012-0.094v-0.161c0-0.07,0.003-0.145,0.006-0.221
		c0.005-0.075,0.009-0.149,0.009-0.22c0.008-0.089,0.017-0.177,0.025-0.262c0.01-0.084,0.019-0.167,0.028-0.248
		c0.008-0.043,0.013-0.09,0.013-0.14s0.01-0.095,0.028-0.141c0-0.001,0-0.003,0-0.004c-0.321-0.286-0.654-0.558-0.994-0.823
		c-0.021,0.068-0.052,0.134-0.063,0.205c-0.026,0.148-0.063,0.297-0.107,0.449c-0.019,0.044-0.024,0.092-0.021,0.141
		c0.005,0.048-0.003,0.095-0.021,0.141c-0.009,0.089-0.019,0.175-0.027,0.26c-0.008,0.085-0.016,0.172-0.026,0.261l-0.04,0.563
		v0.253c-0.018,0.072-0.021,0.159-0.014,0.262c0.009,0.103,0.014,0.193,0.014,0.274c0,0.07-0.005,0.145-0.014,0.221
		c-0.008,0.076-0.004,0.145,0.014,0.208c0.019,0.044,0.022,0.09,0.015,0.134c-0.011,0.045-0.011,0.085,0,0.12
		c0.008,0.046,0.008,0.092,0,0.141c-0.011,0.049-0.005,0.096,0.013,0.141v0.141c0,0.049,0.004,0.096,0.013,0.14
		c0.011,0.036,0.012,0.072,0.007,0.107c-0.003,0.035-0.001,0.07,0.008,0.106c0.017,0.098,0.03,0.197,0.039,0.294
		s0.022,0.197,0.041,0.295c0.035,0.143,0.067,0.279,0.094,0.407c0.026,0.129,0.066,0.257,0.12,0.381
		c0.106,0.277,0.232,0.531,0.373,0.762c0.145,0.232,0.322,0.429,0.537,0.589c0.043,0.036,0.09,0.065,0.14,0.088
		c0.05,0.022,0.096,0.05,0.141,0.086c0.124,0.072,0.255,0.13,0.388,0.174c0.134,0.045,0.276,0.089,0.429,0.134
		c0.063,0.009,0.123,0.015,0.181,0.02c0.059,0.004,0.114,0.015,0.167,0.033h0.081c0.027,0.009,0.057,0.009,0.092,0
		c0.036-0.009,0.077-0.004,0.121,0.013C63.994,41.61,64.039,41.615,64.101,41.615z"/>
	<path d="M63.846,49.842c0.009-0.006,0.017-0.009,0.023-0.014l-0.023-0.042V49.842z"/>
	<path d="M65.686,47.123c0.147-0.191,0.341-0.341,0.58-0.449c0.063-0.025,0.123-0.046,0.183-0.06
		c0.058-0.013,0.123-0.029,0.193-0.047c0.028-0.008,0.063-0.011,0.108-0.006c0.044,0.004,0.075-0.002,0.093-0.02
		c0.258,0,0.477,0.024,0.655,0.073c0.177,0.049,0.339,0.124,0.481,0.221c0.224,0.162,0.399,0.369,0.53,0.623
		c0.036,0.072,0.064,0.154,0.096,0.232h0.417c-0.068-0.563-0.164-1.117-0.28-1.666c-0.036-0.025-0.068-0.054-0.106-0.078
		c-0.455-0.281-1.053-0.413-1.793-0.395c-0.063,0.009-0.12,0.013-0.173,0.013c-0.054,0-0.112,0.005-0.174,0.014
		c-0.125,0.026-0.248,0.047-0.369,0.067c-0.12,0.017-0.239,0.048-0.354,0.093c-0.411,0.179-0.73,0.396-0.957,0.655
		c-0.229,0.259-0.426,0.594-0.596,1.004c-0.044,0.093-0.067,0.193-0.093,0.292h1.234C65.452,47.481,65.558,47.288,65.686,47.123z"/>
	<polygon points="23.32,8.56 23.671,9.125 23.502,8.686 23.182,8.253 23.282,8.497 	"/>
	<polygon points="18.33,12.181 17.818,12.192 16.744,12.217 17.949,12.213 	"/>
	<polygon points="20.859,12.198 20.117,12.125 19.753,12.188 20.116,12.186 	"/>
	<polygon points="24.067,12.055 24.83,12.044 24.299,11.951 23.687,12.011 23.983,12.055 	"/>
	<path d="M44.364,11.722l2-0.008l0.03,0l0.015,0.029l-0.027,0l-1.027,0.001l-0.016,0.053h1.044l0.053,0l0.028,0.056l-0.098-0.002
		l-1.042,0l-0.02,0.065l-3.052,7.541l0.016,0.008c-0.07,0.173-0.125,0.299-0.179,0.423c-0.082,0.189-0.159,0.367-0.285,0.69
		l0.014,0.006l-0.128,0.309c0.185,0.259,0.383,0.542,0.571,0.808c0.29,0.413,0.552,0.788,0.693,0.973l-0.015,0.012l0.587,0.81
		l-0.028,0.02c0.02,0.027,0.04,0.057,0.061,0.086c0.053,0.036,0.097,0.093,0.156,0.171l0.192,0.311
		c0.005,0.008,0.011,0.016,0.017,0.024l0.031-0.022l1.185,1.656l0.056-0.096l0.966-1.746l0.009-0.012l0.922-1.62l0.805-1.42
		l2.147-3.413l0.207-0.316l0.319-0.59l0.902-1.516l0.983-1.803l0.905-1.55l0.397-0.687l0.264-0.452l0.154-0.311l0.138-0.27
		l0.864-1.69l0.601-1.072l0.211-0.38l0.317-0.584l-0.19,0.208l-0.388,0.46l-0.094,0.129l-0.717,1.073L54.73,8.411l-0.912,1.61
		l-0.874,1.499l-0.243,0.414l0.072-0.132l-1.497,0.027l-1.176-0.035l-0.909-0.039l-0.744-0.026l-1.252,0.008l-0.007-0.015
		l-0.012-0.013l1.237-0.008l-0.064-0.07l-1.219,0.021l-0.079-0.095l-0.19,0.022c-0.031,0.004-0.062,0.008-0.095,0.01l-0.425,0.019
		l0.028,0.057l-0.123,0.003l-2.132,0.024l-1.935-0.001l-0.248,0.003l0.315,0.008L44.364,11.722z M48.416,11.785l1.686,0.063
		l0.031,0.001l-1.985,0.036l-0.89-0.017l-0.037-0.076L48.416,11.785z"/>
	<polygon points="71.129,59.14 71.983,60.601 72.095,60.787 71.964,60.543 71.039,58.939 70.15,57.434 69.238,55.891 69.214,55.972 
		70.169,57.539 	"/>
	<polygon points="78.654,78.771 79.567,80.315 79.593,80.232 78.637,78.664 77.676,77.064 76.822,75.602 76.71,75.417 76.84,75.661 
		77.765,77.266 	"/>
	<path d="M79.871,80.924l-0.308-0.573l-0.924-1.555l-0.886-1.507l-0.911-1.543l-1.048-1.701L75.79,74.03l-0.956-1.603l-0.005-0.006
		l-0.261-0.457l0.28,0.455l0.195,0.222l-0.108-0.204l-1.014-1.688l-0.385-0.6l-0.969-1.702l-0.947-1.663l-0.071-0.211l-0.877-1.531
		l-0.529-0.85l-1.503-2.639c-0.012,0.02-0.026,0.039-0.037,0.059l-0.321-0.547l-0.261-0.45l-0.196-0.288l-0.168-0.254l-1.043-1.584
		l-0.64-1.05l-0.225-0.368l-0.352-0.566l0.086,0.269l0.21,0.564l0.066,0.147l0.579,1.147l0.193,0.326l0.951,1.586l0.868,1.48
		c-4.045,6.76-11.423,11.297-19.873,11.297c-4.621,0-8.912-1.373-12.524-3.708l2.333-4.215l0.432-0.03l0.441,0.011l0.437,0.042
		l0.096,0.01l0.428-0.088l0.009-0.029v-0.012l-0.458-0.021l-0.466,0.003l-0.165-0.032h0.165l0.471-0.003l0.476-0.014l0.396,0.036
		l0.44,0.031l0.264,0.022l0.215-0.05l0.54-0.041l0.523-0.021l0.387-0.038l-0.357-0.021l-0.542,0.038l-0.221,0.016l-0.333,0.031
		l-0.512,0.027l-0.406-0.031l-0.212-0.021L40.161,65.2l-0.486,0.014l-0.469,0.006l-0.48,0.011l-0.356,0.023l0.051-0.092
		l-2.646,0.048l-0.364-0.008l-0.203,0.018l-10.321,0.188l-6.829,0.125l-0.202-0.041l-0.102-0.002h-0.497l-0.465-0.012l-0.442-0.019
		l-0.403-0.037L15.52,65.4l-0.496,0.013l-0.544,0.036l-0.536,0.018l-0.509,0.014h-0.061l-0.412,0.01l-0.486,0.015l-0.44-0.026
		L11.6,65.421l-0.096-0.015l-0.43,0.072l-0.01,0.028v0.012l0.456,0.039l0.467,0.015l0.164,0.037l-0.166-0.006l-0.47-0.014
		l-0.477-0.007l-0.395-0.05l-0.438-0.049l-0.263-0.03l-0.216,0.041l-0.541,0.02l-0.523,0.001l-0.389,0.023l0.357,0.034l0.543-0.018
		l0.221-0.009l0.333-0.019l0.513-0.006l0.403,0.046l0.213,0.031l0.173,0.021l0.486,0.006l0.471,0.012l0.2,0.003l-0.418,0.007
		l-0.25-0.006l-0.481-0.004l0.015,0.045l0.315-0.007l6.967,11.574l6.872,11.412l-0.179,0.265l-0.151,0.216l-0.065,0.211
		l-0.237,0.486l-0.247,0.462l-0.162,0.354l0.197-0.298l0.24-0.487l0.098-0.197l0.141-0.305l0.235-0.455l0.15-0.218l0.091,0.151
		l2.398-4.337l0.213-0.351l0.118-0.248l0.11-0.198c1.15,0.7,1.985,1.141,1.985,1.141c5.473,2.905,11.71,4.56,18.338,4.56
		c11.369,0,21.603-4.838,28.77-12.564l0.226,0.4l0.767,1.429l0.17,0.32l0.901,1.314l0.058,0.017l0.013-0.009l-0.007-0.011
		l-0.827-1.479l-0.873-1.499l-0.268-0.546l0.304,0.524l0.885,1.511l0.908,1.53l0.697,1.3l0.689,1.26
		c0.012-0.011,0.024-0.021,0.036-0.03l-0.684-1.254L79.871,80.924z"/>
	<polygon points="44.455,27.022 45.307,25.561 45.413,25.369 45.267,25.605 44.324,27.198 43.451,28.714 42.556,30.266 
		42.641,30.25 43.536,28.646 	"/>
	<polygon points="59.626,6.543 59.473,6.82 59.144,7.38 59.515,6.844 	"/>
	<polygon points="57.553,10.471 57.852,10.106 58.068,9.614 57.907,9.823 57.871,9.885 	"/>
	<path d="M52.459,19.067l-0.9,1.635l-0.357,0.634c0.006,0.004,0.009,0.006,0.016,0.01l0.471-0.821L52.542,19l0.873-1.566
		l-0.083,0.019L52.459,19.067z"/>
	<polygon points="6.97,65.495 7.253,65.502 7.342,65.484 7.22,65.487 	"/>
	<polygon points="7.677,65.5 7.76,65.5 7.935,65.512 7.762,65.462 	"/>
	<polygon points="8.67,65.444 8.69,65.444 8.867,65.44 8.746,65.379 8.6,65.415 	"/>
	<polygon points="43.851,65.195 43.973,65.188 44.223,65.17 43.939,65.177 	"/>
	<polygon points="43.258,65.191 43.432,65.234 43.517,65.192 43.432,65.195 	"/>
	<polygon points="42.506,65.288 42.329,65.298 42.452,65.353 42.597,65.315 42.526,65.286 	"/>
	<polygon points="39.143,65.188 38.689,65.189 38.632,65.192 38.706,65.2 39.203,65.204 39.673,65.195 40.153,65.184 40.137,65.14 
		39.644,65.167 	"/>
	<polygon points="23.512,91.786 23.651,91.54 23.677,91.452 23.623,91.561 	"/>
	<polygon points="23.849,91.165 23.888,91.091 23.98,90.942 23.855,91.07 	"/>
	<polygon points="24.357,90.087 24.247,90.165 24.207,90.311 24.268,90.262 24.277,90.244 	"/>
	<polygon points="6.131,61.671 6.109,61.759 6.376,61.86 6.59,61.822 6.784,61.778 6.923,61.751 6.664,61.699 	"/>
	<polygon points="8.21,61.874 7.804,61.906 8.173,61.901 8.225,61.889 8.329,61.874 	"/>
	<polygon points="9.142,61.853 9.231,61.853 9.246,61.835 9.142,61.812 8.298,61.843 8.306,61.844 	"/>
	<path d="M12.325,49.994c0.006,0.002,0.009,0.002,0.012,0.002c0.117,0,0.212,0.033,0.357,0.11l0.212,0.068v0.1
		c0.023-0.005,0.047-0.012,0.073-0.012l0.376,0.058l-0.016,0.046c0.014,0.004,0.028,0.009,0.043,0.014l-0.007,0.02
		c0.021,0.012,0.043,0.024,0.065,0.036c0.126,0.07,0.269,0.15,0.437,0.199l-0.014,0.053c0.125,0.046,0.214,0.081,0.27,0.161
		c0.009,0.001,0.019,0.004,0.025,0.005c0.093-0.004,0.161,0.019,0.38,0.122l0.013-0.025c0.127,0.061,0.23,0.104,0.33,0.145
		c0.061,0.026,0.121,0.051,0.185,0.077c0.016,0.002,0.032,0.005,0.052,0.01l0.245-0.208c-0.02-0.039-0.04-0.083-0.065-0.144
		l0.027-0.016c-0.017-0.039-0.03-0.058-0.045-0.081h-0.015l-0.037-0.08c-0.019-0.036-0.04-0.079-0.061-0.138l-0.013-0.037
		l-0.002-0.007l0.018-0.005c-0.068-0.13-0.089-0.157-0.161-0.248l-0.64-0.829l0.275,0.1c-0.085-0.112-0.161-0.3-0.272-0.578
		l-0.063-0.151l0.017-0.007c-0.135-0.25-0.239-0.511-0.339-0.765c-0.056-0.141-0.111-0.282-0.172-0.419l-0.041-0.091l0.022-0.076
		c-0.018-0.022-0.038-0.044-0.065-0.071c-0.068-0.07-0.162-0.166-0.236-0.339l0.023-0.015c-0.167-0.363-0.239-0.541-0.373-0.869
		l-0.122-0.298l-0.071-0.179c-0.006-0.063-0.055-0.185-0.114-0.316c-0.134,0.083-0.265,0.165-0.393,0.244
		c-0.285,0.176-0.556,0.343-0.815,0.512c0.044,0.209,0.088,0.386,0.133,0.565c0.086,0.343,0.175,0.699,0.264,1.277l-0.03,0.006
		L12.325,49.994z"/>
	<path d="M11.634,45.231c0.061-0.026,0.104-0.042,0.141-0.052c0.178-0.113,0.381-0.234,0.596-0.359
		c0.033-0.045,0.089-0.09,0.17-0.148c-0.041-0.087-0.072-0.178-0.108-0.268l-0.025,0.011l-0.094-0.182l0.042-0.023
		c-0.001-0.003-0.003-0.006-0.004-0.01L12.293,44.2l-0.12-0.275c-0.109-0.244-0.177-0.408-0.174-0.556
		c-0.038-0.068-0.075-0.143-0.096-0.206l0.164-0.161l-0.262,0.083c-0.08-0.224-0.193-0.486-0.302-0.741
		c-0.162-0.376-0.314-0.731-0.367-0.964c-0.069-0.123-0.157-0.289-0.243-0.452c-0.002-0.003-0.003-0.006-0.005-0.01
		c0.139,0.847,0.268,1.701,0.396,2.554c0.088,0.586,0.177,1.172,0.268,1.756l-0.002,0.063
		C11.579,45.271,11.597,45.253,11.634,45.231z"/>
	<path d="M12.255,55.269l-0.008-0.145l-0.06-0.288l-0.143,0.122c-0.009,0.007-0.019,0.015-0.028,0.021L12.255,55.269z"/>
	<path d="M12.798,53.124c0.483-0.387,1.049-0.861,1.591-1.321l-0.21-0.073l-0.002-0.055c-0.047-0.026-0.096-0.061-0.133-0.104
		c-0.185-0.081-0.35-0.136-0.523-0.192c-0.148-0.048-0.297-0.099-0.459-0.162l-0.025-0.011l0.004-0.022
		c-0.178-0.081-0.297-0.107-0.433-0.136l0.002-0.035c-0.075-0.03-0.102-0.038-0.134-0.043l0.215,1.381l-0.033-0.018L12.798,53.124z"
		/>
	<path d="M17.185,53.089c0.069-0.031,0.142-0.065,0.217-0.1c-0.11-0.045-0.223-0.089-0.334-0.141L17.185,53.089z"/>
	<path d="M12.645,60.857l-0.077-0.002c-0.063,0.022-0.231,0.08-0.599,0.221c-0.019,0.031-0.31,0.118-0.352,0.147
		c0.088-0.01,0.447-0.078,0.556-0.091l0.068-0.009h0.006l0,0.005c0.269-0.039,0.554-0.078,0.845-0.116
		c-0.003-0.048-0.002-0.08,0-0.112c0.002-0.019-0.004-0.074-0.019-0.166c-0.054,0.021-0.108,0.044-0.164,0.065
		C12.77,60.843,12.703,60.857,12.645,60.857z"/>
	<path d="M14.203,54.5c0.717-0.33,1.087-0.516,1.465-0.705c0.211-0.106,0.426-0.214,0.707-0.349
		c-0.029-0.069-0.048-0.126-0.056-0.182c-0.019-0.046-0.033-0.087-0.051-0.138c-0.02-0.031-0.051-0.092-0.078-0.165l0.06-0.029
		l-0.046,0.017c-0.061-0.17-0.203-0.396-0.306-0.561l-0.057-0.092c-0.019-0.007-0.037-0.01-0.055-0.017h-0.007
		c-0.082,0-0.153-0.029-0.245-0.073l0.013-0.037c-0.028-0.017-0.061-0.031-0.113-0.056l-0.301,0.249
		c-0.751,0.621-1.476,1.221-2.184,1.821c0.031,0.234,0.069,0.501,0.114,0.792c0.352-0.183,0.887-0.414,1.131-0.499L14.203,54.5z"/>
	<path d="M18.747,44.569c0.01,0.039,0.027,0.096,0.052,0.176c0.182,0.514,0.23,0.622,0.275,0.72
		c0.048,0.105,0.092,0.199,0.269,0.714c0.268,0.283,0.533,0.561,0.796,0.836c0.663-0.551,1.354-1.13,2.209-1.888
		c0.155-0.122,0.217-0.171,0.295-0.185l0.385-0.336l-1.146-1.839l-0.008,0.004l-0.193-0.326l0.009-0.006
		c-0.138-0.245-0.297-0.519-0.478-0.815l-0.068,0.032c-0.213-0.331-0.294-0.47-0.275-0.595c-0.092-0.149-0.184-0.299-0.277-0.45
		c-0.835,0.551-1.675,1.052-2.419,1.494l-0.148,0.088c0.163,0.506,0.345,1.05,0.564,1.634l-0.054,0.021
		C18.711,44.332,18.762,44.481,18.747,44.569z"/>
	<path d="M25.383,46.887c0.038,0.044,0.086,0.113,0.146,0.202c0.046-0.347,0.11-0.687,0.171-1.029l-0.374,0.71l0.012,0.028
		l-0.004,0.007C25.347,46.827,25.363,46.855,25.383,46.887z"/>
	<path d="M24.86,47.652l-0.617,1.168l-0.021-0.012c-0.022,0.04-0.048,0.084-0.074,0.13c-0.213,0.375-0.301,0.523-0.356,0.596
		c-0.002,0.005-0.005,0.01-0.007,0.015c-0.003,0.098-0.08,0.249-0.287,0.652c0.431-0.2,0.838-0.398,1.214-0.581l0.64-0.308
		c0.01-0.273,0.016-0.548,0.036-0.819l-0.247-0.39C25.026,47.922,24.934,47.774,24.86,47.652z"/>
	<path d="M21.076,51.142c0.024,0.079,0.044,0.142,0.056,0.196c0.37-0.177,0.735-0.353,1.069-0.517l0.106-0.209
		c-0.594-0.623-0.803-0.849-0.857-0.944l-0.548-0.583c-0.14-0.137-0.293-0.294-0.459-0.476l0.009-0.009l-0.031-0.041
		c-0.093-0.101-0.204-0.217-0.319-0.338c-0.009,0.007-0.018,0.015-0.028,0.022l0.288,0.845c0.054,0.08,0.106,0.221,0.196,0.462
		l-0.029,0.013l0.018-0.003c0.018,0.076,0.127,0.401,0.24,0.742c0.095,0.287,0.194,0.583,0.249,0.763L21.076,51.142z"/>
	<path d="M20.954,39.555l0.006,0.01c0.086-0.046,0.18-0.102,0.284-0.167l-0.568-0.167c0.063,0.099,0.135,0.218,0.222,0.359
		L20.954,39.555z"/>
	<path d="M17.172,39.942c0.024,0.058,0.043,0.106,0.059,0.146c0.092,0.056,0.137,0.164,0.172,0.249l0.063,0.151l-0.016,0.021
		c0.013,0.042,0.029,0.093,0.049,0.151l0.029-0.009l0.309,0.871c0.062-0.061,0.159-0.127,0.299-0.221l0.089,0.075l-0.034-0.094
		c0.065-0.03,0.285-0.164,0.41-0.24l0.163-0.15l0.885-0.416c0.199-0.134,0.308-0.212,0.368-0.255
		c0.031-0.062,0.096-0.119,0.211-0.198c-0.241-0.39-0.479-0.778-0.701-1.147c-0.31-0.097-0.889-0.27-1.467-0.444l-0.871-0.263
		l-0.004,0.014c-0.194-0.056-0.382-0.11-0.565-0.164c0.053,0.147,0.116,0.343,0.202,0.614c0.015,0.041,0.028,0.076,0.039,0.109
		l0.009,0.025c0.011,0.036,0.011,0.064,0.014,0.093c0.027,0.082,0.056,0.167,0.082,0.242l0.105,0.292l-0.072,0.026
		C17.066,39.613,17.129,39.799,17.172,39.942z"/>
	<path d="M13.678,44.864c-0.014,0.015-0.032,0.031-0.056,0.05l0.031,0.072l0.009-0.004l0.123,0.274l0.135,0.198l-0.042,0.024
		c0.026,0.038,0.051,0.083,0.074,0.138c0.129,0.344,0.151,0.427,0.181,0.542c0.012,0.045,0.024,0.096,0.047,0.171
		c0.08,0.09,0.136,0.227,0.2,0.382c0.028,0.068,0.075,0.183,0.096,0.213l0.083,0.056l-0.016,0.057
		c0.088,0.299,0.254,0.671,0.429,1.066c0.099,0.224,0.201,0.453,0.291,0.676l-0.012,0.006c0.004,0.013,0.009,0.025,0.013,0.036
		l0.226-0.127l-0.125,0.289c0.052,0.07,0.112,0.162,0.17,0.314l-0.018,0.009c0.101,0.295,0.322,0.749,0.515,1.104
		c0.898-0.759,1.597-1.333,2.068-1.672c0.33-0.291,0.654-0.567,0.973-0.835l-0.195-0.535l0.01-0.069
		c-0.01-0.016-0.094-0.271-0.144-0.425l-0.011-0.036l-0.665-0.654l0.047-0.049c-0.073-0.087-0.136-0.166-0.175-0.24
		c-0.293-0.301-0.62-0.643-1.007-1.064l0.022-0.022c-0.318-0.333-0.625-0.621-0.704-0.68l-0.074-0.085
		c-0.017-0.026-0.123-0.158-0.386-0.452c-0.302,0.2-0.55,0.347-0.779,0.484c-0.235,0.14-0.452,0.269-0.694,0.437l-0.088-0.125
		c0,0-0.001,0-0.001,0l0.052,0.135c-0.056,0.025-0.263,0.145-0.462,0.259L13.678,44.864z"/>
	<path d="M21.455,34.244c-0.149,0.039-0.379,0.081-0.734,0.147c-0.374,0.069-0.886,0.163-0.959,0.184l-0.003-0.01
		c-0.018,0.004-0.033,0.008-0.043,0.011l-0.01-0.035l-0.016,0.051l-0.3,0.003c-0.104,0.02-0.212,0.039-0.319,0.06
		c-0.37,0.069-0.77,0.143-1.06,0.2c0.14,0.2,0.359,0.552,0.743,1.175l-0.016,0.011c0.018,0.037,0.061,0.112,0.101,0.184
		c0.051,0.089,0.089,0.157,0.112,0.214c0.311,0.468,0.881,1.376,1.215,1.943c0.071,0.022,0.134,0.044,0.212,0.07l0.486,0.16
		c0.056,0.017,0.106,0.032,0.151,0.044h0.06c0.042,0,0.066,0.002,0.292,0.066c0.315,0.098,0.499,0.154,0.602,0.211
		c0.311-0.2,0.681-0.432,1.115-0.688l0.017,0.027l0.471-0.305l0.006,0.009c0.286-0.157,0.402-0.233,0.529-0.317
		c0.138-0.091,0.288-0.19,0.641-0.389l0.028,0.046l0.277-0.189l-2.139-3.118c-0.061,0.012-0.106,0.022-0.133,0.033l-0.067,0.017
		c-0.343,0.042-0.375,0.047-0.701,0.099L21.455,34.244z"/>
	<path d="M17.557,35.762c-0.168-0.259-0.32-0.494-0.395-0.625c-0.024-0.029-0.049-0.063-0.078-0.105l-1.475,0.24l0-0.005
		l-0.022,0.004c0.039,0.115,0.083,0.248,0.134,0.406c0.038,0.096,0.071,0.179,0.099,0.248l0.048-0.018
		c0.15,0.404,0.2,0.607,0.204,0.722c0.093,0.269,0.16,0.45,0.213,0.583c0.412,0.125,0.823,0.249,1.096,0.339
		c0.229,0.059,0.79,0.225,1.371,0.398l0.278,0.082c-0.022-0.038-0.043-0.076-0.063-0.113c-0.055-0.058-0.118-0.151-0.218-0.302
		c-0.042-0.062-0.079-0.119-0.102-0.15l-0.366-0.455l0.084-0.002c-0.044-0.062-0.079-0.107-0.111-0.149
		c-0.021-0.026-0.041-0.055-0.061-0.083l-0.01,0.006c-0.102-0.158-0.147-0.234-0.198-0.323l-0.073-0.125l0.007-0.005
		C17.806,36.146,17.678,35.948,17.557,35.762z"/>
	<path d="M18.148,52.48c0.068,0.023,0.125,0.048,0.171,0.072c0.195-0.09,0.381-0.167,0.545-0.228l0.027,0.066l0.204-0.083
		c0.336-0.158,0.464-0.227,0.512-0.255c0.058-0.078,0.151-0.127,0.328-0.21c0.136-0.041,0.176-0.051,0.223-0.051h0.014l0.271-0.129
		l-0.032-0.096l0.05-0.018c-0.007-0.02-0.014-0.039-0.02-0.06l-0.073,0.024l-0.593-1.682l0.025-0.01
		c-0.083-0.232-0.169-0.469-0.258-0.71l-0.143-0.395l-0.495,0.392c-0.055,0.073-0.149,0.159-0.294,0.291
		c-0.044,0.04-0.088,0.081-0.126,0.115l0.021,0.026c-0.34,0.273-0.396,0.312-0.51,0.312c-0.019,0.016-0.042,0.032-0.063,0.049
		c-0.062,0.113-0.219,0.245-0.506,0.489c-0.003,0.002-0.006,0.006-0.009,0.008l0.027,0.036c-0.345,0.291-0.681,0.572-1.01,0.846
		c0.073,0.187,0.149,0.377,0.229,0.569l0.129,0.047c0.03,0.024,0.069,0.038,0.104,0.057l0.01-0.029l0.216,0.078l-0.016,0.049
		c0.069,0.024,0.139,0.05,0.217,0.075c0.208,0.065,0.445,0.141,0.688,0.276L18.148,52.48z"/>
	<path d="M23.875,50.954l0.77,0.813l0.063,0.123c0.212,0.224,0.315,0.313,0.409,0.396c0.095,0.084,0.185,0.165,0.35,0.341
		c-0.082-0.772-0.134-1.553-0.139-2.345L23.875,50.954z"/>
	<path d="M16.956,60.519c0.102-0.179,0.197-0.343,0.279-0.479c0.207-0.395,0.405-0.776,0.599-1.15
		c-0.408,0.161-0.879,0.338-1.34,0.512c-0.236,0.09-0.469,0.177-0.688,0.259l0.606,0.761l-0.013,0.009l0.117,0.142
		C16.654,60.555,16.805,60.538,16.956,60.519z"/>
	<path d="M24.084,59.684c0.084-0.077,0.218-0.102,0.313-0.118c0.257-0.029,0.374-0.038,0.421-0.038l0.239,0.006l0.791-0.149
		c0.23-0.024,0.39-0.033,0.499-0.033l0.13-0.015c0.224-0.039,0.445-0.078,0.7-0.111c-0.373-0.874-0.691-1.775-0.956-2.7
		l-0.282-0.007c-0.146-0.036-0.272-0.086-0.388-0.135c-0.126-0.054-0.227-0.096-0.323-0.098V56.22l-0.045,0.084l-0.172-0.086
		c-0.316,0.094-0.749,0.235-1.609,0.576c-0.06,0.08-0.162,0.128-0.241,0.164l-0.039,0.015l0.245,0.681l-0.043,0.015
		c0.115,0.32,0.224,0.633,0.348,0.97c0.126,0.339,0.255,0.688,0.385,1.051C24.065,59.687,24.075,59.686,24.084,59.684z"/>
	<path d="M33.639,14.228c0.052,0.391,0.1,0.693,0.147,0.996l0.082,0.535l-0.01,0.002l0.828,5.76l0.982,0.438l-0.01,0.022
		c0.289,0.134,0.569,0.264,0.831,0.388l0.147,0.029l0.683,0.303c0.959,0.432,1.949,0.879,2.396,1.104l1.14-2.82l-4.658-6.46
		c-0.457-0.645-1.187-1.687-1.63-2.328l-0.046-0.068l-0.996,0.019l-0.178-0.007l0.277,1.871
		C33.635,14.105,33.645,14.172,33.639,14.228z"/>
	<path d="M20.273,60.073c0.008,0.016,0.013,0.034,0.021,0.05c0.389-0.047,0.809-0.101,1.075-0.118c0.15-0.04,0.582-0.099,1.04-0.162
		c0.264-0.035,0.534-0.072,0.759-0.107l0.073-0.011l-0.371-1.07l0.018-0.006c-0.018-0.054-0.033-0.099-0.046-0.138
		c-0.079-0.076-0.138-0.25-0.269-0.636l0.101-0.053l-0.09,0.009c-0.009-0.046-0.045-0.159-0.116-0.384l-0.09-0.194l-2.473,0.93
		c-0.256,0.068-0.302,0.076-0.345,0.076h-0.015c0.03,0.048,0.052,0.099,0.07,0.141l-0.037,0.019
		c0.028,0.054,0.048,0.119,0.039,0.205c0.025,0.034,0.044,0.07,0.059,0.101h0.161l-0.024,0.3l0.012,0.061
		c0.003,0.005,0.006,0.009,0.009,0.015l0.241,0.084l-0.038,0.395h0.083l0.094,0.308C20.226,59.936,20.239,59.986,20.273,60.073z"/>
	<path d="M36.1,12.101l-0.728,0.013l1.009,1.423c0.165,0.22,0.353,0.477,0.519,0.705c0.211,0.289,0.384,0.529,0.436,0.585
		l3.843,5.358l0.631-1.561c0.235-0.528,0.744-1.783,1.193-2.891c0.597-1.47,0.848-2.091,0.995-2.352l-0.007-0.003l0.611-1.528
		l-0.221,0l-0.695-0.052h0.693h0.244l0.021-0.053l-0.263,0l-2.05,0.007l-2.283,0.051h-0.016L37.9,11.823l-1.302,0.014
		c-0.003,0.018-0.011,0.035-0.015,0.054l-0.117-0.005l-0.413-0.017l-0.813,0.059l0.113,0.16L36.1,12.101z"/>
	<path d="M41.908,24.793l0.007-0.016l2.415,1.099l-2.969-4.188c-0.303,0.741-0.639,1.575-0.982,2.429
		c0.317,0.141,0.66,0.293,0.925,0.415C41.533,24.634,41.763,24.733,41.908,24.793z"/>
	<polygon points="34.48,12.071 34.421,11.986 34.236,11.999 34.186,12.046 34.186,12.063 34.202,12.065 	"/>
	<path d="M20.288,28.929c0.659,0.969,1.574,2.262,2.246,3.212l0.357,0.504l-0.027,0.02c0.058,0.09,0.106,0.166,0.142,0.231
		l0.016,0.022c0.005,0.01,0.007,0.021,0.012,0.031l0.216,0.312l3.491-0.601l-0.066-0.341c0,0,0-0.001,0-0.001l0.009-0.003
		c-0.273-1.346-0.537-2.709-0.799-4.075l-0.927-0.342l0.008-0.023c-0.95-0.327-2.651-0.958-4.297-1.568l-2.565-0.974
		c-0.05,0.061-0.102,0.121-0.151,0.182l0.208,0.288c0.538,0.779,0.896,1.298,0.958,1.409l1.149,1.672l-0.006,0.004L20.288,28.929z"
		/>
	<path d="M14.089,57.577c0.053,0.04,0.113,0.109,0.211,0.223c0.066,0.076,0.141,0.163,0.201,0.226l0.793,0.993
		c1.15-0.415,2.134-0.806,3.083-1.187l0.025-0.048c-0.105-0.295-0.232-0.521-0.365-0.759c-0.152-0.272-0.31-0.554-0.427-0.929
		l0.012-0.007c-0.028-0.065-0.048-0.119-0.054-0.172c-0.053-0.083-0.109-0.195-0.184-0.354c-0.04-0.084-0.08-0.166-0.112-0.228
		l0.045-0.031c-0.115-0.114-0.257-0.411-0.407-0.722c-0.051-0.104-0.1-0.208-0.148-0.301l-0.018-0.036
		c-0.206,0.119-0.461,0.257-1.045,0.521l-2.493,1.126l0.114,0.699C13.59,56.929,13.841,57.247,14.089,57.577z"/>
	<path d="M24.207,55.191c0.027,0.01,0.055,0.021,0.086,0.036l0.049-0.097c0.093,0.049,0.229,0.111,0.357,0.172
		c0.068,0.032,0.135,0.063,0.193,0.092c0.245-0.094,0.474-0.183,0.662-0.257l0.021,0.047l0.279-0.121
		c-0.109-0.501-0.202-1.01-0.277-1.524l-0.005-0.006l-0.288,0.174l-0.817-0.842c-0.078-0.108-0.375-0.45-0.637-0.75
		c-0.233-0.269-0.491-0.564-0.703-0.816l-0.299,0.138c-0.273,0.5-0.54,0.978-0.796,1.439l-0.211,0.381
		c0.076,0.191,0.158,0.405,0.265,0.713l0.364,0.361c0.015,0.011,0.105,0.063,0.214,0.114l0.03-0.024l0.166,0.085
		c0.177,0.092,0.339,0.146,0.492,0.2c0.012,0.004,0.025,0.009,0.038,0.013l-0.007-0.024l0.059,0.043
		c0.065,0.022,0.129,0.045,0.192,0.071l0.137,0.057l0.022,0.004l0,0.006l0.564,0.231l-0.147,0.044L24.207,55.191z"/>
	<path d="M27.421,40.572c0.003-0.007,0.006-0.015,0.009-0.022l-0.529-0.758l0.015-0.01c-0.057-0.084-0.136-0.2-0.235-0.344
		c-0.071-0.058-0.168-0.2-0.409-0.554l0.01-0.006c-0.032-0.048-0.073-0.109-0.117-0.173l-0.735-1.029l-0.666,0.437l0.091-0.176
		c-0.257,0.164-0.507,0.32-0.771,0.482l0.038,0.044l-0.083,0.073c-0.306,0.196-0.636,0.388-0.923,0.554
		c-0.07,0.042-0.125,0.074-0.189,0.112l0.329,0.091c0.326,0.102,0.55,0.176,0.676,0.224l0.195,0.054
		c0.457,0.129,0.906,0.255,1.553,0.465l-0.002,0.006l0.749,0.216c0.397,0.124,0.695,0.219,0.926,0.293L27.421,40.572z"/>
	<path d="M22.444,55.109c0.059,0.197,0.125,0.418,0.197,0.65c0.054,0.055,0.086,0.132,0.116,0.204
		c0.026,0.087,0.05,0.169,0.073,0.244c0.174-0.085,0.535-0.229,1.136-0.46l-1.144-0.431l0.008-0.059
		C22.708,55.205,22.578,55.157,22.444,55.109z"/>
	<path d="M29.627,29.645l0.002-0.007c-0.207-0.078-0.36-0.136-0.476-0.186c-0.014-0.004-0.029-0.009-0.045-0.015l-0.068-0.023
		l0.003-0.01c-0.016-0.008-0.031-0.015-0.045-0.022c-0.073-0.029-0.167-0.065-0.288-0.111c-0.153-0.041-0.904-0.317-2.044-0.74
		l0.775,4.01l2.521-0.434l-0.001-0.009l4.281-0.732L29.627,29.645z"/>
	<path d="M10.768,45.838c-0.158-1.194-0.38-2.618-0.616-4.123c-0.357,1.624-0.613,3.286-0.762,4.978
		c0.365-0.231,0.763-0.476,1.125-0.699L10.768,45.838z"/>
	<path d="M20.592,53.594l0.028,0.013l0.316-0.566c-0.06-0.112-0.123-0.296-0.229-0.612l-0.003-0.01
		c-0.424,0.195-0.845,0.395-1.266,0.593l0.151,0.055l-0.079,0.071c0.076,0.027,0.158,0.059,0.242,0.091
		c0.092,0.037,0.187,0.072,0.275,0.104l0.292,0.102l-0.014,0.029C20.401,53.504,20.496,53.548,20.592,53.594z"/>
	<path d="M14.581,32.467c0.112,0.354,0.218,0.686,0.328,0.986l0.169,0.425l-0.016,0.036c0.031,0.084,0.059,0.165,0.086,0.239
		l0.03-0.01c0.063,0.184,0.111,0.31,0.163,0.444l0.012,0.032l1.334-0.229l-0.059-0.096l0.058-0.036
		c-0.165-0.256-0.306-0.461-0.446-0.666c-0.256-0.376-0.521-0.765-0.943-1.467l-0.413-0.741c-0.074-0.081-0.202-0.265-0.477-0.699
		c-0.09,0.157-0.175,0.317-0.263,0.476l0.076,0.215C14.354,31.752,14.471,32.12,14.581,32.467z"/>
	<path d="M23.516,45.39c-0.178,0.152-0.334,0.286-0.455,0.39l-0.011-0.013c-0.418,0.357-0.668,0.548-0.912,0.734
		c-0.161,0.123-0.317,0.242-0.518,0.405l0.032,0.04c-0.453,0.369-0.772,0.646-0.87,0.741l0.082,0.085
		c0.101,0.114,0.174,0.197,0.205,0.278l1.666,1.723c0.404-0.805,0.836-1.652,1.451-2.761l0.023,0.012
		c0.056-0.105,0.112-0.213,0.166-0.319c-0.092-0.137-0.158-0.227-0.223-0.314c-0.143-0.194-0.278-0.377-0.628-0.971l0.009-0.005
		L23.516,45.39z"/>
	<path d="M23.821,12.262l1.618-0.036l0.819,1.315l0.734,1.314l0.381,0.698l0.313,0.572l0.339,0.553
		c-0.569,0.348-1.126,0.713-1.675,1.089l0.91,0.402c0.756,0.368,2.206,1.018,3.886,1.77c0.901,0.404,1.855,0.831,2.772,1.246
		c-0.188-1.384-0.38-2.76-0.566-3.999l0.011-0.001c-0.014-0.12-0.039-0.315-0.068-0.537l-0.017,0.002l-0.658-4.537l-0.22-0.008
		l-1.869-0.053l-1.124-0.04l-0.925,0.076l-2.298,0.053l-0.711,0.009l-0.191-0.266l-1.076-1.701l-1.023-1.661l-0.784-1.215
		l0.655,1.159l1.08,1.711l0.442,0.696l0.674,1.046l0.144,0.231l-1.44,0.017l-1.652,0.055L23.821,12.262z M28.068,16.651
		l-0.323-0.528l-0.71-1.293l-0.802-1.427l-0.13-0.234l2.059,3.423C28.13,16.611,28.1,16.632,28.068,16.651z M26.135,12.21
		l0.943-0.024l1.421-0.042l2.182-0.034l1.722,0.051l0.117,0.005l-6.945,0.125l0.003,0.006l-0.053-0.073L26.135,12.21z"/>
	<path d="M34.035,22.032l-1.292-0.591c-0.067-0.03-1.354-0.629-2.518-1.155l-0.008,0.018l-4.569-2.045
		c-0.293,0.209-0.583,0.421-0.87,0.64l0.183,1.003c0.038,0.081,0.157,0.685,0.415,2.028c0.151,0.781,0.307,1.589,0.367,1.824
		l0.773,4c0.421,0.167,1.004,0.391,2.029,0.765c0.009,0.003,0.018,0.006,0.025,0.008h0.017c0.054,0,0.087,0.01,0.276,0.074
		l4.375,1.633c0.212,0.088,0.346,0.144,0.422,0.205l1.003,0.369l-0.007,0.037l0.673,0.249l-0.046-0.34l-0.417-2.793
		c-0.224-1.44-0.479-3.331-0.751-5.332L34.035,22.032z"/>
	<path d="M16.535,43.165l-0.018-0.023c-0.001,0.001-0.003,0.002-0.004,0.003c0.508,0.55,1.035,1.118,1.572,1.692
		c-0.137-0.38-0.271-0.746-0.406-1.112c-0.131-0.354-0.261-0.711-0.396-1.084c-0.121,0.073-0.239,0.146-0.354,0.218
		C16.883,42.945,16.76,43.023,16.535,43.165z"/>
	<polygon points="10.715,61.862 10.716,61.857 10.562,61.862 	"/>
	<path d="M34.76,31.555l-0.037-0.014l0.014,0.03C34.745,31.565,34.752,31.56,34.76,31.555z"/>
	<path d="M18.601,59.383c-0.106,0.241-0.328,0.642-0.544,1.022h0.085c0.495-0.073,1.057-0.169,1.2-0.199l0.106-0.021
		c-0.142-0.357-0.306-0.719-0.466-1.07c-0.035-0.076-0.07-0.153-0.105-0.23L18.601,59.383z"/>
	<path d="M19.688,53.986H19.59l-0.063-0.103c-0.061-0.03-0.116-0.063-0.165-0.092c-0.044-0.025-0.082-0.051-0.115-0.063
		c0.073,0.007,0.105-0.002,0.135-0.017l-0.022-0.046c-0.026-0.01-0.052-0.018-0.076-0.026l-0.057,0.117
		c-0.236-0.107-0.492-0.203-0.751-0.294l-0.578,0.271l-0.029-0.057c-0.123,0.056-0.23,0.104-0.324,0.147l0.015,0.029l-0.016,0.03
		c0.059,0.081,0.094,0.157,0.129,0.296l0.005,0.021c0.042,0.056,0.087,0.13,0.148,0.273l0.102,0.243
		c0.132,0.2,0.165,0.313,0.18,0.427l0.109,0.258l-0.071-0.051c0.01,0.025,0.022,0.057,0.04,0.093
		c0.039,0.021,0.076,0.049,0.109,0.088l0.049,0.08c0.067,0.171,0.113,0.262,0.161,0.354c0.053,0.104,0.106,0.206,0.183,0.4
		l0.02,0.093c0.001,0.035,0.002,0.081-0.008,0.13l0.024,0.028l0.038-0.012c0.05,0.113,0.081,0.19,0.083,0.264
		c0.005,0.01,0.011,0.02,0.017,0.029c0.435-0.84,0.886-1.704,1.415-2.683C20.054,54.137,19.864,54.066,19.688,53.986z"/>
	<path d="M27.769,39.833c0.092-0.183,0.191-0.361,0.288-0.542l-0.06-0.293c-0.293-1.443-0.44-2.198-0.475-2.423
		c-0.016-0.049-0.031-0.109-0.048-0.184l-0.23,0.146l-0.02-0.031l-1.216,0.789c0.188,0.275,0.37,0.539,0.512,0.74l0.229,0.318
		c0.218,0.301,0.318,0.439,0.913,1.304l-0.009,0.007L27.769,39.833z"/>
	<path d="M24.76,61.903c0.521-0.005,1-0.008,1.391-0.01l0.305,0.092l0.902,0.018l1.05-0.036l0.917,0.007l0.407,0.004l0.266,0.003
		l0.177-0.018l0.156-0.011l0.969-0.069l0.627-0.012l0.223-0.004l0.34-0.013l-0.141-0.047l-0.303-0.075l-0.082-0.013l-0.658-0.063
		h-0.193l-0.946,0.012l-0.888-0.005l-0.843-0.011l-0.061-0.001c-0.295-0.519-0.565-1.051-0.821-1.592l-0.173,0.021
		c-0.588,0.069-0.755,0.08-0.841,0.08c-0.057,0-0.116-0.005-0.174-0.031c-0.092,0.003-0.249,0.018-0.557,0.054l-1.501,0.223
		c0.104,0.298,0.205,0.604,0.306,0.925l-0.045,0.017L24.76,61.903z"/>
	<path d="M40.072,24.885c-0.78,1.944-1.518,3.781-1.958,4.788l-0.905,2.246l0.259,0.432l0.198,0.285l0.169,0.251l1.064,1.572
		l0.293,0.47l0.405,0.673l0.007-0.013l0.175,0.28l0.357,0.56l-0.087-0.267l-0.218-0.562l-0.067-0.145l-0.042-0.08l3.426-6.19
		l0.271-0.474l0.877-1.512l0.239-0.414l-0.04-0.018l-0.151,0.259l0.144-0.263l-4.002-1.804l0.006-0.015l-0.377-0.171L40.072,24.885z
		"/>
	<path d="M34.81,22.376l0.339,2.357l-0.02,0.002c0.15,0.885,0.426,2.8,0.648,4.344c0.093,0.649,0.175,1.222,0.232,1.602L36,30.684
		c0.001,0.005,0.001,0.01,0.002,0.015c0.114-0.073,0.225-0.154,0.341-0.226l0.418,0.7l0.568-1.376
		c0.029-0.089,0.077-0.217,0.154-0.416c0.027-0.07,0.054-0.14,0.078-0.202l-0.017-0.007c0.167-0.405,0.237-0.569,0.305-0.639
		l0.107-0.261c0.025-0.121,0.112-0.336,0.304-0.813c0.003-0.006,0.004-0.012,0.007-0.018l-0.021-0.009l1.198-2.961l-2.501-1.135
		c0.005,0.003-0.037-0.015-0.083-0.033l-0.067-0.026l-0.003,0.009c-0.77-0.336-0.827-0.368-0.893-0.406
		c-0.047-0.027-0.097-0.054-0.621-0.285l0.003-0.009L34.81,22.376z"/>
	<path d="M15.715,60.645l-0.114-0.09l-0.426-0.552l0.013-0.012c-0.017-0.02-0.034-0.04-0.05-0.061
		c-0.004-0.002-0.008-0.002-0.012-0.005c-0.067,0.027-0.13,0.052-0.189,0.077l-0.049-0.11l0,0.099l-0.043,0.019
		c-0.27,0.104-0.588,0.236-0.934,0.382c0.022,0.174,0.043,0.342,0.062,0.505C14.636,60.81,15.294,60.723,15.715,60.645z"/>
	<path d="M22.994,61.94L24,61.928h0.005l-0.043-0.126l-0.015,0.005l-0.119-0.239l-0.177-0.578l0.026-0.009l-0.167-0.481
		c-0.006,0.001-0.012,0.001-0.018,0.003l-0.09-0.219c-0.004,0.001-0.009,0.001-0.014,0.003l-0.015,0.226
		c-0.098,0-0.772,0.089-1.265,0.152c-0.228,0.029-0.456,0.061-0.656,0.084l0.003,0.029c-0.256,0.041-0.5,0.078-0.731,0.109
		l0.185,0.226l-0.068,0.256c0.005,0.024,0.009,0.044,0.01,0.065c0.041,0.065,0.081,0.126,0.095,0.143l0.281,0.346
		c0.591-0.003,1.171-0.006,1.72-0.009l-0.069,0.019L22.994,61.94z"/>
	<path d="M18.323,61.935l0.027,0.039l0.939-0.017l0.919-0.012c-0.002-0.005-0.004-0.011-0.006-0.017l-0.071-0.001h-0.097
		c0.056,0,0.111,0,0.167,0c-0.02-0.059-0.04-0.119-0.056-0.174c-0.047-0.153-0.087-0.286-0.161-0.419l-0.215-0.316l0.003-0.013
		c-0.428,0.048-0.828,0.087-1.217,0.124c-0.321,0.03-0.636,0.061-0.955,0.096c-0.02,0.039-0.037,0.072-0.05,0.102l-0.034-0.011
		l-0.147,0.284l0.277,0.335C17.872,61.936,18.097,61.935,18.323,61.935z"/>
	<polygon points="21.219,61.949 21.167,61.945 21.144,61.95 	"/>
	<path d="M16.167,61.939l0.241-0.441l-0.083-0.104l-0.958,0.164l-0.308-0.011l-0.391,0.075c-0.164,0.03-0.311,0.058-0.5,0.086
		l0.037,0.231C14.81,61.94,15.47,61.94,16.167,61.939z"/>
	<path d="M20.356,25.433l0.212,0.092c0.078,0.028,0.148,0.052,0.221,0.077c0.282,0.098,0.598,0.207,1.531,0.558l-0.01,0.03
		c0.793,0.302,1.124,0.411,1.444,0.517l0.342,0.114c0.846,0.303,1.264,0.465,1.632,0.614l-0.016-0.083
		c-0.139-0.725-0.279-1.451-0.419-2.172l-0.053-0.433c-0.124-0.628-0.221-1.05-0.319-1.477c-0.107-0.462-0.214-0.93-0.362-1.691
		l0.015-0.003l-0.427-2.189c-2.034,1.609-3.906,3.416-5.584,5.391c0.271,0.1,0.423,0.151,0.558,0.196
		C19.36,25.055,19.567,25.124,20.356,25.433z"/>
	<path d="M13.812,59.526l0.005,0.029l0.199-0.07l-0.005-0.018l0.031-0.01l0.156-0.054c0.12-0.042,0.239-0.081,0.354-0.123
		c-0.075-0.091-0.154-0.187-0.233-0.282c-0.243-0.298-0.485-0.593-0.614-0.741l-0.068-0.104c-0.02-0.032-0.042-0.066-0.077-0.116
		c0.081,0.504,0.16,1.008,0.231,1.491L13.812,59.526z"/>
	<polygon points="27.263,40.922 27.268,40.911 27.239,40.906 27.237,40.911 	"/>
	<path d="M24.968,35.743c0.059,0.098,0.299,0.463,0.69,1.042c0.224-0.142,0.457-0.293,0.688-0.444
		c0.346-0.225,0.688-0.447,0.986-0.631c-0.13-0.65-0.304-1.556-0.452-2.322l-0.014-0.072l-0.167,0.029
		c-0.129,0.066-0.423,0.117-1.092,0.232l-0.004-0.021c-0.275,0.049-0.325,0.054-0.409,0.065c-0.096,0.011-0.238,0.028-0.823,0.122
		c-0.242,0.049-0.48,0.092-0.7,0.13l0.516,0.747l-0.013,0.008C24.555,35.18,24.883,35.635,24.968,35.743z"/>
	<path d="M14.341,34.793l0.177-0.031l-0.028-0.082c-0.042-0.113-0.074-0.199-0.097-0.265l-0.018-0.047
		c-0.019-0.058-0.022-0.096-0.023-0.128l-0.737-2.096c-0.512,0.989-0.988,2-1.416,3.034l0.191-0.037
		C12.87,35.05,13.253,34.975,14.341,34.793z"/>
	<path d="M12.995,36.222l1.789,0.516l0.025,0.003l0.228,0.069l0.003,0.02c0.086,0.028,0.193,0.061,0.307,0.095
		c-0.085-0.264-0.124-0.397-0.127-0.481c-0.046-0.115-0.101-0.254-0.159-0.403c-0.051-0.129-0.104-0.266-0.155-0.396
		c-0.066-0.04-0.112-0.114-0.157-0.228L12,35.904l0.295,0.09C12.651,36.103,12.866,36.167,12.995,36.222z"/>
	<path d="M21.883,55.828c-0.151-0.429-0.307-0.87-0.407-1.115l-0.138-0.037c-0.062-0.029-0.134-0.063-0.21-0.095
		c-0.071,0.139-0.133,0.26-0.167,0.338l0.013,0.028l-1.254,2.354c0.714-0.278,1.493-0.57,2.376-0.871
		C22.027,56.237,21.955,56.031,21.883,55.828z"/>
	<path d="M26.112,43.899l0.117-0.118c0.091-0.316,0.183-0.632,0.287-0.942l-0.061,0.052l-0.027-0.032
		c-0.425,0.418-1.415,1.261-2.259,1.978l0.028,0.044l-0.017,0.01c0.1,0.172,0.261,0.42,0.43,0.681
		c0.063,0.096,0.128,0.195,0.191,0.294c0.023-0.038,0.05-0.074,0.085-0.102c0.129-0.229,0.221-0.417,0.312-0.606
		c0.059-0.119,0.116-0.238,0.183-0.367l0.023,0.011c0.163-0.29,0.34-0.618,0.523-0.959L26.112,43.899z"/>
	<path d="M26.935,41.708c0.068-0.173,0.133-0.345,0.206-0.516l-0.006-0.002c-0.556-0.158-1.326-0.38-1.86-0.539
		c-1.538-0.465-1.551-0.477-1.626-0.541c-0.008,0.004-0.284-0.083-0.776-0.234l-0.801-0.235l-0.818,0.538
		c0.011,0.017,0.021,0.032,0.031,0.049l0.039-0.021l0.413,0.704l-0.01,0.006c0.24,0.405,0.49,0.811,0.759,1.241
		c0.265,0.424,0.543,0.87,0.825,1.34c0.071,0.079,0.173,0.236,0.365,0.546l0.426-0.372c0.386-0.347,0.84-0.732,1.333-1.142
		l1.26-1.034L26.935,41.708z"/>
	<path d="M16.711,32.779C17,33.23,17.313,33.72,17.613,34.23l4.879-0.839l-2.571-3.748c-0.105-0.157-0.169-0.252-0.199-0.326
		l-2.233-3.217c-0.928,1.191-1.79,2.437-2.577,3.733l0.839,1.334C15.962,31.607,16.309,32.15,16.711,32.779z"/>
	<path d="M12.688,58.367l0.011-0.017c-0.019-0.221-0.102-0.907-0.213-1.658c-0.052-0.068-0.135-0.174-0.276-0.349l-2.297,1.035
		c0.213,1.129,0.474,2.239,0.781,3.332l2.254-0.835L12.688,58.367z"/>
	<path d="M10.697,54.397c-0.001-0.002-0.002-0.003-0.002-0.005l-0.136-0.056l-0.04-0.051c-0.428-0.552-0.817-1.021-1.19-1.472
		c0.069,1.011,0.177,2.01,0.321,2.997l1.283-1.078c-0.051-0.055-0.125-0.145-0.255-0.314L10.7,54.4
		C10.698,54.398,10.697,54.397,10.697,54.397z"/>
	<path d="M11.631,55.664c-0.057-0.076-0.119-0.157-0.186-0.245c-0.25,0.201-0.538,0.437-0.834,0.684l-0.157,0.131L11.631,55.664z"/>
	<path d="M13.274,61.768l-2.48,0.085c0.276,0.003,2.137,0.083,2.48,0.085V61.768z"/>
	<path d="M11.181,39.461c0.018,0.024,0.035,0.051,0.05,0.076l0.1-0.022l0.037,0.209l0.515,1.125c0.046,0.084,0.078,0.18,0.107,0.269
		c0.016,0.049,0.029,0.095,0.045,0.124l0.579,0.667l-0.331-0.091c0.055,0.122,0.111,0.243,0.167,0.362
		c0.118,0.255,0.232,0.503,0.332,0.74l0.269,0.64c0.047,0.078,0.101,0.169,0.102,0.272c0,0,0,0.001,0,0.002
		c0,0.01,0,0.021-0.001,0.033l0.003,0.006l0.018-0.011l-0.012,0.008l0.012-0.007l-0.017,0.012l0.191,0.37
		c0.159-0.1,0.318-0.204,0.424-0.289c0.429-0.246,0.434-0.248,0.513-0.248c0.108-0.069,0.212-0.136,0.311-0.201
		c0.274-0.178,0.496-0.322,0.671-0.412l0.042-0.034c-0.165-0.177-0.325-0.345-0.452-0.471l-0.203-0.19
		c-0.208-0.193-0.299-0.277-0.844-0.855l0.021-0.021c-0.203-0.215-0.32-0.328-0.432-0.436c-0.142-0.137-0.275-0.265-0.553-0.571
		l-0.062-0.068l0.015-0.014c-0.622-0.64-0.766-0.773-1.144-1.126l-0.277-0.258l0.023-0.031l-0.427-0.431
		c-0.061,0.197-0.117,0.396-0.175,0.594l0.258-0.049L11.181,39.461z"/>
	<path d="M14.587,41.13l-0.023,0.023c0.04,0.045,0.094,0.105,0.164,0.179c0.089,0.016,0.153,0.085,0.434,0.393l-0.018,0.017
		c0.026,0.03,0.063,0.071,0.102,0.112l0.792,0.777c0.135-0.082,0.287-0.175,0.446-0.273l-0.026-0.043c0,0,0-0.001,0.001-0.001
		c0.236-0.145,0.384-0.237,0.477-0.296c0.021-0.035,0.052-0.066,0.091-0.098c-0.014-0.037-0.029-0.081-0.045-0.129l0.021-0.008
		c-0.297-0.875-0.515-1.425-0.727-1.959l0.033-0.015c-0.119-0.338-0.173-0.472-0.236-0.63c-0.076-0.189-0.164-0.411-0.392-1.044
		l0.036-0.014c-0.005-0.016-0.011-0.033-0.016-0.05c-0.051-0.078-0.1-0.199-0.167-0.377c-0.753-0.228-1.425-0.438-2.077-0.641
		c-0.574-0.18-1.134-0.354-1.72-0.532l-0.054-0.017c-0.146,0.394-0.287,0.792-0.421,1.191l1.221,1.281L14.587,41.13z"/>
	<path d="M10.038,49.037l0.156,0.08l0.019-0.038c0.172,0.055,0.265,0.108,0.34,0.15c0.065,0.038,0.113,0.064,0.226,0.098l0.27,0.078
		l-0.013,0.087c0.07,0.031,0.148,0.075,0.214,0.113c0.057,0.032,0.11,0.062,0.154,0.081c-0.016-0.129-0.035-0.276-0.057-0.449
		c-0.063-0.16-0.124-0.517-0.279-1.544c-0.059-0.396-0.125-0.83-0.175-1.102l-0.813,0.484L9.32,47.532
		c-0.026,0.399-0.045,0.799-0.06,1.201l0.224,0.077C9.672,48.873,9.849,48.932,10.038,49.037z"/>
	<path d="M9.526,51.892c0.6,0.798,1.231,1.567,1.927,2.403l0.359-0.302l-0.019-0.031c0.089-0.073,0.163-0.131,0.231-0.18
		c-0.034-0.169-0.065-0.314-0.096-0.452c-0.055-0.249-0.105-0.477-0.151-0.786c-0.164-1.144-0.221-1.579-0.265-1.949
		c-0.03-0.01-0.059-0.022-0.09-0.037l0.001-0.006c-0.012-0.002-0.025-0.007-0.038-0.011l0.003-0.01
		c-0.001,0-0.002-0.001-0.002-0.001l-0.004,0.011c-0.04-0.013-0.109-0.036-0.168-0.081c-0.162-0.061-0.323-0.125-0.489-0.195
		c-0.211-0.089-0.429-0.182-0.659-0.266l0.011-0.042c-0.258-0.111-0.469-0.181-0.708-0.26l-0.127-0.043
		c-0.003,0.171-0.009,0.341-0.009,0.513c0,0.458,0.011,0.916,0.026,1.37L9.526,51.892z"/>
	<path d="M72.601,33.487l-0.065,0.011l-0.974,0.036l-0.417,0.014c-0.261,0.027-0.684,0.046-1.366,0.076
		c-0.521,0.023-1.039,0.046-1.305,0.061h-0.128H68.27c-0.092,0-0.213,0.001-0.441,0.011c-0.104,0.017-0.304,0.026-0.737,0.046
		c-0.224,0.01-0.449,0.021-0.585,0.031c-0.298,0.009-0.379,0.009-0.426,0.007c0.045,0.192,0.094,0.388,0.144,0.588l-0.029,0.007
		c0.115,0.471,0.159,0.664,0.177,0.742l-0.217,0.102c1.427,1.685,2.618,3.576,3.518,5.624l0.046-0.025
		c0.497-0.251,0.745-0.38,0.868-0.447l-0.012-0.025c0.866-0.426,1.271-0.639,1.662-0.844c0.402-0.211,0.79-0.416,1.645-0.833
		l1.874-0.906c0.052-0.043,0.12-0.078,0.188-0.114c0.337-0.159,0.673-0.321,1.01-0.487l-0.01-0.018l0.578-0.291l0.003-1.413
		l-0.01-0.069l0.015-2.089L72.601,33.487z"/>
	<path d="M62.446,18.583c0.111,0.49,0.215,0.95,0.317,1.372l0.099,0.386c0.009,0.046,0.02,0.091,0.021,0.134
		c0.037,0.153,0.072,0.295,0.103,0.424l0.016-0.003l0.382,1.593l1.602-1.356l0.388-0.331l0.005,0.005
		c0.297-0.244,0.627-0.517,0.998-0.828l-0.024-0.03c0.449-0.385,0.535-0.455,0.614-0.468c0.303-0.255,0.612-0.516,0.93-0.784
		c0.612-0.518,1.233-1.043,1.813-1.527c-0.79-0.51-1.6-0.995-2.427-1.448l-5.287,0.92C62.161,17.32,62.309,17.975,62.446,18.583z"/>
	<path d="M66.221,15.161c-1.621-0.822-3.308-1.533-5.047-2.127l0.681,2.888L66.221,15.161z"/>
	<path d="M78.202,26.658c-0.005,0.067-0.007,0.409-0.01,0.63l0.021,0.279l-0.05,1.051l-0.003,1.039
		c0.029,0.126,0.028,0.438,0.026,1.436h-0.006c-0.007,0.319-0.006,0.722-0.004,1.227v0.302l1.419-0.064l0.001,0.015
		c0.462-0.02,0.928-0.033,1.347-0.045c0.348-0.011,0.673-0.021,0.928-0.032l-0.001-0.017l1.601-0.071
		c-1.438-2.832-3.213-5.463-5.269-7.847c-0.003,0.583-0.005,1.147-0.016,1.603c0.005,0.024,0.008,0.05,0.011,0.079
		c-0.002,0.007,0.001,0.014,0.001,0.021c0.008,0.095,0.009,0.217,0.011,0.37l-0.113,0.012L78.202,26.658z"/>
	<path d="M74.175,23.744l-1.417,1.143l-0.393,0.318c-0.342,0.277-0.559,0.453-1.218,0.968l-0.006-0.007
		c-0.07,0.06-0.142,0.118-0.212,0.178c-0.331,0.277-0.666,0.558-1.007,0.837l-0.015-0.013l-1.064,0.877l-0.007-0.007
		c-0.732,0.586-0.845,0.692-0.925,0.77c-0.085,0.081-0.149,0.144-0.674,0.554l-0.037,0.037c0.006-0.006,0.012-0.013,0.016-0.021
		c-0.005,0.005-0.012,0.01-0.019,0.015l-0.031-0.041c-0.003,0.004-0.01,0.008-0.016,0.012l0.027,0.044l-0.029-0.041
		c-0.007,0.005-0.012,0.01-0.018,0.015l0.041,0.054l-0.19,0.149c-0.42,0.332-0.598,0.472-0.695,0.532l-0.233,0.194l0.021,0.025
		l-0.658,0.54l0.102,0.424l-0.013,0.004l0.023,0.107c0.117,0.51,0.249,1.094,0.399,1.731l2.225-0.081
		c0.089-0.015,0.201-0.021,0.339-0.029l0.417-0.024l4.102-0.162l0.002,0.008l4.52-0.204l0.021-8.802l0.03,0.001
		c-0.512-0.564-1.042-1.109-1.584-1.643l-0.246,0.203c-0.567,0.463-1.095,0.894-1.591,1.318L74.175,23.744z"/>
	<path d="M78.177,33.263c-0.002,0.413-0.003,0.873-0.012,1.394l-0.013,0l0.001,0.57h-0.005l-0.003,1.34
		c0.378-0.19,0.762-0.386,1.155-0.586c1.064-0.541,2.203-1.12,3.47-1.736l0.012,0.022l1.286-0.641
		c-0.095-0.204-0.193-0.405-0.293-0.607l-0.048,0.002c-0.18,0.001-0.523,0.009-0.805,0.021L78.177,33.263z"/>
	<path d="M68.533,19.038c-0.183,0.154-0.369,0.311-0.549,0.462l0.015,0.017l-0.847,0.702l-3.195,2.683
		c-0.007,0.009-0.017,0.018-0.025,0.027c-0.077,0.074-0.193,0.175-0.363,0.319c0.013,0.047,0.024,0.093,0.035,0.135l0.025-0.006
		c0.135,0.553,0.189,0.798,0.196,0.927c0.211,0.885,0.282,1.14,0.342,1.356c0.068,0.252,0.124,0.452,0.363,1.501
		c0.011,0.051,0.022,0.095,0.031,0.132l0.014,0.063c0.003,0.012-0.002,0.018,0,0.028l0.195,0.824l-0.037,0.009
		c0.063,0.268,0.124,0.521,0.166,0.715c0.039,0.152,0.066,0.258,0.086,0.33c0.05,0.07,0.075,0.17,0.104,0.272l0.036,0.141
		l-0.008,0.008c0.017,0.07,0.04,0.167,0.065,0.282l0.015-0.003l0.052,0.219l0.273-0.225l-0.003-0.005l0.398-0.337l0.009,0.01
		l0.663-0.547l0.018,0.021l0.043-0.036c0.683-0.56,1.457-1.194,1.607-1.341l3.631-2.924c0.475-0.392,1.001-0.821,1.476-1.208
		c0.366-0.299,0.736-0.601,1.013-0.828l0.041-0.043c0.063-0.065,0.143-0.146,0.314-0.287c0.049-0.034,0.083-0.056,0.116-0.076
		c0.211-0.174,0.459-0.373,0.715-0.577c-1.627-1.552-3.384-2.968-5.258-4.225l-0.026,0.021c-0.383,0.318-0.555,0.461-0.651,0.525
		C69.481,18.241,69.105,18.558,68.533,19.038z"/>
	<path d="M62.701,22.561l-0.01-0.029c-0.044-0.14-0.098-0.36-0.179-0.708l-0.093-0.395c-0.033-0.137-0.06-0.241-0.078-0.322
		l-0.031-0.125c-0.005-0.022,0-0.038-0.003-0.056l-0.993-4.166l-8.304,1.445L52.572,19l-0.861,1.523l-0.046,0.084l0.32,0.659
		c0.303,0.591,0.393,0.756,0.416,0.788c0.032,0.028,0.055,0.063,0.207,0.362c0.038,0.087,0.066,0.153,0.079,0.211l2.177,4.215
		l-0.003,0.009l0.643,1.253c0.287,0.09,0.572,0.184,0.853,0.287l0.445-0.375l0.004,0.006c0.454-0.375,0.974-0.817,1.44-1.216
		c0.795-0.678,1.252-1.065,1.402-1.155c0.017-0.016,0.033-0.029,0.048-0.041c0.003-0.003,0.007-0.005,0.008-0.007
		c0.042-0.034,0.073-0.054,0.109-0.064c0.434-0.366,0.621-0.534,0.801-0.698c0.233-0.208,0.457-0.41,1.159-0.993l1.053-0.884
		c-0.021-0.081-0.046-0.174-0.07-0.27C62.737,22.662,62.721,22.619,62.701,22.561z"/>
	<path d="M50.193,23.329l-0.642,1.098l-0.398,0.687l-0.263,0.452l-0.155,0.31l-0.138,0.27l-0.865,1.689l-0.6,1.073l-0.21,0.378
		l-0.318,0.584l0.191-0.206l0.387-0.46l0.096-0.131L47.993,28l0.187-0.326l0.375-0.66c2.083,0.006,4.097,0.293,6.017,0.816
		l-3.308-6.506l-0.021,0.037c0.01,0.006,0.019,0.013,0.028,0.019l-0.878,1.587L50.193,23.329z"/>
	<path d="M93.659,48.805l0.146-0.274l0.903-1.714l0.627-1.089l0.222-0.386l0.332-0.593l-0.197,0.208l-0.4,0.468l-0.099,0.13
		l-0.749,1.086l-0.193,0.332l-0.956,1.635l-0.701,1.171l-4.877-0.029c-0.059-5.533-1.267-10.787-3.389-15.544l-1.004,0.5
		l0.003,0.008l-0.313,0.175l-0.692,0.333l-0.005-0.013l-2.98,1.486l-0.005-0.008c-0.116,0.057-0.203,0.101-0.27,0.134
		c-0.103,0.079-0.314,0.183-0.723,0.386l-0.023-0.04l0.012,0.033c-0.024,0.01-0.082,0.036-0.185,0.086l-0.021,7.899h-0.059
		c0.003,0.166,0.005,0.346,0.007,0.521l-0.012,0c0.006,1.052-0.1,1.96-0.122,2.68l-0.31,1.085c-0.009-0.191-0.081-1.715-0.08-1.996
		c0.001-0.177-0.016-0.632-0.019-0.711l-0.021,0.373l-0.019-0.002c0.006-0.047,0.014-0.364,0.016-0.886l-0.033-1.561
		c0.002-0.056,0.007-0.136,0.03-0.209l0.001-0.873c-0.001-0.068-0.001-0.15-0.003-0.24h-0.028l0.004-0.542h0.021
		c-0.002-0.547-0.001-1.226-0.001-1.83l0.017-1.256l-0.003-1.337l-0.003-0.509h0.003v-0.281l-0.288,0.129l-3.269,1.618
		c-0.763,0.375-1.29,0.646-1.807,0.913c-0.102,0.063-0.306,0.165-0.758,0.389l-0.007-0.014l-1.486,0.729
		c1.052,2.563,1.665,5.354,1.729,8.28l-5.787-0.034l1.432,2.516l-0.383-0.552l-0.271-0.439c-0.014,0.009-0.03,0.016-0.045,0.024
		l0.283,0.45l0.989,1.633l0.72,1.322l0.375,0.701l0.307,0.576l0.924,1.554l0.887,1.508l0.908,1.544l0.62,1.008l1.221,2.144
		l-0.039-0.048l0.108,0.204l0.398,0.662l5.03,8.833l0.063-0.108l0.757,1.3l0.401,0.685l0.261,0.45l0.198,0.288l0.168,0.252
		l1.042,1.586l0.639,1.047l0.228,0.371l0.352,0.565l-0.086-0.268l-0.21-0.564l-0.067-0.146l-0.58-1.151l-0.192-0.323l-0.952-1.588
		l-0.877-1.496l-0.824-1.429l-0.006-0.008l6.557-11.201l3.632-6.206l0.09-0.098l0.941-1.539l1.025-1.83l0.947-1.573l0.418-0.697
		l0.275-0.458L93.659,48.805z M71.091,58.894l-0.883-1.51l-0.906-1.531l-0.698-1.3l-0.786-1.436l-0.173-0.319l3.646,6.402
		l0.106,0.217L71.091,58.894z"/>
	<path d="M63.268,24.853c-0.113-0.493-0.167-0.727-0.18-0.854c-0.021-0.083-0.046-0.178-0.071-0.283l-0.663,0.561l-0.006-0.006
		c-0.213,0.175-0.515,0.434-0.839,0.713c-0.39,0.335-0.814,0.699-1.161,0.985c-0.097,0.079-0.154,0.126-0.208,0.151
		c-0.033,0.028-0.104,0.086-0.246,0.206l-0.015-0.019c-0.418,0.458-1.912,1.685-2.61,2.25l-0.007-0.007l-0.156,0.132
		c2.111,0.849,4.071,1.998,5.82,3.398l0.051-0.053l1.658-1.358c-0.206-0.859-0.365-1.489-0.523-2.112l0.013-0.004l-0.572-2.334
		l0.018-0.005c-0.008-0.04-0.018-0.083-0.028-0.131c-0.047-0.13-0.099-0.345-0.187-0.7l0.031-0.008
		C63.354,25.225,63.311,25.039,63.268,24.853z"/>
	<path d="M64.804,31.38l-0.875,0.719c-0.06,0.048-0.1,0.08-0.141,0.099l-0.364,0.295c0.274,0.233,0.543,0.472,0.808,0.716
		l0.991-0.042l-0.404-1.682l0.01-0.002L64.804,31.38z"/>
	<path d="M65.552,34.536l-0.179-0.742l-0.223,0.009c-0.119,0.005-0.209,0.01-0.285,0.014C65.099,34.052,65.329,34.292,65.552,34.536
		z"/>
	<path d="M53.47,17.381l7.672-1.335l-0.555-2.326l0.017-0.004l-0.227-0.943c-1.195-0.38-2.417-0.711-3.659-0.978l0.179-0.335
		l0.938-1.711l0.672-1.282L57.82,9.61l-0.955,1.784l-0.208,0.387c-0.021-0.004-0.041-0.01-0.062-0.015l-2.975,5.372L53.47,17.381z"
		/>
	<path d="M28.585,38.353c1.207-2.02,2.708-3.841,4.451-5.401l-0.564,0.363l-0.082-0.11l-0.188,0.09l0.051,0.079
		c-0.117,0.096-0.341,0.233-0.528,0.348c-0.104,0.063-0.195,0.118-0.239,0.149l-0.032-0.037c-0.019,0.012-0.038,0.023-0.056,0.034
		l0.01,0.032c-0.042,0.017-0.247,0.127-0.533,0.309c-0.215,0.167-0.357,0.264-0.502,0.363c-0.12,0.083-0.242,0.166-0.425,0.304
		c-0.129,0.064-0.188,0.085-0.253,0.085h-0.203l-0.005-0.015l-0.045,0.024l0.102,0.143c-0.085,0.066-0.251,0.169-0.393,0.256
		l-0.016,0.009L29.1,35.401l0.003,0.012l-0.347,0.21l-0.023-0.036c-0.17,0.11-0.364,0.235-0.614,0.395
		c0.084,0.39,0.178,0.833,0.308,1.521l-0.007,0.001L28.585,38.353z"/>
	<path d="M34.078,32.069l-3.103,0.551l-0.001-0.011l-0.055,0.008l-2.818,0.52c-0.189,0.028-0.256,0.033-0.286,0.033l-0.079-0.009
		c0.001,0.004-0.043,0.012-0.167,0.034l0.218,1.128l-0.007,0.001c0.078,0.418,0.142,0.732,0.202,1.016
		c0.033-0.016,0.064-0.03,0.092-0.042l0.021,0.04c0.118-0.072,0.26-0.163,0.431-0.278c0.024-0.016,0.046-0.031,0.066-0.045
		l-0.02-0.032c0.064-0.04,0.11-0.065,0.141-0.081l0.346-0.201l0.035,0.049l0.13-0.084l0.087,0.122l0.104-0.062
		c-0.044-0.203,0.101-0.313,0.803-0.79l0.019,0.022c0.631-0.422,1.223-0.784,1.715-1.042l0.023,0.035h0.227l-0.057-0.077
		l0.234-0.202c0.432-0.276,0.49-0.276,0.557-0.276h0.2l0.065,0.191c0.043,0.133-0.017,0.229-0.078,0.29
		C33.436,32.6,33.751,32.328,34.078,32.069z"/>
</g>
</svg>
